#VRML V2.0 utf8
# Kingbright KPHBM-2012SURKCGKC (2.0 x 1.25 mm, 4 pads), simple model for the KiCad 3D view
Transform { translation 0.00000 0.00000 0.02953 children [ Shape { appearance Appearance { material Material { diffuseColor 0.92 0.90 0.85 specularColor 0.3 0.3 0.3 shininess 0.4 transparency 0.0 } } geometry Box { size 0.49213 0.78740 0.05906 } } ] }
Transform { translation -0.18701 0.35433 0.03150 children [ Shape { appearance Appearance { material Material { diffuseColor 0.85 0.70 0.30 specularColor 0.3 0.3 0.3 shininess 0.4 transparency 0.0 } } geometry Box { size 0.16535 0.13386 0.06496 } } ] }
Transform { translation -0.18701 -0.35433 0.03150 children [ Shape { appearance Appearance { material Material { diffuseColor 0.85 0.70 0.30 specularColor 0.3 0.3 0.3 shininess 0.4 transparency 0.0 } } geometry Box { size 0.16535 0.13386 0.06496 } } ] }
Transform { translation 0.18701 -0.35433 0.03150 children [ Shape { appearance Appearance { material Material { diffuseColor 0.85 0.70 0.30 specularColor 0.3 0.3 0.3 shininess 0.4 transparency 0.0 } } geometry Box { size 0.16535 0.13386 0.06496 } } ] }
Transform { translation 0.18701 0.35433 0.03150 children [ Shape { appearance Appearance { material Material { diffuseColor 0.85 0.70 0.30 specularColor 0.3 0.3 0.3 shininess 0.4 transparency 0.0 } } geometry Box { size 0.16535 0.13386 0.06496 } } ] }
Transform { translation -0.11024 0.00000 0.07480 children [ Shape { appearance Appearance { material Material { diffuseColor 0.95 0.10 0.10 specularColor 0.3 0.3 0.3 shininess 0.4 transparency 0.0 } } geometry Box { size 0.11024 0.11024 0.03150 } } ] }
Transform { translation 0.11024 0.00000 0.07480 children [ Shape { appearance Appearance { material Material { diffuseColor 0.55 0.85 0.15 specularColor 0.3 0.3 0.3 shininess 0.4 transparency 0.0 } } geometry Box { size 0.11024 0.11024 0.03150 } } ] }
Transform { translation 0.00000 -0.24409 0.06102 children [ Shape { appearance Appearance { material Material { diffuseColor 0.08 0.30 0.10 specularColor 0.3 0.3 0.3 shininess 0.4 transparency 0.0 } } geometry Box { size 0.39370 0.07087 0.00787 } } ] }
Transform { translation 0.00000 0.00000 0.11811 children [ Shape { appearance Appearance { material Material { diffuseColor 0.95 0.97 1.0 specularColor 0.3 0.3 0.3 shininess 0.4 transparency 0.55 } } geometry Box { size 0.47244 0.51181 0.11811 } } ] }
