%TF.GenerationSoftware,KiCad,Pcbnew,10.0.1*%
%TF.CreationDate,2026-10-03T15:11:14+02:00*%
%TF.ProjectId,usbc pd airsoft module,75736263-2070-4642-9061-6972736f6674,rev?*%
%TF.SameCoordinates,Original*%
%TF.FileFunction,Profile,NP*%
%FSLAX46Y46*%
G04 Gerber Fmt 4.6, Leading zero omitted, Abs format (unit mm)*
G04 Created by KiCad (PCBNEW 10.0.1) date 2026-10-03 15:11:14*
%MOMM*%
%LPD*%
G01*
G04 APERTURE LIST*
%TA.AperFunction,Profile*%
%ADD10C,0.100000*%
%TD*%
%TA.AperFunction,Profile*%
%ADD11C,0.050000*%
%TD*%
G04 APERTURE END LIST*
D10*
X100000000Y-103000000D02*
G75*
G02*
X103000000Y-100000000I3000000J0D01*
G01*
X100000000Y-118000000D02*
X100000000Y-103000000D01*
D11*
X103000000Y-100000000D02*
X134700000Y-100000000D01*
D10*
X103000000Y-121000000D02*
G75*
G02*
X100000000Y-118000000I0J3000000D01*
G01*
D11*
X103000000Y-121000000D02*
X134700000Y-121000000D01*
X134700000Y-100000000D02*
G75*
G02*
X135200000Y-100500000I0J-500000D01*
G01*
X135200000Y-100500000D02*
X135200000Y-100750000D01*
X135200000Y-120250000D02*
G75*
G02*
X135950000Y-119500000I750000J0D01*
G01*
X135200000Y-120500000D02*
G75*
G02*
X134700000Y-121000000I-500000J0D01*
G01*
X135200000Y-120500000D02*
X135200000Y-120250000D01*
X135950000Y-101500000D02*
G75*
G02*
X135200000Y-100750000I0J750000D01*
G01*
X135950000Y-101500000D02*
X138250000Y-101500000D01*
X135950000Y-119500000D02*
X138250000Y-119500000D01*
X138250000Y-119500000D02*
G75*
G02*
X139000000Y-120250000I0J-750000D01*
G01*
X139000000Y-100500000D02*
X139000000Y-100750000D01*
X139000000Y-100500000D02*
G75*
G02*
X139500000Y-100000000I500000J0D01*
G01*
X139000000Y-100750000D02*
G75*
G02*
X138250000Y-101500000I-750000J0D01*
G01*
X139000000Y-120500000D02*
X139000000Y-120250000D01*
X139500000Y-100000000D02*
X171100000Y-100000000D01*
X139500000Y-121000000D02*
G75*
G02*
X139000000Y-120500000I0J500000D01*
G01*
X139500000Y-121000000D02*
X171100000Y-121000000D01*
X171100000Y-100000000D02*
G75*
G02*
X171600000Y-100500000I0J-500000D01*
G01*
X171600000Y-100500000D02*
X171600000Y-100750000D01*
X171600000Y-120250000D02*
G75*
G02*
X172350000Y-119500000I750000J0D01*
G01*
X171600000Y-120500000D02*
G75*
G02*
X171100000Y-121000000I-500000J0D01*
G01*
X171600000Y-120500000D02*
X171600000Y-120250000D01*
X172350000Y-101500000D02*
G75*
G02*
X171600000Y-100750000I0J750000D01*
G01*
X172350000Y-101500000D02*
X174650000Y-101500000D01*
X172350000Y-119500000D02*
X174650000Y-119500000D01*
X174650000Y-119500000D02*
G75*
G02*
X175400000Y-120250000I0J-750000D01*
G01*
X175400000Y-100500000D02*
X175400000Y-100750000D01*
X175400000Y-100500000D02*
G75*
G02*
X175900000Y-100000000I500000J0D01*
G01*
X175400000Y-100750000D02*
G75*
G02*
X174650000Y-101500000I-750000J0D01*
G01*
X175400000Y-120500000D02*
X175400000Y-120250000D01*
X175900000Y-100000000D02*
X232000000Y-100000000D01*
X175900000Y-121000000D02*
G75*
G02*
X175400000Y-120500000I0J500000D01*
G01*
X175900000Y-121000000D02*
X232000000Y-121000000D01*
D10*
X232000000Y-100000000D02*
G75*
G02*
X235000000Y-103000000I0J-3000000D01*
G01*
X235000000Y-103000000D02*
X235000000Y-118000000D01*
X235000000Y-118000000D02*
G75*
G02*
X232000000Y-121000000I-3000000J0D01*
G01*
M02*
