%TF.GenerationSoftware,KiCad,Pcbnew,10.0.1*%
%TF.CreationDate,2026-10-02T17:31:22+02:00*%
%TF.ProjectId,usbc pd airsoft module,75736263-2070-4642-9061-6972736f6674,rev?*%
%TF.SameCoordinates,Original*%
%TF.FileFunction,Legend,Top*%
%TF.FilePolarity,Positive*%
%FSLAX46Y46*%
G04 Gerber Fmt 4.6, Leading zero omitted, Abs format (unit mm)*
G04 Created by KiCad (PCBNEW 10.0.1) date 2026-10-02 17:31:22*
%MOMM*%
%LPD*%
G01*
G04 APERTURE LIST*
G04 Aperture macros list*
%AMRoundRect*
0 Rectangle with rounded corners*
0 $1 Rounding radius*
0 $2 $3 $4 $5 $6 $7 $8 $9 X,Y pos of 4 corners*
0 Add a 4 corners polygon primitive as box body*
4,1,4,$2,$3,$4,$5,$6,$7,$8,$9,$2,$3,0*
0 Add four circle primitives for the rounded corners*
1,1,$1+$1,$2,$3*
1,1,$1+$1,$4,$5*
1,1,$1+$1,$6,$7*
1,1,$1+$1,$8,$9*
0 Add four rect primitives between the rounded corners*
20,1,$1+$1,$2,$3,$4,$5,0*
20,1,$1+$1,$4,$5,$6,$7,0*
20,1,$1+$1,$6,$7,$8,$9,0*
20,1,$1+$1,$8,$9,$2,$3,0*%
%AMFreePoly0*
4,1,122,0.608000,0.599000,0.610000,0.599000,0.613000,0.598000,0.615000,0.598000,0.618000,0.597000,0.620000,0.596000,0.623000,0.595000,0.625000,0.593000,0.627000,0.592000,0.629000,0.590000,0.631000,0.589000,0.639000,0.581000,0.640000,0.579000,0.642000,0.577000,0.643000,0.575000,0.645000,0.573000,0.646000,0.570000,0.647000,0.568000,0.648000,0.565000,0.648000,0.563000,
0.649000,0.560000,0.649000,0.558000,0.650000,0.555000,0.650000,-0.055000,0.649000,-0.058000,0.649000,-0.060000,0.648000,-0.063000,0.648000,-0.065000,0.647000,-0.068000,0.646000,-0.070000,0.645000,-0.073000,0.643000,-0.075000,0.642000,-0.077000,0.640000,-0.079000,0.639000,-0.081000,0.631000,-0.089000,0.629000,-0.090000,0.627000,-0.092000,0.625000,-0.093000,0.623000,-0.095000,
0.620000,-0.096000,0.618000,-0.097000,0.615000,-0.098000,0.613000,-0.098000,0.610000,-0.099000,0.608000,-0.099000,0.605000,-0.100000,-0.255000,-0.100000,-0.258000,-0.099000,-0.260000,-0.099000,-0.263000,-0.098000,-0.265000,-0.098000,-0.268000,-0.097000,-0.270000,-0.096000,-0.273000,-0.095000,-0.275000,-0.093000,-0.277000,-0.092000,-0.279000,-0.090000,-0.281000,-0.089000,-0.289000,-0.081000,
-0.290000,-0.079000,-0.292000,-0.077000,-0.293000,-0.075000,-0.295000,-0.073000,-0.296000,-0.070000,-0.297000,-0.068000,-0.298000,-0.065000,-0.298000,-0.063000,-0.299000,-0.060000,-0.299000,-0.058000,-0.300000,-0.055000,-0.300000,0.055000,-0.299000,0.058000,-0.299000,0.060000,-0.298000,0.063000,-0.298000,0.065000,-0.297000,0.068000,-0.296000,0.070000,-0.295000,0.073000,-0.293000,0.075000,
-0.292000,0.077000,-0.290000,0.079000,-0.289000,0.081000,-0.281000,0.089000,-0.279000,0.090000,-0.277000,0.092000,-0.275000,0.093000,-0.273000,0.095000,-0.270000,0.096000,-0.268000,0.097000,-0.265000,0.098000,-0.263000,0.098000,-0.260000,0.099000,-0.258000,0.099000,-0.255000,0.100000,0.450000,0.100000,0.450000,0.555000,0.451000,0.558000,0.451000,0.560000,0.452000,0.563000,
0.452000,0.565000,0.453000,0.568000,0.454000,0.570000,0.455000,0.573000,0.457000,0.575000,0.458000,0.577000,0.460000,0.579000,0.461000,0.581000,0.469000,0.589000,0.471000,0.590000,0.473000,0.592000,0.475000,0.593000,0.477000,0.595000,0.480000,0.596000,0.482000,0.597000,0.485000,0.598000,0.487000,0.598000,0.490000,0.599000,0.492000,0.599000,0.495000,0.600000,
0.605000,0.600000,0.608000,0.599000,0.608000,0.599000,$1*%
%AMFreePoly1*
4,1,122,0.058000,0.349000,0.060000,0.349000,0.063000,0.348000,0.065000,0.348000,0.068000,0.347000,0.070000,0.346000,0.073000,0.345000,0.075000,0.343000,0.077000,0.342000,0.079000,0.340000,0.081000,0.339000,0.089000,0.331000,0.090000,0.329000,0.092000,0.327000,0.093000,0.325000,0.095000,0.323000,0.096000,0.320000,0.097000,0.318000,0.098000,0.315000,0.098000,0.313000,
0.099000,0.310000,0.099000,0.308000,0.100000,0.305000,0.100000,-0.305000,0.099000,-0.308000,0.099000,-0.310000,0.098000,-0.313000,0.098000,-0.315000,0.097000,-0.318000,0.096000,-0.320000,0.095000,-0.323000,0.093000,-0.325000,0.092000,-0.327000,0.090000,-0.329000,0.089000,-0.331000,0.081000,-0.339000,0.079000,-0.340000,0.077000,-0.342000,0.075000,-0.343000,0.073000,-0.345000,
0.070000,-0.346000,0.068000,-0.347000,0.065000,-0.348000,0.063000,-0.348000,0.060000,-0.349000,0.058000,-0.349000,0.055000,-0.350000,-0.055000,-0.350000,-0.058000,-0.349000,-0.060000,-0.349000,-0.063000,-0.348000,-0.065000,-0.348000,-0.068000,-0.347000,-0.070000,-0.346000,-0.073000,-0.345000,-0.075000,-0.343000,-0.077000,-0.342000,-0.079000,-0.340000,-0.081000,-0.339000,-0.089000,-0.331000,
-0.090000,-0.329000,-0.092000,-0.327000,-0.093000,-0.325000,-0.095000,-0.323000,-0.096000,-0.320000,-0.097000,-0.318000,-0.098000,-0.315000,-0.098000,-0.313000,-0.099000,-0.310000,-0.099000,-0.308000,-0.100000,-0.305000,-0.100000,0.150000,-0.755000,0.150000,-0.758000,0.151000,-0.760000,0.151000,-0.763000,0.152000,-0.765000,0.152000,-0.768000,0.153000,-0.770000,0.154000,-0.773000,0.155000,
-0.775000,0.157000,-0.777000,0.158000,-0.779000,0.160000,-0.781000,0.161000,-0.789000,0.169000,-0.790000,0.171000,-0.792000,0.173000,-0.793000,0.175000,-0.795000,0.177000,-0.796000,0.180000,-0.797000,0.182000,-0.798000,0.185000,-0.798000,0.187000,-0.799000,0.190000,-0.799000,0.192000,-0.800000,0.195000,-0.800000,0.305000,-0.799000,0.308000,-0.799000,0.310000,-0.798000,0.313000,
-0.798000,0.315000,-0.797000,0.318000,-0.796000,0.320000,-0.795000,0.323000,-0.793000,0.325000,-0.792000,0.327000,-0.790000,0.329000,-0.789000,0.331000,-0.781000,0.339000,-0.779000,0.340000,-0.777000,0.342000,-0.775000,0.343000,-0.773000,0.345000,-0.770000,0.346000,-0.768000,0.347000,-0.765000,0.348000,-0.763000,0.348000,-0.760000,0.349000,-0.758000,0.349000,-0.755000,0.350000,
0.055000,0.350000,0.058000,0.349000,0.058000,0.349000,$1*%
%AMFreePoly2*
4,1,122,0.308000,0.099000,0.310000,0.099000,0.313000,0.098000,0.315000,0.098000,0.318000,0.097000,0.320000,0.096000,0.323000,0.095000,0.325000,0.093000,0.327000,0.092000,0.329000,0.090000,0.331000,0.089000,0.339000,0.081000,0.340000,0.079000,0.342000,0.077000,0.343000,0.075000,0.345000,0.073000,0.346000,0.070000,0.347000,0.068000,0.348000,0.065000,0.348000,0.063000,
0.349000,0.060000,0.349000,0.058000,0.350000,0.055000,0.350000,-0.055000,0.349000,-0.058000,0.349000,-0.060000,0.348000,-0.063000,0.348000,-0.065000,0.347000,-0.068000,0.346000,-0.070000,0.345000,-0.073000,0.343000,-0.075000,0.342000,-0.077000,0.340000,-0.079000,0.339000,-0.081000,0.331000,-0.089000,0.329000,-0.090000,0.327000,-0.092000,0.325000,-0.093000,0.323000,-0.095000,
0.320000,-0.096000,0.318000,-0.097000,0.315000,-0.098000,0.313000,-0.098000,0.310000,-0.099000,0.308000,-0.099000,0.305000,-0.100000,-0.350000,-0.100000,-0.350000,-0.555000,-0.351000,-0.558000,-0.351000,-0.560000,-0.352000,-0.563000,-0.352000,-0.565000,-0.353000,-0.568000,-0.354000,-0.570000,-0.355000,-0.573000,-0.357000,-0.575000,-0.358000,-0.577000,-0.360000,-0.579000,-0.361000,-0.581000,
-0.369000,-0.589000,-0.371000,-0.590000,-0.373000,-0.592000,-0.375000,-0.593000,-0.377000,-0.595000,-0.380000,-0.596000,-0.382000,-0.597000,-0.385000,-0.598000,-0.387000,-0.598000,-0.390000,-0.599000,-0.392000,-0.599000,-0.395000,-0.600000,-0.505000,-0.600000,-0.508000,-0.599000,-0.510000,-0.599000,-0.513000,-0.598000,-0.515000,-0.598000,-0.518000,-0.597000,-0.520000,-0.596000,-0.523000,-0.595000,
-0.525000,-0.593000,-0.527000,-0.592000,-0.529000,-0.590000,-0.531000,-0.589000,-0.539000,-0.581000,-0.540000,-0.579000,-0.542000,-0.577000,-0.543000,-0.575000,-0.545000,-0.573000,-0.546000,-0.570000,-0.547000,-0.568000,-0.548000,-0.565000,-0.548000,-0.563000,-0.549000,-0.560000,-0.549000,-0.558000,-0.550000,-0.555000,-0.550000,0.055000,-0.549000,0.058000,-0.549000,0.060000,-0.548000,0.063000,
-0.548000,0.065000,-0.547000,0.068000,-0.546000,0.070000,-0.545000,0.073000,-0.543000,0.075000,-0.542000,0.077000,-0.540000,0.079000,-0.539000,0.081000,-0.531000,0.089000,-0.529000,0.090000,-0.527000,0.092000,-0.525000,0.093000,-0.523000,0.095000,-0.520000,0.096000,-0.518000,0.097000,-0.515000,0.098000,-0.513000,0.098000,-0.510000,0.099000,-0.508000,0.099000,-0.505000,0.100000,
0.305000,0.100000,0.308000,0.099000,0.308000,0.099000,$1*%
%AMFreePoly3*
4,1,122,-0.454500,0.599000,-0.452500,0.599000,-0.449500,0.598000,-0.447500,0.598000,-0.444500,0.597000,-0.442500,0.596000,-0.439500,0.595000,-0.437500,0.593000,-0.435500,0.592000,-0.433500,0.590000,-0.431500,0.589000,-0.423500,0.581000,-0.422500,0.579000,-0.420500,0.577000,-0.419500,0.575000,-0.417500,0.573000,-0.416500,0.570000,-0.415500,0.568000,-0.414500,0.565000,-0.414500,0.563000,
-0.413500,0.560000,-0.413500,0.558000,-0.412500,0.555000,-0.412500,0.100000,0.292500,0.100000,0.295500,0.099000,0.297500,0.099000,0.300500,0.098000,0.302500,0.098000,0.305500,0.097000,0.307500,0.096000,0.310500,0.095000,0.312500,0.093000,0.314500,0.092000,0.316500,0.090000,0.318500,0.089000,0.326500,0.081000,0.327500,0.079000,0.329500,0.077000,0.330500,0.075000,
0.332500,0.073000,0.333500,0.070000,0.334500,0.068000,0.335500,0.065000,0.335500,0.063000,0.336500,0.060000,0.336500,0.058000,0.337500,0.055000,0.337500,-0.055000,0.336500,-0.058000,0.336500,-0.060000,0.335500,-0.063000,0.335500,-0.065000,0.334500,-0.068000,0.333500,-0.070000,0.332500,-0.073000,0.330500,-0.075000,0.329500,-0.077000,0.327500,-0.079000,0.326500,-0.081000,
0.318500,-0.089000,0.316500,-0.090000,0.314500,-0.092000,0.312500,-0.093000,0.310500,-0.095000,0.307500,-0.096000,0.305500,-0.097000,0.302500,-0.098000,0.300500,-0.098000,0.297500,-0.099000,0.295500,-0.099000,0.292500,-0.100000,-0.567500,-0.100000,-0.570500,-0.099000,-0.572500,-0.099000,-0.575500,-0.098000,-0.577500,-0.098000,-0.580500,-0.097000,-0.582500,-0.096000,-0.585500,-0.095000,
-0.587500,-0.093000,-0.589500,-0.092000,-0.591500,-0.090000,-0.593500,-0.089000,-0.601500,-0.081000,-0.602500,-0.079000,-0.604500,-0.077000,-0.605500,-0.075000,-0.607500,-0.073000,-0.608500,-0.070000,-0.609500,-0.068000,-0.610500,-0.065000,-0.610500,-0.063000,-0.611500,-0.060000,-0.611500,-0.058000,-0.612500,-0.055000,-0.612500,0.555000,-0.611500,0.558000,-0.611500,0.560000,-0.610500,0.563000,
-0.610500,0.565000,-0.609500,0.568000,-0.608500,0.570000,-0.607500,0.573000,-0.605500,0.575000,-0.604500,0.577000,-0.602500,0.579000,-0.601500,0.581000,-0.593500,0.589000,-0.591500,0.590000,-0.589500,0.592000,-0.587500,0.593000,-0.585500,0.595000,-0.582500,0.596000,-0.580500,0.597000,-0.577500,0.598000,-0.575500,0.598000,-0.572500,0.599000,-0.570500,0.599000,-0.567500,0.600000,
-0.457500,0.600000,-0.454500,0.599000,-0.454500,0.599000,$1*%
%AMFreePoly4*
4,1,23,0.500000,-0.750000,0.000000,-0.750000,0.000000,-0.745722,-0.065263,-0.745722,-0.191342,-0.711940,-0.304381,-0.646677,-0.396677,-0.554381,-0.461940,-0.441342,-0.495722,-0.315263,-0.495722,-0.250000,-0.500000,-0.250000,-0.500000,0.250000,-0.495722,0.250000,-0.495722,0.315263,-0.461940,0.441342,-0.396677,0.554381,-0.304381,0.646677,-0.191342,0.711940,-0.065263,0.745722,0.000000,0.745722,
0.000000,0.750000,0.500000,0.750000,0.500000,-0.750000,0.500000,-0.750000,$1*%
%AMFreePoly5*
4,1,23,0.000000,0.745722,0.065263,0.745722,0.191342,0.711940,0.304381,0.646677,0.396677,0.554381,0.461940,0.441342,0.495722,0.315263,0.495722,0.250000,0.500000,0.250000,0.500000,-0.250000,0.495722,-0.250000,0.495722,-0.315263,0.461940,-0.441342,0.396677,-0.554381,0.304381,-0.646677,0.191342,-0.711940,0.065263,-0.745722,0.000000,-0.745722,0.000000,-0.750000,-0.500000,-0.750000,
-0.500000,0.750000,0.000000,0.750000,0.000000,0.745722,0.000000,0.745722,$1*%
G04 Aperture macros list end*
%ADD10C,0.120000*%
%ADD11RoundRect,0.200000X0.200000X0.275000X-0.200000X0.275000X-0.200000X-0.275000X0.200000X-0.275000X0*%
%ADD12RoundRect,0.140000X-0.170000X0.140000X-0.170000X-0.140000X0.170000X-0.140000X0.170000X0.140000X0*%
%ADD13RoundRect,0.135000X-0.135000X-0.185000X0.135000X-0.185000X0.135000X0.185000X-0.135000X0.185000X0*%
%ADD14RoundRect,0.135000X0.135000X0.185000X-0.135000X0.185000X-0.135000X-0.185000X0.135000X-0.185000X0*%
%ADD15RoundRect,0.250000X0.250000X0.475000X-0.250000X0.475000X-0.250000X-0.475000X0.250000X-0.475000X0*%
%ADD16RoundRect,0.250000X0.625000X-0.312500X0.625000X0.312500X-0.625000X0.312500X-0.625000X-0.312500X0*%
%ADD17RoundRect,0.250000X0.475000X-0.250000X0.475000X0.250000X-0.475000X0.250000X-0.475000X-0.250000X0*%
%ADD18RoundRect,0.100000X-0.637500X-0.100000X0.637500X-0.100000X0.637500X0.100000X-0.637500X0.100000X0*%
%ADD19RoundRect,0.140000X0.170000X-0.140000X0.170000X0.140000X-0.170000X0.140000X-0.170000X-0.140000X0*%
%ADD20RoundRect,0.150000X-0.587500X-0.150000X0.587500X-0.150000X0.587500X0.150000X-0.587500X0.150000X0*%
%ADD21FreePoly0,0.000000*%
%ADD22RoundRect,0.050000X-0.250000X-0.050000X0.250000X-0.050000X0.250000X0.050000X-0.250000X0.050000X0*%
%ADD23FreePoly1,0.000000*%
%ADD24RoundRect,0.050000X-0.050000X-0.250000X0.050000X-0.250000X0.050000X0.250000X-0.050000X0.250000X0*%
%ADD25FreePoly2,0.000000*%
%ADD26RoundRect,0.050000X-0.300000X-0.050000X0.300000X-0.050000X0.300000X0.050000X-0.300000X0.050000X0*%
%ADD27RoundRect,0.050000X-0.275000X-0.050000X0.275000X-0.050000X0.275000X0.050000X-0.275000X0.050000X0*%
%ADD28RoundRect,0.050000X-0.290000X-0.050000X0.290000X-0.050000X0.290000X0.050000X-0.290000X0.050000X0*%
%ADD29FreePoly3,0.000000*%
%ADD30RoundRect,0.050000X-0.050000X-0.450000X0.050000X-0.450000X0.050000X0.450000X-0.050000X0.450000X0*%
%ADD31RoundRect,0.050000X-0.050000X-0.425000X0.050000X-0.425000X0.050000X0.425000X-0.050000X0.425000X0*%
%ADD32RoundRect,0.135000X-0.185000X0.135000X-0.185000X-0.135000X0.185000X-0.135000X0.185000X0.135000X0*%
%ADD33C,1.000000*%
%ADD34RoundRect,0.225000X-0.250000X0.225000X-0.250000X-0.225000X0.250000X-0.225000X0.250000X0.225000X0*%
%ADD35RoundRect,0.150000X0.587500X0.150000X-0.587500X0.150000X-0.587500X-0.150000X0.587500X-0.150000X0*%
%ADD36RoundRect,0.135000X0.185000X-0.135000X0.185000X0.135000X-0.185000X0.135000X-0.185000X-0.135000X0*%
%ADD37RoundRect,0.250000X-0.475000X0.250000X-0.475000X-0.250000X0.475000X-0.250000X0.475000X0.250000X0*%
%ADD38C,2.200000*%
%ADD39RoundRect,0.245000X-0.245000X-1.455000X0.245000X-1.455000X0.245000X1.455000X-0.245000X1.455000X0*%
%ADD40C,1.700000*%
%ADD41RoundRect,0.100000X0.100000X-0.637500X0.100000X0.637500X-0.100000X0.637500X-0.100000X-0.637500X0*%
%ADD42RoundRect,0.140000X-0.140000X-0.170000X0.140000X-0.170000X0.140000X0.170000X-0.140000X0.170000X0*%
%ADD43RoundRect,0.140000X0.140000X0.170000X-0.140000X0.170000X-0.140000X-0.170000X0.140000X-0.170000X0*%
%ADD44RoundRect,0.112500X0.350000X0.112500X-0.350000X0.112500X-0.350000X-0.112500X0.350000X-0.112500X0*%
%ADD45RoundRect,0.218750X0.218750X0.256250X-0.218750X0.256250X-0.218750X-0.256250X0.218750X-0.256250X0*%
%ADD46RoundRect,0.250000X-0.250000X-0.475000X0.250000X-0.475000X0.250000X0.475000X-0.250000X0.475000X0*%
%ADD47RoundRect,0.250000X0.375000X0.625000X-0.375000X0.625000X-0.375000X-0.625000X0.375000X-0.625000X0*%
%ADD48RoundRect,0.150000X-0.150000X0.587500X-0.150000X-0.587500X0.150000X-0.587500X0.150000X0.587500X0*%
%ADD49C,0.650000*%
%ADD50RoundRect,0.150000X-0.575000X0.150000X-0.575000X-0.150000X0.575000X-0.150000X0.575000X0.150000X0*%
%ADD51RoundRect,0.075000X-0.650000X0.075000X-0.650000X-0.075000X0.650000X-0.075000X0.650000X0.075000X0*%
%ADD52O,2.100000X1.000000*%
%ADD53O,1.600000X1.000000*%
%ADD54FreePoly4,90.000000*%
%ADD55FreePoly5,90.000000*%
%ADD56RoundRect,0.218750X-0.218750X-0.256250X0.218750X-0.256250X0.218750X0.256250X-0.218750X0.256250X0*%
%ADD57RoundRect,0.250000X0.450000X-0.400000X0.450000X0.400000X-0.450000X0.400000X-0.450000X-0.400000X0*%
%ADD58RoundRect,0.150000X-0.687500X-0.150000X0.687500X-0.150000X0.687500X0.150000X-0.687500X0.150000X0*%
%ADD59R,2.100000X3.300000*%
%ADD60RoundRect,0.250000X2.000000X-0.400000X2.000000X0.400000X-2.000000X0.400000X-2.000000X-0.400000X0*%
%ADD61RoundRect,0.250000X1.700000X-0.650000X1.700000X0.650000X-1.700000X0.650000X-1.700000X-0.650000X0*%
G04 APERTURE END LIST*
%TO.C,R16*%
D10*
X201737258Y-107477500D02*
X201262742Y-107477500D01*
X201737258Y-108522500D02*
X201262742Y-108522500D01*
%TO.C,C33*%
X140940000Y-109492164D02*
X140940000Y-109707836D01*
X141660000Y-109492164D02*
X141660000Y-109707836D01*
%TO.C,R26*%
X134846359Y-101470000D02*
X135153641Y-101470000D01*
X134846359Y-102230000D02*
X135153641Y-102230000D01*
%TO.C,R6*%
X165453641Y-115570000D02*
X165146359Y-115570000D01*
X165453641Y-116330000D02*
X165146359Y-116330000D01*
%TO.C,C3*%
X156411252Y-114315000D02*
X155888748Y-114315000D01*
X156411252Y-115785000D02*
X155888748Y-115785000D01*
%TO.C,R1*%
X110390000Y-108427064D02*
X110390000Y-106972936D01*
X112210000Y-108427064D02*
X112210000Y-106972936D01*
%TO.C,C15*%
X175065000Y-107661252D02*
X175065000Y-107138748D01*
X176535000Y-107661252D02*
X176535000Y-107138748D01*
%TO.C,U4*%
X189690000Y-107215000D02*
X194310000Y-107215000D01*
X194310000Y-113985000D02*
X189690000Y-113985000D01*
X188140000Y-107670000D02*
X187810000Y-107910000D01*
X187810000Y-107430000D01*
X188140000Y-107670000D01*
G36*
X188140000Y-107670000D02*
G01*
X187810000Y-107910000D01*
X187810000Y-107430000D01*
X188140000Y-107670000D01*
G37*
%TO.C,C32*%
X127315000Y-113992164D02*
X127315000Y-114207836D01*
X128035000Y-113992164D02*
X128035000Y-114207836D01*
%TO.C,R24*%
X183753641Y-112620000D02*
X183446359Y-112620000D01*
X183753641Y-113380000D02*
X183446359Y-113380000D01*
%TO.C,C10*%
X161740000Y-109007836D02*
X161740000Y-108792164D01*
X162460000Y-109007836D02*
X162460000Y-108792164D01*
%TO.C,Q1*%
X160640000Y-116640000D02*
X162160000Y-116640000D01*
X160640000Y-116690000D02*
X160640000Y-116640000D01*
X160640000Y-118590000D02*
X160640000Y-117810000D01*
X160640000Y-119760000D02*
X160640000Y-119710000D01*
X162160000Y-116640000D02*
X162160000Y-117640000D01*
X162160000Y-118760000D02*
X162160000Y-119760000D01*
X162160000Y-119760000D02*
X160640000Y-119760000D01*
X160340000Y-118150000D02*
X159860000Y-118150000D01*
X160100000Y-117820000D01*
X160340000Y-118150000D01*
G36*
X160340000Y-118150000D02*
G01*
X159860000Y-118150000D01*
X160100000Y-117820000D01*
X160340000Y-118150000D01*
G37*
%TO.C,C25*%
X198040000Y-108957836D02*
X198040000Y-108742164D01*
X198760000Y-108957836D02*
X198760000Y-108742164D01*
%TO.C,U3*%
X160890000Y-110290000D02*
X161290000Y-110290000D01*
X160890000Y-110440000D02*
X160890000Y-110290000D01*
X160890000Y-114360000D02*
X160890000Y-114510000D01*
X160890000Y-114510000D02*
X161240000Y-114510000D01*
X165110000Y-110290000D02*
X164710000Y-110290000D01*
X165110000Y-110440000D02*
X165110000Y-110290000D01*
X165110000Y-114360000D02*
X165110000Y-114510000D01*
X165110000Y-114510000D02*
X164760000Y-114510000D01*
X160538427Y-110801875D02*
X160208427Y-111041875D01*
X160208427Y-110561875D01*
X160538427Y-110801875D01*
G36*
X160538427Y-110801875D02*
G01*
X160208427Y-111041875D01*
X160208427Y-110561875D01*
X160538427Y-110801875D01*
G37*
%TO.C,R7*%
X164440000Y-117246359D02*
X164440000Y-117553641D01*
X165200000Y-117246359D02*
X165200000Y-117553641D01*
%TO.C,TP9*%
X115200000Y-119300000D02*
G75*
G02*
X113800000Y-119300000I-700000J0D01*
G01*
X113800000Y-119300000D02*
G75*
G02*
X115200000Y-119300000I700000J0D01*
G01*
%TO.C,C7*%
X153665000Y-107661252D02*
X153665000Y-107138748D01*
X155135000Y-107661252D02*
X155135000Y-107138748D01*
%TO.C,R10*%
X162246359Y-115170000D02*
X162553641Y-115170000D01*
X162246359Y-115930000D02*
X162553641Y-115930000D01*
%TO.C,C30*%
X142090000Y-109459420D02*
X142090000Y-109740580D01*
X143110000Y-109459420D02*
X143110000Y-109740580D01*
%TO.C,D3*%
X148240000Y-105840000D02*
X149760000Y-105840000D01*
X148240000Y-106840000D02*
X148240000Y-105840000D01*
X148240000Y-108960000D02*
X148240000Y-107960000D01*
X149760000Y-105840000D02*
X149760000Y-105890000D01*
X149760000Y-107010000D02*
X149760000Y-107790000D01*
X149760000Y-108910000D02*
X149760000Y-108960000D01*
X149760000Y-108960000D02*
X148240000Y-108960000D01*
X150300000Y-107780000D02*
X150060000Y-107450000D01*
X150540000Y-107450000D01*
X150300000Y-107780000D01*
G36*
X150300000Y-107780000D02*
G01*
X150060000Y-107450000D01*
X150540000Y-107450000D01*
X150300000Y-107780000D01*
G37*
%TO.C,R22*%
X132620000Y-104753641D02*
X132620000Y-104446359D01*
X133380000Y-104753641D02*
X133380000Y-104446359D01*
%TO.C,TH2*%
X185020000Y-118446359D02*
X185020000Y-118753641D01*
X185780000Y-118446359D02*
X185780000Y-118753641D01*
%TO.C,C11*%
X165865000Y-107661252D02*
X165865000Y-107138748D01*
X167335000Y-107661252D02*
X167335000Y-107138748D01*
%TO.C,C27*%
X186040000Y-116892164D02*
X186040000Y-117107836D01*
X186760000Y-116892164D02*
X186760000Y-117107836D01*
%TO.C,TP10*%
X190700000Y-101300000D02*
G75*
G02*
X189300000Y-101300000I-700000J0D01*
G01*
X189300000Y-101300000D02*
G75*
G02*
X190700000Y-101300000I700000J0D01*
G01*
%TO.C,C29*%
X147665000Y-110938748D02*
X147665000Y-111461252D01*
X149135000Y-110938748D02*
X149135000Y-111461252D01*
%TO.C,R19*%
X144453641Y-105820000D02*
X144146359Y-105820000D01*
X144453641Y-106580000D02*
X144146359Y-106580000D01*
%TO.C,C8*%
X155965000Y-107661252D02*
X155965000Y-107138748D01*
X157435000Y-107661252D02*
X157435000Y-107138748D01*
%TO.C,C2*%
X156411252Y-112265000D02*
X155888748Y-112265000D01*
X156411252Y-113735000D02*
X155888748Y-113735000D01*
%TO.C,R9*%
X171620000Y-115353641D02*
X171620000Y-115046359D01*
X172380000Y-115353641D02*
X172380000Y-115046359D01*
%TO.C,L1*%
X160740000Y-102640000D02*
X165260000Y-102640000D01*
X160740000Y-107160000D02*
X160740000Y-102640000D01*
X165260000Y-102640000D02*
X165260000Y-107160000D01*
X165260000Y-107160000D02*
X160740000Y-107160000D01*
%TO.C,R11*%
X128595000Y-112753641D02*
X128595000Y-112446359D01*
X129355000Y-112753641D02*
X129355000Y-112446359D01*
%TO.C,R4*%
X167320000Y-115246359D02*
X167320000Y-115553641D01*
X168080000Y-115246359D02*
X168080000Y-115553641D01*
%TO.C,R13*%
X201737258Y-112577500D02*
X201262742Y-112577500D01*
X201737258Y-113622500D02*
X201262742Y-113622500D01*
%TO.C,U6*%
X124615000Y-108910000D02*
X124615000Y-104290000D01*
X131385000Y-104290000D02*
X131385000Y-108910000D01*
X125310000Y-110790000D02*
X124830000Y-110790000D01*
X125070000Y-110460000D01*
X125310000Y-110790000D01*
G36*
X125310000Y-110790000D02*
G01*
X124830000Y-110790000D01*
X125070000Y-110460000D01*
X125310000Y-110790000D01*
G37*
%TO.C,C20*%
X166292164Y-110190000D02*
X166507836Y-110190000D01*
X166292164Y-110910000D02*
X166507836Y-110910000D01*
%TO.C,TH1*%
X166220000Y-117246359D02*
X166220000Y-117553641D01*
X166980000Y-117246359D02*
X166980000Y-117553641D01*
%TO.C,C4*%
X159607836Y-110940000D02*
X159392164Y-110940000D01*
X159607836Y-111660000D02*
X159392164Y-111660000D01*
%TO.C,Q2*%
X146240000Y-102340000D02*
X147760000Y-102340000D01*
X146240000Y-102390000D02*
X146240000Y-102340000D01*
X146240000Y-104290000D02*
X146240000Y-103510000D01*
X146240000Y-105460000D02*
X146240000Y-105410000D01*
X147760000Y-102340000D02*
X147760000Y-103340000D01*
X147760000Y-104460000D02*
X147760000Y-105460000D01*
X147760000Y-105460000D02*
X146240000Y-105460000D01*
X145940000Y-103850000D02*
X145460000Y-103850000D01*
X145700000Y-103520000D01*
X145940000Y-103850000D01*
G36*
X145940000Y-103850000D02*
G01*
X145460000Y-103850000D01*
X145700000Y-103520000D01*
X145940000Y-103850000D01*
G37*
%TO.C,C9*%
X158265000Y-107661252D02*
X158265000Y-107138748D01*
X159735000Y-107661252D02*
X159735000Y-107138748D01*
%TO.C,U2*%
X111665000Y-100965000D02*
X113135000Y-100965000D01*
X111665000Y-101615000D02*
X111665000Y-100965000D01*
X111665000Y-103235000D02*
X111665000Y-102585000D01*
X113135000Y-101935000D02*
X113135000Y-102265000D01*
X113135000Y-103235000D02*
X111665000Y-103235000D01*
X113580000Y-102260000D02*
X113440000Y-102070000D01*
X113720000Y-102070000D01*
X113580000Y-102260000D01*
G36*
X113580000Y-102260000D02*
G01*
X113440000Y-102070000D01*
X113720000Y-102070000D01*
X113580000Y-102260000D01*
G37*
%TO.C,D4*%
X136800000Y-102585000D02*
X139085000Y-102585000D01*
X139085000Y-101115000D02*
X136800000Y-101115000D01*
X139085000Y-102585000D02*
X139085000Y-101115000D01*
%TO.C,R23*%
X134446359Y-103020000D02*
X134753641Y-103020000D01*
X134446359Y-103780000D02*
X134753641Y-103780000D01*
%TO.C,C35*%
X134492164Y-104240000D02*
X134707836Y-104240000D01*
X134492164Y-104960000D02*
X134707836Y-104960000D01*
%TO.C,C23*%
X198040000Y-112357836D02*
X198040000Y-112142164D01*
X198760000Y-112357836D02*
X198760000Y-112142164D01*
%TO.C,C31*%
X127315000Y-101707836D02*
X127315000Y-101492164D01*
X128035000Y-101707836D02*
X128035000Y-101492164D01*
%TO.C,C12*%
X168165000Y-107661252D02*
X168165000Y-107138748D01*
X169635000Y-107661252D02*
X169635000Y-107138748D01*
%TO.C,C17*%
X178738748Y-102665000D02*
X179261252Y-102665000D01*
X178738748Y-104135000D02*
X179261252Y-104135000D01*
%TO.C,C22*%
X188390000Y-116259420D02*
X188390000Y-116540580D01*
X189410000Y-116259420D02*
X189410000Y-116540580D01*
%TO.C,F1*%
X205602064Y-101390000D02*
X204397936Y-101390000D01*
X205602064Y-103210000D02*
X204397936Y-103210000D01*
%TO.C,C16*%
X163540000Y-109007836D02*
X163540000Y-108792164D01*
X164260000Y-109007836D02*
X164260000Y-108792164D01*
%TO.C,R17*%
X183746359Y-117520000D02*
X184053641Y-117520000D01*
X183746359Y-118280000D02*
X184053641Y-118280000D01*
%TO.C,C13*%
X170465000Y-107661252D02*
X170465000Y-107138748D01*
X171935000Y-107661252D02*
X171935000Y-107138748D01*
%TO.C,U5*%
X143940000Y-108440000D02*
X143990000Y-108440000D01*
X143940000Y-109960000D02*
X143940000Y-108440000D01*
X144940000Y-109960000D02*
X143940000Y-109960000D01*
X145110000Y-108440000D02*
X145890000Y-108440000D01*
X147010000Y-108440000D02*
X147060000Y-108440000D01*
X147060000Y-108440000D02*
X147060000Y-109960000D01*
X147060000Y-109960000D02*
X146060000Y-109960000D01*
X145880000Y-107900000D02*
X145550000Y-108140000D01*
X145550000Y-107660000D01*
X145880000Y-107900000D01*
G36*
X145880000Y-107900000D02*
G01*
X145550000Y-108140000D01*
X145550000Y-107660000D01*
X145880000Y-107900000D01*
G37*
%TO.C,J1*%
X98490000Y-105800000D02*
X98490000Y-115200000D01*
X100390000Y-105800000D02*
X98490000Y-105800000D01*
X100390000Y-115200000D02*
X98490000Y-115200000D01*
X104290000Y-105800000D02*
X102290000Y-105800000D01*
X104290000Y-115200000D02*
X102290000Y-115200000D01*
%TO.C,TP11*%
X181900000Y-114600000D02*
G75*
G02*
X180500000Y-114600000I-700000J0D01*
G01*
X180500000Y-114600000D02*
G75*
G02*
X181900000Y-114600000I700000J0D01*
G01*
%TO.C,R14*%
X201737258Y-110877500D02*
X201262742Y-110877500D01*
X201737258Y-111922500D02*
X201262742Y-111922500D01*
%TO.C,C24*%
X196840000Y-110657836D02*
X196840000Y-110442164D01*
X197560000Y-110657836D02*
X197560000Y-110442164D01*
%TO.C,R18*%
X193153641Y-105520000D02*
X192846359Y-105520000D01*
X193153641Y-106280000D02*
X192846359Y-106280000D01*
%TO.C,C1*%
X111740000Y-104407836D02*
X111740000Y-104192164D01*
X112460000Y-104407836D02*
X112460000Y-104192164D01*
%TO.C,JP1*%
X121300000Y-115300000D02*
X121300000Y-113900000D01*
X122000000Y-113200000D02*
X122600000Y-113200000D01*
X122600000Y-116000000D02*
X122000000Y-116000000D01*
X123300000Y-113900000D02*
X123300000Y-115300000D01*
X121300000Y-113900000D02*
G75*
G02*
X122000000Y-113200000I700000J0D01*
G01*
X122000000Y-116000000D02*
G75*
G02*
X121300000Y-115300000I-1J699999D01*
G01*
X122600000Y-113200000D02*
G75*
G02*
X123300000Y-113900000I0J-700000D01*
G01*
X123300000Y-115300000D02*
G75*
G02*
X122600000Y-116000000I-699999J-1D01*
G01*
%TO.C,R21*%
X124020000Y-114046359D02*
X124020000Y-114353641D01*
X124780000Y-114046359D02*
X124780000Y-114353641D01*
%TO.C,C26*%
X196840000Y-107257836D02*
X196840000Y-107042164D01*
X197560000Y-107257836D02*
X197560000Y-107042164D01*
%TO.C,R2*%
X121320000Y-107246359D02*
X121320000Y-107553641D01*
X122080000Y-107246359D02*
X122080000Y-107553641D01*
%TO.C,C21*%
X189965000Y-116638748D02*
X189965000Y-117161252D01*
X191435000Y-116638748D02*
X191435000Y-117161252D01*
%TO.C,C28*%
X187040000Y-115392164D02*
X187040000Y-115607836D01*
X187760000Y-115392164D02*
X187760000Y-115607836D01*
%TO.C,C34*%
X126665000Y-111392164D02*
X126665000Y-111607836D01*
X127385000Y-111392164D02*
X127385000Y-111607836D01*
%TO.C,C14*%
X172765000Y-107661252D02*
X172765000Y-107138748D01*
X174235000Y-107661252D02*
X174235000Y-107138748D01*
%TO.C,R20*%
X139220000Y-103946359D02*
X139220000Y-104253641D01*
X139980000Y-103946359D02*
X139980000Y-104253641D01*
%TO.C,R15*%
X201737258Y-109177500D02*
X201262742Y-109177500D01*
X201737258Y-110222500D02*
X201262742Y-110222500D01*
%TO.C,TP12*%
X184000000Y-114700000D02*
G75*
G02*
X182600000Y-114700000I-700000J0D01*
G01*
X182600000Y-114700000D02*
G75*
G02*
X184000000Y-114700000I700000J0D01*
G01*
%TO.C,Q3*%
X141240000Y-102340000D02*
X142760000Y-102340000D01*
X141240000Y-102390000D02*
X141240000Y-102340000D01*
X141240000Y-104290000D02*
X141240000Y-103510000D01*
X141240000Y-105460000D02*
X141240000Y-105410000D01*
X142760000Y-102340000D02*
X142760000Y-103340000D01*
X142760000Y-104460000D02*
X142760000Y-105460000D01*
X142760000Y-105460000D02*
X141240000Y-105460000D01*
X140940000Y-103850000D02*
X140460000Y-103850000D01*
X140700000Y-103520000D01*
X140940000Y-103850000D01*
G36*
X140940000Y-103850000D02*
G01*
X140460000Y-103850000D01*
X140700000Y-103520000D01*
X140940000Y-103850000D01*
G37*
%TO.C,R3*%
X122220000Y-104446359D02*
X122220000Y-104753641D01*
X122980000Y-104446359D02*
X122980000Y-104753641D01*
%TO.C,D2*%
X152115000Y-110465000D02*
X152115000Y-111935000D01*
X152115000Y-111935000D02*
X154400000Y-111935000D01*
X154400000Y-110465000D02*
X152115000Y-110465000D01*
%TO.C,R8*%
X152846359Y-112520000D02*
X153153641Y-112520000D01*
X152846359Y-113280000D02*
X153153641Y-113280000D01*
%TO.C,D1*%
X109290000Y-119760000D02*
X109290000Y-116000000D01*
X109290000Y-119760000D02*
X111310000Y-119760000D01*
X111310000Y-119760000D02*
X111310000Y-116000000D01*
%TO.C,U1*%
X114440000Y-105440000D02*
X118560000Y-105440000D01*
X118560000Y-110560000D02*
X114440000Y-110560000D01*
X112760000Y-106000000D02*
X112430000Y-106240000D01*
X112430000Y-105760000D01*
X112760000Y-106000000D01*
G36*
X112760000Y-106000000D02*
G01*
X112430000Y-106240000D01*
X112430000Y-105760000D01*
X112760000Y-106000000D01*
G37*
%TO.C,R25*%
X180646359Y-112620000D02*
X180953641Y-112620000D01*
X180646359Y-113380000D02*
X180953641Y-113380000D01*
%TO.C,C18*%
X178738748Y-105065000D02*
X179261252Y-105065000D01*
X178738748Y-106535000D02*
X179261252Y-106535000D01*
%TO.C,R12*%
X193537258Y-114477500D02*
X193062742Y-114477500D01*
X193537258Y-115522500D02*
X193062742Y-115522500D01*
%TO.C,J2*%
X216590000Y-103790000D02*
X216590000Y-105940000D01*
X216590000Y-115260000D02*
X212900000Y-115260000D01*
X216590000Y-117410000D02*
X216590000Y-115260000D01*
X219740000Y-103790000D02*
X216590000Y-103790000D01*
X219740000Y-117410000D02*
X216590000Y-117410000D01*
X223810000Y-116390000D02*
X223810000Y-104810000D01*
%TD*%
%LPC*%
%TO.C,JP1*%
G36*
X121550000Y-114450000D02*
G01*
X123050000Y-114450000D01*
X123050000Y-114750000D01*
X121550000Y-114750000D01*
X121550000Y-114450000D01*
G37*
%TD*%
D11*
%TO.C,R16*%
X202325000Y-108000000D03*
X200675000Y-108000000D03*
%TD*%
D12*
%TO.C,C33*%
X141300000Y-109120000D03*
X141300000Y-110080000D03*
%TD*%
D13*
%TO.C,R26*%
X134490000Y-101850000D03*
X135510000Y-101850000D03*
%TD*%
D14*
%TO.C,R6*%
X165810000Y-115950000D03*
X164790000Y-115950000D03*
%TD*%
D15*
%TO.C,C3*%
X157100000Y-115050000D03*
X155200000Y-115050000D03*
%TD*%
D16*
%TO.C,R1*%
X111300000Y-109162500D03*
X111300000Y-106237500D03*
%TD*%
D17*
%TO.C,C15*%
X175800000Y-108350000D03*
X175800000Y-106450000D03*
%TD*%
D18*
%TO.C,U4*%
X189137500Y-107675000D03*
X189137500Y-108325000D03*
X189137500Y-108975000D03*
X189137500Y-109625000D03*
X189137500Y-110275000D03*
X189137500Y-110925000D03*
X189137500Y-111575000D03*
X189137500Y-112225000D03*
X189137500Y-112875000D03*
X189137500Y-113525000D03*
X194862500Y-113525000D03*
X194862500Y-112875000D03*
X194862500Y-112225000D03*
X194862500Y-111575000D03*
X194862500Y-110925000D03*
X194862500Y-110275000D03*
X194862500Y-109625000D03*
X194862500Y-108975000D03*
X194862500Y-108325000D03*
X194862500Y-107675000D03*
%TD*%
D12*
%TO.C,C32*%
X127675000Y-113620000D03*
X127675000Y-114580000D03*
%TD*%
D14*
%TO.C,R24*%
X184110000Y-113000000D03*
X183090000Y-113000000D03*
%TD*%
D19*
%TO.C,C10*%
X162100000Y-109380000D03*
X162100000Y-108420000D03*
%TD*%
D20*
%TO.C,Q1*%
X160462500Y-117250000D03*
X160462500Y-119150000D03*
X162337500Y-118200000D03*
%TD*%
D19*
%TO.C,C25*%
X198400000Y-109330000D03*
X198400000Y-108370000D03*
%TD*%
D21*
%TO.C,U3*%
X161100000Y-110800000D03*
D22*
X161100000Y-111200000D03*
X161100000Y-111600000D03*
X161100000Y-112000000D03*
X161100000Y-112400000D03*
X161100000Y-112800000D03*
X161100000Y-113200000D03*
X161100000Y-113600000D03*
D23*
X161600000Y-114250000D03*
D24*
X162000000Y-114300000D03*
X162400000Y-114300000D03*
X162800000Y-114300000D03*
X163200000Y-114300000D03*
X163600000Y-114300000D03*
X164000000Y-114300000D03*
D25*
X164850000Y-114000000D03*
D26*
X164850000Y-113600000D03*
D27*
X164875000Y-113200000D03*
D28*
X164862500Y-112800000D03*
D22*
X164900000Y-112400000D03*
X164900000Y-112000000D03*
X164900000Y-111600000D03*
X164900000Y-111200000D03*
D29*
X164862500Y-110800000D03*
D30*
X163900000Y-110700000D03*
X163450000Y-110700000D03*
X163000000Y-110700000D03*
X162550000Y-110700000D03*
D31*
X162100000Y-110675000D03*
%TD*%
D32*
%TO.C,R7*%
X164820000Y-116890000D03*
X164820000Y-117910000D03*
%TD*%
D33*
%TO.C,TP9*%
X114500000Y-119300000D03*
%TD*%
D17*
%TO.C,C7*%
X154400000Y-108350000D03*
X154400000Y-106450000D03*
%TD*%
D13*
%TO.C,R10*%
X161890000Y-115550000D03*
X162910000Y-115550000D03*
%TD*%
D34*
%TO.C,C30*%
X142600000Y-108825000D03*
X142600000Y-110375000D03*
%TD*%
D35*
%TO.C,D3*%
X149937500Y-108350000D03*
X149937500Y-106450000D03*
X148062500Y-107400000D03*
%TD*%
D36*
%TO.C,R22*%
X133000000Y-105110000D03*
X133000000Y-104090000D03*
%TD*%
D32*
%TO.C,TH2*%
X185400000Y-118090000D03*
X185400000Y-119110000D03*
%TD*%
D17*
%TO.C,C11*%
X166600000Y-108350000D03*
X166600000Y-106450000D03*
%TD*%
D12*
%TO.C,C27*%
X186400000Y-116520000D03*
X186400000Y-117480000D03*
%TD*%
D33*
%TO.C,TP10*%
X190000000Y-101300000D03*
%TD*%
D37*
%TO.C,C29*%
X148400000Y-110250000D03*
X148400000Y-112150000D03*
%TD*%
D38*
%TO.C,H2*%
X232000000Y-103000000D03*
%TD*%
D14*
%TO.C,R19*%
X144810000Y-106200000D03*
X143790000Y-106200000D03*
%TD*%
D17*
%TO.C,C8*%
X156700000Y-108350000D03*
X156700000Y-106450000D03*
%TD*%
D15*
%TO.C,C2*%
X157100000Y-113000000D03*
X155200000Y-113000000D03*
%TD*%
D36*
%TO.C,R9*%
X172000000Y-115710000D03*
X172000000Y-114690000D03*
%TD*%
D39*
%TO.C,L1*%
X161815000Y-104900000D03*
X164185000Y-104900000D03*
%TD*%
D40*
%TO.C,H1*%
X103000000Y-103000000D03*
%TD*%
D36*
%TO.C,R11*%
X128975000Y-113110000D03*
X128975000Y-112090000D03*
%TD*%
D32*
%TO.C,R4*%
X167700000Y-114890000D03*
X167700000Y-115910000D03*
%TD*%
D11*
%TO.C,R13*%
X202325000Y-113100000D03*
X200675000Y-113100000D03*
%TD*%
D41*
%TO.C,U6*%
X125075000Y-109462500D03*
X125725000Y-109462500D03*
X126375000Y-109462500D03*
X127025000Y-109462500D03*
X127675000Y-109462500D03*
X128325000Y-109462500D03*
X128975000Y-109462500D03*
X129625000Y-109462500D03*
X130275000Y-109462500D03*
X130925000Y-109462500D03*
X130925000Y-103737500D03*
X130275000Y-103737500D03*
X129625000Y-103737500D03*
X128975000Y-103737500D03*
X128325000Y-103737500D03*
X127675000Y-103737500D03*
X127025000Y-103737500D03*
X126375000Y-103737500D03*
X125725000Y-103737500D03*
X125075000Y-103737500D03*
%TD*%
D42*
%TO.C,C20*%
X165920000Y-110550000D03*
X166880000Y-110550000D03*
%TD*%
D32*
%TO.C,TH1*%
X166600000Y-116890000D03*
X166600000Y-117910000D03*
%TD*%
D43*
%TO.C,C4*%
X159980000Y-111300000D03*
X159020000Y-111300000D03*
%TD*%
D20*
%TO.C,Q2*%
X146062500Y-102950000D03*
X146062500Y-104850000D03*
X147937500Y-103900000D03*
%TD*%
D17*
%TO.C,C9*%
X159000000Y-108350000D03*
X159000000Y-106450000D03*
%TD*%
D44*
%TO.C,U2*%
X113287500Y-102750000D03*
X113287500Y-101450000D03*
X111512500Y-102100000D03*
%TD*%
D45*
%TO.C,D4*%
X138387500Y-101850000D03*
X136812500Y-101850000D03*
%TD*%
D13*
%TO.C,R23*%
X134090000Y-103400000D03*
X135110000Y-103400000D03*
%TD*%
D42*
%TO.C,C35*%
X134120000Y-104600000D03*
X135080000Y-104600000D03*
%TD*%
D19*
%TO.C,C23*%
X198400000Y-112730000D03*
X198400000Y-111770000D03*
%TD*%
%TO.C,C31*%
X127675000Y-102080000D03*
X127675000Y-101120000D03*
%TD*%
D17*
%TO.C,C12*%
X168900000Y-108350000D03*
X168900000Y-106450000D03*
%TD*%
D46*
%TO.C,C17*%
X178050000Y-103400000D03*
X179950000Y-103400000D03*
%TD*%
D34*
%TO.C,C22*%
X188900000Y-115625000D03*
X188900000Y-117175000D03*
%TD*%
D47*
%TO.C,F1*%
X206400000Y-102300000D03*
X203600000Y-102300000D03*
%TD*%
D38*
%TO.C,H4*%
X232000000Y-118000000D03*
%TD*%
D19*
%TO.C,C16*%
X163900000Y-109380000D03*
X163900000Y-108420000D03*
%TD*%
D13*
%TO.C,R17*%
X183390000Y-117900000D03*
X184410000Y-117900000D03*
%TD*%
D17*
%TO.C,C13*%
X171200000Y-108350000D03*
X171200000Y-106450000D03*
%TD*%
D48*
%TO.C,U5*%
X146450000Y-108262500D03*
X144550000Y-108262500D03*
X145500000Y-110137500D03*
%TD*%
D49*
%TO.C,J1*%
X104990000Y-107610000D03*
X104990000Y-113390000D03*
D50*
X106435000Y-107250000D03*
X106435000Y-108050000D03*
D51*
X106435000Y-109250000D03*
X106435000Y-110250000D03*
X106435000Y-110750000D03*
X106435000Y-111750000D03*
D50*
X106435000Y-112950000D03*
X106435000Y-113750000D03*
X106435000Y-113750000D03*
X106435000Y-112950000D03*
D51*
X106435000Y-112250000D03*
X106435000Y-111250000D03*
X106435000Y-109750000D03*
X106435000Y-108750000D03*
D50*
X106435000Y-108050000D03*
X106435000Y-107250000D03*
D52*
X105520000Y-106180000D03*
D53*
X101340000Y-106180000D03*
D52*
X105520000Y-114820000D03*
D53*
X101340000Y-114820000D03*
%TD*%
D33*
%TO.C,TP11*%
X181200000Y-114600000D03*
%TD*%
D11*
%TO.C,R14*%
X202325000Y-111400000D03*
X200675000Y-111400000D03*
%TD*%
D19*
%TO.C,C24*%
X197200000Y-111030000D03*
X197200000Y-110070000D03*
%TD*%
D14*
%TO.C,R18*%
X193510000Y-105900000D03*
X192490000Y-105900000D03*
%TD*%
D19*
%TO.C,C1*%
X112100000Y-104780000D03*
X112100000Y-103820000D03*
%TD*%
D54*
%TO.C,JP1*%
X122300000Y-115250000D03*
D55*
X122300000Y-113950000D03*
%TD*%
D32*
%TO.C,R21*%
X124400000Y-113690000D03*
X124400000Y-114710000D03*
%TD*%
D19*
%TO.C,C26*%
X197200000Y-107630000D03*
X197200000Y-106670000D03*
%TD*%
D40*
%TO.C,H3*%
X103000000Y-118000000D03*
%TD*%
D32*
%TO.C,R2*%
X121700000Y-106890000D03*
X121700000Y-107910000D03*
%TD*%
D37*
%TO.C,C21*%
X190700000Y-115950000D03*
X190700000Y-117850000D03*
%TD*%
D12*
%TO.C,C28*%
X187400000Y-115020000D03*
X187400000Y-115980000D03*
%TD*%
%TO.C,C34*%
X127025000Y-111020000D03*
X127025000Y-111980000D03*
%TD*%
D17*
%TO.C,C14*%
X173500000Y-108350000D03*
X173500000Y-106450000D03*
%TD*%
D32*
%TO.C,R20*%
X139600000Y-103590000D03*
X139600000Y-104610000D03*
%TD*%
D11*
%TO.C,R15*%
X202325000Y-109700000D03*
X200675000Y-109700000D03*
%TD*%
D33*
%TO.C,TP12*%
X183300000Y-114700000D03*
%TD*%
D20*
%TO.C,Q3*%
X141062500Y-102950000D03*
X141062500Y-104850000D03*
X142937500Y-103900000D03*
%TD*%
D32*
%TO.C,R3*%
X122600000Y-104090000D03*
X122600000Y-105110000D03*
%TD*%
D56*
%TO.C,D2*%
X152812500Y-111200000D03*
X154387500Y-111200000D03*
%TD*%
D13*
%TO.C,R8*%
X152490000Y-112900000D03*
X153510000Y-112900000D03*
%TD*%
D57*
%TO.C,D1*%
X110300000Y-118850000D03*
X110300000Y-115950000D03*
%TD*%
D58*
%TO.C,U1*%
X113862500Y-106000000D03*
X113862500Y-107000000D03*
X113862500Y-108000000D03*
X113862500Y-109000000D03*
X113862500Y-110000000D03*
X119137500Y-110000000D03*
X119137500Y-109000000D03*
X119137500Y-108000000D03*
X119137500Y-107000000D03*
X119137500Y-106000000D03*
D59*
X116500000Y-108000000D03*
%TD*%
D13*
%TO.C,R25*%
X180290000Y-113000000D03*
X181310000Y-113000000D03*
%TD*%
D46*
%TO.C,C18*%
X178050000Y-105800000D03*
X179950000Y-105800000D03*
%TD*%
D11*
%TO.C,R12*%
X194125000Y-115000000D03*
X192475000Y-115000000D03*
%TD*%
D60*
%TO.C,J2*%
X215150000Y-114350000D03*
X215150000Y-111850000D03*
X215150000Y-109350000D03*
X215150000Y-106850000D03*
D61*
X221950000Y-117550000D03*
X221950000Y-103650000D03*
%TD*%
%LPD*%
M02*
