%TF.GenerationSoftware,KiCad,Pcbnew,10.0.1*%
%TF.CreationDate,2026-10-03T15:11:14+02:00*%
%TF.ProjectId,usbc pd airsoft module,75736263-2070-4642-9061-6972736f6674,rev?*%
%TF.SameCoordinates,Original*%
%TF.FileFunction,Legend,Bot*%
%TF.FilePolarity,Positive*%
%FSLAX46Y46*%
G04 Gerber Fmt 4.6, Leading zero omitted, Abs format (unit mm)*
G04 Created by KiCad (PCBNEW 10.0.1) date 2026-10-03 15:11:14*
%MOMM*%
%LPD*%
G01*
G04 APERTURE LIST*
%ADD10C,0.100000*%
%ADD11C,0.400000*%
%ADD12C,0.120000*%
%ADD13C,0.000000*%
G04 APERTURE END LIST*
D10*
X135348972Y-106705752D02*
X134968020Y-106705752D01*
X135206115Y-107372419D02*
X135206115Y-106515276D01*
X135206115Y-106515276D02*
X135158496Y-106420038D01*
X135158496Y-106420038D02*
X135063258Y-106372419D01*
X135063258Y-106372419D02*
X134968020Y-106372419D01*
X134206115Y-107372419D02*
X134206115Y-106848609D01*
X134206115Y-106848609D02*
X134253734Y-106753371D01*
X134253734Y-106753371D02*
X134348972Y-106705752D01*
X134348972Y-106705752D02*
X134539448Y-106705752D01*
X134539448Y-106705752D02*
X134634686Y-106753371D01*
X134206115Y-107324800D02*
X134301353Y-107372419D01*
X134301353Y-107372419D02*
X134539448Y-107372419D01*
X134539448Y-107372419D02*
X134634686Y-107324800D01*
X134634686Y-107324800D02*
X134682305Y-107229561D01*
X134682305Y-107229561D02*
X134682305Y-107134323D01*
X134682305Y-107134323D02*
X134634686Y-107039085D01*
X134634686Y-107039085D02*
X134539448Y-106991466D01*
X134539448Y-106991466D02*
X134301353Y-106991466D01*
X134301353Y-106991466D02*
X134206115Y-106943847D01*
X133777543Y-107324800D02*
X133682305Y-107372419D01*
X133682305Y-107372419D02*
X133491829Y-107372419D01*
X133491829Y-107372419D02*
X133396591Y-107324800D01*
X133396591Y-107324800D02*
X133348972Y-107229561D01*
X133348972Y-107229561D02*
X133348972Y-107181942D01*
X133348972Y-107181942D02*
X133396591Y-107086704D01*
X133396591Y-107086704D02*
X133491829Y-107039085D01*
X133491829Y-107039085D02*
X133634686Y-107039085D01*
X133634686Y-107039085D02*
X133729924Y-106991466D01*
X133729924Y-106991466D02*
X133777543Y-106896228D01*
X133777543Y-106896228D02*
X133777543Y-106848609D01*
X133777543Y-106848609D02*
X133729924Y-106753371D01*
X133729924Y-106753371D02*
X133634686Y-106705752D01*
X133634686Y-106705752D02*
X133491829Y-106705752D01*
X133491829Y-106705752D02*
X133396591Y-106753371D01*
X133063257Y-106705752D02*
X132682305Y-106705752D01*
X132920400Y-106372419D02*
X132920400Y-107229561D01*
X132920400Y-107229561D02*
X132872781Y-107324800D01*
X132872781Y-107324800D02*
X132777543Y-107372419D01*
X132777543Y-107372419D02*
X132682305Y-107372419D01*
X131158495Y-107324800D02*
X131253733Y-107372419D01*
X131253733Y-107372419D02*
X131444209Y-107372419D01*
X131444209Y-107372419D02*
X131539447Y-107324800D01*
X131539447Y-107324800D02*
X131587066Y-107277180D01*
X131587066Y-107277180D02*
X131634685Y-107181942D01*
X131634685Y-107181942D02*
X131634685Y-106896228D01*
X131634685Y-106896228D02*
X131587066Y-106800990D01*
X131587066Y-106800990D02*
X131539447Y-106753371D01*
X131539447Y-106753371D02*
X131444209Y-106705752D01*
X131444209Y-106705752D02*
X131253733Y-106705752D01*
X131253733Y-106705752D02*
X131158495Y-106753371D01*
X130729923Y-107372419D02*
X130729923Y-106372419D01*
X130301352Y-107372419D02*
X130301352Y-106848609D01*
X130301352Y-106848609D02*
X130348971Y-106753371D01*
X130348971Y-106753371D02*
X130444209Y-106705752D01*
X130444209Y-106705752D02*
X130587066Y-106705752D01*
X130587066Y-106705752D02*
X130682304Y-106753371D01*
X130682304Y-106753371D02*
X130729923Y-106800990D01*
X129396590Y-107372419D02*
X129396590Y-106848609D01*
X129396590Y-106848609D02*
X129444209Y-106753371D01*
X129444209Y-106753371D02*
X129539447Y-106705752D01*
X129539447Y-106705752D02*
X129729923Y-106705752D01*
X129729923Y-106705752D02*
X129825161Y-106753371D01*
X129396590Y-107324800D02*
X129491828Y-107372419D01*
X129491828Y-107372419D02*
X129729923Y-107372419D01*
X129729923Y-107372419D02*
X129825161Y-107324800D01*
X129825161Y-107324800D02*
X129872780Y-107229561D01*
X129872780Y-107229561D02*
X129872780Y-107134323D01*
X129872780Y-107134323D02*
X129825161Y-107039085D01*
X129825161Y-107039085D02*
X129729923Y-106991466D01*
X129729923Y-106991466D02*
X129491828Y-106991466D01*
X129491828Y-106991466D02*
X129396590Y-106943847D01*
X128920399Y-107372419D02*
X128920399Y-106705752D01*
X128920399Y-106896228D02*
X128872780Y-106800990D01*
X128872780Y-106800990D02*
X128825161Y-106753371D01*
X128825161Y-106753371D02*
X128729923Y-106705752D01*
X128729923Y-106705752D02*
X128634685Y-106705752D01*
X127872780Y-106705752D02*
X127872780Y-107515276D01*
X127872780Y-107515276D02*
X127920399Y-107610514D01*
X127920399Y-107610514D02*
X127968018Y-107658133D01*
X127968018Y-107658133D02*
X128063256Y-107705752D01*
X128063256Y-107705752D02*
X128206113Y-107705752D01*
X128206113Y-107705752D02*
X128301351Y-107658133D01*
X127872780Y-107324800D02*
X127968018Y-107372419D01*
X127968018Y-107372419D02*
X128158494Y-107372419D01*
X128158494Y-107372419D02*
X128253732Y-107324800D01*
X128253732Y-107324800D02*
X128301351Y-107277180D01*
X128301351Y-107277180D02*
X128348970Y-107181942D01*
X128348970Y-107181942D02*
X128348970Y-106896228D01*
X128348970Y-106896228D02*
X128301351Y-106800990D01*
X128301351Y-106800990D02*
X128253732Y-106753371D01*
X128253732Y-106753371D02*
X128158494Y-106705752D01*
X128158494Y-106705752D02*
X127968018Y-106705752D01*
X127968018Y-106705752D02*
X127872780Y-106753371D01*
X127396589Y-107372419D02*
X127396589Y-106705752D01*
X127396589Y-106372419D02*
X127444208Y-106420038D01*
X127444208Y-106420038D02*
X127396589Y-106467657D01*
X127396589Y-106467657D02*
X127348970Y-106420038D01*
X127348970Y-106420038D02*
X127396589Y-106372419D01*
X127396589Y-106372419D02*
X127396589Y-106467657D01*
X126920399Y-106705752D02*
X126920399Y-107372419D01*
X126920399Y-106800990D02*
X126872780Y-106753371D01*
X126872780Y-106753371D02*
X126777542Y-106705752D01*
X126777542Y-106705752D02*
X126634685Y-106705752D01*
X126634685Y-106705752D02*
X126539447Y-106753371D01*
X126539447Y-106753371D02*
X126491828Y-106848609D01*
X126491828Y-106848609D02*
X126491828Y-107372419D01*
X125587066Y-106705752D02*
X125587066Y-107515276D01*
X125587066Y-107515276D02*
X125634685Y-107610514D01*
X125634685Y-107610514D02*
X125682304Y-107658133D01*
X125682304Y-107658133D02*
X125777542Y-107705752D01*
X125777542Y-107705752D02*
X125920399Y-107705752D01*
X125920399Y-107705752D02*
X126015637Y-107658133D01*
X125587066Y-107324800D02*
X125682304Y-107372419D01*
X125682304Y-107372419D02*
X125872780Y-107372419D01*
X125872780Y-107372419D02*
X125968018Y-107324800D01*
X125968018Y-107324800D02*
X126015637Y-107277180D01*
X126015637Y-107277180D02*
X126063256Y-107181942D01*
X126063256Y-107181942D02*
X126063256Y-106896228D01*
X126063256Y-106896228D02*
X126015637Y-106800990D01*
X126015637Y-106800990D02*
X125968018Y-106753371D01*
X125968018Y-106753371D02*
X125872780Y-106705752D01*
X125872780Y-106705752D02*
X125682304Y-106705752D01*
X125682304Y-106705752D02*
X125587066Y-106753371D01*
D11*
G36*
X151363328Y-114118984D02*
G01*
X150893161Y-114356022D01*
X150665180Y-114461433D01*
X150577355Y-114496706D01*
X150547089Y-114512311D01*
X150528444Y-114540537D01*
X150521301Y-114586709D01*
X150528815Y-114641413D01*
X150549633Y-114682330D01*
X150583258Y-114709686D01*
X150630355Y-114719211D01*
X150680525Y-114708934D01*
X150793265Y-114662791D01*
X151061078Y-114534075D01*
X151424511Y-114352114D01*
X151669120Y-114223764D01*
X151694023Y-114202835D01*
X151709054Y-114180655D01*
X151720411Y-114115931D01*
X151716194Y-114073703D01*
X151704902Y-114042903D01*
X151685707Y-114017239D01*
X151657397Y-113995153D01*
X151443318Y-113900143D01*
X150980233Y-113711343D01*
X150556350Y-113545013D01*
X150422553Y-113501539D01*
X150368039Y-113492135D01*
X150331209Y-113502148D01*
X150301482Y-113533900D01*
X150283110Y-113578347D01*
X150276692Y-113631598D01*
X150288057Y-113674237D01*
X150325320Y-113713332D01*
X150401011Y-113750300D01*
X150548374Y-113798391D01*
X150840893Y-113906859D01*
X151363328Y-114118984D01*
G37*
G36*
X148835332Y-112967054D02*
G01*
X148866311Y-112985942D01*
X148891134Y-113013968D01*
X148910031Y-113048956D01*
X149055600Y-113627690D01*
X149127407Y-113878893D01*
X149190300Y-113859232D01*
X149271022Y-113851660D01*
X149333044Y-113855897D01*
X149397051Y-113868879D01*
X149524057Y-113914675D01*
X149648133Y-113982330D01*
X149764026Y-114065006D01*
X149840717Y-114130369D01*
X149905198Y-114197020D01*
X149961933Y-114267580D01*
X150009490Y-114338558D01*
X150082885Y-114484860D01*
X150130146Y-114632383D01*
X150143213Y-114701748D01*
X150146632Y-114764152D01*
X150139357Y-114848547D01*
X150119033Y-114917658D01*
X150086118Y-114978242D01*
X150045027Y-115025858D01*
X149995457Y-115063153D01*
X149939881Y-115089361D01*
X149880169Y-115104844D01*
X149818859Y-115110000D01*
X149717864Y-115099009D01*
X149621510Y-115070921D01*
X149535781Y-115034040D01*
X149464462Y-114996427D01*
X149426116Y-114973956D01*
X149370795Y-114939762D01*
X149312665Y-114903614D01*
X149271266Y-114877480D01*
X149261985Y-114914972D01*
X149259298Y-114957592D01*
X149256489Y-114997404D01*
X149242690Y-115031353D01*
X149208374Y-115054678D01*
X149145359Y-115063105D01*
X149087473Y-115056877D01*
X149048517Y-115035628D01*
X149023604Y-114997770D01*
X149006263Y-114941960D01*
X148992878Y-114866205D01*
X148988433Y-114790041D01*
X148982937Y-114644228D01*
X148967916Y-114472404D01*
X148947522Y-114307418D01*
X148924319Y-114183464D01*
X148903024Y-114098834D01*
X149167096Y-114098834D01*
X149180652Y-114196531D01*
X149195673Y-114284337D01*
X149213991Y-114372142D01*
X149237927Y-114471549D01*
X149280547Y-114579016D01*
X149342219Y-114663401D01*
X149421598Y-114733866D01*
X149517585Y-114800422D01*
X149563258Y-114828387D01*
X149620289Y-114858185D01*
X149681838Y-114881755D01*
X149739602Y-114891158D01*
X149785099Y-114886972D01*
X149817759Y-114875893D01*
X149865509Y-114835471D01*
X149890177Y-114776242D01*
X149896894Y-114702847D01*
X149886147Y-114624811D01*
X149861372Y-114546980D01*
X149824965Y-114473014D01*
X149779239Y-114404006D01*
X149726535Y-114340879D01*
X149604169Y-114231580D01*
X149469469Y-114148782D01*
X149335624Y-114096636D01*
X149271548Y-114082639D01*
X149216311Y-114078318D01*
X149183339Y-114085401D01*
X149167096Y-114098834D01*
X148903024Y-114098834D01*
X148649546Y-113091454D01*
X148653067Y-113052871D01*
X148662369Y-113025265D01*
X148696318Y-112985209D01*
X148744068Y-112965547D01*
X148798290Y-112960662D01*
X148835332Y-112967054D01*
G37*
G36*
X147887893Y-113890927D02*
G01*
X147973237Y-113914553D01*
X148053746Y-113950888D01*
X148128454Y-113996374D01*
X148197634Y-114049371D01*
X148260223Y-114107505D01*
X148366346Y-114228893D01*
X148444504Y-114340635D01*
X148490300Y-114420746D01*
X148537051Y-114441319D01*
X148574075Y-114476067D01*
X148597996Y-114521542D01*
X148606315Y-114577672D01*
X148601811Y-114606389D01*
X148589584Y-114625910D01*
X148557955Y-114644839D01*
X148570881Y-114720060D01*
X148574930Y-114786500D01*
X148568817Y-114863876D01*
X148552093Y-114924741D01*
X148525293Y-114978328D01*
X148492620Y-115021217D01*
X148453219Y-115056653D01*
X148408967Y-115084232D01*
X148313834Y-115120380D01*
X148221022Y-115137110D01*
X148143353Y-115141263D01*
X147976867Y-115128892D01*
X147823150Y-115092658D01*
X147677462Y-115029070D01*
X147530181Y-114929870D01*
X147477424Y-114866489D01*
X147449581Y-114793217D01*
X147447505Y-114775509D01*
X147446772Y-114753649D01*
X147457152Y-114714570D01*
X147472334Y-114701190D01*
X147503925Y-114695764D01*
X147539641Y-114701026D01*
X147584036Y-114718967D01*
X147678314Y-114775631D01*
X147762700Y-114828754D01*
X147861374Y-114878579D01*
X147972138Y-114915826D01*
X148094138Y-114930237D01*
X148195866Y-114918338D01*
X148265230Y-114887006D01*
X148299418Y-114854249D01*
X148319621Y-114814626D01*
X148326657Y-114765861D01*
X148317986Y-114692955D01*
X148297958Y-114632993D01*
X148167411Y-114617606D01*
X148007920Y-114588175D01*
X147842079Y-114540181D01*
X147761572Y-114507501D01*
X147688328Y-114468129D01*
X147621653Y-114420861D01*
X147565108Y-114367013D01*
X147520991Y-114304414D01*
X147493300Y-114231702D01*
X147485086Y-114172595D01*
X147748290Y-114172595D01*
X147748290Y-114184685D01*
X147750732Y-114196287D01*
X147767377Y-114233319D01*
X147798482Y-114270170D01*
X147839494Y-114302109D01*
X147895690Y-114333063D01*
X147959214Y-114358061D01*
X148037718Y-114379713D01*
X148210519Y-114405969D01*
X148152512Y-114314012D01*
X148062142Y-114212163D01*
X148009188Y-114168389D01*
X147953820Y-114133272D01*
X147895258Y-114109444D01*
X147837316Y-114101765D01*
X147802427Y-114106404D01*
X147774302Y-114119595D01*
X147754996Y-114141289D01*
X147748290Y-114172595D01*
X147485086Y-114172595D01*
X147480844Y-114142065D01*
X147485780Y-114088176D01*
X147500261Y-114038872D01*
X147524529Y-113994347D01*
X147558635Y-113956318D01*
X147601604Y-113926099D01*
X147657065Y-113902341D01*
X147719334Y-113888092D01*
X147796284Y-113882923D01*
X147887893Y-113890927D01*
G37*
G36*
X147167114Y-114842187D02*
G01*
X147146475Y-114844996D01*
X147126448Y-114851224D01*
X147102267Y-114857208D01*
X147067341Y-114859895D01*
X146925191Y-114847438D01*
X146777424Y-114815076D01*
X146659211Y-114769891D01*
X146618324Y-114742024D01*
X146603890Y-114718845D01*
X146599860Y-114693565D01*
X146604828Y-114673382D01*
X146621598Y-114651922D01*
X146677285Y-114612843D01*
X146750680Y-114577794D01*
X146824197Y-114547875D01*
X146870725Y-114528946D01*
X146940945Y-114495362D01*
X147005181Y-114449445D01*
X147057815Y-114388262D01*
X147091643Y-114307662D01*
X147100680Y-114269438D01*
X147104099Y-114228039D01*
X147098584Y-114191264D01*
X147079797Y-114145729D01*
X147014951Y-114054504D01*
X146922871Y-113968531D01*
X146815160Y-113900265D01*
X146735903Y-113848607D01*
X146658234Y-113809040D01*
X146578367Y-113783150D01*
X146492149Y-113773503D01*
X146402878Y-113777777D01*
X146314340Y-113797316D01*
X146276962Y-113816641D01*
X146246563Y-113843234D01*
X146226351Y-113877648D01*
X146219085Y-113924689D01*
X146223237Y-113965355D01*
X146237159Y-114015547D01*
X146261339Y-114059389D01*
X146277591Y-114073535D01*
X146296755Y-114078073D01*
X146350366Y-114065373D01*
X146387979Y-114038262D01*
X146421563Y-114012006D01*
X146463450Y-114000160D01*
X146535624Y-114011517D01*
X146620376Y-114042048D01*
X146705373Y-114086744D01*
X146779989Y-114138646D01*
X146833112Y-114190669D01*
X146848641Y-114216074D01*
X146853018Y-114236099D01*
X146849407Y-114255901D01*
X146838852Y-114271636D01*
X146801971Y-114296304D01*
X146733094Y-114328911D01*
X146654692Y-114361395D01*
X146577390Y-114394124D01*
X146512299Y-114423921D01*
X146445621Y-114461657D01*
X146395062Y-114502201D01*
X146362822Y-114552271D01*
X146351587Y-114617484D01*
X146354396Y-114653265D01*
X146362700Y-114694298D01*
X146377110Y-114742292D01*
X146399092Y-114796270D01*
X146423272Y-114844385D01*
X146444521Y-114872840D01*
X146501607Y-114919509D01*
X146570795Y-114964919D01*
X146722226Y-115039902D01*
X146880006Y-115090949D01*
X146957626Y-115105488D01*
X147024965Y-115110000D01*
X147098604Y-115096200D01*
X147172732Y-115059685D01*
X147229884Y-115007295D01*
X147247516Y-114976653D01*
X147252965Y-114947456D01*
X147244539Y-114913628D01*
X147223412Y-114879434D01*
X147195690Y-114853056D01*
X147167114Y-114842187D01*
G37*
G36*
X146049703Y-114852690D02*
G01*
X146000488Y-114669141D01*
X145939672Y-114447369D01*
X145874825Y-114208011D01*
X145813276Y-113969874D01*
X145803262Y-113950457D01*
X145779326Y-113923712D01*
X145739881Y-113900509D01*
X145683827Y-113890739D01*
X145637909Y-113895624D01*
X145597854Y-113910401D01*
X145569155Y-113936779D01*
X145558286Y-113974881D01*
X145558286Y-113984162D01*
X145559752Y-113993688D01*
X145598098Y-114137791D01*
X145728524Y-114623468D01*
X145857606Y-115111831D01*
X145866032Y-115132958D01*
X145881542Y-115158115D01*
X145905966Y-115179487D01*
X145940648Y-115188157D01*
X145975626Y-115184363D01*
X146005251Y-115173503D01*
X146052878Y-115136500D01*
X146082309Y-115087773D01*
X146092079Y-115037337D01*
X146092079Y-115024759D01*
X146089270Y-115011570D01*
X146049703Y-114852690D01*
G37*
G36*
X145693108Y-113445484D02*
G01*
X145668196Y-113374532D01*
X145644008Y-113335796D01*
X145603960Y-113299061D01*
X145549738Y-113275980D01*
X145503454Y-113265478D01*
X145473778Y-113275491D01*
X145447400Y-113296741D01*
X145422243Y-113325928D01*
X145392569Y-113334517D01*
X145376692Y-113352184D01*
X145365701Y-113406528D01*
X145369853Y-113447072D01*
X145376814Y-113476137D01*
X145388885Y-113504309D01*
X145409054Y-113530603D01*
X145463276Y-113572613D01*
X145527023Y-113599724D01*
X145585519Y-113609371D01*
X145635956Y-113597892D01*
X145680163Y-113550143D01*
X145697871Y-113516681D01*
X145700069Y-113495676D01*
X145697993Y-113468443D01*
X145693108Y-113445484D01*
G37*
G36*
X144643158Y-113836533D02*
G01*
X144736043Y-113861064D01*
X144824574Y-113902734D01*
X144917515Y-113967431D01*
X145057222Y-114094682D01*
X145180443Y-114239640D01*
X145233231Y-114317922D01*
X145279239Y-114400352D01*
X145316679Y-114486364D01*
X145343719Y-114574863D01*
X145358862Y-114642885D01*
X145367044Y-114714082D01*
X145360192Y-114765180D01*
X145339323Y-114814344D01*
X145308342Y-114859028D01*
X145271545Y-114897508D01*
X145186427Y-114955150D01*
X145141749Y-114972092D01*
X145104972Y-114977131D01*
X145044476Y-114971576D01*
X144982850Y-114954539D01*
X144862561Y-114896531D01*
X144747400Y-114816297D01*
X144648848Y-114734842D01*
X144661304Y-114786133D01*
X144675593Y-114839867D01*
X144718579Y-114989954D01*
X144774389Y-115133447D01*
X144856088Y-115268635D01*
X144908582Y-115331773D01*
X144973325Y-115394787D01*
X145031699Y-115419577D01*
X145108391Y-115437896D01*
X145213049Y-115464640D01*
X145276919Y-115497613D01*
X145313311Y-115546584D01*
X145336880Y-115621688D01*
X145341032Y-115654539D01*
X145332484Y-115694351D01*
X145311845Y-115721950D01*
X145285223Y-115737948D01*
X145259333Y-115743077D01*
X145123779Y-115731863D01*
X145006664Y-115699846D01*
X144899276Y-115648767D01*
X144804675Y-115583220D01*
X144721045Y-115504188D01*
X144648115Y-115412739D01*
X144585378Y-115312697D01*
X144531001Y-115206109D01*
X144484796Y-115095313D01*
X144446127Y-114981894D01*
X144387997Y-114759267D01*
X144359298Y-114620781D01*
X144329256Y-114463855D01*
X144299825Y-114305464D01*
X144275157Y-114163558D01*
X144266553Y-114107505D01*
X144517201Y-114107505D01*
X144538817Y-114183098D01*
X144578995Y-114269071D01*
X144623935Y-114349427D01*
X144660083Y-114407923D01*
X144695395Y-114457694D01*
X144745080Y-114513925D01*
X144859385Y-114617362D01*
X144980163Y-114696130D01*
X145039277Y-114720152D01*
X145084455Y-114727027D01*
X145107128Y-114721852D01*
X145120969Y-114707243D01*
X145131106Y-114659005D01*
X145127808Y-114627009D01*
X145120237Y-114594769D01*
X145081646Y-114492309D01*
X145029256Y-114404138D01*
X144975523Y-114333307D01*
X144898586Y-114249654D01*
X144808705Y-114164658D01*
X144714061Y-114089675D01*
X144625401Y-114036186D01*
X144584171Y-114020400D01*
X144551517Y-114015792D01*
X144542480Y-114015792D01*
X144526727Y-114066838D01*
X144517201Y-114107505D01*
X144266553Y-114107505D01*
X144258792Y-114056946D01*
X144252564Y-114002602D01*
X144256106Y-113979155D01*
X144265387Y-113955708D01*
X144320952Y-113888541D01*
X144386898Y-113849706D01*
X144461636Y-113832365D01*
X144543457Y-113828213D01*
X144643158Y-113836533D01*
G37*
G36*
X143068353Y-115188157D02*
G01*
X143145659Y-115177130D01*
X143187299Y-115149933D01*
X143211075Y-115106621D01*
X143219783Y-115045764D01*
X143212944Y-114971147D01*
X143195115Y-114888471D01*
X143152006Y-114743635D01*
X143104256Y-114598311D01*
X143057850Y-114451643D01*
X143017428Y-114304487D01*
X143016207Y-114287512D01*
X143024755Y-114260034D01*
X143050523Y-114250265D01*
X143114392Y-114262355D01*
X143171301Y-114289344D01*
X143331524Y-114410610D01*
X143457554Y-114536029D01*
X143565875Y-114675858D01*
X143672854Y-114838768D01*
X143743806Y-114989466D01*
X143787159Y-115090460D01*
X143809575Y-115125258D01*
X143832711Y-115147002D01*
X143861939Y-115159691D01*
X143908548Y-115164710D01*
X143958764Y-115155725D01*
X143988782Y-115131859D01*
X144005983Y-115095728D01*
X144012229Y-115047351D01*
X143999773Y-114957592D01*
X143548900Y-113151050D01*
X143534979Y-113114780D01*
X143508356Y-113078265D01*
X143468178Y-113050177D01*
X143415300Y-113038820D01*
X143368527Y-113040896D01*
X143323098Y-113049323D01*
X143288782Y-113070327D01*
X143278484Y-113086731D01*
X143274860Y-113108429D01*
X143277669Y-113131388D01*
X143285851Y-113170956D01*
X143443632Y-113789256D01*
X143609228Y-114421479D01*
X143533375Y-114334666D01*
X143446685Y-114247578D01*
X143354026Y-114167232D01*
X143261060Y-114100544D01*
X143163358Y-114045273D01*
X143063346Y-114003946D01*
X142959318Y-113977693D01*
X142851099Y-113968897D01*
X142786365Y-113980843D01*
X142740334Y-114014570D01*
X142711217Y-114065200D01*
X142701011Y-114130097D01*
X142709316Y-114192501D01*
X142746318Y-114316454D01*
X142788695Y-114439064D01*
X142832414Y-114564117D01*
X142870516Y-114694298D01*
X142900436Y-114857330D01*
X142911427Y-114980795D01*
X142923883Y-115058220D01*
X142952459Y-115124288D01*
X143000209Y-115170572D01*
X143031005Y-115183591D01*
X143068353Y-115188157D01*
G37*
G36*
X141503244Y-113992344D02*
G01*
X141550739Y-113997601D01*
X141604483Y-114014570D01*
X141717079Y-114074654D01*
X141836270Y-114160628D01*
X141955704Y-114260279D01*
X142013468Y-114307418D01*
X142067568Y-114339291D01*
X142107013Y-114419891D01*
X142148534Y-114530900D01*
X142187369Y-114654242D01*
X142218143Y-114771479D01*
X142229012Y-114827044D01*
X142238660Y-114884808D01*
X142251727Y-114950753D01*
X142270045Y-115029644D01*
X142292759Y-115072630D01*
X142325366Y-115097421D01*
X142357850Y-115107923D01*
X142381786Y-115110000D01*
X142431494Y-115103277D01*
X142469103Y-115084598D01*
X142493358Y-115050948D01*
X142503175Y-114986657D01*
X142501831Y-114946235D01*
X142493527Y-114898852D01*
X142435519Y-114666699D01*
X142378733Y-114475212D01*
X142320603Y-114308761D01*
X142260397Y-114151224D01*
X142196161Y-113986971D01*
X142124476Y-113799148D01*
X142110177Y-113777747D01*
X142079780Y-113758360D01*
X142042766Y-113746293D01*
X142003332Y-113742240D01*
X141953506Y-113748579D01*
X141915404Y-113766175D01*
X141889367Y-113795022D01*
X141880478Y-113835174D01*
X141883408Y-113850928D01*
X141891835Y-113874497D01*
X141945935Y-114000771D01*
X141838101Y-113920293D01*
X141709996Y-113839204D01*
X141577494Y-113780464D01*
X141510510Y-113763404D01*
X141445847Y-113757871D01*
X141360110Y-113766602D01*
X141292224Y-113790830D01*
X141238241Y-113829312D01*
X141198553Y-113881831D01*
X141172815Y-113953347D01*
X141163258Y-114049986D01*
X141170090Y-114137393D01*
X141192690Y-114243426D01*
X141266573Y-114475334D01*
X141362316Y-114734720D01*
X141457083Y-115011203D01*
X141482728Y-115076172D01*
X141514357Y-115118792D01*
X141557344Y-115141995D01*
X141616695Y-115149078D01*
X141666297Y-115142979D01*
X141693265Y-115128196D01*
X141708864Y-115102989D01*
X141714881Y-115061884D01*
X141703157Y-114967728D01*
X141670307Y-114845729D01*
X141621092Y-114704068D01*
X141560153Y-114551050D01*
X141508984Y-114425387D01*
X141463921Y-114304120D01*
X141431926Y-114192501D01*
X141419713Y-114094926D01*
X141424309Y-114055722D01*
X141437421Y-114023119D01*
X141461274Y-114000711D01*
X141503244Y-113992344D01*
G37*
G36*
X140232345Y-113890927D02*
G01*
X140317690Y-113914553D01*
X140398199Y-113950888D01*
X140472906Y-113996374D01*
X140542086Y-114049371D01*
X140604675Y-114107505D01*
X140710799Y-114228893D01*
X140788956Y-114340635D01*
X140834752Y-114420746D01*
X140881503Y-114441319D01*
X140918527Y-114476067D01*
X140942448Y-114521542D01*
X140950767Y-114577672D01*
X140946263Y-114606389D01*
X140934036Y-114625910D01*
X140902407Y-114644839D01*
X140915333Y-114720060D01*
X140919382Y-114786500D01*
X140913269Y-114863876D01*
X140896545Y-114924741D01*
X140869745Y-114978328D01*
X140837072Y-115021217D01*
X140797671Y-115056653D01*
X140753419Y-115084232D01*
X140658286Y-115120380D01*
X140565474Y-115137110D01*
X140487805Y-115141263D01*
X140321319Y-115128892D01*
X140167602Y-115092658D01*
X140021914Y-115029070D01*
X139874633Y-114929870D01*
X139821877Y-114866489D01*
X139794033Y-114793217D01*
X139791957Y-114775509D01*
X139791224Y-114753649D01*
X139801605Y-114714570D01*
X139816786Y-114701190D01*
X139848377Y-114695764D01*
X139884093Y-114701026D01*
X139928489Y-114718967D01*
X140022766Y-114775631D01*
X140107152Y-114828754D01*
X140205826Y-114878579D01*
X140316591Y-114915826D01*
X140438590Y-114930237D01*
X140540318Y-114918338D01*
X140609682Y-114887006D01*
X140643870Y-114854249D01*
X140664073Y-114814626D01*
X140671109Y-114765861D01*
X140662438Y-114692955D01*
X140642411Y-114632993D01*
X140511863Y-114617606D01*
X140352372Y-114588175D01*
X140186531Y-114540181D01*
X140106024Y-114507501D01*
X140032780Y-114468129D01*
X139966106Y-114420861D01*
X139909560Y-114367013D01*
X139865443Y-114304414D01*
X139837752Y-114231702D01*
X139829538Y-114172595D01*
X140092742Y-114172595D01*
X140092742Y-114184685D01*
X140095184Y-114196287D01*
X140111829Y-114233319D01*
X140142934Y-114270170D01*
X140183947Y-114302109D01*
X140240143Y-114333063D01*
X140303666Y-114358061D01*
X140382170Y-114379713D01*
X140554972Y-114405969D01*
X140496964Y-114314012D01*
X140406594Y-114212163D01*
X140353641Y-114168389D01*
X140298272Y-114133272D01*
X140239710Y-114109444D01*
X140181769Y-114101765D01*
X140146879Y-114106404D01*
X140118754Y-114119595D01*
X140099448Y-114141289D01*
X140092742Y-114172595D01*
X139829538Y-114172595D01*
X139825296Y-114142065D01*
X139830232Y-114088176D01*
X139844713Y-114038872D01*
X139868981Y-113994347D01*
X139903087Y-113956318D01*
X139946057Y-113926099D01*
X140001517Y-113902341D01*
X140063787Y-113888092D01*
X140140736Y-113882923D01*
X140232345Y-113890927D01*
G37*
G36*
X138268409Y-112967054D02*
G01*
X138299389Y-112985942D01*
X138324211Y-113013968D01*
X138343108Y-113048956D01*
X138488677Y-113627690D01*
X138560484Y-113878893D01*
X138623377Y-113859232D01*
X138704099Y-113851660D01*
X138766121Y-113855897D01*
X138830129Y-113868879D01*
X138957135Y-113914675D01*
X139081210Y-113982330D01*
X139197103Y-114065006D01*
X139273794Y-114130369D01*
X139338276Y-114197020D01*
X139395011Y-114267580D01*
X139442568Y-114338558D01*
X139515963Y-114484860D01*
X139563224Y-114632383D01*
X139576290Y-114701748D01*
X139579710Y-114764152D01*
X139572435Y-114848547D01*
X139552110Y-114917658D01*
X139519196Y-114978242D01*
X139478105Y-115025858D01*
X139428535Y-115063153D01*
X139372958Y-115089361D01*
X139313246Y-115104844D01*
X139251936Y-115110000D01*
X139150942Y-115099009D01*
X139054588Y-115070921D01*
X138968859Y-115034040D01*
X138897540Y-114996427D01*
X138859193Y-114973956D01*
X138803872Y-114939762D01*
X138745743Y-114903614D01*
X138704344Y-114877480D01*
X138695062Y-114914972D01*
X138692376Y-114957592D01*
X138689567Y-114997404D01*
X138675767Y-115031353D01*
X138641451Y-115054678D01*
X138578436Y-115063105D01*
X138520551Y-115056877D01*
X138481594Y-115035628D01*
X138456681Y-114997770D01*
X138439340Y-114941960D01*
X138425956Y-114866205D01*
X138421510Y-114790041D01*
X138416015Y-114644228D01*
X138400994Y-114472404D01*
X138380600Y-114307418D01*
X138357397Y-114183464D01*
X138336102Y-114098834D01*
X138600174Y-114098834D01*
X138613729Y-114196531D01*
X138628750Y-114284337D01*
X138647069Y-114372142D01*
X138671004Y-114471549D01*
X138713625Y-114579016D01*
X138775296Y-114663401D01*
X138854675Y-114733866D01*
X138950662Y-114800422D01*
X138996336Y-114828387D01*
X139053367Y-114858185D01*
X139114916Y-114881755D01*
X139172679Y-114891158D01*
X139218177Y-114886972D01*
X139250837Y-114875893D01*
X139298586Y-114835471D01*
X139323255Y-114776242D01*
X139329972Y-114702847D01*
X139319225Y-114624811D01*
X139294449Y-114546980D01*
X139258042Y-114473014D01*
X139212316Y-114404006D01*
X139159612Y-114340879D01*
X139037247Y-114231580D01*
X138902547Y-114148782D01*
X138768702Y-114096636D01*
X138704626Y-114082639D01*
X138649389Y-114078318D01*
X138616416Y-114085401D01*
X138600174Y-114098834D01*
X138336102Y-114098834D01*
X138082623Y-113091454D01*
X138086144Y-113052871D01*
X138095446Y-113025265D01*
X138129396Y-112985209D01*
X138177145Y-112965547D01*
X138231367Y-112960662D01*
X138268409Y-112967054D01*
G37*
G36*
X136146266Y-113064588D02*
G01*
X136172766Y-113088157D01*
X136187665Y-113116978D01*
X136196580Y-113144944D01*
X136211723Y-113256074D01*
X136242498Y-113410314D01*
X136296353Y-113624759D01*
X136365352Y-113877672D01*
X136441189Y-114147561D01*
X136514951Y-114414274D01*
X136577843Y-114655586D01*
X136636584Y-114890669D01*
X136646964Y-114938297D01*
X136650383Y-114986046D01*
X136641384Y-115048060D01*
X136616556Y-115093269D01*
X136574415Y-115122237D01*
X136502983Y-115133447D01*
X136457187Y-115125143D01*
X136421894Y-115103649D01*
X136396737Y-115074951D01*
X136381716Y-115050648D01*
X136331646Y-115082522D01*
X136298037Y-115090952D01*
X136244818Y-115094368D01*
X136186905Y-115089814D01*
X136126971Y-115075806D01*
X136002529Y-115022805D01*
X135807257Y-114901660D01*
X135714360Y-114828877D01*
X135627739Y-114745345D01*
X135549895Y-114651784D01*
X135479727Y-114544577D01*
X135422674Y-114426507D01*
X135378855Y-114289466D01*
X135368475Y-114229504D01*
X135365641Y-114179923D01*
X135616137Y-114179923D01*
X135620167Y-114221810D01*
X135631036Y-114274811D01*
X135677288Y-114409626D01*
X135743089Y-114527266D01*
X135828872Y-114630062D01*
X135931062Y-114718210D01*
X136049962Y-114794929D01*
X136187543Y-114860139D01*
X136241765Y-114879312D01*
X136288904Y-114892135D01*
X136335676Y-114906667D01*
X136384647Y-114929138D01*
X136390997Y-114909965D01*
X136382937Y-114857575D01*
X136360589Y-114738872D01*
X136331891Y-114629574D01*
X136299773Y-114524427D01*
X136267288Y-114417449D01*
X136142725Y-114319141D01*
X135995446Y-114215460D01*
X135843771Y-114134371D01*
X135769128Y-114109380D01*
X135705163Y-114101765D01*
X135661935Y-114107320D01*
X135636898Y-114121182D01*
X135621784Y-114144320D01*
X135616137Y-114179923D01*
X135365641Y-114179923D01*
X135365055Y-114169665D01*
X135369488Y-114110356D01*
X135382397Y-114056336D01*
X135404622Y-114006934D01*
X135435886Y-113965478D01*
X135476044Y-113931762D01*
X135527355Y-113905150D01*
X135585896Y-113888825D01*
X135658635Y-113882923D01*
X135729944Y-113888038D01*
X135801762Y-113903562D01*
X135941224Y-113959249D01*
X136070917Y-114040094D01*
X136176430Y-114127655D01*
X136075069Y-113756772D01*
X135971877Y-113378073D01*
X135959542Y-113312739D01*
X135953925Y-113240443D01*
X135960886Y-113170956D01*
X135985432Y-113111482D01*
X136005833Y-113088252D01*
X136032571Y-113069961D01*
X136064344Y-113058590D01*
X136105355Y-113054452D01*
X136146266Y-113064588D01*
G37*
G36*
X135164043Y-115743077D02*
G01*
X135203000Y-115731109D01*
X135232187Y-115700334D01*
X135251116Y-115658813D01*
X135258077Y-115614483D01*
X135251116Y-115566489D01*
X135233408Y-115530708D01*
X135210816Y-115506528D01*
X135188468Y-115493217D01*
X135111653Y-115475509D01*
X135017131Y-115448032D01*
X134908321Y-115401137D01*
X134789131Y-115325544D01*
X134660537Y-115216001D01*
X134595304Y-115149435D01*
X134530355Y-115069699D01*
X134470834Y-114981466D01*
X134413241Y-114877725D01*
X134364821Y-114766385D01*
X134327267Y-114645205D01*
X134376238Y-114698450D01*
X134448046Y-114772334D01*
X134527547Y-114844874D01*
X134609979Y-114907889D01*
X134690701Y-114952707D01*
X134729971Y-114965374D01*
X134765073Y-114969316D01*
X134852540Y-114958281D01*
X134922854Y-114927062D01*
X134982641Y-114874364D01*
X135043143Y-114788087D01*
X135066835Y-114715792D01*
X135075017Y-114626032D01*
X135068178Y-114481929D01*
X135047662Y-114336605D01*
X135015422Y-114178335D01*
X134973900Y-113995886D01*
X134969748Y-113946671D01*
X134966451Y-113909668D01*
X134964253Y-113887442D01*
X134948133Y-113842501D01*
X134915771Y-113805865D01*
X134874982Y-113781929D01*
X134831995Y-113773503D01*
X134773499Y-113778510D01*
X134746520Y-113786814D01*
X134726727Y-113800858D01*
X134706244Y-113829256D01*
X134690945Y-113866803D01*
X134679099Y-113939588D01*
X134690945Y-113990146D01*
X134724528Y-114067571D01*
X134777651Y-114276643D01*
X134809769Y-114419403D01*
X134826011Y-114509773D01*
X134830774Y-114560942D01*
X134824164Y-114629607D01*
X134806960Y-114676713D01*
X134779262Y-114709694D01*
X134749930Y-114719211D01*
X134704012Y-114711151D01*
X134648203Y-114684162D01*
X134540147Y-114608642D01*
X134451587Y-114529312D01*
X134375047Y-114440895D01*
X134310048Y-114343688D01*
X134255401Y-114238224D01*
X134207833Y-114120205D01*
X134167515Y-113995004D01*
X134129309Y-113851905D01*
X134115387Y-113831144D01*
X134089741Y-113813925D01*
X134058234Y-113801957D01*
X134025872Y-113796950D01*
X133958363Y-113807679D01*
X133911810Y-113837006D01*
X133882216Y-113882538D01*
X133871755Y-113943984D01*
X133884089Y-114023852D01*
X133912787Y-114139256D01*
X133946371Y-114255272D01*
X133972993Y-114336482D01*
X134038572Y-114526015D01*
X134119905Y-114761831D01*
X134197208Y-114963210D01*
X134289654Y-115140163D01*
X134345664Y-115221595D01*
X134413729Y-115302829D01*
X134491233Y-115380422D01*
X134586287Y-115461953D01*
X134692026Y-115540825D01*
X134824424Y-115627916D01*
X134909989Y-115674617D01*
X134991364Y-115710837D01*
X135075015Y-115734948D01*
X135164043Y-115743077D01*
G37*
G36*
X131641817Y-113635139D02*
G01*
X131669173Y-113690949D01*
X131704588Y-113783517D01*
X131741468Y-113894647D01*
X131775540Y-114004556D01*
X131802163Y-114094560D01*
X131815840Y-114145484D01*
X131826099Y-114190792D01*
X131837334Y-114235732D01*
X131689944Y-114189783D01*
X131541067Y-114151713D01*
X131390532Y-114125935D01*
X131240282Y-114117397D01*
X131178489Y-114118740D01*
X131102529Y-114129120D01*
X131037316Y-114158185D01*
X131016701Y-114182126D01*
X131009595Y-114215582D01*
X131010938Y-114233168D01*
X131019364Y-114270170D01*
X131041224Y-114312302D01*
X131082623Y-114343932D01*
X131112787Y-114342344D01*
X131141974Y-114342344D01*
X131238508Y-114346594D01*
X131336025Y-114359441D01*
X131532274Y-114405847D01*
X131729378Y-114475457D01*
X131924040Y-114560209D01*
X132061549Y-115155917D01*
X132068740Y-115178697D01*
X132085362Y-115199881D01*
X132107091Y-115214938D01*
X132127006Y-115219420D01*
X132159734Y-115219420D01*
X132206244Y-115208078D01*
X132234717Y-115175457D01*
X132249641Y-115128055D01*
X132255233Y-115063715D01*
X132245708Y-114940861D01*
X132223726Y-114811413D01*
X132201866Y-114696618D01*
X132192341Y-114619071D01*
X132224825Y-114570223D01*
X132237124Y-114541449D01*
X132241556Y-114504277D01*
X132233016Y-114447430D01*
X132209438Y-114406336D01*
X132125174Y-114335628D01*
X132114672Y-114321706D01*
X132104047Y-114297770D01*
X132095987Y-114270781D01*
X132089759Y-114247456D01*
X132033827Y-114044979D01*
X131975087Y-113836395D01*
X131927215Y-113675683D01*
X131886915Y-113547700D01*
X131850523Y-113437547D01*
X131832083Y-113386744D01*
X131800453Y-113321898D01*
X131757833Y-113266088D01*
X131731996Y-113247795D01*
X131704832Y-113242030D01*
X131647445Y-113245361D01*
X131618859Y-113252777D01*
X131598643Y-113265778D01*
X131587718Y-113281353D01*
X131576727Y-113308586D01*
X131517742Y-113298695D01*
X131434455Y-113281720D01*
X131354710Y-113263279D01*
X131301587Y-113248991D01*
X131133304Y-113207226D01*
X130988224Y-113178283D01*
X130856699Y-113161430D01*
X130729326Y-113156057D01*
X130672784Y-113158866D01*
X130627233Y-113169490D01*
X130596458Y-113192571D01*
X130584734Y-113232383D01*
X130590352Y-113264378D01*
X130608670Y-113302236D01*
X130643108Y-113338018D01*
X130696842Y-113363175D01*
X130731280Y-113370746D01*
X130788189Y-113381127D01*
X130856577Y-113392728D01*
X130925331Y-113404207D01*
X131042079Y-113430952D01*
X131177267Y-113462948D01*
X131318440Y-113501172D01*
X131452163Y-113543548D01*
X131564392Y-113588367D01*
X131641817Y-113635139D01*
G37*
G36*
X130365404Y-113336064D02*
G01*
X130354413Y-113235191D01*
X130332309Y-113133464D01*
X130313942Y-113089483D01*
X130291032Y-113054940D01*
X130261112Y-113031140D01*
X130223499Y-113023189D01*
X130173918Y-113031615D01*
X130122383Y-113054574D01*
X130080861Y-113090478D01*
X130067983Y-113113042D01*
X130063764Y-113137616D01*
X130067916Y-113163506D01*
X130074877Y-113191594D01*
X130416451Y-114558377D01*
X130450523Y-114714326D01*
X130470917Y-114835837D01*
X130470917Y-114868321D01*
X130476535Y-114958203D01*
X130497295Y-115049183D01*
X130515831Y-115088499D01*
X130539916Y-115120136D01*
X130571083Y-115141654D01*
X130611479Y-115149078D01*
X130647654Y-115144860D01*
X130677669Y-115132836D01*
X130723953Y-115091559D01*
X130750575Y-115037948D01*
X130758879Y-114984214D01*
X130754849Y-114929993D01*
X130744469Y-114862948D01*
X130731402Y-114793217D01*
X130717725Y-114732278D01*
X130365404Y-113336064D01*
G37*
G36*
X129827826Y-113888175D02*
G01*
X129811706Y-113849462D01*
X129789113Y-113823328D01*
X129766887Y-113809162D01*
X129750279Y-113804766D01*
X129714375Y-113808185D01*
X129674563Y-113814291D01*
X129632309Y-113822473D01*
X129599713Y-113831000D01*
X129578454Y-113852637D01*
X129566273Y-113883153D01*
X129561967Y-113920537D01*
X129570272Y-113977445D01*
X129655024Y-114274078D01*
X129719870Y-114488768D01*
X129760781Y-114632993D01*
X129775069Y-114716769D01*
X129767742Y-114780027D01*
X129745516Y-114845118D01*
X129708391Y-114894944D01*
X129683880Y-114909632D01*
X129654658Y-114914605D01*
X129599268Y-114906248D01*
X129540352Y-114879556D01*
X129484031Y-114840884D01*
X129429221Y-114793583D01*
X129333356Y-114685017D01*
X129263258Y-114582435D01*
X129227721Y-114521130D01*
X129167149Y-114390094D01*
X129118056Y-114241106D01*
X129081908Y-114100177D01*
X129058705Y-113994665D01*
X129023168Y-113813314D01*
X129007649Y-113765646D01*
X128988485Y-113739553D01*
X128959992Y-113724789D01*
X128910083Y-113718792D01*
X128847313Y-113726486D01*
X128799441Y-113754085D01*
X128769888Y-113806720D01*
X128759996Y-113890617D01*
X128764167Y-113952516D01*
X128778558Y-114035209D01*
X128818859Y-114206912D01*
X128844138Y-114313890D01*
X128867341Y-114426974D01*
X128883705Y-114534563D01*
X128889811Y-114626277D01*
X128885048Y-114765373D01*
X128880286Y-114912896D01*
X128882362Y-114976154D01*
X128888590Y-115017676D01*
X128907376Y-115067267D01*
X128928646Y-115098764D01*
X128959332Y-115118015D01*
X129012543Y-115125631D01*
X129077023Y-115116350D01*
X129114637Y-115091437D01*
X129132466Y-115056632D01*
X129138084Y-115018042D01*
X129152861Y-114764762D01*
X129159211Y-114766838D01*
X129256908Y-114894211D01*
X129374755Y-115026957D01*
X129442444Y-115083819D01*
X129515806Y-115130516D01*
X129595290Y-115161949D01*
X129682013Y-115172526D01*
X129728907Y-115163489D01*
X129787526Y-115140774D01*
X129845289Y-115109877D01*
X129889619Y-115077393D01*
X129954993Y-115001756D01*
X129997086Y-114919124D01*
X130020959Y-114830067D01*
X130028838Y-114740338D01*
X130020655Y-114638855D01*
X130001482Y-114541036D01*
X129977547Y-114452131D01*
X129956297Y-114377882D01*
X129909891Y-114197875D01*
X129873621Y-114061465D01*
X129846999Y-113961203D01*
X129827826Y-113888175D01*
G37*
G36*
X128253558Y-115235052D02*
G01*
X128316085Y-115221863D01*
X128362369Y-115185959D01*
X128391800Y-115134302D01*
X128402302Y-115072508D01*
X128396807Y-115021461D01*
X128380321Y-114954539D01*
X128367986Y-114902271D01*
X128351622Y-114822892D01*
X128334647Y-114728981D01*
X128318405Y-114632260D01*
X128306681Y-114545066D01*
X128302529Y-114478143D01*
X128303872Y-114454940D01*
X128311418Y-114439531D01*
X128331716Y-114428684D01*
X128388258Y-114411953D01*
X128445655Y-114381423D01*
X128464697Y-114354948D01*
X128471912Y-114311570D01*
X128467542Y-114273543D01*
X128454448Y-114237686D01*
X128433549Y-114207285D01*
X128408286Y-114188105D01*
X128374794Y-114175958D01*
X128336967Y-114170886D01*
X128259665Y-114162337D01*
X128243188Y-114155369D01*
X128231699Y-114137913D01*
X128217777Y-114094071D01*
X128182240Y-113957906D01*
X128137787Y-113808429D01*
X128081612Y-113659563D01*
X128012369Y-113524863D01*
X127879989Y-113368182D01*
X127806559Y-113299669D01*
X127729047Y-113241053D01*
X127646083Y-113192473D01*
X127558688Y-113155812D01*
X127466419Y-113132671D01*
X127366835Y-113124794D01*
X127251229Y-113136155D01*
X127166800Y-113166559D01*
X127097372Y-113217949D01*
X127041015Y-113291734D01*
X127025628Y-113332034D01*
X127021353Y-113373433D01*
X127031856Y-113444141D01*
X127060432Y-113501660D01*
X127103297Y-113540495D01*
X127155076Y-113554661D01*
X127190499Y-113550338D01*
X127214672Y-113538907D01*
X127249232Y-113500439D01*
X127270115Y-113450614D01*
X127286357Y-113401765D01*
X127309193Y-113365861D01*
X127325627Y-113355287D01*
X127349127Y-113351451D01*
X127410432Y-113358290D01*
X127475645Y-113381127D01*
X127629518Y-113478579D01*
X127696389Y-113538500D01*
X127760676Y-113615600D01*
X127817041Y-113704723D01*
X127872295Y-113818810D01*
X127919440Y-113946604D01*
X127967062Y-114115687D01*
X127969748Y-114122159D01*
X127970969Y-114126556D01*
X127963886Y-114125457D01*
X127885851Y-114120694D01*
X127811479Y-114109703D01*
X127736863Y-114098834D01*
X127656507Y-114093949D01*
X127597156Y-114096880D01*
X127548796Y-114109459D01*
X127515945Y-114137058D01*
X127503733Y-114184808D01*
X127508618Y-114227672D01*
X127523883Y-114277009D01*
X127550750Y-114320240D01*
X127569085Y-114335760D01*
X127591538Y-114343932D01*
X127676535Y-114356877D01*
X127772156Y-114367623D01*
X127886706Y-114385087D01*
X128024947Y-114417449D01*
X128061828Y-114596235D01*
X128084420Y-114774776D01*
X128105547Y-114953440D01*
X128139131Y-115133569D01*
X128153907Y-115169717D01*
X128179064Y-115202323D01*
X128213014Y-115226015D01*
X128253558Y-115235052D01*
G37*
G36*
X127145673Y-115235052D02*
G01*
X127208199Y-115221863D01*
X127254483Y-115185959D01*
X127283914Y-115134302D01*
X127294417Y-115072508D01*
X127288921Y-115021461D01*
X127272435Y-114954539D01*
X127260101Y-114902271D01*
X127243736Y-114822892D01*
X127226762Y-114728981D01*
X127210519Y-114632260D01*
X127198796Y-114545066D01*
X127194644Y-114478143D01*
X127195987Y-114454940D01*
X127203532Y-114439531D01*
X127223831Y-114428684D01*
X127280373Y-114411953D01*
X127337770Y-114381423D01*
X127356811Y-114354948D01*
X127364026Y-114311570D01*
X127359656Y-114273543D01*
X127346563Y-114237686D01*
X127325663Y-114207285D01*
X127300401Y-114188105D01*
X127266908Y-114175958D01*
X127229082Y-114170886D01*
X127151779Y-114162337D01*
X127135303Y-114155369D01*
X127123813Y-114137913D01*
X127109891Y-114094071D01*
X127074354Y-113957906D01*
X127029902Y-113808429D01*
X126973726Y-113659563D01*
X126904483Y-113524863D01*
X126772103Y-113368182D01*
X126698673Y-113299669D01*
X126621161Y-113241053D01*
X126538197Y-113192473D01*
X126450802Y-113155812D01*
X126358534Y-113132671D01*
X126258949Y-113124794D01*
X126143343Y-113136155D01*
X126058914Y-113166559D01*
X125989487Y-113217949D01*
X125933129Y-113291734D01*
X125917742Y-113332034D01*
X125913468Y-113373433D01*
X125923970Y-113444141D01*
X125952547Y-113501660D01*
X125995411Y-113540495D01*
X126047191Y-113554661D01*
X126082613Y-113550338D01*
X126106786Y-113538907D01*
X126141346Y-113500439D01*
X126162229Y-113450614D01*
X126178471Y-113401765D01*
X126201308Y-113365861D01*
X126217741Y-113355287D01*
X126241242Y-113351451D01*
X126302547Y-113358290D01*
X126367759Y-113381127D01*
X126521632Y-113478579D01*
X126588504Y-113538500D01*
X126652791Y-113615600D01*
X126709155Y-113704723D01*
X126764410Y-113818810D01*
X126811554Y-113946604D01*
X126859176Y-114115687D01*
X126861863Y-114122159D01*
X126863084Y-114126556D01*
X126856001Y-114125457D01*
X126777965Y-114120694D01*
X126703593Y-114109703D01*
X126628977Y-114098834D01*
X126548621Y-114093949D01*
X126489270Y-114096880D01*
X126440910Y-114109459D01*
X126408060Y-114137058D01*
X126395847Y-114184808D01*
X126400732Y-114227672D01*
X126415997Y-114277009D01*
X126442864Y-114320240D01*
X126461200Y-114335760D01*
X126483653Y-114343932D01*
X126568649Y-114356877D01*
X126664270Y-114367623D01*
X126778820Y-114385087D01*
X126917062Y-114417449D01*
X126953942Y-114596235D01*
X126976535Y-114774776D01*
X126997662Y-114953440D01*
X127031245Y-115133569D01*
X127046022Y-115169717D01*
X127071179Y-115202323D01*
X127105129Y-115226015D01*
X127145673Y-115235052D01*
G37*
G36*
X125364898Y-114093705D02*
G01*
X125836531Y-113856057D01*
X126152459Y-113715861D01*
X126173378Y-113704519D01*
X126192027Y-113683011D01*
X126204276Y-113655954D01*
X126208391Y-113625980D01*
X126200897Y-113571181D01*
X126180059Y-113529748D01*
X126146081Y-113501879D01*
X126097871Y-113492135D01*
X126047970Y-113502424D01*
X125936304Y-113548555D01*
X125667149Y-113678614D01*
X125303715Y-113860575D01*
X125060450Y-113989047D01*
X125035416Y-114009848D01*
X125019905Y-114032034D01*
X125011175Y-114058497D01*
X125007815Y-114096758D01*
X125015836Y-114152026D01*
X125037369Y-114189448D01*
X125082265Y-114221463D01*
X125209682Y-114281039D01*
X125648342Y-114461657D01*
X126129623Y-114651434D01*
X126300044Y-114707724D01*
X126361531Y-114719211D01*
X126397280Y-114709428D01*
X126426744Y-114678178D01*
X126445102Y-114634268D01*
X126451535Y-114581214D01*
X126440142Y-114537741D01*
X126403143Y-114498643D01*
X126328558Y-114462512D01*
X126180042Y-114414332D01*
X125887456Y-114305952D01*
X125364898Y-114093705D01*
G37*
%TO.C,JP2*%
D12*
X130200000Y-104900000D02*
X130200000Y-105500000D01*
X130900000Y-106200000D02*
X132300000Y-106200000D01*
X132300000Y-104200000D02*
X130900000Y-104200000D01*
X133000000Y-105500000D02*
X133000000Y-104900000D01*
X130200000Y-104900000D02*
G75*
G02*
X130900000Y-104200000I699999J1D01*
G01*
X130900000Y-106200000D02*
G75*
G02*
X130200000Y-105500000I-1J699999D01*
G01*
X132300000Y-104200000D02*
G75*
G02*
X133000000Y-104900000I0J-700000D01*
G01*
X133000000Y-105500000D02*
G75*
G02*
X132300000Y-106200000I-700000J0D01*
G01*
%TO.C,TP6*%
X124600000Y-102600000D02*
G75*
G02*
X123200000Y-102600000I-700000J0D01*
G01*
X123200000Y-102600000D02*
G75*
G02*
X124600000Y-102600000I700000J0D01*
G01*
%TO.C,R5*%
X168046359Y-113920000D02*
X168353641Y-113920000D01*
X168046359Y-114680000D02*
X168353641Y-114680000D01*
D13*
%TO.C,LOGO\u002A*%
G36*
X187605072Y-110579333D02*
G01*
X187702292Y-110605213D01*
X187733133Y-110618354D01*
X187768916Y-110638272D01*
X187780113Y-110654168D01*
X187766495Y-110666500D01*
X187727835Y-110675724D01*
X187663904Y-110682299D01*
X187585843Y-110691144D01*
X187497318Y-110711619D01*
X187413737Y-110744584D01*
X187331709Y-110792062D01*
X187247843Y-110856073D01*
X187158748Y-110938639D01*
X187061035Y-111041783D01*
X187035014Y-111070144D01*
X186982564Y-111125028D01*
X186933121Y-111174026D01*
X186891277Y-111212659D01*
X186861619Y-111236445D01*
X186801500Y-111277019D01*
X186963777Y-111385071D01*
X186988246Y-111401447D01*
X187047160Y-111441535D01*
X187099494Y-111478029D01*
X187140306Y-111507451D01*
X187164651Y-111526327D01*
X187183172Y-111541446D01*
X187233152Y-111578460D01*
X187295954Y-111621739D01*
X187365992Y-111667727D01*
X187437681Y-111712872D01*
X187505435Y-111753617D01*
X187563669Y-111786410D01*
X187606799Y-111807695D01*
X187717384Y-111849137D01*
X187821858Y-111875076D01*
X187910618Y-111881516D01*
X187924971Y-111881136D01*
X187971158Y-111885069D01*
X187997957Y-111898468D01*
X188003239Y-111904138D01*
X188007400Y-111915530D01*
X187995066Y-111926101D01*
X187962377Y-111940402D01*
X187951435Y-111944624D01*
X187901720Y-111961293D01*
X187855844Y-111973563D01*
X187821112Y-111978998D01*
X187733397Y-111980466D01*
X187632607Y-111968790D01*
X187524124Y-111945028D01*
X187413333Y-111910236D01*
X187305617Y-111865474D01*
X187282405Y-111853740D01*
X187228476Y-111823691D01*
X187160809Y-111783590D01*
X187084040Y-111736266D01*
X187002804Y-111684547D01*
X186921738Y-111631261D01*
X186870383Y-111597155D01*
X186792533Y-111546321D01*
X186719461Y-111499583D01*
X186655261Y-111459520D01*
X186604025Y-111428709D01*
X186569849Y-111409727D01*
X186542465Y-111396516D01*
X186483125Y-111370623D01*
X186421308Y-111346487D01*
X186363419Y-111326403D01*
X186315858Y-111312670D01*
X186285030Y-111307581D01*
X186272470Y-111306517D01*
X186263236Y-111298800D01*
X186273452Y-111285931D01*
X186300165Y-111270672D01*
X186340423Y-111255783D01*
X186343982Y-111254707D01*
X186450070Y-111212995D01*
X186559110Y-111151263D01*
X186673127Y-111068202D01*
X186794146Y-110962503D01*
X186862519Y-110899250D01*
X186951240Y-110820968D01*
X187029072Y-110757995D01*
X187099497Y-110707917D01*
X187165992Y-110668322D01*
X187232037Y-110636798D01*
X187301110Y-110610931D01*
X187381832Y-110588861D01*
X187496826Y-110573903D01*
X187605072Y-110579333D01*
G37*
G36*
X204730990Y-110571450D02*
G01*
X204749917Y-110573424D01*
X204839734Y-110587168D01*
X204928123Y-110608850D01*
X205018538Y-110639950D01*
X205114430Y-110681949D01*
X205219252Y-110736327D01*
X205336457Y-110804564D01*
X205469496Y-110888143D01*
X205592195Y-110966403D01*
X205702362Y-111034304D01*
X205798692Y-111090648D01*
X205884615Y-111137294D01*
X205963564Y-111176101D01*
X206038968Y-111208930D01*
X206114259Y-111237640D01*
X206143873Y-111248579D01*
X206188979Y-111266870D01*
X206220859Y-111281972D01*
X206233996Y-111291406D01*
X206231453Y-111296291D01*
X206210928Y-111304767D01*
X206176059Y-111311264D01*
X206113492Y-111324266D01*
X206034128Y-111351629D01*
X205955493Y-111388335D01*
X205887934Y-111430117D01*
X205886413Y-111431248D01*
X205854118Y-111460023D01*
X205812401Y-111503521D01*
X205766484Y-111556038D01*
X205721586Y-111611871D01*
X205720773Y-111612930D01*
X205675294Y-111670703D01*
X205628862Y-111727222D01*
X205586877Y-111776052D01*
X205554735Y-111810760D01*
X205514439Y-111845262D01*
X205447592Y-111889947D01*
X205371392Y-111931264D01*
X205294650Y-111964537D01*
X205226176Y-111985091D01*
X205189574Y-111990138D01*
X205113704Y-111991201D01*
X205027242Y-111983346D01*
X204938401Y-111967085D01*
X204895379Y-111955688D01*
X204860319Y-111940851D01*
X204845297Y-111923799D01*
X204847221Y-111902334D01*
X204854035Y-111891708D01*
X204872229Y-111886241D01*
X204907408Y-111889956D01*
X204942048Y-111893764D01*
X205031366Y-111886910D01*
X205121722Y-111858595D01*
X205209266Y-111811179D01*
X205290143Y-111747025D01*
X205360501Y-111668493D01*
X205416487Y-111577944D01*
X205421959Y-111567047D01*
X205489952Y-111451527D01*
X205564450Y-111360063D01*
X205646097Y-111291856D01*
X205656892Y-111284306D01*
X205663663Y-111275226D01*
X205657169Y-111265028D01*
X205634344Y-111249994D01*
X205592124Y-111226410D01*
X205581407Y-111220361D01*
X205535028Y-111192317D01*
X205476246Y-111154820D01*
X205411504Y-111112035D01*
X205347243Y-111068124D01*
X205328296Y-111054931D01*
X205263639Y-111009918D01*
X205200962Y-110966296D01*
X205146605Y-110928476D01*
X205106909Y-110900871D01*
X205083188Y-110885043D01*
X205017425Y-110845592D01*
X204942398Y-110805227D01*
X204864270Y-110766893D01*
X204789204Y-110733533D01*
X204723361Y-110708092D01*
X204672904Y-110693513D01*
X204632300Y-110686844D01*
X204569583Y-110679698D01*
X204509673Y-110675741D01*
X204477141Y-110674021D01*
X204428911Y-110667344D01*
X204404892Y-110656614D01*
X204405474Y-110642087D01*
X204431046Y-110624019D01*
X204483390Y-110602439D01*
X204564381Y-110581749D01*
X204650587Y-110570775D01*
X204730990Y-110571450D01*
G37*
G36*
X192539288Y-109622963D02*
G01*
X192699574Y-109635486D01*
X192912604Y-109668283D01*
X193114682Y-109718253D01*
X193304369Y-109784507D01*
X193480227Y-109866153D01*
X193640817Y-109962301D01*
X193784701Y-110072061D01*
X193910441Y-110194541D01*
X194016599Y-110328850D01*
X194101736Y-110474098D01*
X194164413Y-110629395D01*
X194177640Y-110676238D01*
X194197729Y-110789466D01*
X194203326Y-110904235D01*
X194194334Y-111013070D01*
X194170655Y-111108492D01*
X194162046Y-111130526D01*
X194109708Y-111223473D01*
X194037944Y-111303550D01*
X193951068Y-111365706D01*
X193940974Y-111371223D01*
X193905274Y-111388323D01*
X193871691Y-111398097D01*
X193831000Y-111402516D01*
X193773980Y-111403551D01*
X193743682Y-111403002D01*
X193647472Y-111391809D01*
X193572077Y-111366129D01*
X193517218Y-111325878D01*
X193506551Y-111313760D01*
X193495009Y-111291576D01*
X193500821Y-111271817D01*
X193515541Y-111258293D01*
X193545179Y-111248612D01*
X193548573Y-111248460D01*
X193584133Y-111246990D01*
X193625575Y-111245413D01*
X193648134Y-111243148D01*
X193675097Y-111233587D01*
X193704238Y-111212741D01*
X193742662Y-111176423D01*
X193743708Y-111175374D01*
X193789820Y-111121879D01*
X193821581Y-111065945D01*
X193840642Y-111002086D01*
X193848655Y-110924812D01*
X193847268Y-110828636D01*
X193828873Y-110686166D01*
X193787678Y-110548527D01*
X193723050Y-110415943D01*
X193634273Y-110286949D01*
X193520630Y-110160074D01*
X193420823Y-110071290D01*
X193277173Y-109973001D01*
X193116493Y-109891844D01*
X192940486Y-109828523D01*
X192750858Y-109783744D01*
X192549314Y-109758212D01*
X192538129Y-109757394D01*
X192343975Y-109753152D01*
X192162420Y-109768385D01*
X191994500Y-109802739D01*
X191841252Y-109855858D01*
X191703710Y-109927388D01*
X191582912Y-110016975D01*
X191479894Y-110124264D01*
X191466299Y-110141559D01*
X191389005Y-110263201D01*
X191331353Y-110398654D01*
X191293139Y-110545920D01*
X191274157Y-110702999D01*
X191274204Y-110867891D01*
X191293074Y-111038595D01*
X191330563Y-111213113D01*
X191386466Y-111389444D01*
X191460579Y-111565590D01*
X191552696Y-111739549D01*
X191662614Y-111909323D01*
X191781882Y-112062889D01*
X191930239Y-112219471D01*
X192089461Y-112352941D01*
X192259725Y-112463409D01*
X192441205Y-112550987D01*
X192634077Y-112615787D01*
X192838517Y-112657921D01*
X192865328Y-112661479D01*
X192932060Y-112667942D01*
X193003626Y-112672255D01*
X193074972Y-112674388D01*
X193141047Y-112674309D01*
X193196795Y-112671987D01*
X193237165Y-112667392D01*
X193257103Y-112660492D01*
X193258459Y-112658788D01*
X193259721Y-112653862D01*
X193258629Y-112644824D01*
X193254340Y-112629512D01*
X193246010Y-112605761D01*
X193232796Y-112571410D01*
X193213856Y-112524293D01*
X193188345Y-112462248D01*
X193155422Y-112383112D01*
X193114242Y-112284721D01*
X193063963Y-112164911D01*
X193026377Y-112074980D01*
X192983330Y-111971206D01*
X192940009Y-111866095D01*
X192899833Y-111767947D01*
X192866224Y-111685062D01*
X192865678Y-111683707D01*
X192832356Y-111601358D01*
X192792553Y-111503618D01*
X192749574Y-111398563D01*
X192706723Y-111294270D01*
X192667304Y-111198816D01*
X192629251Y-111106552D01*
X192584084Y-110996269D01*
X192537754Y-110882488D01*
X192493941Y-110774246D01*
X192456323Y-110680579D01*
X192454930Y-110677091D01*
X192421331Y-110593133D01*
X192387574Y-110509061D01*
X192356066Y-110430849D01*
X192329211Y-110364469D01*
X192309416Y-110315894D01*
X192283202Y-110251510D01*
X192243722Y-110151804D01*
X192214951Y-110074815D01*
X192196787Y-110020254D01*
X192189130Y-109987827D01*
X192191878Y-109977243D01*
X192194612Y-109977622D01*
X192219208Y-109984449D01*
X192264779Y-109999201D01*
X192328960Y-110021063D01*
X192409391Y-110049220D01*
X192503707Y-110082860D01*
X192609547Y-110121168D01*
X192641752Y-110132914D01*
X192740535Y-110169301D01*
X192817450Y-110198636D01*
X192874265Y-110222044D01*
X192912750Y-110240655D01*
X192934674Y-110255593D01*
X192941806Y-110267987D01*
X192935916Y-110278963D01*
X192918773Y-110289648D01*
X192892146Y-110301169D01*
X192880702Y-110305997D01*
X192850170Y-110321604D01*
X192834060Y-110334143D01*
X192832094Y-110356765D01*
X192841624Y-110402087D01*
X192862802Y-110469294D01*
X192895500Y-110557990D01*
X192939596Y-110667783D01*
X192944146Y-110678780D01*
X192979834Y-110765132D01*
X193019978Y-110862414D01*
X193059990Y-110959500D01*
X193095281Y-111045264D01*
X193099638Y-111055857D01*
X193136300Y-111144639D01*
X193177557Y-111244045D01*
X193218669Y-111342679D01*
X193254897Y-111429143D01*
X193274984Y-111477032D01*
X193301772Y-111541263D01*
X193331531Y-111613027D01*
X193365211Y-111694636D01*
X193403762Y-111788401D01*
X193448134Y-111896635D01*
X193499278Y-112021648D01*
X193558143Y-112165752D01*
X193625680Y-112331259D01*
X193648739Y-112386355D01*
X193677791Y-112452613D01*
X193705008Y-112511661D01*
X193726643Y-112555188D01*
X193749670Y-112595324D01*
X193773546Y-112625143D01*
X193804450Y-112648489D01*
X193850756Y-112673334D01*
X193897104Y-112695240D01*
X193946799Y-112716620D01*
X193985113Y-112730916D01*
X193997432Y-112735145D01*
X194028522Y-112752599D01*
X194040386Y-112775919D01*
X194044475Y-112804710D01*
X193464568Y-112804587D01*
X193404022Y-112804538D01*
X193250402Y-112804006D01*
X193119077Y-112802841D01*
X193007618Y-112800982D01*
X192913600Y-112798365D01*
X192834595Y-112794930D01*
X192768176Y-112790614D01*
X192711914Y-112785354D01*
X192698811Y-112783882D01*
X192463717Y-112748700D01*
X192247852Y-112698561D01*
X192049111Y-112632523D01*
X191865388Y-112549644D01*
X191694576Y-112448980D01*
X191534572Y-112329589D01*
X191383268Y-112190529D01*
X191379388Y-112186599D01*
X191226727Y-112015589D01*
X191098561Y-111837283D01*
X190994799Y-111651499D01*
X190915353Y-111458052D01*
X190860133Y-111256758D01*
X190829051Y-111047433D01*
X190823184Y-110955989D01*
X190826694Y-110777896D01*
X190851578Y-110612321D01*
X190898283Y-110457572D01*
X190967252Y-110311959D01*
X191058931Y-110173791D01*
X191142119Y-110077936D01*
X191265359Y-109968816D01*
X191407465Y-109873070D01*
X191566347Y-109791475D01*
X191739916Y-109724807D01*
X191926084Y-109673845D01*
X192122761Y-109639366D01*
X192327859Y-109622146D01*
X192539288Y-109622963D01*
G37*
G36*
X196258427Y-111330441D02*
G01*
X196335289Y-111343010D01*
X196403552Y-111362522D01*
X196423243Y-111369488D01*
X196491465Y-111395053D01*
X196538968Y-111416152D01*
X196568945Y-111434659D01*
X196584588Y-111452448D01*
X196589093Y-111471393D01*
X196588852Y-111479776D01*
X196581963Y-111496447D01*
X196560302Y-111495805D01*
X196454241Y-111473257D01*
X196333797Y-111454558D01*
X196234989Y-111448337D01*
X196139055Y-111448337D01*
X196187910Y-111515516D01*
X196206048Y-111539825D01*
X196240331Y-111584564D01*
X196283931Y-111640638D01*
X196333112Y-111703247D01*
X196384139Y-111767593D01*
X196424812Y-111818681D01*
X196475001Y-111881875D01*
X196520567Y-111939405D01*
X196557726Y-111986495D01*
X196582695Y-112018366D01*
X196623508Y-112070058D01*
X196718998Y-112185885D01*
X196822807Y-112305893D01*
X196931062Y-112425918D01*
X197039893Y-112541798D01*
X197145425Y-112649371D01*
X197243788Y-112744472D01*
X197331108Y-112822940D01*
X197334615Y-112825930D01*
X197506796Y-112960872D01*
X197678227Y-113072115D01*
X197848276Y-113159466D01*
X198016309Y-113222728D01*
X198181696Y-113261707D01*
X198343802Y-113276209D01*
X198501995Y-113266038D01*
X198655642Y-113230999D01*
X198717821Y-113209604D01*
X198820622Y-113166084D01*
X198913992Y-113116492D01*
X198992597Y-113063795D01*
X199051102Y-113010963D01*
X199054452Y-113007266D01*
X199075895Y-112987729D01*
X199090877Y-112988636D01*
X199107171Y-113009831D01*
X199110828Y-113016198D01*
X199115069Y-113034169D01*
X199107242Y-113056086D01*
X199085188Y-113089806D01*
X199015662Y-113177680D01*
X198899374Y-113291146D01*
X198767445Y-113386451D01*
X198622759Y-113461904D01*
X198468199Y-113515813D01*
X198306649Y-113546486D01*
X198188216Y-113554013D01*
X198013486Y-113543792D01*
X197839793Y-113508181D01*
X197667527Y-113447295D01*
X197497077Y-113361254D01*
X197328832Y-113250175D01*
X197210846Y-113154258D01*
X197082406Y-113032617D01*
X196947087Y-112888136D01*
X196805528Y-112721536D01*
X196658371Y-112533538D01*
X196506256Y-112324861D01*
X196478267Y-112285257D01*
X196432826Y-112221190D01*
X196390972Y-112162445D01*
X196356415Y-112114226D01*
X196332868Y-112081737D01*
X196308058Y-112047722D01*
X196263499Y-111986032D01*
X196211260Y-111913225D01*
X196155120Y-111834607D01*
X196098861Y-111755489D01*
X196046263Y-111681178D01*
X196001106Y-111616983D01*
X195967170Y-111568214D01*
X195953258Y-111548086D01*
X195925584Y-111508484D01*
X195905026Y-111479666D01*
X195895249Y-111466802D01*
X195879710Y-111464626D01*
X195842696Y-111467350D01*
X195788226Y-111474538D01*
X195720125Y-111485528D01*
X195642217Y-111499663D01*
X195558328Y-111516282D01*
X195472282Y-111534724D01*
X195387905Y-111554330D01*
X195165608Y-111608287D01*
X195174468Y-111717052D01*
X195183717Y-111840611D01*
X195193707Y-112024492D01*
X195197229Y-112187634D01*
X195194205Y-112332553D01*
X195184559Y-112461767D01*
X195168215Y-112577794D01*
X195145096Y-112683148D01*
X195136201Y-112716710D01*
X195122213Y-112766517D01*
X195111292Y-112797760D01*
X195101369Y-112814602D01*
X195090375Y-112821209D01*
X195076242Y-112821744D01*
X195056615Y-112817500D01*
X195015951Y-112806269D01*
X194957993Y-112789131D01*
X194886286Y-112767157D01*
X194804375Y-112741416D01*
X194715805Y-112712978D01*
X194651022Y-112691930D01*
X194567168Y-112664429D01*
X194503321Y-112642884D01*
X194456813Y-112626164D01*
X194424974Y-112613139D01*
X194405132Y-112602677D01*
X194394617Y-112593647D01*
X194390760Y-112584918D01*
X194390890Y-112575359D01*
X194392173Y-112566491D01*
X194397536Y-112554177D01*
X194411347Y-112547998D01*
X194439313Y-112546298D01*
X194487138Y-112547420D01*
X194536563Y-112546930D01*
X194598270Y-112536256D01*
X194641554Y-112512450D01*
X194669200Y-112474396D01*
X194686027Y-112428452D01*
X194704357Y-112349511D01*
X194716328Y-112258422D01*
X194720693Y-112162730D01*
X194720493Y-112139968D01*
X194719075Y-112087027D01*
X194716529Y-112022773D01*
X194713127Y-111951817D01*
X194709141Y-111878769D01*
X194704844Y-111808240D01*
X194700509Y-111744840D01*
X194696408Y-111693179D01*
X194692814Y-111657867D01*
X194689998Y-111643516D01*
X194680360Y-111640568D01*
X194651604Y-111634367D01*
X194611000Y-111626730D01*
X194567965Y-111617267D01*
X194506429Y-111600138D01*
X194448888Y-111580845D01*
X194428710Y-111572804D01*
X194379149Y-111547856D01*
X194346225Y-111523331D01*
X194331047Y-111501699D01*
X194334723Y-111485427D01*
X194358361Y-111476983D01*
X194403072Y-111478838D01*
X194407397Y-111479428D01*
X194450204Y-111484372D01*
X194506091Y-111489817D01*
X194564131Y-111494688D01*
X194669698Y-111502730D01*
X194669595Y-111440345D01*
X194667888Y-111392094D01*
X194660477Y-111306433D01*
X194647647Y-111200636D01*
X194629890Y-111077406D01*
X194607697Y-110939445D01*
X194581559Y-110789458D01*
X194551967Y-110630147D01*
X194519414Y-110464216D01*
X194484389Y-110294368D01*
X194451206Y-110140974D01*
X194836045Y-110140974D01*
X194837151Y-110146710D01*
X194844441Y-110172949D01*
X194857044Y-110214423D01*
X194873195Y-110265228D01*
X194897321Y-110342509D01*
X194933928Y-110469096D01*
X194971081Y-110607357D01*
X195007572Y-110752147D01*
X195042196Y-110898321D01*
X195073745Y-111040734D01*
X195101013Y-111174241D01*
X195122795Y-111293696D01*
X195137882Y-111393954D01*
X195141875Y-111420155D01*
X195148511Y-111449062D01*
X195154394Y-111459719D01*
X195162660Y-111457884D01*
X195191781Y-111451077D01*
X195236206Y-111440542D01*
X195290302Y-111427611D01*
X195294874Y-111426522D01*
X195359303Y-111412145D01*
X195438541Y-111395780D01*
X195522968Y-111379361D01*
X195602965Y-111364818D01*
X195632219Y-111359686D01*
X195694113Y-111348486D01*
X195744460Y-111338902D01*
X195778699Y-111331818D01*
X195792267Y-111328119D01*
X195788218Y-111319058D01*
X195771369Y-111293474D01*
X195744328Y-111255701D01*
X195710048Y-111209984D01*
X195690367Y-111184224D01*
X195639259Y-111117193D01*
X195586196Y-111047450D01*
X195539940Y-110986504D01*
X195536991Y-110982613D01*
X195495501Y-110928047D01*
X195445014Y-110861899D01*
X195391639Y-110792162D01*
X195341486Y-110726831D01*
X195330810Y-110712946D01*
X195284552Y-110652703D01*
X195240123Y-110594723D01*
X195202120Y-110545009D01*
X195175139Y-110509565D01*
X195145589Y-110472207D01*
X195101899Y-110420175D01*
X195059975Y-110373091D01*
X195053173Y-110365761D01*
X195010674Y-110319932D01*
X194961870Y-110267268D01*
X194916020Y-110217759D01*
X194896321Y-110196775D01*
X194865342Y-110165203D01*
X194843996Y-110145399D01*
X194836045Y-110140974D01*
X194451206Y-110140974D01*
X194447384Y-110123305D01*
X194408890Y-109953732D01*
X194369399Y-109788352D01*
X194365070Y-109770532D01*
X194351130Y-109710446D01*
X194340662Y-109661027D01*
X194334620Y-109626985D01*
X194333956Y-109613029D01*
X194350895Y-109610507D01*
X194385050Y-109616241D01*
X194429411Y-109628881D01*
X194477197Y-109646827D01*
X194492135Y-109653359D01*
X194566751Y-109691456D01*
X194644993Y-109740647D01*
X194727896Y-109801966D01*
X194816492Y-109876448D01*
X194911818Y-109965127D01*
X195014907Y-110069040D01*
X195126794Y-110189221D01*
X195248513Y-110326705D01*
X195381099Y-110482527D01*
X195525585Y-110657722D01*
X195683007Y-110853324D01*
X195704961Y-110880938D01*
X195741078Y-110926599D01*
X195770966Y-110964667D01*
X195789748Y-110988945D01*
X195793369Y-110993725D01*
X195814129Y-111021122D01*
X195845650Y-111062715D01*
X195884325Y-111113747D01*
X195926550Y-111169459D01*
X196038163Y-111316720D01*
X196176071Y-111323902D01*
X196229182Y-111328119D01*
X196258427Y-111330441D01*
G37*
G36*
X200966332Y-111182681D02*
G01*
X200905384Y-111198719D01*
X200856339Y-111213977D01*
X200823649Y-111227335D01*
X200811763Y-111237671D01*
X200812789Y-111240819D01*
X200826705Y-111261239D01*
X200854805Y-111296063D01*
X200894415Y-111342302D01*
X200942864Y-111396968D01*
X200997481Y-111457072D01*
X201055593Y-111519627D01*
X201114528Y-111581644D01*
X201171615Y-111640134D01*
X201221355Y-111689883D01*
X201369198Y-111832309D01*
X201507549Y-111956584D01*
X201639567Y-112065353D01*
X201768416Y-112161260D01*
X201897257Y-112246948D01*
X201957616Y-112279327D01*
X202037502Y-112313522D01*
X202126713Y-112345350D01*
X202217063Y-112371899D01*
X202300367Y-112390260D01*
X202379791Y-112400689D01*
X202499425Y-112401195D01*
X202615032Y-112380688D01*
X202734358Y-112338242D01*
X202750080Y-112334923D01*
X202758069Y-112344562D01*
X202752938Y-112365534D01*
X202736196Y-112392823D01*
X202709350Y-112421410D01*
X202688344Y-112438529D01*
X202613185Y-112484057D01*
X202518461Y-112521097D01*
X202401549Y-112550751D01*
X202375002Y-112556040D01*
X202340175Y-112562164D01*
X202306059Y-112566594D01*
X202268899Y-112569420D01*
X202224940Y-112570733D01*
X202170428Y-112570622D01*
X202101610Y-112569179D01*
X202014730Y-112566492D01*
X201906034Y-112562653D01*
X201819548Y-112559153D01*
X201714838Y-112553941D01*
X201618929Y-112548107D01*
X201536017Y-112541938D01*
X201470299Y-112535722D01*
X201425970Y-112529746D01*
X201417515Y-112528221D01*
X201341575Y-112512653D01*
X201291185Y-112498300D01*
X201266346Y-112485187D01*
X201267059Y-112473335D01*
X201293326Y-112462770D01*
X201345146Y-112453515D01*
X201422521Y-112445594D01*
X201433321Y-112444725D01*
X201508659Y-112438262D01*
X201560167Y-112431770D01*
X201589344Y-112423394D01*
X201597687Y-112411278D01*
X201586695Y-112393568D01*
X201557866Y-112368407D01*
X201512700Y-112333942D01*
X201492006Y-112318180D01*
X201406083Y-112248315D01*
X201318575Y-112169684D01*
X201227450Y-112080152D01*
X201130677Y-111977585D01*
X201026227Y-111859850D01*
X200912069Y-111724811D01*
X200786171Y-111570334D01*
X200769659Y-111549784D01*
X200717988Y-111485598D01*
X200671187Y-111427635D01*
X200632038Y-111379333D01*
X200603326Y-111344127D01*
X200587834Y-111325456D01*
X200562242Y-111295664D01*
X200479068Y-111326502D01*
X200469166Y-111330168D01*
X200412617Y-111350959D01*
X200345568Y-111375429D01*
X200271855Y-111402196D01*
X200195319Y-111429879D01*
X200119797Y-111457095D01*
X200049130Y-111482465D01*
X199987155Y-111504606D01*
X199937712Y-111522137D01*
X199904639Y-111533676D01*
X199891775Y-111537842D01*
X199891222Y-111538583D01*
X199890435Y-111555580D01*
X199891889Y-111590450D01*
X199895362Y-111637078D01*
X199907557Y-111790590D01*
X199917433Y-111962557D01*
X199921175Y-112114301D01*
X199918650Y-112248423D01*
X199909727Y-112367527D01*
X199894273Y-112474215D01*
X199872154Y-112571090D01*
X199843240Y-112660755D01*
X199841279Y-112665882D01*
X199821215Y-112702934D01*
X199799749Y-112715138D01*
X199799396Y-112715133D01*
X199777960Y-112710165D01*
X199738815Y-112697056D01*
X199686122Y-112677535D01*
X199624043Y-112653329D01*
X199556740Y-112626165D01*
X199488373Y-112597772D01*
X199423105Y-112569875D01*
X199365097Y-112544204D01*
X199318510Y-112522486D01*
X199287506Y-112506448D01*
X199276247Y-112497818D01*
X199278909Y-112494312D01*
X199298198Y-112481652D01*
X199330012Y-112465285D01*
X199361061Y-112450033D01*
X199385491Y-112434686D01*
X199403952Y-112416132D01*
X199417279Y-112391173D01*
X199426304Y-112356613D01*
X199431861Y-112309251D01*
X199434784Y-112245892D01*
X199435906Y-112163337D01*
X199436061Y-112058388D01*
X199435893Y-112004609D01*
X199435005Y-111917178D01*
X199433463Y-111837701D01*
X199431386Y-111770588D01*
X199428893Y-111720247D01*
X199426104Y-111691089D01*
X199416283Y-111633135D01*
X199318099Y-111617514D01*
X199260104Y-111605551D01*
X199198540Y-111587409D01*
X199143129Y-111565967D01*
X199098601Y-111543335D01*
X199069687Y-111521621D01*
X199061114Y-111502934D01*
X199063462Y-111496004D01*
X199071479Y-111489147D01*
X199088745Y-111485027D01*
X199119341Y-111483223D01*
X199167346Y-111483317D01*
X199236841Y-111484890D01*
X199408210Y-111489453D01*
X199400322Y-111388920D01*
X199390846Y-111290200D01*
X199374302Y-111156542D01*
X199352374Y-111005089D01*
X199325734Y-110839542D01*
X199295053Y-110663608D01*
X199261004Y-110480991D01*
X199224257Y-110295394D01*
X199185485Y-110110521D01*
X199173647Y-110057285D01*
X199551531Y-110057285D01*
X199556045Y-110077532D01*
X199567081Y-110115994D01*
X199583306Y-110168169D01*
X199603383Y-110229554D01*
X199621573Y-110286784D01*
X199651648Y-110390967D01*
X199683872Y-110512244D01*
X199717100Y-110645699D01*
X199750187Y-110786416D01*
X199781988Y-110929479D01*
X199811358Y-111069970D01*
X199837151Y-111202975D01*
X199858222Y-111323576D01*
X199862896Y-111345113D01*
X199872546Y-111362421D01*
X199890218Y-111369745D01*
X199919897Y-111367329D01*
X199965567Y-111355421D01*
X200031209Y-111334266D01*
X200043945Y-111329951D01*
X200093452Y-111312480D01*
X200153358Y-111290591D01*
X200218743Y-111266166D01*
X200284686Y-111241088D01*
X200346266Y-111217240D01*
X200398562Y-111196504D01*
X200436653Y-111180763D01*
X200455619Y-111171899D01*
X200456342Y-111170513D01*
X200449593Y-111154159D01*
X200427730Y-111120019D01*
X200390559Y-111067835D01*
X200337886Y-110997350D01*
X200269517Y-110908308D01*
X200185257Y-110800451D01*
X200084912Y-110673523D01*
X199968287Y-110527266D01*
X199932362Y-110482614D01*
X199861955Y-110396482D01*
X199794302Y-110315432D01*
X199731285Y-110241598D01*
X199674790Y-110177114D01*
X199626701Y-110124115D01*
X199588900Y-110084735D01*
X199563273Y-110061107D01*
X199551703Y-110055366D01*
X199551531Y-110057285D01*
X199173647Y-110057285D01*
X199145359Y-109930078D01*
X199104550Y-109757767D01*
X199096577Y-109725083D01*
X199081614Y-109662884D01*
X199069605Y-109611785D01*
X199061616Y-109576365D01*
X199058715Y-109561205D01*
X199062815Y-109556908D01*
X199085241Y-109557103D01*
X199122418Y-109565247D01*
X199168880Y-109580015D01*
X199219160Y-109600081D01*
X199277339Y-109628682D01*
X199364209Y-109681893D01*
X199456373Y-109750806D01*
X199556503Y-109837472D01*
X199667273Y-109943944D01*
X199670212Y-109946887D01*
X199779055Y-110058426D01*
X199893851Y-110180477D01*
X200008332Y-110306160D01*
X200116228Y-110428594D01*
X200211270Y-110540902D01*
X200223712Y-110555911D01*
X200259313Y-110598469D01*
X200306391Y-110654417D01*
X200361526Y-110719702D01*
X200421298Y-110790271D01*
X200482289Y-110862073D01*
X200683848Y-111098993D01*
X200785016Y-111069690D01*
X200926599Y-111033302D01*
X201065997Y-111006881D01*
X201195111Y-110992083D01*
X201310013Y-110989356D01*
X201406776Y-110999144D01*
X201413623Y-111000463D01*
X201495699Y-111021240D01*
X201575696Y-111049621D01*
X201645799Y-111082455D01*
X201698191Y-111116592D01*
X201751676Y-111171689D01*
X201792352Y-111239527D01*
X201814813Y-111311651D01*
X201818865Y-111383819D01*
X201804311Y-111451789D01*
X201770954Y-111511318D01*
X201718599Y-111558162D01*
X201701795Y-111568551D01*
X201676012Y-111580976D01*
X201655797Y-111580933D01*
X201630559Y-111569823D01*
X201627092Y-111568008D01*
X201602421Y-111553487D01*
X201592318Y-111544546D01*
X201593855Y-111540644D01*
X201605723Y-111520509D01*
X201625480Y-111490492D01*
X201630611Y-111482543D01*
X201652725Y-111423886D01*
X201651709Y-111362470D01*
X201628865Y-111301998D01*
X201585496Y-111246175D01*
X201522903Y-111198704D01*
X201512203Y-111192793D01*
X201445531Y-111165776D01*
X201366799Y-111145720D01*
X201287030Y-111134902D01*
X201217244Y-111135597D01*
X201176102Y-111141089D01*
X201106142Y-111152746D01*
X201034735Y-111166983D01*
X201019353Y-111170513D01*
X200966332Y-111182681D01*
G37*
G36*
X195501421Y-108685023D02*
G01*
X195471469Y-108697627D01*
X195416734Y-108721839D01*
X195658415Y-108967391D01*
X195689964Y-108999547D01*
X195821695Y-109136520D01*
X195940340Y-109265204D01*
X196048923Y-109389519D01*
X196150467Y-109513381D01*
X196247998Y-109640709D01*
X196344539Y-109775421D01*
X196443115Y-109921435D01*
X196546749Y-110082669D01*
X196658466Y-110263041D01*
X196678932Y-110296710D01*
X196728215Y-110378743D01*
X196778684Y-110463853D01*
X196825448Y-110543764D01*
X196863616Y-110610201D01*
X196921648Y-110712249D01*
X197014136Y-110873168D01*
X197107270Y-111033256D01*
X197199856Y-111190559D01*
X197290697Y-111343122D01*
X197378597Y-111488992D01*
X197462361Y-111626215D01*
X197540792Y-111752836D01*
X197612695Y-111866900D01*
X197676873Y-111966454D01*
X197732132Y-112049544D01*
X197777274Y-112114215D01*
X197811105Y-112158513D01*
X197842971Y-112196901D01*
X197843071Y-111985768D01*
X197843481Y-111891549D01*
X197845739Y-111723041D01*
X197849809Y-111544469D01*
X197855515Y-111359398D01*
X197862677Y-111171396D01*
X197871117Y-110984026D01*
X197880659Y-110800854D01*
X197891122Y-110625447D01*
X197902330Y-110461369D01*
X197914104Y-110312187D01*
X197926266Y-110181465D01*
X197938638Y-110072770D01*
X197960562Y-109925800D01*
X197995244Y-109757458D01*
X198037830Y-109611368D01*
X198089014Y-109486148D01*
X198149491Y-109380414D01*
X198219953Y-109292786D01*
X198301095Y-109221881D01*
X198393609Y-109166316D01*
X198402559Y-109161978D01*
X198512830Y-109119292D01*
X198622215Y-109098596D01*
X198738816Y-109098293D01*
X198790873Y-109104111D01*
X198915427Y-109134162D01*
X199039809Y-109187849D01*
X199061058Y-109199144D01*
X199106601Y-109225644D01*
X199133118Y-109246477D01*
X199143978Y-109264787D01*
X199142554Y-109283723D01*
X199135700Y-109301571D01*
X199115801Y-109325373D01*
X199085996Y-109328693D01*
X199042203Y-109312708D01*
X198988442Y-109293491D01*
X198905728Y-109284902D01*
X198820570Y-109297474D01*
X198738318Y-109330222D01*
X198664324Y-109382165D01*
X198654545Y-109391204D01*
X198608248Y-109442190D01*
X198567575Y-109502847D01*
X198531789Y-109575448D01*
X198500154Y-109662267D01*
X198471934Y-109765578D01*
X198446392Y-109887655D01*
X198422792Y-110030771D01*
X198400398Y-110197202D01*
X198391930Y-110271183D01*
X198378184Y-110414647D01*
X198365353Y-110577589D01*
X198353621Y-110756168D01*
X198343173Y-110946545D01*
X198334194Y-111144878D01*
X198326867Y-111347329D01*
X198321377Y-111550057D01*
X198317909Y-111749221D01*
X198316647Y-111940982D01*
X198316632Y-111954659D01*
X198316067Y-112063184D01*
X198314799Y-112186523D01*
X198312960Y-112315252D01*
X198310681Y-112439944D01*
X198308096Y-112551178D01*
X198299698Y-112867066D01*
X198234547Y-112834359D01*
X198186912Y-112809092D01*
X198130482Y-112774558D01*
X198076132Y-112734965D01*
X198021547Y-112687986D01*
X197964414Y-112631296D01*
X197902417Y-112562566D01*
X197833244Y-112479471D01*
X197754580Y-112379685D01*
X197664110Y-112260881D01*
X197576769Y-112143310D01*
X197416248Y-111918728D01*
X197258843Y-111686799D01*
X197101781Y-111443281D01*
X196942290Y-111183932D01*
X196777595Y-110904508D01*
X196746870Y-110851398D01*
X196690809Y-110754695D01*
X196643835Y-110674146D01*
X196603464Y-110605673D01*
X196567213Y-110545194D01*
X196532596Y-110488630D01*
X196497131Y-110431901D01*
X196458333Y-110370927D01*
X196413717Y-110301628D01*
X196360801Y-110219924D01*
X196291948Y-110115897D01*
X196176875Y-109950313D01*
X196059064Y-109790111D01*
X195942952Y-109641264D01*
X195832981Y-109509748D01*
X195804476Y-109477783D01*
X195744733Y-109413358D01*
X195672879Y-109338138D01*
X195593038Y-109256269D01*
X195509334Y-109171892D01*
X195425892Y-109089153D01*
X195346834Y-109012194D01*
X195276285Y-108945160D01*
X195218370Y-108892193D01*
X195146437Y-108828386D01*
X194870998Y-108920863D01*
X194740648Y-108964003D01*
X194567970Y-109018612D01*
X194411307Y-109064479D01*
X194266289Y-109102573D01*
X194128543Y-109133859D01*
X193993697Y-109159306D01*
X193857381Y-109179880D01*
X193715221Y-109196549D01*
X193562846Y-109210280D01*
X193465159Y-109216241D01*
X193323691Y-109219806D01*
X193175843Y-109218518D01*
X193026914Y-109212684D01*
X192882204Y-109202613D01*
X192747011Y-109188612D01*
X192626634Y-109170990D01*
X192526373Y-109150054D01*
X192352506Y-109101104D01*
X192148865Y-109029839D01*
X191965027Y-108948836D01*
X191801813Y-108858614D01*
X191660043Y-108759696D01*
X191540536Y-108652602D01*
X191444112Y-108537854D01*
X191371591Y-108415972D01*
X191359975Y-108391355D01*
X191341365Y-108346511D01*
X191330008Y-108305597D01*
X191323583Y-108258772D01*
X191319771Y-108196197D01*
X191318644Y-108158746D01*
X191319349Y-108142205D01*
X191534592Y-108142205D01*
X191539235Y-108233074D01*
X191559873Y-108316266D01*
X191567718Y-108335551D01*
X191610302Y-108415804D01*
X191668231Y-108499574D01*
X191736046Y-108579562D01*
X191808289Y-108648466D01*
X191827692Y-108664204D01*
X191930089Y-108734582D01*
X192051990Y-108801457D01*
X192188420Y-108862759D01*
X192334405Y-108916416D01*
X192484969Y-108960360D01*
X192635139Y-108992519D01*
X192668454Y-108998020D01*
X192725190Y-109005985D01*
X192784012Y-109012099D01*
X192849622Y-109016659D01*
X192926720Y-109019962D01*
X193020006Y-109022302D01*
X193134181Y-109023978D01*
X193208829Y-109024546D01*
X193305188Y-109024488D01*
X193395598Y-109023595D01*
X193475150Y-109021947D01*
X193538934Y-109019623D01*
X193582040Y-109016703D01*
X193664042Y-109007324D01*
X193871391Y-108975649D01*
X194093734Y-108930865D01*
X194332586Y-108872613D01*
X194589465Y-108800537D01*
X194865888Y-108714279D01*
X194966109Y-108681605D01*
X194929868Y-108643208D01*
X194923210Y-108636602D01*
X194893560Y-108610266D01*
X194849996Y-108573947D01*
X194797256Y-108531544D01*
X194740076Y-108486957D01*
X194611457Y-108390410D01*
X194355538Y-108211938D01*
X194105934Y-108056825D01*
X193861328Y-107924498D01*
X193620401Y-107814381D01*
X193381835Y-107725903D01*
X193144313Y-107658489D01*
X192906517Y-107611566D01*
X192667129Y-107584559D01*
X192569261Y-107579756D01*
X192397494Y-107582441D01*
X192235379Y-107599265D01*
X192084943Y-107629531D01*
X191948217Y-107672541D01*
X191827230Y-107727600D01*
X191724012Y-107794010D01*
X191640593Y-107871075D01*
X191579001Y-107958098D01*
X191571374Y-107973222D01*
X191545464Y-108052606D01*
X191534592Y-108142205D01*
X191319349Y-108142205D01*
X191322161Y-108076246D01*
X191336787Y-108005748D01*
X191364920Y-107938355D01*
X191408959Y-107865165D01*
X191474278Y-107785492D01*
X191567953Y-107705972D01*
X191683148Y-107635509D01*
X191818327Y-107574896D01*
X191971955Y-107524927D01*
X192142494Y-107486394D01*
X192156942Y-107483913D01*
X192244734Y-107473319D01*
X192350296Y-107466378D01*
X192467296Y-107463090D01*
X192589402Y-107463454D01*
X192710284Y-107467470D01*
X192823610Y-107475137D01*
X192923048Y-107486455D01*
X193096821Y-107515082D01*
X193321000Y-107563342D01*
X193538702Y-107624357D01*
X193755537Y-107699939D01*
X193977114Y-107791900D01*
X194209043Y-107902054D01*
X194357507Y-107979787D01*
X194567789Y-108100443D01*
X194773706Y-108230416D01*
X194968290Y-108365249D01*
X195144573Y-108500485D01*
X195159046Y-108512065D01*
X195197838Y-108541269D01*
X195228323Y-108561610D01*
X195244896Y-108569244D01*
X195247999Y-108568668D01*
X195272336Y-108559764D01*
X195317810Y-108540601D01*
X195382977Y-108511836D01*
X195466394Y-108474126D01*
X195566618Y-108428127D01*
X195682205Y-108374495D01*
X195811711Y-108313887D01*
X195953692Y-108246959D01*
X195955138Y-108246276D01*
X196209625Y-108127378D01*
X196444339Y-108020867D01*
X196661433Y-107925952D01*
X196863061Y-107841847D01*
X197051374Y-107767763D01*
X197228527Y-107702911D01*
X197396673Y-107646503D01*
X197557964Y-107597751D01*
X197714554Y-107555866D01*
X197868595Y-107520060D01*
X198022242Y-107489544D01*
X198088554Y-107478023D01*
X198345624Y-107444460D01*
X198595557Y-107429482D01*
X198835724Y-107433074D01*
X199063497Y-107455223D01*
X199276247Y-107495916D01*
X199354279Y-107516997D01*
X199521449Y-107576903D01*
X199674053Y-107652644D01*
X199810224Y-107742881D01*
X199928095Y-107846276D01*
X200025799Y-107961492D01*
X200101467Y-108087191D01*
X200147094Y-108200370D01*
X200173608Y-108312686D01*
X200181367Y-108421027D01*
X200170916Y-108522662D01*
X200142801Y-108614856D01*
X200097567Y-108694875D01*
X200035757Y-108759986D01*
X199957917Y-108807456D01*
X199945937Y-108812213D01*
X199881140Y-108826738D01*
X199806550Y-108830083D01*
X199732923Y-108822386D01*
X199671013Y-108803784D01*
X199627934Y-108781975D01*
X199587200Y-108752668D01*
X199569503Y-108724059D01*
X199573468Y-108694609D01*
X199581192Y-108681345D01*
X199595822Y-108670661D01*
X199621859Y-108665964D01*
X199666375Y-108665000D01*
X199688115Y-108664805D01*
X199729710Y-108660980D01*
X199761255Y-108649842D01*
X199793760Y-108628214D01*
X199828403Y-108596650D01*
X199866014Y-108538774D01*
X199885446Y-108467008D01*
X199887870Y-108378248D01*
X199884813Y-108339033D01*
X199876418Y-108289866D01*
X199860510Y-108243717D01*
X199833635Y-108188507D01*
X199828266Y-108178513D01*
X199758059Y-108076423D01*
X199666222Y-107986644D01*
X199552522Y-107909040D01*
X199416725Y-107843476D01*
X199258599Y-107789816D01*
X199077909Y-107747923D01*
X199056129Y-107744497D01*
X198991189Y-107738249D01*
X198908034Y-107733943D01*
X198811710Y-107731538D01*
X198707262Y-107730994D01*
X198599736Y-107732268D01*
X198494178Y-107735321D01*
X198395635Y-107740111D01*
X198309151Y-107746597D01*
X198239773Y-107754738D01*
X198233296Y-107755728D01*
X198106684Y-107777980D01*
X197963080Y-107807882D01*
X197808938Y-107843793D01*
X197650713Y-107884075D01*
X197494861Y-107927087D01*
X197347837Y-107971191D01*
X197216096Y-108014746D01*
X197155856Y-108035948D01*
X197036385Y-108078642D01*
X196920480Y-108121065D01*
X196804277Y-108164714D01*
X196683917Y-108211085D01*
X196555536Y-108261677D01*
X196415273Y-108317985D01*
X196259266Y-108381508D01*
X196083653Y-108453741D01*
X196052655Y-108466427D01*
X195985360Y-108493552D01*
X195906013Y-108525162D01*
X195822061Y-108558297D01*
X195740949Y-108589995D01*
X195682934Y-108612634D01*
X195612316Y-108640465D01*
X195550090Y-108665282D01*
X195509848Y-108681605D01*
X195501421Y-108685023D01*
G37*
G36*
X202970263Y-110591099D02*
G01*
X202984145Y-110605950D01*
X202998804Y-110609978D01*
X203018278Y-110607377D01*
X203037409Y-110602634D01*
X203087782Y-110585616D01*
X203148731Y-110561198D01*
X203212478Y-110532763D01*
X203271244Y-110503692D01*
X203317250Y-110477368D01*
X203412935Y-110401811D01*
X203498640Y-110304129D01*
X203569306Y-110189170D01*
X203622711Y-110059974D01*
X203633304Y-110025836D01*
X203644889Y-109979348D01*
X203651820Y-109932484D01*
X203655192Y-109876851D01*
X203656100Y-109804055D01*
X203656092Y-109790052D01*
X203655220Y-109724498D01*
X203652043Y-109674740D01*
X203645323Y-109632476D01*
X203633822Y-109589405D01*
X203616302Y-109537228D01*
X203611250Y-109523223D01*
X203585428Y-109458224D01*
X203556492Y-109393280D01*
X203529805Y-109340580D01*
X203529192Y-109339487D01*
X203472023Y-109253949D01*
X203398476Y-109168353D01*
X203313913Y-109087384D01*
X203223693Y-109015728D01*
X203133176Y-108958073D01*
X203047724Y-108919104D01*
X203037863Y-108915890D01*
X202962223Y-108900804D01*
X202865325Y-108895728D01*
X202833255Y-108895863D01*
X202783849Y-108898030D01*
X202745602Y-108904392D01*
X202708929Y-108916950D01*
X202664244Y-108937705D01*
X202623085Y-108960548D01*
X202574233Y-108994566D01*
X202539675Y-109026994D01*
X202520980Y-109048621D01*
X202505078Y-109063194D01*
X202502935Y-109058516D01*
X202514543Y-109035970D01*
X202539891Y-108996933D01*
X202567153Y-108962998D01*
X202610772Y-108926998D01*
X202668439Y-108897692D01*
X202745924Y-108871571D01*
X202799231Y-108858520D01*
X202849276Y-108852668D01*
X202902094Y-108854596D01*
X202964795Y-108864571D01*
X203044494Y-108882863D01*
X203191008Y-108929663D01*
X203333362Y-108995744D01*
X203466612Y-109078099D01*
X203588705Y-109174442D01*
X203697591Y-109282483D01*
X203791220Y-109399934D01*
X203867541Y-109524506D01*
X203924502Y-109653911D01*
X203960054Y-109785861D01*
X203972146Y-109918066D01*
X203972136Y-109920489D01*
X203959543Y-110060160D01*
X203923886Y-110190036D01*
X203866082Y-110309239D01*
X203787045Y-110416886D01*
X203687693Y-110512099D01*
X203568941Y-110593997D01*
X203431704Y-110661699D01*
X203276899Y-110714327D01*
X203105441Y-110750999D01*
X203090881Y-110753570D01*
X203062382Y-110760672D01*
X203051058Y-110766918D01*
X203054012Y-110774563D01*
X203066625Y-110802615D01*
X203087766Y-110848094D01*
X203115923Y-110907782D01*
X203149585Y-110978458D01*
X203187238Y-111056901D01*
X203203493Y-111090691D01*
X203247576Y-111182756D01*
X203291785Y-111275631D01*
X203333297Y-111363356D01*
X203369289Y-111439972D01*
X203396938Y-111499521D01*
X203429238Y-111568850D01*
X203480821Y-111676524D01*
X203536200Y-111789092D01*
X203593737Y-111903443D01*
X203651793Y-112016460D01*
X203708730Y-112125032D01*
X203762909Y-112226042D01*
X203812691Y-112316378D01*
X203856439Y-112392925D01*
X203892512Y-112452570D01*
X203919274Y-112492198D01*
X203923137Y-112497081D01*
X203931710Y-112504883D01*
X203944466Y-112510396D01*
X203964972Y-112513889D01*
X203996794Y-112515631D01*
X204043499Y-112515892D01*
X204108654Y-112514938D01*
X204195825Y-112513041D01*
X204234222Y-112512315D01*
X204397652Y-112513509D01*
X204541319Y-112522680D01*
X204669180Y-112540519D01*
X204785192Y-112567716D01*
X204893310Y-112604963D01*
X204997492Y-112652950D01*
X205075753Y-112698323D01*
X205150436Y-112756814D01*
X205202456Y-112819572D01*
X205233410Y-112888189D01*
X205247272Y-112965224D01*
X205246649Y-112971080D01*
X205239606Y-113037247D01*
X205208189Y-113102996D01*
X205152100Y-113165612D01*
X205144723Y-113172072D01*
X205067238Y-113221715D01*
X204973593Y-113254287D01*
X204866395Y-113269801D01*
X204748250Y-113268270D01*
X204621767Y-113249708D01*
X204489552Y-113214127D01*
X204354213Y-113161542D01*
X204171258Y-113068133D01*
X203990695Y-112951727D01*
X203813497Y-112812046D01*
X203793406Y-112794830D01*
X203754060Y-112763346D01*
X203723360Y-112746155D01*
X203693760Y-112741425D01*
X203657717Y-112747320D01*
X203607683Y-112762007D01*
X203498787Y-112798590D01*
X203331475Y-112863625D01*
X203146114Y-112944890D01*
X202943420Y-113042039D01*
X202724112Y-113154723D01*
X202488904Y-113282596D01*
X202238514Y-113425311D01*
X202131016Y-113487264D01*
X201945430Y-113591548D01*
X201758770Y-113693291D01*
X201575501Y-113790148D01*
X201400088Y-113879776D01*
X201236996Y-113959829D01*
X201090688Y-114027965D01*
X200888973Y-114114764D01*
X200630780Y-114215167D01*
X200369865Y-114305395D01*
X200110638Y-114384126D01*
X199857508Y-114450040D01*
X199614885Y-114501817D01*
X199387176Y-114538137D01*
X199337115Y-114543569D01*
X199244749Y-114550140D01*
X199141044Y-114554301D01*
X199032137Y-114556047D01*
X198924164Y-114555373D01*
X198823259Y-114552273D01*
X198735558Y-114546742D01*
X198667197Y-114538775D01*
X198523197Y-114508562D01*
X198377208Y-114462439D01*
X198245035Y-114403896D01*
X198129399Y-114334358D01*
X198033016Y-114255245D01*
X197958607Y-114167982D01*
X197941904Y-114141526D01*
X197907433Y-114064678D01*
X197889331Y-113985060D01*
X197887404Y-113907312D01*
X197901459Y-113836075D01*
X197931305Y-113775993D01*
X197976746Y-113731706D01*
X197997092Y-113720545D01*
X198023784Y-113718110D01*
X198041441Y-113738138D01*
X198052019Y-113781935D01*
X198059946Y-113823784D01*
X198087382Y-113896681D01*
X198133540Y-113964167D01*
X198201591Y-114031535D01*
X198214743Y-114042625D01*
X198293683Y-114098922D01*
X198382673Y-114144736D01*
X198486806Y-114182336D01*
X198611173Y-114213990D01*
X198652443Y-114222476D01*
X198697329Y-114230136D01*
X198743034Y-114235619D01*
X198794513Y-114239259D01*
X198856718Y-114241390D01*
X198934604Y-114242347D01*
X199033124Y-114242464D01*
X199114906Y-114242121D01*
X199198884Y-114240937D01*
X199267868Y-114238517D01*
X199327747Y-114234436D01*
X199384413Y-114228270D01*
X199443754Y-114219596D01*
X199511660Y-114207987D01*
X199723741Y-114165382D01*
X199973786Y-114102505D01*
X200228151Y-114024637D01*
X200491121Y-113930451D01*
X200766977Y-113818616D01*
X200802592Y-113803285D01*
X200861732Y-113777242D01*
X200924949Y-113748638D01*
X200993940Y-113716641D01*
X201070404Y-113680419D01*
X201156037Y-113639140D01*
X201252540Y-113591973D01*
X201361609Y-113538085D01*
X201484942Y-113476645D01*
X201624238Y-113406820D01*
X201781195Y-113327780D01*
X201957511Y-113238692D01*
X202154883Y-113138725D01*
X202165259Y-113133470D01*
X202419363Y-113008355D01*
X202655483Y-112899326D01*
X202874999Y-112805821D01*
X203079293Y-112727277D01*
X203248568Y-112670266D01*
X204051383Y-112670266D01*
X204057758Y-112681904D01*
X204078362Y-112708277D01*
X204110049Y-112745555D01*
X204149678Y-112789905D01*
X204181506Y-112823536D01*
X204298015Y-112928808D01*
X204423060Y-113016826D01*
X204552460Y-113084916D01*
X204682034Y-113130404D01*
X204747131Y-113142558D01*
X204822361Y-113148263D01*
X204893951Y-113146366D01*
X204951580Y-113136631D01*
X204981280Y-113123758D01*
X205027706Y-113086893D01*
X205063658Y-113038175D01*
X205081827Y-112986052D01*
X205083026Y-112971080D01*
X205072640Y-112911179D01*
X205040006Y-112852728D01*
X204987722Y-112798583D01*
X204918390Y-112751597D01*
X204834608Y-112714626D01*
X204775001Y-112696769D01*
X204680696Y-112675178D01*
X204576523Y-112657314D01*
X204471411Y-112644893D01*
X204455340Y-112643866D01*
X204408452Y-112643115D01*
X204349890Y-112644159D01*
X204284977Y-112646678D01*
X204219035Y-112650351D01*
X204157389Y-112654857D01*
X204105361Y-112659877D01*
X204068274Y-112665090D01*
X204051453Y-112670176D01*
X204051383Y-112670266D01*
X203248568Y-112670266D01*
X203269744Y-112663134D01*
X203447733Y-112612830D01*
X203468696Y-112607407D01*
X203515318Y-112594401D01*
X203549545Y-112583507D01*
X203565131Y-112576648D01*
X203564626Y-112570869D01*
X203552378Y-112548379D01*
X203528577Y-112513862D01*
X203496312Y-112472015D01*
X203434796Y-112393256D01*
X203357125Y-112286374D01*
X203277962Y-112168865D01*
X203196197Y-112038839D01*
X203110717Y-111894407D01*
X203020411Y-111733681D01*
X202924166Y-111554769D01*
X202820871Y-111355784D01*
X202709415Y-111134836D01*
X202524466Y-110763753D01*
X202458266Y-110749220D01*
X202440390Y-110745179D01*
X202374647Y-110729002D01*
X202299565Y-110709035D01*
X202221986Y-110687233D01*
X202148757Y-110665555D01*
X202086719Y-110645957D01*
X202042718Y-110630397D01*
X201975597Y-110602527D01*
X201787684Y-110509348D01*
X201606840Y-110397750D01*
X201435378Y-110270087D01*
X201275615Y-110128714D01*
X201129865Y-109975986D01*
X201000443Y-109814257D01*
X200889664Y-109645883D01*
X200799844Y-109473217D01*
X200733297Y-109298614D01*
X200717147Y-109232671D01*
X200704849Y-109138472D01*
X200703198Y-109074876D01*
X200903631Y-109074876D01*
X200921562Y-109185589D01*
X200959718Y-109309251D01*
X201017951Y-109445205D01*
X201096114Y-109592794D01*
X201133032Y-109654014D01*
X201249111Y-109818610D01*
X201385263Y-109977772D01*
X201537455Y-110127411D01*
X201701655Y-110263435D01*
X201873829Y-110381753D01*
X201907106Y-110401286D01*
X201971207Y-110435581D01*
X202043287Y-110471250D01*
X202115817Y-110504739D01*
X202181269Y-110532492D01*
X202232116Y-110550954D01*
X202233349Y-110551333D01*
X202293513Y-110568378D01*
X202348856Y-110581521D01*
X202394468Y-110589859D01*
X202425437Y-110592491D01*
X202436852Y-110588517D01*
X202435151Y-110582923D01*
X202423855Y-110556580D01*
X202403162Y-110511795D01*
X202374473Y-110451401D01*
X202339189Y-110378230D01*
X202298712Y-110295116D01*
X202254441Y-110204894D01*
X202207779Y-110110394D01*
X202160125Y-110014452D01*
X202112881Y-109919900D01*
X202067447Y-109829572D01*
X202025225Y-109746300D01*
X201987616Y-109672918D01*
X201956020Y-109612260D01*
X201931839Y-109567158D01*
X201872990Y-109463353D01*
X201772717Y-109301098D01*
X201673579Y-109158894D01*
X201576403Y-109037740D01*
X201482015Y-108938634D01*
X201391244Y-108862575D01*
X201304916Y-108810561D01*
X201259197Y-108792146D01*
X201178328Y-108774355D01*
X201101475Y-108775024D01*
X201032750Y-108793379D01*
X200976268Y-108828645D01*
X200936142Y-108880045D01*
X200929033Y-108894925D01*
X200906072Y-108977769D01*
X200903631Y-109074876D01*
X200703198Y-109074876D01*
X200702348Y-109042110D01*
X200709769Y-108952134D01*
X200727233Y-108877094D01*
X200744485Y-108836416D01*
X200795951Y-108760859D01*
X200866094Y-108698307D01*
X200951851Y-108650272D01*
X201050161Y-108618263D01*
X201157963Y-108603789D01*
X201272194Y-108608361D01*
X201275635Y-108608799D01*
X201416402Y-108637284D01*
X201553172Y-108686345D01*
X201686832Y-108756685D01*
X201818272Y-108849007D01*
X201948381Y-108964014D01*
X202078048Y-109102407D01*
X202208161Y-109264890D01*
X202339610Y-109452166D01*
X202357698Y-109479852D01*
X202417951Y-109576231D01*
X202486017Y-109690306D01*
X202559616Y-109817974D01*
X202636469Y-109955132D01*
X202714299Y-110097679D01*
X202790826Y-110241512D01*
X202863773Y-110382530D01*
X202930860Y-110516628D01*
X202953116Y-110561231D01*
X202968781Y-110588517D01*
X202970263Y-110591099D01*
G37*
G36*
X194705186Y-114231999D02*
G01*
X194704527Y-114244060D01*
X194699573Y-114304136D01*
X194691025Y-114351104D01*
X194676294Y-114395658D01*
X194652794Y-114448490D01*
X194631696Y-114489912D01*
X194563696Y-114593517D01*
X194478248Y-114685585D01*
X194372737Y-114768655D01*
X194244550Y-114845268D01*
X194219570Y-114858110D01*
X194076003Y-114920614D01*
X193914436Y-114974432D01*
X193740425Y-115018128D01*
X193559529Y-115050266D01*
X193377305Y-115069409D01*
X193289471Y-115073900D01*
X193110495Y-115076054D01*
X192919119Y-115070417D01*
X192723008Y-115057424D01*
X192529823Y-115037508D01*
X192347229Y-115011103D01*
X192093419Y-114959055D01*
X191814059Y-114881568D01*
X191535799Y-114784180D01*
X191262425Y-114668643D01*
X190997722Y-114536708D01*
X190745472Y-114390129D01*
X190509462Y-114230659D01*
X190293476Y-114060049D01*
X190268566Y-114038690D01*
X190227626Y-114003618D01*
X190195312Y-113975976D01*
X190177020Y-113960383D01*
X190169937Y-113955986D01*
X190155269Y-113953573D01*
X190132000Y-113956685D01*
X190096299Y-113966214D01*
X190044337Y-113983053D01*
X189972284Y-114008094D01*
X189958997Y-114012774D01*
X189711865Y-114094933D01*
X189483441Y-114161077D01*
X189272659Y-114211363D01*
X189078450Y-114245946D01*
X188899749Y-114264980D01*
X188735487Y-114268622D01*
X188584599Y-114257026D01*
X188446017Y-114230349D01*
X188365032Y-114204741D01*
X188269306Y-114161234D01*
X188184425Y-114107865D01*
X188113303Y-114047205D01*
X188058854Y-113981825D01*
X188023993Y-113914295D01*
X188011635Y-113847187D01*
X188011651Y-113844694D01*
X188021481Y-113791147D01*
X188046160Y-113744019D01*
X188080894Y-113712624D01*
X188093683Y-113709057D01*
X188106454Y-113716634D01*
X188121825Y-113739874D01*
X188143362Y-113782782D01*
X188175461Y-113839861D01*
X188228322Y-113902118D01*
X188296870Y-113951944D01*
X188385892Y-113993497D01*
X188500224Y-114029769D01*
X188636912Y-114055754D01*
X188786253Y-114067102D01*
X188949354Y-114063695D01*
X189127320Y-114045416D01*
X189321258Y-114012149D01*
X189532274Y-113963775D01*
X189761474Y-113900177D01*
X189959852Y-113837157D01*
X190479018Y-113837157D01*
X190587783Y-113943321D01*
X190710003Y-114057065D01*
X190939205Y-114243374D01*
X191182909Y-114408626D01*
X191441029Y-114552778D01*
X191713478Y-114675791D01*
X192000172Y-114777621D01*
X192301023Y-114858228D01*
X192615945Y-114917570D01*
X192645956Y-114921753D01*
X192740424Y-114931774D01*
X192849273Y-114939767D01*
X192965876Y-114945521D01*
X193083608Y-114948823D01*
X193195841Y-114949462D01*
X193295949Y-114947227D01*
X193377305Y-114941904D01*
X193468402Y-114931312D01*
X193642700Y-114902175D01*
X193806316Y-114863043D01*
X193955683Y-114814984D01*
X194087236Y-114759066D01*
X194197412Y-114696357D01*
X194266555Y-114646286D01*
X194344046Y-114575352D01*
X194405636Y-114496730D01*
X194456840Y-114404206D01*
X194460710Y-114395930D01*
X194479298Y-114351947D01*
X194489818Y-114313599D01*
X194494328Y-114270501D01*
X194494889Y-114212266D01*
X194494311Y-114188163D01*
X194485559Y-114104525D01*
X194464415Y-114028315D01*
X194428211Y-113951905D01*
X194374276Y-113867670D01*
X194291911Y-113770896D01*
X194186162Y-113681383D01*
X194059167Y-113600698D01*
X193912623Y-113529782D01*
X193748226Y-113469573D01*
X193567673Y-113421011D01*
X193489544Y-113404195D01*
X193386102Y-113385176D01*
X193285975Y-113371372D01*
X193183414Y-113362314D01*
X193072670Y-113357536D01*
X192947994Y-113356572D01*
X192803638Y-113358954D01*
X192783133Y-113359491D01*
X192638807Y-113364923D01*
X192501484Y-113373419D01*
X192367241Y-113385565D01*
X192232155Y-113401949D01*
X192092300Y-113423158D01*
X191943753Y-113449779D01*
X191782591Y-113482398D01*
X191604890Y-113521604D01*
X191406726Y-113567984D01*
X191406443Y-113568052D01*
X191369915Y-113577468D01*
X191313065Y-113592936D01*
X191240064Y-113613259D01*
X191155080Y-113637240D01*
X191062285Y-113663680D01*
X190965848Y-113691381D01*
X190869940Y-113719146D01*
X190778729Y-113745776D01*
X190696387Y-113770076D01*
X190627083Y-113790845D01*
X190574988Y-113806887D01*
X190479018Y-113837157D01*
X189959852Y-113837157D01*
X190009963Y-113821238D01*
X190009980Y-113811785D01*
X189992963Y-113785948D01*
X189958992Y-113745187D01*
X189909050Y-113690773D01*
X189857700Y-113635510D01*
X189735224Y-113494606D01*
X189616496Y-113344307D01*
X189500498Y-113182879D01*
X189386213Y-113008586D01*
X189272621Y-112819693D01*
X189158704Y-112614465D01*
X189043444Y-112391166D01*
X188925822Y-112148061D01*
X188804820Y-111883414D01*
X188679419Y-111595491D01*
X188666800Y-111565901D01*
X188631467Y-111483195D01*
X188597895Y-111404803D01*
X188568146Y-111335534D01*
X188544286Y-111280197D01*
X188528379Y-111243601D01*
X188527942Y-111242605D01*
X188511790Y-111205778D01*
X188494329Y-111165921D01*
X188474281Y-111120118D01*
X188450371Y-111065450D01*
X188421324Y-110998999D01*
X188385863Y-110917848D01*
X188342713Y-110819078D01*
X188290598Y-110699773D01*
X188285925Y-110689087D01*
X188185311Y-110466161D01*
X188088943Y-110267059D01*
X187995984Y-110090589D01*
X187905595Y-109935556D01*
X187816937Y-109800764D01*
X187729173Y-109685021D01*
X187641463Y-109587132D01*
X187552969Y-109505902D01*
X187462853Y-109440137D01*
X187370277Y-109388642D01*
X187332090Y-109371054D01*
X187250471Y-109339193D01*
X187175886Y-109320570D01*
X187099134Y-109313315D01*
X187011014Y-109315555D01*
X186995476Y-109316571D01*
X186945574Y-109319388D01*
X186914393Y-109319201D01*
X186896446Y-109314958D01*
X186886249Y-109305609D01*
X186878316Y-109290099D01*
X186868868Y-109266219D01*
X186866876Y-109253802D01*
X186877757Y-109245838D01*
X186925480Y-109223541D01*
X186989779Y-109205329D01*
X187063943Y-109192470D01*
X187141262Y-109186236D01*
X187215027Y-109187897D01*
X187310297Y-109200929D01*
X187463620Y-109242668D01*
X187613690Y-109309667D01*
X187760337Y-109401832D01*
X187903393Y-109519065D01*
X188042688Y-109661268D01*
X188091790Y-109718012D01*
X188163774Y-109806862D01*
X188236435Y-109903764D01*
X188311462Y-110011243D01*
X188390543Y-110131822D01*
X188475367Y-110268026D01*
X188567624Y-110422379D01*
X188669001Y-110597405D01*
X188716005Y-110679049D01*
X188884320Y-110962175D01*
X189046719Y-111220509D01*
X189203258Y-111454123D01*
X189353991Y-111663087D01*
X189498975Y-111847473D01*
X189638263Y-112007352D01*
X189771911Y-112142795D01*
X189899975Y-112253873D01*
X190022510Y-112340657D01*
X190063928Y-112365461D01*
X190108565Y-112387661D01*
X190148134Y-112399919D01*
X190191313Y-112405572D01*
X190220014Y-112407255D01*
X190251392Y-112406015D01*
X190270472Y-112397973D01*
X190285362Y-112381009D01*
X190289274Y-112374781D01*
X190303539Y-112327691D01*
X190304921Y-112262070D01*
X190293578Y-112180864D01*
X190269666Y-112087020D01*
X190265585Y-112074272D01*
X190247858Y-112024560D01*
X190222004Y-111956969D01*
X190189652Y-111875564D01*
X190152432Y-111784406D01*
X190111976Y-111687561D01*
X190069912Y-111589093D01*
X189980955Y-111381867D01*
X189902392Y-111195459D01*
X189833758Y-111028164D01*
X189774469Y-110878004D01*
X189723945Y-110743003D01*
X189681602Y-110621185D01*
X189646859Y-110510574D01*
X189619131Y-110409192D01*
X189597839Y-110315064D01*
X189582398Y-110226213D01*
X189572226Y-110140661D01*
X189566742Y-110056434D01*
X189565362Y-109971554D01*
X189567505Y-109884045D01*
X189568721Y-109858252D01*
X189578680Y-109745128D01*
X189596573Y-109647988D01*
X189624119Y-109559423D01*
X189663034Y-109472021D01*
X189691596Y-109420775D01*
X189770660Y-109314273D01*
X189865882Y-109224389D01*
X189974209Y-109152074D01*
X190092590Y-109098277D01*
X190217970Y-109063949D01*
X190347298Y-109050041D01*
X190477521Y-109057503D01*
X190605586Y-109087285D01*
X190728439Y-109140338D01*
X190817840Y-109198020D01*
X190895463Y-109271886D01*
X190952817Y-109358804D01*
X190991983Y-109461310D01*
X191001005Y-109495999D01*
X191007127Y-109533579D01*
X191005359Y-109566821D01*
X190996028Y-109607444D01*
X190980783Y-109651525D01*
X190958184Y-109684303D01*
X190920479Y-109715813D01*
X190890434Y-109736280D01*
X190853193Y-109754579D01*
X190826147Y-109755401D01*
X190804953Y-109739639D01*
X190795450Y-109720108D01*
X190802582Y-109691654D01*
X190804369Y-109687919D01*
X190822991Y-109618807D01*
X190818251Y-109544406D01*
X190791040Y-109467298D01*
X190742248Y-109390065D01*
X190672766Y-109315290D01*
X190638771Y-109286895D01*
X190562393Y-109241735D01*
X190476357Y-109215964D01*
X190375317Y-109207647D01*
X190302487Y-109213545D01*
X190208748Y-109241593D01*
X190126136Y-109291580D01*
X190056144Y-109362237D01*
X190000270Y-109452293D01*
X189960009Y-109560477D01*
X189954713Y-109580330D01*
X189945014Y-109622649D01*
X189939105Y-109663133D01*
X189936478Y-109708623D01*
X189936622Y-109765960D01*
X189939026Y-109841988D01*
X189939307Y-109848972D01*
X189943742Y-109924555D01*
X189950341Y-109999509D01*
X189958260Y-110065514D01*
X189966656Y-110114249D01*
X189967849Y-110119546D01*
X189999668Y-110241952D01*
X190042900Y-110378448D01*
X190098023Y-110530224D01*
X190165515Y-110698474D01*
X190245852Y-110884389D01*
X190339511Y-111089160D01*
X190446969Y-111313979D01*
X190468547Y-111358380D01*
X190539103Y-111504967D01*
X190598936Y-111631954D01*
X190649017Y-111741708D01*
X190690319Y-111836596D01*
X190723815Y-111918984D01*
X190750478Y-111991240D01*
X190771281Y-112055729D01*
X190787197Y-112114818D01*
X190799197Y-112170874D01*
X190808419Y-112233055D01*
X190810068Y-112333625D01*
X190791794Y-112420486D01*
X190752994Y-112495864D01*
X190693063Y-112561982D01*
X190627683Y-112606731D01*
X190542907Y-112639516D01*
X190454302Y-112650969D01*
X190412551Y-112648378D01*
X190322370Y-112630902D01*
X190222067Y-112598766D01*
X190116983Y-112554099D01*
X190012457Y-112499025D01*
X189913826Y-112435672D01*
X189833263Y-112373634D01*
X189726085Y-112279166D01*
X189611791Y-112166725D01*
X189492915Y-112038940D01*
X189371988Y-111898442D01*
X189251542Y-111747859D01*
X189242143Y-111735773D01*
X189214075Y-111700973D01*
X189193592Y-111677546D01*
X189184598Y-111670028D01*
X189184168Y-111672122D01*
X189190291Y-111692775D01*
X189206911Y-111732825D01*
X189232802Y-111789871D01*
X189266739Y-111861509D01*
X189307496Y-111945337D01*
X189353847Y-112038953D01*
X189404566Y-112139954D01*
X189458429Y-112245938D01*
X189514209Y-112354502D01*
X189570680Y-112463243D01*
X189626617Y-112569760D01*
X189680795Y-112671650D01*
X189731987Y-112766510D01*
X189778968Y-112851938D01*
X189820513Y-112925532D01*
X189855395Y-112984888D01*
X189868225Y-113005985D01*
X189961412Y-113154117D01*
X190057513Y-113298640D01*
X190153101Y-113434656D01*
X190244746Y-113557268D01*
X190329021Y-113661576D01*
X190366672Y-113705897D01*
X190601988Y-113633736D01*
X190705488Y-113602030D01*
X190852748Y-113557117D01*
X190980455Y-113518560D01*
X191091607Y-113485577D01*
X191189204Y-113457387D01*
X191276243Y-113433208D01*
X191355723Y-113412258D01*
X191430643Y-113393757D01*
X191504002Y-113376922D01*
X191578797Y-113360973D01*
X191658027Y-113345127D01*
X191744692Y-113328604D01*
X191841789Y-113310621D01*
X191850334Y-113309057D01*
X192183954Y-113256448D01*
X192501458Y-113223340D01*
X192803284Y-113209728D01*
X193089869Y-113215606D01*
X193361650Y-113240966D01*
X193619065Y-113285805D01*
X193648764Y-113292433D01*
X193851805Y-113346912D01*
X194035096Y-113412862D01*
X194198004Y-113489845D01*
X194339898Y-113577423D01*
X194460147Y-113675158D01*
X194558118Y-113782612D01*
X194633180Y-113899346D01*
X194684701Y-114024922D01*
X194695433Y-114063583D01*
X194704277Y-114112095D01*
X194707179Y-114164699D01*
X194705770Y-114212266D01*
X194705186Y-114231999D01*
G37*
%TO.C,TP7*%
D12*
X128600000Y-102600000D02*
G75*
G02*
X127200000Y-102600000I-700000J0D01*
G01*
X127200000Y-102600000D02*
G75*
G02*
X128600000Y-102600000I700000J0D01*
G01*
%TO.C,C19*%
X160740580Y-114440000D02*
X160459420Y-114440000D01*
X160740580Y-115460000D02*
X160459420Y-115460000D01*
%TO.C,C6*%
X165507836Y-112540000D02*
X165292164Y-112540000D01*
X165507836Y-113260000D02*
X165292164Y-113260000D01*
%TO.C,TP8*%
X130600000Y-102600000D02*
G75*
G02*
X129200000Y-102600000I-700000J0D01*
G01*
X129200000Y-102600000D02*
G75*
G02*
X130600000Y-102600000I700000J0D01*
G01*
%TO.C,TP5*%
X126600000Y-102600000D02*
G75*
G02*
X125200000Y-102600000I-700000J0D01*
G01*
X125200000Y-102600000D02*
G75*
G02*
X126600000Y-102600000I700000J0D01*
G01*
%TO.C,C5*%
X160792164Y-111490000D02*
X161007836Y-111490000D01*
X160792164Y-112210000D02*
X161007836Y-112210000D01*
%TD*%
M02*
