M48
; DRILL file KiCad 10.0.1 date 2026-10-03T00:40:02
; FORMAT={-:-/ absolute / metric / decimal}
; #@! TF.CreationDate,2026-10-03T00:40:02+02:00
; #@! TF.GenerationSoftware,Kicad,Pcbnew,10.0.1
; #@! TF.FileFunction,Plated,1,2,PTH
FMAT,2
METRIC
; #@! TA.AperFunction,Plated,PTH,ViaDrill
T1C0.250
; #@! TA.AperFunction,Plated,PTH,ViaDrill
T2C0.300
; #@! TA.AperFunction,Plated,PTH,ComponentDrill
T3C0.600
%
G90
G05
T1
X107.75Y-109.75
X107.75Y-110.75
X108.15Y-108.9
X113.0Y-118.1
X120.85Y-108.4
X121.5Y-109.0
X122.3Y-116.25
X123.2Y-108.8
X123.4Y-104.09
X124.4Y-115.61
X125.075Y-105.85
X125.725Y-105.15
X125.725Y-115.6
X126.375Y-114.9
X127.025Y-112.75
X127.35Y-115.45
X127.675Y-105.2
X127.675Y-108.0
X128.325Y-101.4
X128.975Y-105.2
X128.975Y-111.3
X129.625Y-114.9
X130.925Y-114.9
X135.93Y-104.6
X138.387Y-102.8
X139.6Y-105.41
X141.062Y-105.75
X141.3Y-110.98
X142.6Y-111.275
X143.938Y-103.9
X145.412Y-101.95
X151.65Y-112.7
X151.9Y-111.2
X159.02Y-110.6
X159.05Y-118.45
X159.85Y-112.2
X160.15Y-113.05
X160.2Y-110.5
X161.0Y-115.55
X162.3Y-113.62
X163.6Y-119.55
X164.5Y-120.1
X165.95Y-114.05
X166.65Y-113.9
X167.2Y-113.25
X167.63Y-110.55
X169.6Y-111.4
X172.0Y-116.8
X180.29Y-116.8
X182.0Y-120.1
X182.6Y-119.55
X183.3Y-117.35
X184.31Y-116.8
X187.6Y-108.65
X191.69Y-105.9
X197.2Y-105.87
T2
X107.95Y-108.05
X107.95Y-112.95
X110.3Y-114.95
X110.6Y-102.1
X111.2Y-103.82
X111.3Y-108.05
X111.5Y-111.0
X111.5Y-113.4
X114.0Y-115.8
X116.5Y-103.8
X116.5Y-107.0
X116.5Y-108.0
X116.5Y-109.0
X116.5Y-115.8
X119.0Y-103.8
X119.0Y-115.8
X121.5Y-103.8
X124.0Y-111.0
X134.0Y-106.2
X134.0Y-111.0
X134.0Y-113.4
X134.0Y-115.8
X136.5Y-103.8
X136.5Y-106.2
X136.5Y-111.0
X136.5Y-113.4
X136.5Y-115.8
X139.0Y-106.2
X139.0Y-111.0
X139.0Y-113.4
X139.0Y-115.8
X141.5Y-113.4
X141.5Y-115.8
X143.6Y-107.5
X145.5Y-111.037
X146.5Y-106.2
X146.5Y-113.4
X146.5Y-115.8
X148.4Y-113.05
X149.0Y-115.8
X151.5Y-103.8
X151.5Y-106.2
X151.5Y-108.6
X154.0Y-103.8
X154.3Y-115.05
X154.4Y-105.5
X155.2Y-112.2
X156.5Y-103.8
X156.7Y-105.5
X159.0Y-103.8
X159.0Y-105.5
X161.415Y-102.55
X162.215Y-102.55
X162.25Y-111.95
X162.25Y-112.75
X163.0Y-106.75
X163.0Y-107.6
X163.75Y-111.95
X163.75Y-112.75
X163.785Y-102.55
X164.585Y-102.55
X166.6Y-105.5
X168.9Y-105.5
X169.0Y-115.8
X171.2Y-105.5
X173.5Y-105.5
X174.0Y-113.4
X174.0Y-115.8
X175.8Y-105.5
X176.5Y-113.4
X176.5Y-115.8
X179.0Y-108.6
X179.0Y-111.0
X179.0Y-113.4
X179.0Y-115.8
X180.9Y-103.4
X180.9Y-105.8
X181.5Y-108.6
X184.0Y-103.8
X184.0Y-106.2
X184.0Y-108.6
X184.0Y-111.0
X186.5Y-103.8
X186.5Y-106.2
X186.5Y-108.6
X189.0Y-103.8
X189.0Y-106.2
X191.5Y-103.8
X194.0Y-103.8
X196.5Y-103.8
X196.5Y-115.8
X211.2Y-102.6
X211.2Y-103.6
X212.3Y-106.45
X212.3Y-107.25
X213.5Y-115.8
X214.0Y-101.4
X214.5Y-115.8
X216.5Y-101.4
X219.0Y-101.4
X221.5Y-101.4
X224.0Y-101.4
X226.5Y-101.4
X226.5Y-103.8
X226.5Y-106.2
X226.5Y-108.6
X226.5Y-111.0
X226.5Y-113.4
X226.5Y-115.8
T3
X101.64Y-106.18G85X101.04Y-106.18
G05
X101.64Y-114.82G85X101.04Y-114.82
G05
X106.07Y-106.18G85X104.97Y-106.18
G05
X106.07Y-114.82G85X104.97Y-114.82
G05
M30
