%TF.GenerationSoftware,KiCad,Pcbnew,10.0.1*%
%TF.CreationDate,2026-10-03T00:40:01+02:00*%
%TF.ProjectId,usbc pd airsoft module,75736263-2070-4642-9061-6972736f6674,rev?*%
%TF.SameCoordinates,Original*%
%TF.FileFunction,Legend,Bot*%
%TF.FilePolarity,Positive*%
%FSLAX46Y46*%
G04 Gerber Fmt 4.6, Leading zero omitted, Abs format (unit mm)*
G04 Created by KiCad (PCBNEW 10.0.1) date 2026-10-03 00:40:01*
%MOMM*%
%LPD*%
G01*
G04 APERTURE LIST*
%ADD10C,0.400000*%
%ADD11C,0.120000*%
%ADD12C,0.000000*%
G04 APERTURE END LIST*
D10*
G36*
X212713328Y-117668984D02*
G01*
X212243161Y-117906022D01*
X212015180Y-118011433D01*
X211927355Y-118046706D01*
X211897089Y-118062311D01*
X211878444Y-118090537D01*
X211871301Y-118136709D01*
X211878815Y-118191413D01*
X211899633Y-118232330D01*
X211933258Y-118259686D01*
X211980355Y-118269211D01*
X212030525Y-118258934D01*
X212143265Y-118212791D01*
X212411078Y-118084075D01*
X212774511Y-117902114D01*
X213019120Y-117773764D01*
X213044023Y-117752835D01*
X213059054Y-117730655D01*
X213070411Y-117665931D01*
X213066194Y-117623703D01*
X213054902Y-117592903D01*
X213035707Y-117567239D01*
X213007397Y-117545153D01*
X212793318Y-117450143D01*
X212330233Y-117261343D01*
X211906350Y-117095013D01*
X211772553Y-117051539D01*
X211718039Y-117042135D01*
X211681209Y-117052148D01*
X211651482Y-117083900D01*
X211633110Y-117128347D01*
X211626692Y-117181598D01*
X211638057Y-117224237D01*
X211675320Y-117263332D01*
X211751011Y-117300300D01*
X211898374Y-117348391D01*
X212190893Y-117456859D01*
X212713328Y-117668984D01*
G37*
G36*
X210185332Y-116517054D02*
G01*
X210216311Y-116535942D01*
X210241134Y-116563968D01*
X210260031Y-116598956D01*
X210405600Y-117177690D01*
X210477407Y-117428893D01*
X210540300Y-117409232D01*
X210621022Y-117401660D01*
X210683044Y-117405897D01*
X210747051Y-117418879D01*
X210874057Y-117464675D01*
X210998133Y-117532330D01*
X211114026Y-117615006D01*
X211190717Y-117680369D01*
X211255198Y-117747020D01*
X211311933Y-117817580D01*
X211359490Y-117888558D01*
X211432885Y-118034860D01*
X211480146Y-118182383D01*
X211493213Y-118251748D01*
X211496632Y-118314152D01*
X211489357Y-118398547D01*
X211469033Y-118467658D01*
X211436118Y-118528242D01*
X211395027Y-118575858D01*
X211345457Y-118613153D01*
X211289881Y-118639361D01*
X211230169Y-118654844D01*
X211168859Y-118660000D01*
X211067864Y-118649009D01*
X210971510Y-118620921D01*
X210885781Y-118584040D01*
X210814462Y-118546427D01*
X210776116Y-118523956D01*
X210720795Y-118489762D01*
X210662665Y-118453614D01*
X210621266Y-118427480D01*
X210611985Y-118464972D01*
X210609298Y-118507592D01*
X210606489Y-118547404D01*
X210592690Y-118581353D01*
X210558374Y-118604678D01*
X210495359Y-118613105D01*
X210437473Y-118606877D01*
X210398517Y-118585628D01*
X210373604Y-118547770D01*
X210356263Y-118491960D01*
X210342878Y-118416205D01*
X210338433Y-118340041D01*
X210332937Y-118194228D01*
X210317916Y-118022404D01*
X210297522Y-117857418D01*
X210274319Y-117733464D01*
X210253024Y-117648834D01*
X210517096Y-117648834D01*
X210530652Y-117746531D01*
X210545673Y-117834337D01*
X210563991Y-117922142D01*
X210587927Y-118021549D01*
X210630547Y-118129016D01*
X210692219Y-118213401D01*
X210771598Y-118283866D01*
X210867585Y-118350422D01*
X210913258Y-118378387D01*
X210970289Y-118408185D01*
X211031838Y-118431755D01*
X211089602Y-118441158D01*
X211135099Y-118436972D01*
X211167759Y-118425893D01*
X211215509Y-118385471D01*
X211240177Y-118326242D01*
X211246894Y-118252847D01*
X211236147Y-118174811D01*
X211211372Y-118096980D01*
X211174965Y-118023014D01*
X211129239Y-117954006D01*
X211076535Y-117890879D01*
X210954169Y-117781580D01*
X210819469Y-117698782D01*
X210685624Y-117646636D01*
X210621548Y-117632639D01*
X210566311Y-117628318D01*
X210533339Y-117635401D01*
X210517096Y-117648834D01*
X210253024Y-117648834D01*
X209999546Y-116641454D01*
X210003067Y-116602871D01*
X210012369Y-116575265D01*
X210046318Y-116535209D01*
X210094068Y-116515547D01*
X210148290Y-116510662D01*
X210185332Y-116517054D01*
G37*
G36*
X209237893Y-117440927D02*
G01*
X209323237Y-117464553D01*
X209403746Y-117500888D01*
X209478454Y-117546374D01*
X209547634Y-117599371D01*
X209610223Y-117657505D01*
X209716346Y-117778893D01*
X209794504Y-117890635D01*
X209840300Y-117970746D01*
X209887051Y-117991319D01*
X209924075Y-118026067D01*
X209947996Y-118071542D01*
X209956315Y-118127672D01*
X209951811Y-118156389D01*
X209939584Y-118175910D01*
X209907955Y-118194839D01*
X209920881Y-118270060D01*
X209924930Y-118336500D01*
X209918817Y-118413876D01*
X209902093Y-118474741D01*
X209875293Y-118528328D01*
X209842620Y-118571217D01*
X209803219Y-118606653D01*
X209758967Y-118634232D01*
X209663834Y-118670380D01*
X209571022Y-118687110D01*
X209493353Y-118691263D01*
X209326867Y-118678892D01*
X209173150Y-118642658D01*
X209027462Y-118579070D01*
X208880181Y-118479870D01*
X208827424Y-118416489D01*
X208799581Y-118343217D01*
X208797505Y-118325509D01*
X208796772Y-118303649D01*
X208807152Y-118264570D01*
X208822334Y-118251190D01*
X208853925Y-118245764D01*
X208889641Y-118251026D01*
X208934036Y-118268967D01*
X209028314Y-118325631D01*
X209112700Y-118378754D01*
X209211374Y-118428579D01*
X209322138Y-118465826D01*
X209444138Y-118480237D01*
X209545866Y-118468338D01*
X209615230Y-118437006D01*
X209649418Y-118404249D01*
X209669621Y-118364626D01*
X209676657Y-118315861D01*
X209667986Y-118242955D01*
X209647958Y-118182993D01*
X209517411Y-118167606D01*
X209357920Y-118138175D01*
X209192079Y-118090181D01*
X209111572Y-118057501D01*
X209038328Y-118018129D01*
X208971653Y-117970861D01*
X208915108Y-117917013D01*
X208870991Y-117854414D01*
X208843300Y-117781702D01*
X208835086Y-117722595D01*
X209098290Y-117722595D01*
X209098290Y-117734685D01*
X209100732Y-117746287D01*
X209117377Y-117783319D01*
X209148482Y-117820170D01*
X209189494Y-117852109D01*
X209245690Y-117883063D01*
X209309214Y-117908061D01*
X209387718Y-117929713D01*
X209560519Y-117955969D01*
X209502512Y-117864012D01*
X209412142Y-117762163D01*
X209359188Y-117718389D01*
X209303820Y-117683272D01*
X209245258Y-117659444D01*
X209187316Y-117651765D01*
X209152427Y-117656404D01*
X209124302Y-117669595D01*
X209104996Y-117691289D01*
X209098290Y-117722595D01*
X208835086Y-117722595D01*
X208830844Y-117692065D01*
X208835780Y-117638176D01*
X208850261Y-117588872D01*
X208874529Y-117544347D01*
X208908635Y-117506318D01*
X208951604Y-117476099D01*
X209007065Y-117452341D01*
X209069334Y-117438092D01*
X209146284Y-117432923D01*
X209237893Y-117440927D01*
G37*
G36*
X208517114Y-118392187D02*
G01*
X208496475Y-118394996D01*
X208476448Y-118401224D01*
X208452267Y-118407208D01*
X208417341Y-118409895D01*
X208275191Y-118397438D01*
X208127424Y-118365076D01*
X208009211Y-118319891D01*
X207968324Y-118292024D01*
X207953890Y-118268845D01*
X207949860Y-118243565D01*
X207954828Y-118223382D01*
X207971598Y-118201922D01*
X208027285Y-118162843D01*
X208100680Y-118127794D01*
X208174197Y-118097875D01*
X208220725Y-118078946D01*
X208290945Y-118045362D01*
X208355181Y-117999445D01*
X208407815Y-117938262D01*
X208441643Y-117857662D01*
X208450680Y-117819438D01*
X208454099Y-117778039D01*
X208448584Y-117741264D01*
X208429797Y-117695729D01*
X208364951Y-117604504D01*
X208272871Y-117518531D01*
X208165160Y-117450265D01*
X208085903Y-117398607D01*
X208008234Y-117359040D01*
X207928367Y-117333150D01*
X207842149Y-117323503D01*
X207752878Y-117327777D01*
X207664340Y-117347316D01*
X207626962Y-117366641D01*
X207596563Y-117393234D01*
X207576351Y-117427648D01*
X207569085Y-117474689D01*
X207573237Y-117515355D01*
X207587159Y-117565547D01*
X207611339Y-117609389D01*
X207627591Y-117623535D01*
X207646755Y-117628073D01*
X207700366Y-117615373D01*
X207737979Y-117588262D01*
X207771563Y-117562006D01*
X207813450Y-117550160D01*
X207885624Y-117561517D01*
X207970376Y-117592048D01*
X208055373Y-117636744D01*
X208129989Y-117688646D01*
X208183112Y-117740669D01*
X208198641Y-117766074D01*
X208203018Y-117786099D01*
X208199407Y-117805901D01*
X208188852Y-117821636D01*
X208151971Y-117846304D01*
X208083094Y-117878911D01*
X208004692Y-117911395D01*
X207927390Y-117944124D01*
X207862299Y-117973921D01*
X207795621Y-118011657D01*
X207745062Y-118052201D01*
X207712822Y-118102271D01*
X207701587Y-118167484D01*
X207704396Y-118203265D01*
X207712700Y-118244298D01*
X207727110Y-118292292D01*
X207749092Y-118346270D01*
X207773272Y-118394385D01*
X207794521Y-118422840D01*
X207851607Y-118469509D01*
X207920795Y-118514919D01*
X208072226Y-118589902D01*
X208230006Y-118640949D01*
X208307626Y-118655488D01*
X208374965Y-118660000D01*
X208448604Y-118646200D01*
X208522732Y-118609685D01*
X208579884Y-118557295D01*
X208597516Y-118526653D01*
X208602965Y-118497456D01*
X208594539Y-118463628D01*
X208573412Y-118429434D01*
X208545690Y-118403056D01*
X208517114Y-118392187D01*
G37*
G36*
X207399703Y-118402690D02*
G01*
X207350488Y-118219141D01*
X207289672Y-117997369D01*
X207224825Y-117758011D01*
X207163276Y-117519874D01*
X207153262Y-117500457D01*
X207129326Y-117473712D01*
X207089881Y-117450509D01*
X207033827Y-117440739D01*
X206987909Y-117445624D01*
X206947854Y-117460401D01*
X206919155Y-117486779D01*
X206908286Y-117524881D01*
X206908286Y-117534162D01*
X206909752Y-117543688D01*
X206948098Y-117687791D01*
X207078524Y-118173468D01*
X207207606Y-118661831D01*
X207216032Y-118682958D01*
X207231542Y-118708115D01*
X207255966Y-118729487D01*
X207290648Y-118738157D01*
X207325626Y-118734363D01*
X207355251Y-118723503D01*
X207402878Y-118686500D01*
X207432309Y-118637773D01*
X207442079Y-118587337D01*
X207442079Y-118574759D01*
X207439270Y-118561570D01*
X207399703Y-118402690D01*
G37*
G36*
X207043108Y-116995484D02*
G01*
X207018196Y-116924532D01*
X206994008Y-116885796D01*
X206953960Y-116849061D01*
X206899738Y-116825980D01*
X206853454Y-116815478D01*
X206823778Y-116825491D01*
X206797400Y-116846741D01*
X206772243Y-116875928D01*
X206742569Y-116884517D01*
X206726692Y-116902184D01*
X206715701Y-116956528D01*
X206719853Y-116997072D01*
X206726814Y-117026137D01*
X206738885Y-117054309D01*
X206759054Y-117080603D01*
X206813276Y-117122613D01*
X206877023Y-117149724D01*
X206935519Y-117159371D01*
X206985956Y-117147892D01*
X207030163Y-117100143D01*
X207047871Y-117066681D01*
X207050069Y-117045676D01*
X207047993Y-117018443D01*
X207043108Y-116995484D01*
G37*
G36*
X205993158Y-117386533D02*
G01*
X206086043Y-117411064D01*
X206174574Y-117452734D01*
X206267515Y-117517431D01*
X206407222Y-117644682D01*
X206530443Y-117789640D01*
X206583231Y-117867922D01*
X206629239Y-117950352D01*
X206666679Y-118036364D01*
X206693719Y-118124863D01*
X206708862Y-118192885D01*
X206717044Y-118264082D01*
X206710192Y-118315180D01*
X206689323Y-118364344D01*
X206658342Y-118409028D01*
X206621545Y-118447508D01*
X206536427Y-118505150D01*
X206491749Y-118522092D01*
X206454972Y-118527131D01*
X206394476Y-118521576D01*
X206332850Y-118504539D01*
X206212561Y-118446531D01*
X206097400Y-118366297D01*
X205998848Y-118284842D01*
X206011304Y-118336133D01*
X206025593Y-118389867D01*
X206068579Y-118539954D01*
X206124389Y-118683447D01*
X206206088Y-118818635D01*
X206258582Y-118881773D01*
X206323325Y-118944787D01*
X206381699Y-118969577D01*
X206458391Y-118987896D01*
X206563049Y-119014640D01*
X206626919Y-119047613D01*
X206663311Y-119096584D01*
X206686880Y-119171688D01*
X206691032Y-119204539D01*
X206682484Y-119244351D01*
X206661845Y-119271950D01*
X206635223Y-119287948D01*
X206609333Y-119293077D01*
X206473779Y-119281863D01*
X206356664Y-119249846D01*
X206249276Y-119198767D01*
X206154675Y-119133220D01*
X206071045Y-119054188D01*
X205998115Y-118962739D01*
X205935378Y-118862697D01*
X205881001Y-118756109D01*
X205834796Y-118645313D01*
X205796127Y-118531894D01*
X205737997Y-118309267D01*
X205709298Y-118170781D01*
X205679256Y-118013855D01*
X205649825Y-117855464D01*
X205625157Y-117713558D01*
X205616553Y-117657505D01*
X205867201Y-117657505D01*
X205888817Y-117733098D01*
X205928995Y-117819071D01*
X205973935Y-117899427D01*
X206010083Y-117957923D01*
X206045395Y-118007694D01*
X206095080Y-118063925D01*
X206209385Y-118167362D01*
X206330163Y-118246130D01*
X206389277Y-118270152D01*
X206434455Y-118277027D01*
X206457128Y-118271852D01*
X206470969Y-118257243D01*
X206481106Y-118209005D01*
X206477808Y-118177009D01*
X206470237Y-118144769D01*
X206431646Y-118042309D01*
X206379256Y-117954138D01*
X206325523Y-117883307D01*
X206248586Y-117799654D01*
X206158705Y-117714658D01*
X206064061Y-117639675D01*
X205975401Y-117586186D01*
X205934171Y-117570400D01*
X205901517Y-117565792D01*
X205892480Y-117565792D01*
X205876727Y-117616838D01*
X205867201Y-117657505D01*
X205616553Y-117657505D01*
X205608792Y-117606946D01*
X205602564Y-117552602D01*
X205606106Y-117529155D01*
X205615387Y-117505708D01*
X205670952Y-117438541D01*
X205736898Y-117399706D01*
X205811636Y-117382365D01*
X205893457Y-117378213D01*
X205993158Y-117386533D01*
G37*
G36*
X204418353Y-118738157D02*
G01*
X204495659Y-118727130D01*
X204537299Y-118699933D01*
X204561075Y-118656621D01*
X204569783Y-118595764D01*
X204562944Y-118521147D01*
X204545115Y-118438471D01*
X204502006Y-118293635D01*
X204454256Y-118148311D01*
X204407850Y-118001643D01*
X204367428Y-117854487D01*
X204366207Y-117837512D01*
X204374755Y-117810034D01*
X204400523Y-117800265D01*
X204464392Y-117812355D01*
X204521301Y-117839344D01*
X204681524Y-117960610D01*
X204807554Y-118086029D01*
X204915875Y-118225858D01*
X205022854Y-118388768D01*
X205093806Y-118539466D01*
X205137159Y-118640460D01*
X205159575Y-118675258D01*
X205182711Y-118697002D01*
X205211939Y-118709691D01*
X205258548Y-118714710D01*
X205308764Y-118705725D01*
X205338782Y-118681859D01*
X205355983Y-118645728D01*
X205362229Y-118597351D01*
X205349773Y-118507592D01*
X204898900Y-116701050D01*
X204884979Y-116664780D01*
X204858356Y-116628265D01*
X204818178Y-116600177D01*
X204765300Y-116588820D01*
X204718527Y-116590896D01*
X204673098Y-116599323D01*
X204638782Y-116620327D01*
X204628484Y-116636731D01*
X204624860Y-116658429D01*
X204627669Y-116681388D01*
X204635851Y-116720956D01*
X204793632Y-117339256D01*
X204959228Y-117971479D01*
X204883375Y-117884666D01*
X204796685Y-117797578D01*
X204704026Y-117717232D01*
X204611060Y-117650544D01*
X204513358Y-117595273D01*
X204413346Y-117553946D01*
X204309318Y-117527693D01*
X204201099Y-117518897D01*
X204136365Y-117530843D01*
X204090334Y-117564570D01*
X204061217Y-117615200D01*
X204051011Y-117680097D01*
X204059316Y-117742501D01*
X204096318Y-117866454D01*
X204138695Y-117989064D01*
X204182414Y-118114117D01*
X204220516Y-118244298D01*
X204250436Y-118407330D01*
X204261427Y-118530795D01*
X204273883Y-118608220D01*
X204302459Y-118674288D01*
X204350209Y-118720572D01*
X204381005Y-118733591D01*
X204418353Y-118738157D01*
G37*
G36*
X202853244Y-117542344D02*
G01*
X202900739Y-117547601D01*
X202954483Y-117564570D01*
X203067079Y-117624654D01*
X203186270Y-117710628D01*
X203305704Y-117810279D01*
X203363468Y-117857418D01*
X203417568Y-117889291D01*
X203457013Y-117969891D01*
X203498534Y-118080900D01*
X203537369Y-118204242D01*
X203568143Y-118321479D01*
X203579012Y-118377044D01*
X203588660Y-118434808D01*
X203601727Y-118500753D01*
X203620045Y-118579644D01*
X203642759Y-118622630D01*
X203675366Y-118647421D01*
X203707850Y-118657923D01*
X203731786Y-118660000D01*
X203781494Y-118653277D01*
X203819103Y-118634598D01*
X203843358Y-118600948D01*
X203853175Y-118536657D01*
X203851831Y-118496235D01*
X203843527Y-118448852D01*
X203785519Y-118216699D01*
X203728733Y-118025212D01*
X203670603Y-117858761D01*
X203610397Y-117701224D01*
X203546161Y-117536971D01*
X203474476Y-117349148D01*
X203460177Y-117327747D01*
X203429780Y-117308360D01*
X203392766Y-117296293D01*
X203353332Y-117292240D01*
X203303506Y-117298579D01*
X203265404Y-117316175D01*
X203239367Y-117345022D01*
X203230478Y-117385174D01*
X203233408Y-117400928D01*
X203241835Y-117424497D01*
X203295935Y-117550771D01*
X203188101Y-117470293D01*
X203059996Y-117389204D01*
X202927494Y-117330464D01*
X202860510Y-117313404D01*
X202795847Y-117307871D01*
X202710110Y-117316602D01*
X202642224Y-117340830D01*
X202588241Y-117379312D01*
X202548553Y-117431831D01*
X202522815Y-117503347D01*
X202513258Y-117599986D01*
X202520090Y-117687393D01*
X202542690Y-117793426D01*
X202616573Y-118025334D01*
X202712316Y-118284720D01*
X202807083Y-118561203D01*
X202832728Y-118626172D01*
X202864357Y-118668792D01*
X202907344Y-118691995D01*
X202966695Y-118699078D01*
X203016297Y-118692979D01*
X203043265Y-118678196D01*
X203058864Y-118652989D01*
X203064881Y-118611884D01*
X203053157Y-118517728D01*
X203020307Y-118395729D01*
X202971092Y-118254068D01*
X202910153Y-118101050D01*
X202858984Y-117975387D01*
X202813921Y-117854120D01*
X202781926Y-117742501D01*
X202769713Y-117644926D01*
X202774309Y-117605722D01*
X202787421Y-117573119D01*
X202811274Y-117550711D01*
X202853244Y-117542344D01*
G37*
G36*
X201582345Y-117440927D02*
G01*
X201667690Y-117464553D01*
X201748199Y-117500888D01*
X201822906Y-117546374D01*
X201892086Y-117599371D01*
X201954675Y-117657505D01*
X202060799Y-117778893D01*
X202138956Y-117890635D01*
X202184752Y-117970746D01*
X202231503Y-117991319D01*
X202268527Y-118026067D01*
X202292448Y-118071542D01*
X202300767Y-118127672D01*
X202296263Y-118156389D01*
X202284036Y-118175910D01*
X202252407Y-118194839D01*
X202265333Y-118270060D01*
X202269382Y-118336500D01*
X202263269Y-118413876D01*
X202246545Y-118474741D01*
X202219745Y-118528328D01*
X202187072Y-118571217D01*
X202147671Y-118606653D01*
X202103419Y-118634232D01*
X202008286Y-118670380D01*
X201915474Y-118687110D01*
X201837805Y-118691263D01*
X201671319Y-118678892D01*
X201517602Y-118642658D01*
X201371914Y-118579070D01*
X201224633Y-118479870D01*
X201171877Y-118416489D01*
X201144033Y-118343217D01*
X201141957Y-118325509D01*
X201141224Y-118303649D01*
X201151605Y-118264570D01*
X201166786Y-118251190D01*
X201198377Y-118245764D01*
X201234093Y-118251026D01*
X201278489Y-118268967D01*
X201372766Y-118325631D01*
X201457152Y-118378754D01*
X201555826Y-118428579D01*
X201666591Y-118465826D01*
X201788590Y-118480237D01*
X201890318Y-118468338D01*
X201959682Y-118437006D01*
X201993870Y-118404249D01*
X202014073Y-118364626D01*
X202021109Y-118315861D01*
X202012438Y-118242955D01*
X201992411Y-118182993D01*
X201861863Y-118167606D01*
X201702372Y-118138175D01*
X201536531Y-118090181D01*
X201456024Y-118057501D01*
X201382780Y-118018129D01*
X201316106Y-117970861D01*
X201259560Y-117917013D01*
X201215443Y-117854414D01*
X201187752Y-117781702D01*
X201179538Y-117722595D01*
X201442742Y-117722595D01*
X201442742Y-117734685D01*
X201445184Y-117746287D01*
X201461829Y-117783319D01*
X201492934Y-117820170D01*
X201533947Y-117852109D01*
X201590143Y-117883063D01*
X201653666Y-117908061D01*
X201732170Y-117929713D01*
X201904972Y-117955969D01*
X201846964Y-117864012D01*
X201756594Y-117762163D01*
X201703641Y-117718389D01*
X201648272Y-117683272D01*
X201589710Y-117659444D01*
X201531769Y-117651765D01*
X201496879Y-117656404D01*
X201468754Y-117669595D01*
X201449448Y-117691289D01*
X201442742Y-117722595D01*
X201179538Y-117722595D01*
X201175296Y-117692065D01*
X201180232Y-117638176D01*
X201194713Y-117588872D01*
X201218981Y-117544347D01*
X201253087Y-117506318D01*
X201296057Y-117476099D01*
X201351517Y-117452341D01*
X201413787Y-117438092D01*
X201490736Y-117432923D01*
X201582345Y-117440927D01*
G37*
G36*
X199618409Y-116517054D02*
G01*
X199649389Y-116535942D01*
X199674211Y-116563968D01*
X199693108Y-116598956D01*
X199838677Y-117177690D01*
X199910484Y-117428893D01*
X199973377Y-117409232D01*
X200054099Y-117401660D01*
X200116121Y-117405897D01*
X200180129Y-117418879D01*
X200307135Y-117464675D01*
X200431210Y-117532330D01*
X200547103Y-117615006D01*
X200623794Y-117680369D01*
X200688276Y-117747020D01*
X200745011Y-117817580D01*
X200792568Y-117888558D01*
X200865963Y-118034860D01*
X200913224Y-118182383D01*
X200926290Y-118251748D01*
X200929710Y-118314152D01*
X200922435Y-118398547D01*
X200902110Y-118467658D01*
X200869196Y-118528242D01*
X200828105Y-118575858D01*
X200778535Y-118613153D01*
X200722958Y-118639361D01*
X200663246Y-118654844D01*
X200601936Y-118660000D01*
X200500942Y-118649009D01*
X200404588Y-118620921D01*
X200318859Y-118584040D01*
X200247540Y-118546427D01*
X200209193Y-118523956D01*
X200153872Y-118489762D01*
X200095743Y-118453614D01*
X200054344Y-118427480D01*
X200045062Y-118464972D01*
X200042376Y-118507592D01*
X200039567Y-118547404D01*
X200025767Y-118581353D01*
X199991451Y-118604678D01*
X199928436Y-118613105D01*
X199870551Y-118606877D01*
X199831594Y-118585628D01*
X199806681Y-118547770D01*
X199789340Y-118491960D01*
X199775956Y-118416205D01*
X199771510Y-118340041D01*
X199766015Y-118194228D01*
X199750994Y-118022404D01*
X199730600Y-117857418D01*
X199707397Y-117733464D01*
X199686102Y-117648834D01*
X199950174Y-117648834D01*
X199963729Y-117746531D01*
X199978750Y-117834337D01*
X199997069Y-117922142D01*
X200021004Y-118021549D01*
X200063625Y-118129016D01*
X200125296Y-118213401D01*
X200204675Y-118283866D01*
X200300662Y-118350422D01*
X200346336Y-118378387D01*
X200403367Y-118408185D01*
X200464916Y-118431755D01*
X200522679Y-118441158D01*
X200568177Y-118436972D01*
X200600837Y-118425893D01*
X200648586Y-118385471D01*
X200673255Y-118326242D01*
X200679972Y-118252847D01*
X200669225Y-118174811D01*
X200644449Y-118096980D01*
X200608042Y-118023014D01*
X200562316Y-117954006D01*
X200509612Y-117890879D01*
X200387247Y-117781580D01*
X200252547Y-117698782D01*
X200118702Y-117646636D01*
X200054626Y-117632639D01*
X199999389Y-117628318D01*
X199966416Y-117635401D01*
X199950174Y-117648834D01*
X199686102Y-117648834D01*
X199432623Y-116641454D01*
X199436144Y-116602871D01*
X199445446Y-116575265D01*
X199479396Y-116535209D01*
X199527145Y-116515547D01*
X199581367Y-116510662D01*
X199618409Y-116517054D01*
G37*
G36*
X197496266Y-116614588D02*
G01*
X197522766Y-116638157D01*
X197537665Y-116666978D01*
X197546580Y-116694944D01*
X197561723Y-116806074D01*
X197592498Y-116960314D01*
X197646353Y-117174759D01*
X197715352Y-117427672D01*
X197791189Y-117697561D01*
X197864951Y-117964274D01*
X197927843Y-118205586D01*
X197986584Y-118440669D01*
X197996964Y-118488297D01*
X198000383Y-118536046D01*
X197991384Y-118598060D01*
X197966556Y-118643269D01*
X197924415Y-118672237D01*
X197852983Y-118683447D01*
X197807187Y-118675143D01*
X197771894Y-118653649D01*
X197746737Y-118624951D01*
X197731716Y-118600648D01*
X197681646Y-118632522D01*
X197648037Y-118640952D01*
X197594818Y-118644368D01*
X197536905Y-118639814D01*
X197476971Y-118625806D01*
X197352529Y-118572805D01*
X197157257Y-118451660D01*
X197064360Y-118378877D01*
X196977739Y-118295345D01*
X196899895Y-118201784D01*
X196829727Y-118094577D01*
X196772674Y-117976507D01*
X196728855Y-117839466D01*
X196718475Y-117779504D01*
X196715641Y-117729923D01*
X196966137Y-117729923D01*
X196970167Y-117771810D01*
X196981036Y-117824811D01*
X197027288Y-117959626D01*
X197093089Y-118077266D01*
X197178872Y-118180062D01*
X197281062Y-118268210D01*
X197399962Y-118344929D01*
X197537543Y-118410139D01*
X197591765Y-118429312D01*
X197638904Y-118442135D01*
X197685676Y-118456667D01*
X197734647Y-118479138D01*
X197740997Y-118459965D01*
X197732937Y-118407575D01*
X197710589Y-118288872D01*
X197681891Y-118179574D01*
X197649773Y-118074427D01*
X197617288Y-117967449D01*
X197492725Y-117869141D01*
X197345446Y-117765460D01*
X197193771Y-117684371D01*
X197119128Y-117659380D01*
X197055163Y-117651765D01*
X197011935Y-117657320D01*
X196986898Y-117671182D01*
X196971784Y-117694320D01*
X196966137Y-117729923D01*
X196715641Y-117729923D01*
X196715055Y-117719665D01*
X196719488Y-117660356D01*
X196732397Y-117606336D01*
X196754622Y-117556934D01*
X196785886Y-117515478D01*
X196826044Y-117481762D01*
X196877355Y-117455150D01*
X196935896Y-117438825D01*
X197008635Y-117432923D01*
X197079944Y-117438038D01*
X197151762Y-117453562D01*
X197291224Y-117509249D01*
X197420917Y-117590094D01*
X197526430Y-117677655D01*
X197425069Y-117306772D01*
X197321877Y-116928073D01*
X197309542Y-116862739D01*
X197303925Y-116790443D01*
X197310886Y-116720956D01*
X197335432Y-116661482D01*
X197355833Y-116638252D01*
X197382571Y-116619961D01*
X197414344Y-116608590D01*
X197455355Y-116604452D01*
X197496266Y-116614588D01*
G37*
G36*
X196514043Y-119293077D02*
G01*
X196553000Y-119281109D01*
X196582187Y-119250334D01*
X196601116Y-119208813D01*
X196608077Y-119164483D01*
X196601116Y-119116489D01*
X196583408Y-119080708D01*
X196560816Y-119056528D01*
X196538468Y-119043217D01*
X196461653Y-119025509D01*
X196367131Y-118998032D01*
X196258321Y-118951137D01*
X196139131Y-118875544D01*
X196010537Y-118766001D01*
X195945304Y-118699435D01*
X195880355Y-118619699D01*
X195820834Y-118531466D01*
X195763241Y-118427725D01*
X195714821Y-118316385D01*
X195677267Y-118195205D01*
X195726238Y-118248450D01*
X195798046Y-118322334D01*
X195877547Y-118394874D01*
X195959979Y-118457889D01*
X196040701Y-118502707D01*
X196079971Y-118515374D01*
X196115073Y-118519316D01*
X196202540Y-118508281D01*
X196272854Y-118477062D01*
X196332641Y-118424364D01*
X196393143Y-118338087D01*
X196416835Y-118265792D01*
X196425017Y-118176032D01*
X196418178Y-118031929D01*
X196397662Y-117886605D01*
X196365422Y-117728335D01*
X196323900Y-117545886D01*
X196319748Y-117496671D01*
X196316451Y-117459668D01*
X196314253Y-117437442D01*
X196298133Y-117392501D01*
X196265771Y-117355865D01*
X196224982Y-117331929D01*
X196181995Y-117323503D01*
X196123499Y-117328510D01*
X196096520Y-117336814D01*
X196076727Y-117350858D01*
X196056244Y-117379256D01*
X196040945Y-117416803D01*
X196029099Y-117489588D01*
X196040945Y-117540146D01*
X196074528Y-117617571D01*
X196127651Y-117826643D01*
X196159769Y-117969403D01*
X196176011Y-118059773D01*
X196180774Y-118110942D01*
X196174164Y-118179607D01*
X196156960Y-118226713D01*
X196129262Y-118259694D01*
X196099930Y-118269211D01*
X196054012Y-118261151D01*
X195998203Y-118234162D01*
X195890147Y-118158642D01*
X195801587Y-118079312D01*
X195725047Y-117990895D01*
X195660048Y-117893688D01*
X195605401Y-117788224D01*
X195557833Y-117670205D01*
X195517515Y-117545004D01*
X195479309Y-117401905D01*
X195465387Y-117381144D01*
X195439741Y-117363925D01*
X195408234Y-117351957D01*
X195375872Y-117346950D01*
X195308363Y-117357679D01*
X195261810Y-117387006D01*
X195232216Y-117432538D01*
X195221755Y-117493984D01*
X195234089Y-117573852D01*
X195262787Y-117689256D01*
X195296371Y-117805272D01*
X195322993Y-117886482D01*
X195388572Y-118076015D01*
X195469905Y-118311831D01*
X195547208Y-118513210D01*
X195639654Y-118690163D01*
X195695664Y-118771595D01*
X195763729Y-118852829D01*
X195841233Y-118930422D01*
X195936287Y-119011953D01*
X196042026Y-119090825D01*
X196174424Y-119177916D01*
X196259989Y-119224617D01*
X196341364Y-119260837D01*
X196425015Y-119284948D01*
X196514043Y-119293077D01*
G37*
G36*
X192991817Y-117185139D02*
G01*
X193019173Y-117240949D01*
X193054588Y-117333517D01*
X193091468Y-117444647D01*
X193125540Y-117554556D01*
X193152163Y-117644560D01*
X193165840Y-117695484D01*
X193176099Y-117740792D01*
X193187334Y-117785732D01*
X193039944Y-117739783D01*
X192891067Y-117701713D01*
X192740532Y-117675935D01*
X192590282Y-117667397D01*
X192528489Y-117668740D01*
X192452529Y-117679120D01*
X192387316Y-117708185D01*
X192366701Y-117732126D01*
X192359595Y-117765582D01*
X192360938Y-117783168D01*
X192369364Y-117820170D01*
X192391224Y-117862302D01*
X192432623Y-117893932D01*
X192462787Y-117892344D01*
X192491974Y-117892344D01*
X192588508Y-117896594D01*
X192686025Y-117909441D01*
X192882274Y-117955847D01*
X193079378Y-118025457D01*
X193274040Y-118110209D01*
X193411549Y-118705917D01*
X193418740Y-118728697D01*
X193435362Y-118749881D01*
X193457091Y-118764938D01*
X193477006Y-118769420D01*
X193509734Y-118769420D01*
X193556244Y-118758078D01*
X193584717Y-118725457D01*
X193599641Y-118678055D01*
X193605233Y-118613715D01*
X193595708Y-118490861D01*
X193573726Y-118361413D01*
X193551866Y-118246618D01*
X193542341Y-118169071D01*
X193574825Y-118120223D01*
X193587124Y-118091449D01*
X193591556Y-118054277D01*
X193583016Y-117997430D01*
X193559438Y-117956336D01*
X193475174Y-117885628D01*
X193464672Y-117871706D01*
X193454047Y-117847770D01*
X193445987Y-117820781D01*
X193439759Y-117797456D01*
X193383827Y-117594979D01*
X193325087Y-117386395D01*
X193277215Y-117225683D01*
X193236915Y-117097700D01*
X193200523Y-116987547D01*
X193182083Y-116936744D01*
X193150453Y-116871898D01*
X193107833Y-116816088D01*
X193081996Y-116797795D01*
X193054832Y-116792030D01*
X192997445Y-116795361D01*
X192968859Y-116802777D01*
X192948643Y-116815778D01*
X192937718Y-116831353D01*
X192926727Y-116858586D01*
X192867742Y-116848695D01*
X192784455Y-116831720D01*
X192704710Y-116813279D01*
X192651587Y-116798991D01*
X192483304Y-116757226D01*
X192338224Y-116728283D01*
X192206699Y-116711430D01*
X192079326Y-116706057D01*
X192022784Y-116708866D01*
X191977233Y-116719490D01*
X191946458Y-116742571D01*
X191934734Y-116782383D01*
X191940352Y-116814378D01*
X191958670Y-116852236D01*
X191993108Y-116888018D01*
X192046842Y-116913175D01*
X192081280Y-116920746D01*
X192138189Y-116931127D01*
X192206577Y-116942728D01*
X192275331Y-116954207D01*
X192392079Y-116980952D01*
X192527267Y-117012948D01*
X192668440Y-117051172D01*
X192802163Y-117093548D01*
X192914392Y-117138367D01*
X192991817Y-117185139D01*
G37*
G36*
X191715404Y-116886064D02*
G01*
X191704413Y-116785191D01*
X191682309Y-116683464D01*
X191663942Y-116639483D01*
X191641032Y-116604940D01*
X191611112Y-116581140D01*
X191573499Y-116573189D01*
X191523918Y-116581615D01*
X191472383Y-116604574D01*
X191430861Y-116640478D01*
X191417983Y-116663042D01*
X191413764Y-116687616D01*
X191417916Y-116713506D01*
X191424877Y-116741594D01*
X191766451Y-118108377D01*
X191800523Y-118264326D01*
X191820917Y-118385837D01*
X191820917Y-118418321D01*
X191826535Y-118508203D01*
X191847295Y-118599183D01*
X191865831Y-118638499D01*
X191889916Y-118670136D01*
X191921083Y-118691654D01*
X191961479Y-118699078D01*
X191997654Y-118694860D01*
X192027669Y-118682836D01*
X192073953Y-118641559D01*
X192100575Y-118587948D01*
X192108879Y-118534214D01*
X192104849Y-118479993D01*
X192094469Y-118412948D01*
X192081402Y-118343217D01*
X192067725Y-118282278D01*
X191715404Y-116886064D01*
G37*
G36*
X191177826Y-117438175D02*
G01*
X191161706Y-117399462D01*
X191139113Y-117373328D01*
X191116887Y-117359162D01*
X191100279Y-117354766D01*
X191064375Y-117358185D01*
X191024563Y-117364291D01*
X190982309Y-117372473D01*
X190949713Y-117381000D01*
X190928454Y-117402637D01*
X190916273Y-117433153D01*
X190911967Y-117470537D01*
X190920272Y-117527445D01*
X191005024Y-117824078D01*
X191069870Y-118038768D01*
X191110781Y-118182993D01*
X191125069Y-118266769D01*
X191117742Y-118330027D01*
X191095516Y-118395118D01*
X191058391Y-118444944D01*
X191033880Y-118459632D01*
X191004658Y-118464605D01*
X190949268Y-118456248D01*
X190890352Y-118429556D01*
X190834031Y-118390884D01*
X190779221Y-118343583D01*
X190683356Y-118235017D01*
X190613258Y-118132435D01*
X190577721Y-118071130D01*
X190517149Y-117940094D01*
X190468056Y-117791106D01*
X190431908Y-117650177D01*
X190408705Y-117544665D01*
X190373168Y-117363314D01*
X190357649Y-117315646D01*
X190338485Y-117289553D01*
X190309992Y-117274789D01*
X190260083Y-117268792D01*
X190197313Y-117276486D01*
X190149441Y-117304085D01*
X190119888Y-117356720D01*
X190109996Y-117440617D01*
X190114167Y-117502516D01*
X190128558Y-117585209D01*
X190168859Y-117756912D01*
X190194138Y-117863890D01*
X190217341Y-117976974D01*
X190233705Y-118084563D01*
X190239811Y-118176277D01*
X190235048Y-118315373D01*
X190230286Y-118462896D01*
X190232362Y-118526154D01*
X190238590Y-118567676D01*
X190257376Y-118617267D01*
X190278646Y-118648764D01*
X190309332Y-118668015D01*
X190362543Y-118675631D01*
X190427023Y-118666350D01*
X190464637Y-118641437D01*
X190482466Y-118606632D01*
X190488084Y-118568042D01*
X190502861Y-118314762D01*
X190509211Y-118316838D01*
X190606908Y-118444211D01*
X190724755Y-118576957D01*
X190792444Y-118633819D01*
X190865806Y-118680516D01*
X190945290Y-118711949D01*
X191032013Y-118722526D01*
X191078907Y-118713489D01*
X191137526Y-118690774D01*
X191195289Y-118659877D01*
X191239619Y-118627393D01*
X191304993Y-118551756D01*
X191347086Y-118469124D01*
X191370959Y-118380067D01*
X191378838Y-118290338D01*
X191370655Y-118188855D01*
X191351482Y-118091036D01*
X191327547Y-118002131D01*
X191306297Y-117927882D01*
X191259891Y-117747875D01*
X191223621Y-117611465D01*
X191196999Y-117511203D01*
X191177826Y-117438175D01*
G37*
G36*
X189603558Y-118785052D02*
G01*
X189666085Y-118771863D01*
X189712369Y-118735959D01*
X189741800Y-118684302D01*
X189752302Y-118622508D01*
X189746807Y-118571461D01*
X189730321Y-118504539D01*
X189717986Y-118452271D01*
X189701622Y-118372892D01*
X189684647Y-118278981D01*
X189668405Y-118182260D01*
X189656681Y-118095066D01*
X189652529Y-118028143D01*
X189653872Y-118004940D01*
X189661418Y-117989531D01*
X189681716Y-117978684D01*
X189738258Y-117961953D01*
X189795655Y-117931423D01*
X189814697Y-117904948D01*
X189821912Y-117861570D01*
X189817542Y-117823543D01*
X189804448Y-117787686D01*
X189783549Y-117757285D01*
X189758286Y-117738105D01*
X189724794Y-117725958D01*
X189686967Y-117720886D01*
X189609665Y-117712337D01*
X189593188Y-117705369D01*
X189581699Y-117687913D01*
X189567777Y-117644071D01*
X189532240Y-117507906D01*
X189487787Y-117358429D01*
X189431612Y-117209563D01*
X189362369Y-117074863D01*
X189229989Y-116918182D01*
X189156559Y-116849669D01*
X189079047Y-116791053D01*
X188996083Y-116742473D01*
X188908688Y-116705812D01*
X188816419Y-116682671D01*
X188716835Y-116674794D01*
X188601229Y-116686155D01*
X188516800Y-116716559D01*
X188447372Y-116767949D01*
X188391015Y-116841734D01*
X188375628Y-116882034D01*
X188371353Y-116923433D01*
X188381856Y-116994141D01*
X188410432Y-117051660D01*
X188453297Y-117090495D01*
X188505076Y-117104661D01*
X188540499Y-117100338D01*
X188564672Y-117088907D01*
X188599232Y-117050439D01*
X188620115Y-117000614D01*
X188636357Y-116951765D01*
X188659193Y-116915861D01*
X188675627Y-116905287D01*
X188699127Y-116901451D01*
X188760432Y-116908290D01*
X188825645Y-116931127D01*
X188979518Y-117028579D01*
X189046389Y-117088500D01*
X189110676Y-117165600D01*
X189167041Y-117254723D01*
X189222295Y-117368810D01*
X189269440Y-117496604D01*
X189317062Y-117665687D01*
X189319748Y-117672159D01*
X189320969Y-117676556D01*
X189313886Y-117675457D01*
X189235851Y-117670694D01*
X189161479Y-117659703D01*
X189086863Y-117648834D01*
X189006507Y-117643949D01*
X188947156Y-117646880D01*
X188898796Y-117659459D01*
X188865945Y-117687058D01*
X188853733Y-117734808D01*
X188858618Y-117777672D01*
X188873883Y-117827009D01*
X188900750Y-117870240D01*
X188919085Y-117885760D01*
X188941538Y-117893932D01*
X189026535Y-117906877D01*
X189122156Y-117917623D01*
X189236706Y-117935087D01*
X189374947Y-117967449D01*
X189411828Y-118146235D01*
X189434420Y-118324776D01*
X189455547Y-118503440D01*
X189489131Y-118683569D01*
X189503907Y-118719717D01*
X189529064Y-118752323D01*
X189563014Y-118776015D01*
X189603558Y-118785052D01*
G37*
G36*
X188495673Y-118785052D02*
G01*
X188558199Y-118771863D01*
X188604483Y-118735959D01*
X188633914Y-118684302D01*
X188644417Y-118622508D01*
X188638921Y-118571461D01*
X188622435Y-118504539D01*
X188610101Y-118452271D01*
X188593736Y-118372892D01*
X188576762Y-118278981D01*
X188560519Y-118182260D01*
X188548796Y-118095066D01*
X188544644Y-118028143D01*
X188545987Y-118004940D01*
X188553532Y-117989531D01*
X188573831Y-117978684D01*
X188630373Y-117961953D01*
X188687770Y-117931423D01*
X188706811Y-117904948D01*
X188714026Y-117861570D01*
X188709656Y-117823543D01*
X188696563Y-117787686D01*
X188675663Y-117757285D01*
X188650401Y-117738105D01*
X188616908Y-117725958D01*
X188579082Y-117720886D01*
X188501779Y-117712337D01*
X188485303Y-117705369D01*
X188473813Y-117687913D01*
X188459891Y-117644071D01*
X188424354Y-117507906D01*
X188379902Y-117358429D01*
X188323726Y-117209563D01*
X188254483Y-117074863D01*
X188122103Y-116918182D01*
X188048673Y-116849669D01*
X187971161Y-116791053D01*
X187888197Y-116742473D01*
X187800802Y-116705812D01*
X187708534Y-116682671D01*
X187608949Y-116674794D01*
X187493343Y-116686155D01*
X187408914Y-116716559D01*
X187339487Y-116767949D01*
X187283129Y-116841734D01*
X187267742Y-116882034D01*
X187263468Y-116923433D01*
X187273970Y-116994141D01*
X187302547Y-117051660D01*
X187345411Y-117090495D01*
X187397191Y-117104661D01*
X187432613Y-117100338D01*
X187456786Y-117088907D01*
X187491346Y-117050439D01*
X187512229Y-117000614D01*
X187528471Y-116951765D01*
X187551308Y-116915861D01*
X187567741Y-116905287D01*
X187591242Y-116901451D01*
X187652547Y-116908290D01*
X187717759Y-116931127D01*
X187871632Y-117028579D01*
X187938504Y-117088500D01*
X188002791Y-117165600D01*
X188059155Y-117254723D01*
X188114410Y-117368810D01*
X188161554Y-117496604D01*
X188209176Y-117665687D01*
X188211863Y-117672159D01*
X188213084Y-117676556D01*
X188206001Y-117675457D01*
X188127965Y-117670694D01*
X188053593Y-117659703D01*
X187978977Y-117648834D01*
X187898621Y-117643949D01*
X187839270Y-117646880D01*
X187790910Y-117659459D01*
X187758060Y-117687058D01*
X187745847Y-117734808D01*
X187750732Y-117777672D01*
X187765997Y-117827009D01*
X187792864Y-117870240D01*
X187811200Y-117885760D01*
X187833653Y-117893932D01*
X187918649Y-117906877D01*
X188014270Y-117917623D01*
X188128820Y-117935087D01*
X188267062Y-117967449D01*
X188303942Y-118146235D01*
X188326535Y-118324776D01*
X188347662Y-118503440D01*
X188381245Y-118683569D01*
X188396022Y-118719717D01*
X188421179Y-118752323D01*
X188455129Y-118776015D01*
X188495673Y-118785052D01*
G37*
G36*
X186714898Y-117643705D02*
G01*
X187186531Y-117406057D01*
X187502459Y-117265861D01*
X187523378Y-117254519D01*
X187542027Y-117233011D01*
X187554276Y-117205954D01*
X187558391Y-117175980D01*
X187550897Y-117121181D01*
X187530059Y-117079748D01*
X187496081Y-117051879D01*
X187447871Y-117042135D01*
X187397970Y-117052424D01*
X187286304Y-117098555D01*
X187017149Y-117228614D01*
X186653715Y-117410575D01*
X186410450Y-117539047D01*
X186385416Y-117559848D01*
X186369905Y-117582034D01*
X186361175Y-117608497D01*
X186357815Y-117646758D01*
X186365836Y-117702026D01*
X186387369Y-117739448D01*
X186432265Y-117771463D01*
X186559682Y-117831039D01*
X186998342Y-118011657D01*
X187479623Y-118201434D01*
X187650044Y-118257724D01*
X187711531Y-118269211D01*
X187747280Y-118259428D01*
X187776744Y-118228178D01*
X187795102Y-118184268D01*
X187801535Y-118131214D01*
X187790142Y-118087741D01*
X187753143Y-118048643D01*
X187678558Y-118012512D01*
X187530042Y-117964332D01*
X187237456Y-117855952D01*
X186714898Y-117643705D01*
G37*
%TO.C,JP2*%
D11*
X130200000Y-104900000D02*
X130200000Y-105500000D01*
X130900000Y-106200000D02*
X132300000Y-106200000D01*
X132300000Y-104200000D02*
X130900000Y-104200000D01*
X133000000Y-105500000D02*
X133000000Y-104900000D01*
X130200000Y-104900000D02*
G75*
G02*
X130900000Y-104200000I699999J1D01*
G01*
X130900000Y-106200000D02*
G75*
G02*
X130200000Y-105500000I-1J699999D01*
G01*
X132300000Y-104200000D02*
G75*
G02*
X133000000Y-104900000I0J-700000D01*
G01*
X133000000Y-105500000D02*
G75*
G02*
X132300000Y-106200000I-700000J0D01*
G01*
%TO.C,TP6*%
X124600000Y-102600000D02*
G75*
G02*
X123200000Y-102600000I-700000J0D01*
G01*
X123200000Y-102600000D02*
G75*
G02*
X124600000Y-102600000I700000J0D01*
G01*
%TO.C,R5*%
X168046359Y-113920000D02*
X168353641Y-113920000D01*
X168046359Y-114680000D02*
X168353641Y-114680000D01*
D12*
%TO.C,LOGO\u002A*%
G36*
X187605072Y-110579333D02*
G01*
X187702292Y-110605213D01*
X187733133Y-110618354D01*
X187768916Y-110638272D01*
X187780113Y-110654168D01*
X187766495Y-110666500D01*
X187727835Y-110675724D01*
X187663904Y-110682299D01*
X187585843Y-110691144D01*
X187497318Y-110711619D01*
X187413737Y-110744584D01*
X187331709Y-110792062D01*
X187247843Y-110856073D01*
X187158748Y-110938639D01*
X187061035Y-111041783D01*
X187035014Y-111070144D01*
X186982564Y-111125028D01*
X186933121Y-111174026D01*
X186891277Y-111212659D01*
X186861619Y-111236445D01*
X186801500Y-111277019D01*
X186963777Y-111385071D01*
X186988246Y-111401447D01*
X187047160Y-111441535D01*
X187099494Y-111478029D01*
X187140306Y-111507451D01*
X187164651Y-111526327D01*
X187183172Y-111541446D01*
X187233152Y-111578460D01*
X187295954Y-111621739D01*
X187365992Y-111667727D01*
X187437681Y-111712872D01*
X187505435Y-111753617D01*
X187563669Y-111786410D01*
X187606799Y-111807695D01*
X187717384Y-111849137D01*
X187821858Y-111875076D01*
X187910618Y-111881516D01*
X187924971Y-111881136D01*
X187971158Y-111885069D01*
X187997957Y-111898468D01*
X188003239Y-111904138D01*
X188007400Y-111915530D01*
X187995066Y-111926101D01*
X187962377Y-111940402D01*
X187951435Y-111944624D01*
X187901720Y-111961293D01*
X187855844Y-111973563D01*
X187821112Y-111978998D01*
X187733397Y-111980466D01*
X187632607Y-111968790D01*
X187524124Y-111945028D01*
X187413333Y-111910236D01*
X187305617Y-111865474D01*
X187282405Y-111853740D01*
X187228476Y-111823691D01*
X187160809Y-111783590D01*
X187084040Y-111736266D01*
X187002804Y-111684547D01*
X186921738Y-111631261D01*
X186870383Y-111597155D01*
X186792533Y-111546321D01*
X186719461Y-111499583D01*
X186655261Y-111459520D01*
X186604025Y-111428709D01*
X186569849Y-111409727D01*
X186542465Y-111396516D01*
X186483125Y-111370623D01*
X186421308Y-111346487D01*
X186363419Y-111326403D01*
X186315858Y-111312670D01*
X186285030Y-111307581D01*
X186272470Y-111306517D01*
X186263236Y-111298800D01*
X186273452Y-111285931D01*
X186300165Y-111270672D01*
X186340423Y-111255783D01*
X186343982Y-111254707D01*
X186450070Y-111212995D01*
X186559110Y-111151263D01*
X186673127Y-111068202D01*
X186794146Y-110962503D01*
X186862519Y-110899250D01*
X186951240Y-110820968D01*
X187029072Y-110757995D01*
X187099497Y-110707917D01*
X187165992Y-110668322D01*
X187232037Y-110636798D01*
X187301110Y-110610931D01*
X187381832Y-110588861D01*
X187496826Y-110573903D01*
X187605072Y-110579333D01*
G37*
G36*
X204730990Y-110571450D02*
G01*
X204749917Y-110573424D01*
X204839734Y-110587168D01*
X204928123Y-110608850D01*
X205018538Y-110639950D01*
X205114430Y-110681949D01*
X205219252Y-110736327D01*
X205336457Y-110804564D01*
X205469496Y-110888143D01*
X205592195Y-110966403D01*
X205702362Y-111034304D01*
X205798692Y-111090648D01*
X205884615Y-111137294D01*
X205963564Y-111176101D01*
X206038968Y-111208930D01*
X206114259Y-111237640D01*
X206143873Y-111248579D01*
X206188979Y-111266870D01*
X206220859Y-111281972D01*
X206233996Y-111291406D01*
X206231453Y-111296291D01*
X206210928Y-111304767D01*
X206176059Y-111311264D01*
X206113492Y-111324266D01*
X206034128Y-111351629D01*
X205955493Y-111388335D01*
X205887934Y-111430117D01*
X205886413Y-111431248D01*
X205854118Y-111460023D01*
X205812401Y-111503521D01*
X205766484Y-111556038D01*
X205721586Y-111611871D01*
X205720773Y-111612930D01*
X205675294Y-111670703D01*
X205628862Y-111727222D01*
X205586877Y-111776052D01*
X205554735Y-111810760D01*
X205514439Y-111845262D01*
X205447592Y-111889947D01*
X205371392Y-111931264D01*
X205294650Y-111964537D01*
X205226176Y-111985091D01*
X205189574Y-111990138D01*
X205113704Y-111991201D01*
X205027242Y-111983346D01*
X204938401Y-111967085D01*
X204895379Y-111955688D01*
X204860319Y-111940851D01*
X204845297Y-111923799D01*
X204847221Y-111902334D01*
X204854035Y-111891708D01*
X204872229Y-111886241D01*
X204907408Y-111889956D01*
X204942048Y-111893764D01*
X205031366Y-111886910D01*
X205121722Y-111858595D01*
X205209266Y-111811179D01*
X205290143Y-111747025D01*
X205360501Y-111668493D01*
X205416487Y-111577944D01*
X205421959Y-111567047D01*
X205489952Y-111451527D01*
X205564450Y-111360063D01*
X205646097Y-111291856D01*
X205656892Y-111284306D01*
X205663663Y-111275226D01*
X205657169Y-111265028D01*
X205634344Y-111249994D01*
X205592124Y-111226410D01*
X205581407Y-111220361D01*
X205535028Y-111192317D01*
X205476246Y-111154820D01*
X205411504Y-111112035D01*
X205347243Y-111068124D01*
X205328296Y-111054931D01*
X205263639Y-111009918D01*
X205200962Y-110966296D01*
X205146605Y-110928476D01*
X205106909Y-110900871D01*
X205083188Y-110885043D01*
X205017425Y-110845592D01*
X204942398Y-110805227D01*
X204864270Y-110766893D01*
X204789204Y-110733533D01*
X204723361Y-110708092D01*
X204672904Y-110693513D01*
X204632300Y-110686844D01*
X204569583Y-110679698D01*
X204509673Y-110675741D01*
X204477141Y-110674021D01*
X204428911Y-110667344D01*
X204404892Y-110656614D01*
X204405474Y-110642087D01*
X204431046Y-110624019D01*
X204483390Y-110602439D01*
X204564381Y-110581749D01*
X204650587Y-110570775D01*
X204730990Y-110571450D01*
G37*
G36*
X192539288Y-109622963D02*
G01*
X192699574Y-109635486D01*
X192912604Y-109668283D01*
X193114682Y-109718253D01*
X193304369Y-109784507D01*
X193480227Y-109866153D01*
X193640817Y-109962301D01*
X193784701Y-110072061D01*
X193910441Y-110194541D01*
X194016599Y-110328850D01*
X194101736Y-110474098D01*
X194164413Y-110629395D01*
X194177640Y-110676238D01*
X194197729Y-110789466D01*
X194203326Y-110904235D01*
X194194334Y-111013070D01*
X194170655Y-111108492D01*
X194162046Y-111130526D01*
X194109708Y-111223473D01*
X194037944Y-111303550D01*
X193951068Y-111365706D01*
X193940974Y-111371223D01*
X193905274Y-111388323D01*
X193871691Y-111398097D01*
X193831000Y-111402516D01*
X193773980Y-111403551D01*
X193743682Y-111403002D01*
X193647472Y-111391809D01*
X193572077Y-111366129D01*
X193517218Y-111325878D01*
X193506551Y-111313760D01*
X193495009Y-111291576D01*
X193500821Y-111271817D01*
X193515541Y-111258293D01*
X193545179Y-111248612D01*
X193548573Y-111248460D01*
X193584133Y-111246990D01*
X193625575Y-111245413D01*
X193648134Y-111243148D01*
X193675097Y-111233587D01*
X193704238Y-111212741D01*
X193742662Y-111176423D01*
X193743708Y-111175374D01*
X193789820Y-111121879D01*
X193821581Y-111065945D01*
X193840642Y-111002086D01*
X193848655Y-110924812D01*
X193847268Y-110828636D01*
X193828873Y-110686166D01*
X193787678Y-110548527D01*
X193723050Y-110415943D01*
X193634273Y-110286949D01*
X193520630Y-110160074D01*
X193420823Y-110071290D01*
X193277173Y-109973001D01*
X193116493Y-109891844D01*
X192940486Y-109828523D01*
X192750858Y-109783744D01*
X192549314Y-109758212D01*
X192538129Y-109757394D01*
X192343975Y-109753152D01*
X192162420Y-109768385D01*
X191994500Y-109802739D01*
X191841252Y-109855858D01*
X191703710Y-109927388D01*
X191582912Y-110016975D01*
X191479894Y-110124264D01*
X191466299Y-110141559D01*
X191389005Y-110263201D01*
X191331353Y-110398654D01*
X191293139Y-110545920D01*
X191274157Y-110702999D01*
X191274204Y-110867891D01*
X191293074Y-111038595D01*
X191330563Y-111213113D01*
X191386466Y-111389444D01*
X191460579Y-111565590D01*
X191552696Y-111739549D01*
X191662614Y-111909323D01*
X191781882Y-112062889D01*
X191930239Y-112219471D01*
X192089461Y-112352941D01*
X192259725Y-112463409D01*
X192441205Y-112550987D01*
X192634077Y-112615787D01*
X192838517Y-112657921D01*
X192865328Y-112661479D01*
X192932060Y-112667942D01*
X193003626Y-112672255D01*
X193074972Y-112674388D01*
X193141047Y-112674309D01*
X193196795Y-112671987D01*
X193237165Y-112667392D01*
X193257103Y-112660492D01*
X193258459Y-112658788D01*
X193259721Y-112653862D01*
X193258629Y-112644824D01*
X193254340Y-112629512D01*
X193246010Y-112605761D01*
X193232796Y-112571410D01*
X193213856Y-112524293D01*
X193188345Y-112462248D01*
X193155422Y-112383112D01*
X193114242Y-112284721D01*
X193063963Y-112164911D01*
X193026377Y-112074980D01*
X192983330Y-111971206D01*
X192940009Y-111866095D01*
X192899833Y-111767947D01*
X192866224Y-111685062D01*
X192865678Y-111683707D01*
X192832356Y-111601358D01*
X192792553Y-111503618D01*
X192749574Y-111398563D01*
X192706723Y-111294270D01*
X192667304Y-111198816D01*
X192629251Y-111106552D01*
X192584084Y-110996269D01*
X192537754Y-110882488D01*
X192493941Y-110774246D01*
X192456323Y-110680579D01*
X192454930Y-110677091D01*
X192421331Y-110593133D01*
X192387574Y-110509061D01*
X192356066Y-110430849D01*
X192329211Y-110364469D01*
X192309416Y-110315894D01*
X192283202Y-110251510D01*
X192243722Y-110151804D01*
X192214951Y-110074815D01*
X192196787Y-110020254D01*
X192189130Y-109987827D01*
X192191878Y-109977243D01*
X192194612Y-109977622D01*
X192219208Y-109984449D01*
X192264779Y-109999201D01*
X192328960Y-110021063D01*
X192409391Y-110049220D01*
X192503707Y-110082860D01*
X192609547Y-110121168D01*
X192641752Y-110132914D01*
X192740535Y-110169301D01*
X192817450Y-110198636D01*
X192874265Y-110222044D01*
X192912750Y-110240655D01*
X192934674Y-110255593D01*
X192941806Y-110267987D01*
X192935916Y-110278963D01*
X192918773Y-110289648D01*
X192892146Y-110301169D01*
X192880702Y-110305997D01*
X192850170Y-110321604D01*
X192834060Y-110334143D01*
X192832094Y-110356765D01*
X192841624Y-110402087D01*
X192862802Y-110469294D01*
X192895500Y-110557990D01*
X192939596Y-110667783D01*
X192944146Y-110678780D01*
X192979834Y-110765132D01*
X193019978Y-110862414D01*
X193059990Y-110959500D01*
X193095281Y-111045264D01*
X193099638Y-111055857D01*
X193136300Y-111144639D01*
X193177557Y-111244045D01*
X193218669Y-111342679D01*
X193254897Y-111429143D01*
X193274984Y-111477032D01*
X193301772Y-111541263D01*
X193331531Y-111613027D01*
X193365211Y-111694636D01*
X193403762Y-111788401D01*
X193448134Y-111896635D01*
X193499278Y-112021648D01*
X193558143Y-112165752D01*
X193625680Y-112331259D01*
X193648739Y-112386355D01*
X193677791Y-112452613D01*
X193705008Y-112511661D01*
X193726643Y-112555188D01*
X193749670Y-112595324D01*
X193773546Y-112625143D01*
X193804450Y-112648489D01*
X193850756Y-112673334D01*
X193897104Y-112695240D01*
X193946799Y-112716620D01*
X193985113Y-112730916D01*
X193997432Y-112735145D01*
X194028522Y-112752599D01*
X194040386Y-112775919D01*
X194044475Y-112804710D01*
X193464568Y-112804587D01*
X193404022Y-112804538D01*
X193250402Y-112804006D01*
X193119077Y-112802841D01*
X193007618Y-112800982D01*
X192913600Y-112798365D01*
X192834595Y-112794930D01*
X192768176Y-112790614D01*
X192711914Y-112785354D01*
X192698811Y-112783882D01*
X192463717Y-112748700D01*
X192247852Y-112698561D01*
X192049111Y-112632523D01*
X191865388Y-112549644D01*
X191694576Y-112448980D01*
X191534572Y-112329589D01*
X191383268Y-112190529D01*
X191379388Y-112186599D01*
X191226727Y-112015589D01*
X191098561Y-111837283D01*
X190994799Y-111651499D01*
X190915353Y-111458052D01*
X190860133Y-111256758D01*
X190829051Y-111047433D01*
X190823184Y-110955989D01*
X190826694Y-110777896D01*
X190851578Y-110612321D01*
X190898283Y-110457572D01*
X190967252Y-110311959D01*
X191058931Y-110173791D01*
X191142119Y-110077936D01*
X191265359Y-109968816D01*
X191407465Y-109873070D01*
X191566347Y-109791475D01*
X191739916Y-109724807D01*
X191926084Y-109673845D01*
X192122761Y-109639366D01*
X192327859Y-109622146D01*
X192539288Y-109622963D01*
G37*
G36*
X196258427Y-111330441D02*
G01*
X196335289Y-111343010D01*
X196403552Y-111362522D01*
X196423243Y-111369488D01*
X196491465Y-111395053D01*
X196538968Y-111416152D01*
X196568945Y-111434659D01*
X196584588Y-111452448D01*
X196589093Y-111471393D01*
X196588852Y-111479776D01*
X196581963Y-111496447D01*
X196560302Y-111495805D01*
X196454241Y-111473257D01*
X196333797Y-111454558D01*
X196234989Y-111448337D01*
X196139055Y-111448337D01*
X196187910Y-111515516D01*
X196206048Y-111539825D01*
X196240331Y-111584564D01*
X196283931Y-111640638D01*
X196333112Y-111703247D01*
X196384139Y-111767593D01*
X196424812Y-111818681D01*
X196475001Y-111881875D01*
X196520567Y-111939405D01*
X196557726Y-111986495D01*
X196582695Y-112018366D01*
X196623508Y-112070058D01*
X196718998Y-112185885D01*
X196822807Y-112305893D01*
X196931062Y-112425918D01*
X197039893Y-112541798D01*
X197145425Y-112649371D01*
X197243788Y-112744472D01*
X197331108Y-112822940D01*
X197334615Y-112825930D01*
X197506796Y-112960872D01*
X197678227Y-113072115D01*
X197848276Y-113159466D01*
X198016309Y-113222728D01*
X198181696Y-113261707D01*
X198343802Y-113276209D01*
X198501995Y-113266038D01*
X198655642Y-113230999D01*
X198717821Y-113209604D01*
X198820622Y-113166084D01*
X198913992Y-113116492D01*
X198992597Y-113063795D01*
X199051102Y-113010963D01*
X199054452Y-113007266D01*
X199075895Y-112987729D01*
X199090877Y-112988636D01*
X199107171Y-113009831D01*
X199110828Y-113016198D01*
X199115069Y-113034169D01*
X199107242Y-113056086D01*
X199085188Y-113089806D01*
X199015662Y-113177680D01*
X198899374Y-113291146D01*
X198767445Y-113386451D01*
X198622759Y-113461904D01*
X198468199Y-113515813D01*
X198306649Y-113546486D01*
X198188216Y-113554013D01*
X198013486Y-113543792D01*
X197839793Y-113508181D01*
X197667527Y-113447295D01*
X197497077Y-113361254D01*
X197328832Y-113250175D01*
X197210846Y-113154258D01*
X197082406Y-113032617D01*
X196947087Y-112888136D01*
X196805528Y-112721536D01*
X196658371Y-112533538D01*
X196506256Y-112324861D01*
X196478267Y-112285257D01*
X196432826Y-112221190D01*
X196390972Y-112162445D01*
X196356415Y-112114226D01*
X196332868Y-112081737D01*
X196308058Y-112047722D01*
X196263499Y-111986032D01*
X196211260Y-111913225D01*
X196155120Y-111834607D01*
X196098861Y-111755489D01*
X196046263Y-111681178D01*
X196001106Y-111616983D01*
X195967170Y-111568214D01*
X195953258Y-111548086D01*
X195925584Y-111508484D01*
X195905026Y-111479666D01*
X195895249Y-111466802D01*
X195879710Y-111464626D01*
X195842696Y-111467350D01*
X195788226Y-111474538D01*
X195720125Y-111485528D01*
X195642217Y-111499663D01*
X195558328Y-111516282D01*
X195472282Y-111534724D01*
X195387905Y-111554330D01*
X195165608Y-111608287D01*
X195174468Y-111717052D01*
X195183717Y-111840611D01*
X195193707Y-112024492D01*
X195197229Y-112187634D01*
X195194205Y-112332553D01*
X195184559Y-112461767D01*
X195168215Y-112577794D01*
X195145096Y-112683148D01*
X195136201Y-112716710D01*
X195122213Y-112766517D01*
X195111292Y-112797760D01*
X195101369Y-112814602D01*
X195090375Y-112821209D01*
X195076242Y-112821744D01*
X195056615Y-112817500D01*
X195015951Y-112806269D01*
X194957993Y-112789131D01*
X194886286Y-112767157D01*
X194804375Y-112741416D01*
X194715805Y-112712978D01*
X194651022Y-112691930D01*
X194567168Y-112664429D01*
X194503321Y-112642884D01*
X194456813Y-112626164D01*
X194424974Y-112613139D01*
X194405132Y-112602677D01*
X194394617Y-112593647D01*
X194390760Y-112584918D01*
X194390890Y-112575359D01*
X194392173Y-112566491D01*
X194397536Y-112554177D01*
X194411347Y-112547998D01*
X194439313Y-112546298D01*
X194487138Y-112547420D01*
X194536563Y-112546930D01*
X194598270Y-112536256D01*
X194641554Y-112512450D01*
X194669200Y-112474396D01*
X194686027Y-112428452D01*
X194704357Y-112349511D01*
X194716328Y-112258422D01*
X194720693Y-112162730D01*
X194720493Y-112139968D01*
X194719075Y-112087027D01*
X194716529Y-112022773D01*
X194713127Y-111951817D01*
X194709141Y-111878769D01*
X194704844Y-111808240D01*
X194700509Y-111744840D01*
X194696408Y-111693179D01*
X194692814Y-111657867D01*
X194689998Y-111643516D01*
X194680360Y-111640568D01*
X194651604Y-111634367D01*
X194611000Y-111626730D01*
X194567965Y-111617267D01*
X194506429Y-111600138D01*
X194448888Y-111580845D01*
X194428710Y-111572804D01*
X194379149Y-111547856D01*
X194346225Y-111523331D01*
X194331047Y-111501699D01*
X194334723Y-111485427D01*
X194358361Y-111476983D01*
X194403072Y-111478838D01*
X194407397Y-111479428D01*
X194450204Y-111484372D01*
X194506091Y-111489817D01*
X194564131Y-111494688D01*
X194669698Y-111502730D01*
X194669595Y-111440345D01*
X194667888Y-111392094D01*
X194660477Y-111306433D01*
X194647647Y-111200636D01*
X194629890Y-111077406D01*
X194607697Y-110939445D01*
X194581559Y-110789458D01*
X194551967Y-110630147D01*
X194519414Y-110464216D01*
X194484389Y-110294368D01*
X194451206Y-110140974D01*
X194836045Y-110140974D01*
X194837151Y-110146710D01*
X194844441Y-110172949D01*
X194857044Y-110214423D01*
X194873195Y-110265228D01*
X194897321Y-110342509D01*
X194933928Y-110469096D01*
X194971081Y-110607357D01*
X195007572Y-110752147D01*
X195042196Y-110898321D01*
X195073745Y-111040734D01*
X195101013Y-111174241D01*
X195122795Y-111293696D01*
X195137882Y-111393954D01*
X195141875Y-111420155D01*
X195148511Y-111449062D01*
X195154394Y-111459719D01*
X195162660Y-111457884D01*
X195191781Y-111451077D01*
X195236206Y-111440542D01*
X195290302Y-111427611D01*
X195294874Y-111426522D01*
X195359303Y-111412145D01*
X195438541Y-111395780D01*
X195522968Y-111379361D01*
X195602965Y-111364818D01*
X195632219Y-111359686D01*
X195694113Y-111348486D01*
X195744460Y-111338902D01*
X195778699Y-111331818D01*
X195792267Y-111328119D01*
X195788218Y-111319058D01*
X195771369Y-111293474D01*
X195744328Y-111255701D01*
X195710048Y-111209984D01*
X195690367Y-111184224D01*
X195639259Y-111117193D01*
X195586196Y-111047450D01*
X195539940Y-110986504D01*
X195536991Y-110982613D01*
X195495501Y-110928047D01*
X195445014Y-110861899D01*
X195391639Y-110792162D01*
X195341486Y-110726831D01*
X195330810Y-110712946D01*
X195284552Y-110652703D01*
X195240123Y-110594723D01*
X195202120Y-110545009D01*
X195175139Y-110509565D01*
X195145589Y-110472207D01*
X195101899Y-110420175D01*
X195059975Y-110373091D01*
X195053173Y-110365761D01*
X195010674Y-110319932D01*
X194961870Y-110267268D01*
X194916020Y-110217759D01*
X194896321Y-110196775D01*
X194865342Y-110165203D01*
X194843996Y-110145399D01*
X194836045Y-110140974D01*
X194451206Y-110140974D01*
X194447384Y-110123305D01*
X194408890Y-109953732D01*
X194369399Y-109788352D01*
X194365070Y-109770532D01*
X194351130Y-109710446D01*
X194340662Y-109661027D01*
X194334620Y-109626985D01*
X194333956Y-109613029D01*
X194350895Y-109610507D01*
X194385050Y-109616241D01*
X194429411Y-109628881D01*
X194477197Y-109646827D01*
X194492135Y-109653359D01*
X194566751Y-109691456D01*
X194644993Y-109740647D01*
X194727896Y-109801966D01*
X194816492Y-109876448D01*
X194911818Y-109965127D01*
X195014907Y-110069040D01*
X195126794Y-110189221D01*
X195248513Y-110326705D01*
X195381099Y-110482527D01*
X195525585Y-110657722D01*
X195683007Y-110853324D01*
X195704961Y-110880938D01*
X195741078Y-110926599D01*
X195770966Y-110964667D01*
X195789748Y-110988945D01*
X195793369Y-110993725D01*
X195814129Y-111021122D01*
X195845650Y-111062715D01*
X195884325Y-111113747D01*
X195926550Y-111169459D01*
X196038163Y-111316720D01*
X196176071Y-111323902D01*
X196229182Y-111328119D01*
X196258427Y-111330441D01*
G37*
G36*
X200966332Y-111182681D02*
G01*
X200905384Y-111198719D01*
X200856339Y-111213977D01*
X200823649Y-111227335D01*
X200811763Y-111237671D01*
X200812789Y-111240819D01*
X200826705Y-111261239D01*
X200854805Y-111296063D01*
X200894415Y-111342302D01*
X200942864Y-111396968D01*
X200997481Y-111457072D01*
X201055593Y-111519627D01*
X201114528Y-111581644D01*
X201171615Y-111640134D01*
X201221355Y-111689883D01*
X201369198Y-111832309D01*
X201507549Y-111956584D01*
X201639567Y-112065353D01*
X201768416Y-112161260D01*
X201897257Y-112246948D01*
X201957616Y-112279327D01*
X202037502Y-112313522D01*
X202126713Y-112345350D01*
X202217063Y-112371899D01*
X202300367Y-112390260D01*
X202379791Y-112400689D01*
X202499425Y-112401195D01*
X202615032Y-112380688D01*
X202734358Y-112338242D01*
X202750080Y-112334923D01*
X202758069Y-112344562D01*
X202752938Y-112365534D01*
X202736196Y-112392823D01*
X202709350Y-112421410D01*
X202688344Y-112438529D01*
X202613185Y-112484057D01*
X202518461Y-112521097D01*
X202401549Y-112550751D01*
X202375002Y-112556040D01*
X202340175Y-112562164D01*
X202306059Y-112566594D01*
X202268899Y-112569420D01*
X202224940Y-112570733D01*
X202170428Y-112570622D01*
X202101610Y-112569179D01*
X202014730Y-112566492D01*
X201906034Y-112562653D01*
X201819548Y-112559153D01*
X201714838Y-112553941D01*
X201618929Y-112548107D01*
X201536017Y-112541938D01*
X201470299Y-112535722D01*
X201425970Y-112529746D01*
X201417515Y-112528221D01*
X201341575Y-112512653D01*
X201291185Y-112498300D01*
X201266346Y-112485187D01*
X201267059Y-112473335D01*
X201293326Y-112462770D01*
X201345146Y-112453515D01*
X201422521Y-112445594D01*
X201433321Y-112444725D01*
X201508659Y-112438262D01*
X201560167Y-112431770D01*
X201589344Y-112423394D01*
X201597687Y-112411278D01*
X201586695Y-112393568D01*
X201557866Y-112368407D01*
X201512700Y-112333942D01*
X201492006Y-112318180D01*
X201406083Y-112248315D01*
X201318575Y-112169684D01*
X201227450Y-112080152D01*
X201130677Y-111977585D01*
X201026227Y-111859850D01*
X200912069Y-111724811D01*
X200786171Y-111570334D01*
X200769659Y-111549784D01*
X200717988Y-111485598D01*
X200671187Y-111427635D01*
X200632038Y-111379333D01*
X200603326Y-111344127D01*
X200587834Y-111325456D01*
X200562242Y-111295664D01*
X200479068Y-111326502D01*
X200469166Y-111330168D01*
X200412617Y-111350959D01*
X200345568Y-111375429D01*
X200271855Y-111402196D01*
X200195319Y-111429879D01*
X200119797Y-111457095D01*
X200049130Y-111482465D01*
X199987155Y-111504606D01*
X199937712Y-111522137D01*
X199904639Y-111533676D01*
X199891775Y-111537842D01*
X199891222Y-111538583D01*
X199890435Y-111555580D01*
X199891889Y-111590450D01*
X199895362Y-111637078D01*
X199907557Y-111790590D01*
X199917433Y-111962557D01*
X199921175Y-112114301D01*
X199918650Y-112248423D01*
X199909727Y-112367527D01*
X199894273Y-112474215D01*
X199872154Y-112571090D01*
X199843240Y-112660755D01*
X199841279Y-112665882D01*
X199821215Y-112702934D01*
X199799749Y-112715138D01*
X199799396Y-112715133D01*
X199777960Y-112710165D01*
X199738815Y-112697056D01*
X199686122Y-112677535D01*
X199624043Y-112653329D01*
X199556740Y-112626165D01*
X199488373Y-112597772D01*
X199423105Y-112569875D01*
X199365097Y-112544204D01*
X199318510Y-112522486D01*
X199287506Y-112506448D01*
X199276247Y-112497818D01*
X199278909Y-112494312D01*
X199298198Y-112481652D01*
X199330012Y-112465285D01*
X199361061Y-112450033D01*
X199385491Y-112434686D01*
X199403952Y-112416132D01*
X199417279Y-112391173D01*
X199426304Y-112356613D01*
X199431861Y-112309251D01*
X199434784Y-112245892D01*
X199435906Y-112163337D01*
X199436061Y-112058388D01*
X199435893Y-112004609D01*
X199435005Y-111917178D01*
X199433463Y-111837701D01*
X199431386Y-111770588D01*
X199428893Y-111720247D01*
X199426104Y-111691089D01*
X199416283Y-111633135D01*
X199318099Y-111617514D01*
X199260104Y-111605551D01*
X199198540Y-111587409D01*
X199143129Y-111565967D01*
X199098601Y-111543335D01*
X199069687Y-111521621D01*
X199061114Y-111502934D01*
X199063462Y-111496004D01*
X199071479Y-111489147D01*
X199088745Y-111485027D01*
X199119341Y-111483223D01*
X199167346Y-111483317D01*
X199236841Y-111484890D01*
X199408210Y-111489453D01*
X199400322Y-111388920D01*
X199390846Y-111290200D01*
X199374302Y-111156542D01*
X199352374Y-111005089D01*
X199325734Y-110839542D01*
X199295053Y-110663608D01*
X199261004Y-110480991D01*
X199224257Y-110295394D01*
X199185485Y-110110521D01*
X199173647Y-110057285D01*
X199551531Y-110057285D01*
X199556045Y-110077532D01*
X199567081Y-110115994D01*
X199583306Y-110168169D01*
X199603383Y-110229554D01*
X199621573Y-110286784D01*
X199651648Y-110390967D01*
X199683872Y-110512244D01*
X199717100Y-110645699D01*
X199750187Y-110786416D01*
X199781988Y-110929479D01*
X199811358Y-111069970D01*
X199837151Y-111202975D01*
X199858222Y-111323576D01*
X199862896Y-111345113D01*
X199872546Y-111362421D01*
X199890218Y-111369745D01*
X199919897Y-111367329D01*
X199965567Y-111355421D01*
X200031209Y-111334266D01*
X200043945Y-111329951D01*
X200093452Y-111312480D01*
X200153358Y-111290591D01*
X200218743Y-111266166D01*
X200284686Y-111241088D01*
X200346266Y-111217240D01*
X200398562Y-111196504D01*
X200436653Y-111180763D01*
X200455619Y-111171899D01*
X200456342Y-111170513D01*
X200449593Y-111154159D01*
X200427730Y-111120019D01*
X200390559Y-111067835D01*
X200337886Y-110997350D01*
X200269517Y-110908308D01*
X200185257Y-110800451D01*
X200084912Y-110673523D01*
X199968287Y-110527266D01*
X199932362Y-110482614D01*
X199861955Y-110396482D01*
X199794302Y-110315432D01*
X199731285Y-110241598D01*
X199674790Y-110177114D01*
X199626701Y-110124115D01*
X199588900Y-110084735D01*
X199563273Y-110061107D01*
X199551703Y-110055366D01*
X199551531Y-110057285D01*
X199173647Y-110057285D01*
X199145359Y-109930078D01*
X199104550Y-109757767D01*
X199096577Y-109725083D01*
X199081614Y-109662884D01*
X199069605Y-109611785D01*
X199061616Y-109576365D01*
X199058715Y-109561205D01*
X199062815Y-109556908D01*
X199085241Y-109557103D01*
X199122418Y-109565247D01*
X199168880Y-109580015D01*
X199219160Y-109600081D01*
X199277339Y-109628682D01*
X199364209Y-109681893D01*
X199456373Y-109750806D01*
X199556503Y-109837472D01*
X199667273Y-109943944D01*
X199670212Y-109946887D01*
X199779055Y-110058426D01*
X199893851Y-110180477D01*
X200008332Y-110306160D01*
X200116228Y-110428594D01*
X200211270Y-110540902D01*
X200223712Y-110555911D01*
X200259313Y-110598469D01*
X200306391Y-110654417D01*
X200361526Y-110719702D01*
X200421298Y-110790271D01*
X200482289Y-110862073D01*
X200683848Y-111098993D01*
X200785016Y-111069690D01*
X200926599Y-111033302D01*
X201065997Y-111006881D01*
X201195111Y-110992083D01*
X201310013Y-110989356D01*
X201406776Y-110999144D01*
X201413623Y-111000463D01*
X201495699Y-111021240D01*
X201575696Y-111049621D01*
X201645799Y-111082455D01*
X201698191Y-111116592D01*
X201751676Y-111171689D01*
X201792352Y-111239527D01*
X201814813Y-111311651D01*
X201818865Y-111383819D01*
X201804311Y-111451789D01*
X201770954Y-111511318D01*
X201718599Y-111558162D01*
X201701795Y-111568551D01*
X201676012Y-111580976D01*
X201655797Y-111580933D01*
X201630559Y-111569823D01*
X201627092Y-111568008D01*
X201602421Y-111553487D01*
X201592318Y-111544546D01*
X201593855Y-111540644D01*
X201605723Y-111520509D01*
X201625480Y-111490492D01*
X201630611Y-111482543D01*
X201652725Y-111423886D01*
X201651709Y-111362470D01*
X201628865Y-111301998D01*
X201585496Y-111246175D01*
X201522903Y-111198704D01*
X201512203Y-111192793D01*
X201445531Y-111165776D01*
X201366799Y-111145720D01*
X201287030Y-111134902D01*
X201217244Y-111135597D01*
X201176102Y-111141089D01*
X201106142Y-111152746D01*
X201034735Y-111166983D01*
X201019353Y-111170513D01*
X200966332Y-111182681D01*
G37*
G36*
X195501421Y-108685023D02*
G01*
X195471469Y-108697627D01*
X195416734Y-108721839D01*
X195658415Y-108967391D01*
X195689964Y-108999547D01*
X195821695Y-109136520D01*
X195940340Y-109265204D01*
X196048923Y-109389519D01*
X196150467Y-109513381D01*
X196247998Y-109640709D01*
X196344539Y-109775421D01*
X196443115Y-109921435D01*
X196546749Y-110082669D01*
X196658466Y-110263041D01*
X196678932Y-110296710D01*
X196728215Y-110378743D01*
X196778684Y-110463853D01*
X196825448Y-110543764D01*
X196863616Y-110610201D01*
X196921648Y-110712249D01*
X197014136Y-110873168D01*
X197107270Y-111033256D01*
X197199856Y-111190559D01*
X197290697Y-111343122D01*
X197378597Y-111488992D01*
X197462361Y-111626215D01*
X197540792Y-111752836D01*
X197612695Y-111866900D01*
X197676873Y-111966454D01*
X197732132Y-112049544D01*
X197777274Y-112114215D01*
X197811105Y-112158513D01*
X197842971Y-112196901D01*
X197843071Y-111985768D01*
X197843481Y-111891549D01*
X197845739Y-111723041D01*
X197849809Y-111544469D01*
X197855515Y-111359398D01*
X197862677Y-111171396D01*
X197871117Y-110984026D01*
X197880659Y-110800854D01*
X197891122Y-110625447D01*
X197902330Y-110461369D01*
X197914104Y-110312187D01*
X197926266Y-110181465D01*
X197938638Y-110072770D01*
X197960562Y-109925800D01*
X197995244Y-109757458D01*
X198037830Y-109611368D01*
X198089014Y-109486148D01*
X198149491Y-109380414D01*
X198219953Y-109292786D01*
X198301095Y-109221881D01*
X198393609Y-109166316D01*
X198402559Y-109161978D01*
X198512830Y-109119292D01*
X198622215Y-109098596D01*
X198738816Y-109098293D01*
X198790873Y-109104111D01*
X198915427Y-109134162D01*
X199039809Y-109187849D01*
X199061058Y-109199144D01*
X199106601Y-109225644D01*
X199133118Y-109246477D01*
X199143978Y-109264787D01*
X199142554Y-109283723D01*
X199135700Y-109301571D01*
X199115801Y-109325373D01*
X199085996Y-109328693D01*
X199042203Y-109312708D01*
X198988442Y-109293491D01*
X198905728Y-109284902D01*
X198820570Y-109297474D01*
X198738318Y-109330222D01*
X198664324Y-109382165D01*
X198654545Y-109391204D01*
X198608248Y-109442190D01*
X198567575Y-109502847D01*
X198531789Y-109575448D01*
X198500154Y-109662267D01*
X198471934Y-109765578D01*
X198446392Y-109887655D01*
X198422792Y-110030771D01*
X198400398Y-110197202D01*
X198391930Y-110271183D01*
X198378184Y-110414647D01*
X198365353Y-110577589D01*
X198353621Y-110756168D01*
X198343173Y-110946545D01*
X198334194Y-111144878D01*
X198326867Y-111347329D01*
X198321377Y-111550057D01*
X198317909Y-111749221D01*
X198316647Y-111940982D01*
X198316632Y-111954659D01*
X198316067Y-112063184D01*
X198314799Y-112186523D01*
X198312960Y-112315252D01*
X198310681Y-112439944D01*
X198308096Y-112551178D01*
X198299698Y-112867066D01*
X198234547Y-112834359D01*
X198186912Y-112809092D01*
X198130482Y-112774558D01*
X198076132Y-112734965D01*
X198021547Y-112687986D01*
X197964414Y-112631296D01*
X197902417Y-112562566D01*
X197833244Y-112479471D01*
X197754580Y-112379685D01*
X197664110Y-112260881D01*
X197576769Y-112143310D01*
X197416248Y-111918728D01*
X197258843Y-111686799D01*
X197101781Y-111443281D01*
X196942290Y-111183932D01*
X196777595Y-110904508D01*
X196746870Y-110851398D01*
X196690809Y-110754695D01*
X196643835Y-110674146D01*
X196603464Y-110605673D01*
X196567213Y-110545194D01*
X196532596Y-110488630D01*
X196497131Y-110431901D01*
X196458333Y-110370927D01*
X196413717Y-110301628D01*
X196360801Y-110219924D01*
X196291948Y-110115897D01*
X196176875Y-109950313D01*
X196059064Y-109790111D01*
X195942952Y-109641264D01*
X195832981Y-109509748D01*
X195804476Y-109477783D01*
X195744733Y-109413358D01*
X195672879Y-109338138D01*
X195593038Y-109256269D01*
X195509334Y-109171892D01*
X195425892Y-109089153D01*
X195346834Y-109012194D01*
X195276285Y-108945160D01*
X195218370Y-108892193D01*
X195146437Y-108828386D01*
X194870998Y-108920863D01*
X194740648Y-108964003D01*
X194567970Y-109018612D01*
X194411307Y-109064479D01*
X194266289Y-109102573D01*
X194128543Y-109133859D01*
X193993697Y-109159306D01*
X193857381Y-109179880D01*
X193715221Y-109196549D01*
X193562846Y-109210280D01*
X193465159Y-109216241D01*
X193323691Y-109219806D01*
X193175843Y-109218518D01*
X193026914Y-109212684D01*
X192882204Y-109202613D01*
X192747011Y-109188612D01*
X192626634Y-109170990D01*
X192526373Y-109150054D01*
X192352506Y-109101104D01*
X192148865Y-109029839D01*
X191965027Y-108948836D01*
X191801813Y-108858614D01*
X191660043Y-108759696D01*
X191540536Y-108652602D01*
X191444112Y-108537854D01*
X191371591Y-108415972D01*
X191359975Y-108391355D01*
X191341365Y-108346511D01*
X191330008Y-108305597D01*
X191323583Y-108258772D01*
X191319771Y-108196197D01*
X191318644Y-108158746D01*
X191319349Y-108142205D01*
X191534592Y-108142205D01*
X191539235Y-108233074D01*
X191559873Y-108316266D01*
X191567718Y-108335551D01*
X191610302Y-108415804D01*
X191668231Y-108499574D01*
X191736046Y-108579562D01*
X191808289Y-108648466D01*
X191827692Y-108664204D01*
X191930089Y-108734582D01*
X192051990Y-108801457D01*
X192188420Y-108862759D01*
X192334405Y-108916416D01*
X192484969Y-108960360D01*
X192635139Y-108992519D01*
X192668454Y-108998020D01*
X192725190Y-109005985D01*
X192784012Y-109012099D01*
X192849622Y-109016659D01*
X192926720Y-109019962D01*
X193020006Y-109022302D01*
X193134181Y-109023978D01*
X193208829Y-109024546D01*
X193305188Y-109024488D01*
X193395598Y-109023595D01*
X193475150Y-109021947D01*
X193538934Y-109019623D01*
X193582040Y-109016703D01*
X193664042Y-109007324D01*
X193871391Y-108975649D01*
X194093734Y-108930865D01*
X194332586Y-108872613D01*
X194589465Y-108800537D01*
X194865888Y-108714279D01*
X194966109Y-108681605D01*
X194929868Y-108643208D01*
X194923210Y-108636602D01*
X194893560Y-108610266D01*
X194849996Y-108573947D01*
X194797256Y-108531544D01*
X194740076Y-108486957D01*
X194611457Y-108390410D01*
X194355538Y-108211938D01*
X194105934Y-108056825D01*
X193861328Y-107924498D01*
X193620401Y-107814381D01*
X193381835Y-107725903D01*
X193144313Y-107658489D01*
X192906517Y-107611566D01*
X192667129Y-107584559D01*
X192569261Y-107579756D01*
X192397494Y-107582441D01*
X192235379Y-107599265D01*
X192084943Y-107629531D01*
X191948217Y-107672541D01*
X191827230Y-107727600D01*
X191724012Y-107794010D01*
X191640593Y-107871075D01*
X191579001Y-107958098D01*
X191571374Y-107973222D01*
X191545464Y-108052606D01*
X191534592Y-108142205D01*
X191319349Y-108142205D01*
X191322161Y-108076246D01*
X191336787Y-108005748D01*
X191364920Y-107938355D01*
X191408959Y-107865165D01*
X191474278Y-107785492D01*
X191567953Y-107705972D01*
X191683148Y-107635509D01*
X191818327Y-107574896D01*
X191971955Y-107524927D01*
X192142494Y-107486394D01*
X192156942Y-107483913D01*
X192244734Y-107473319D01*
X192350296Y-107466378D01*
X192467296Y-107463090D01*
X192589402Y-107463454D01*
X192710284Y-107467470D01*
X192823610Y-107475137D01*
X192923048Y-107486455D01*
X193096821Y-107515082D01*
X193321000Y-107563342D01*
X193538702Y-107624357D01*
X193755537Y-107699939D01*
X193977114Y-107791900D01*
X194209043Y-107902054D01*
X194357507Y-107979787D01*
X194567789Y-108100443D01*
X194773706Y-108230416D01*
X194968290Y-108365249D01*
X195144573Y-108500485D01*
X195159046Y-108512065D01*
X195197838Y-108541269D01*
X195228323Y-108561610D01*
X195244896Y-108569244D01*
X195247999Y-108568668D01*
X195272336Y-108559764D01*
X195317810Y-108540601D01*
X195382977Y-108511836D01*
X195466394Y-108474126D01*
X195566618Y-108428127D01*
X195682205Y-108374495D01*
X195811711Y-108313887D01*
X195953692Y-108246959D01*
X195955138Y-108246276D01*
X196209625Y-108127378D01*
X196444339Y-108020867D01*
X196661433Y-107925952D01*
X196863061Y-107841847D01*
X197051374Y-107767763D01*
X197228527Y-107702911D01*
X197396673Y-107646503D01*
X197557964Y-107597751D01*
X197714554Y-107555866D01*
X197868595Y-107520060D01*
X198022242Y-107489544D01*
X198088554Y-107478023D01*
X198345624Y-107444460D01*
X198595557Y-107429482D01*
X198835724Y-107433074D01*
X199063497Y-107455223D01*
X199276247Y-107495916D01*
X199354279Y-107516997D01*
X199521449Y-107576903D01*
X199674053Y-107652644D01*
X199810224Y-107742881D01*
X199928095Y-107846276D01*
X200025799Y-107961492D01*
X200101467Y-108087191D01*
X200147094Y-108200370D01*
X200173608Y-108312686D01*
X200181367Y-108421027D01*
X200170916Y-108522662D01*
X200142801Y-108614856D01*
X200097567Y-108694875D01*
X200035757Y-108759986D01*
X199957917Y-108807456D01*
X199945937Y-108812213D01*
X199881140Y-108826738D01*
X199806550Y-108830083D01*
X199732923Y-108822386D01*
X199671013Y-108803784D01*
X199627934Y-108781975D01*
X199587200Y-108752668D01*
X199569503Y-108724059D01*
X199573468Y-108694609D01*
X199581192Y-108681345D01*
X199595822Y-108670661D01*
X199621859Y-108665964D01*
X199666375Y-108665000D01*
X199688115Y-108664805D01*
X199729710Y-108660980D01*
X199761255Y-108649842D01*
X199793760Y-108628214D01*
X199828403Y-108596650D01*
X199866014Y-108538774D01*
X199885446Y-108467008D01*
X199887870Y-108378248D01*
X199884813Y-108339033D01*
X199876418Y-108289866D01*
X199860510Y-108243717D01*
X199833635Y-108188507D01*
X199828266Y-108178513D01*
X199758059Y-108076423D01*
X199666222Y-107986644D01*
X199552522Y-107909040D01*
X199416725Y-107843476D01*
X199258599Y-107789816D01*
X199077909Y-107747923D01*
X199056129Y-107744497D01*
X198991189Y-107738249D01*
X198908034Y-107733943D01*
X198811710Y-107731538D01*
X198707262Y-107730994D01*
X198599736Y-107732268D01*
X198494178Y-107735321D01*
X198395635Y-107740111D01*
X198309151Y-107746597D01*
X198239773Y-107754738D01*
X198233296Y-107755728D01*
X198106684Y-107777980D01*
X197963080Y-107807882D01*
X197808938Y-107843793D01*
X197650713Y-107884075D01*
X197494861Y-107927087D01*
X197347837Y-107971191D01*
X197216096Y-108014746D01*
X197155856Y-108035948D01*
X197036385Y-108078642D01*
X196920480Y-108121065D01*
X196804277Y-108164714D01*
X196683917Y-108211085D01*
X196555536Y-108261677D01*
X196415273Y-108317985D01*
X196259266Y-108381508D01*
X196083653Y-108453741D01*
X196052655Y-108466427D01*
X195985360Y-108493552D01*
X195906013Y-108525162D01*
X195822061Y-108558297D01*
X195740949Y-108589995D01*
X195682934Y-108612634D01*
X195612316Y-108640465D01*
X195550090Y-108665282D01*
X195509848Y-108681605D01*
X195501421Y-108685023D01*
G37*
G36*
X202970263Y-110591099D02*
G01*
X202984145Y-110605950D01*
X202998804Y-110609978D01*
X203018278Y-110607377D01*
X203037409Y-110602634D01*
X203087782Y-110585616D01*
X203148731Y-110561198D01*
X203212478Y-110532763D01*
X203271244Y-110503692D01*
X203317250Y-110477368D01*
X203412935Y-110401811D01*
X203498640Y-110304129D01*
X203569306Y-110189170D01*
X203622711Y-110059974D01*
X203633304Y-110025836D01*
X203644889Y-109979348D01*
X203651820Y-109932484D01*
X203655192Y-109876851D01*
X203656100Y-109804055D01*
X203656092Y-109790052D01*
X203655220Y-109724498D01*
X203652043Y-109674740D01*
X203645323Y-109632476D01*
X203633822Y-109589405D01*
X203616302Y-109537228D01*
X203611250Y-109523223D01*
X203585428Y-109458224D01*
X203556492Y-109393280D01*
X203529805Y-109340580D01*
X203529192Y-109339487D01*
X203472023Y-109253949D01*
X203398476Y-109168353D01*
X203313913Y-109087384D01*
X203223693Y-109015728D01*
X203133176Y-108958073D01*
X203047724Y-108919104D01*
X203037863Y-108915890D01*
X202962223Y-108900804D01*
X202865325Y-108895728D01*
X202833255Y-108895863D01*
X202783849Y-108898030D01*
X202745602Y-108904392D01*
X202708929Y-108916950D01*
X202664244Y-108937705D01*
X202623085Y-108960548D01*
X202574233Y-108994566D01*
X202539675Y-109026994D01*
X202520980Y-109048621D01*
X202505078Y-109063194D01*
X202502935Y-109058516D01*
X202514543Y-109035970D01*
X202539891Y-108996933D01*
X202567153Y-108962998D01*
X202610772Y-108926998D01*
X202668439Y-108897692D01*
X202745924Y-108871571D01*
X202799231Y-108858520D01*
X202849276Y-108852668D01*
X202902094Y-108854596D01*
X202964795Y-108864571D01*
X203044494Y-108882863D01*
X203191008Y-108929663D01*
X203333362Y-108995744D01*
X203466612Y-109078099D01*
X203588705Y-109174442D01*
X203697591Y-109282483D01*
X203791220Y-109399934D01*
X203867541Y-109524506D01*
X203924502Y-109653911D01*
X203960054Y-109785861D01*
X203972146Y-109918066D01*
X203972136Y-109920489D01*
X203959543Y-110060160D01*
X203923886Y-110190036D01*
X203866082Y-110309239D01*
X203787045Y-110416886D01*
X203687693Y-110512099D01*
X203568941Y-110593997D01*
X203431704Y-110661699D01*
X203276899Y-110714327D01*
X203105441Y-110750999D01*
X203090881Y-110753570D01*
X203062382Y-110760672D01*
X203051058Y-110766918D01*
X203054012Y-110774563D01*
X203066625Y-110802615D01*
X203087766Y-110848094D01*
X203115923Y-110907782D01*
X203149585Y-110978458D01*
X203187238Y-111056901D01*
X203203493Y-111090691D01*
X203247576Y-111182756D01*
X203291785Y-111275631D01*
X203333297Y-111363356D01*
X203369289Y-111439972D01*
X203396938Y-111499521D01*
X203429238Y-111568850D01*
X203480821Y-111676524D01*
X203536200Y-111789092D01*
X203593737Y-111903443D01*
X203651793Y-112016460D01*
X203708730Y-112125032D01*
X203762909Y-112226042D01*
X203812691Y-112316378D01*
X203856439Y-112392925D01*
X203892512Y-112452570D01*
X203919274Y-112492198D01*
X203923137Y-112497081D01*
X203931710Y-112504883D01*
X203944466Y-112510396D01*
X203964972Y-112513889D01*
X203996794Y-112515631D01*
X204043499Y-112515892D01*
X204108654Y-112514938D01*
X204195825Y-112513041D01*
X204234222Y-112512315D01*
X204397652Y-112513509D01*
X204541319Y-112522680D01*
X204669180Y-112540519D01*
X204785192Y-112567716D01*
X204893310Y-112604963D01*
X204997492Y-112652950D01*
X205075753Y-112698323D01*
X205150436Y-112756814D01*
X205202456Y-112819572D01*
X205233410Y-112888189D01*
X205247272Y-112965224D01*
X205246649Y-112971080D01*
X205239606Y-113037247D01*
X205208189Y-113102996D01*
X205152100Y-113165612D01*
X205144723Y-113172072D01*
X205067238Y-113221715D01*
X204973593Y-113254287D01*
X204866395Y-113269801D01*
X204748250Y-113268270D01*
X204621767Y-113249708D01*
X204489552Y-113214127D01*
X204354213Y-113161542D01*
X204171258Y-113068133D01*
X203990695Y-112951727D01*
X203813497Y-112812046D01*
X203793406Y-112794830D01*
X203754060Y-112763346D01*
X203723360Y-112746155D01*
X203693760Y-112741425D01*
X203657717Y-112747320D01*
X203607683Y-112762007D01*
X203498787Y-112798590D01*
X203331475Y-112863625D01*
X203146114Y-112944890D01*
X202943420Y-113042039D01*
X202724112Y-113154723D01*
X202488904Y-113282596D01*
X202238514Y-113425311D01*
X202131016Y-113487264D01*
X201945430Y-113591548D01*
X201758770Y-113693291D01*
X201575501Y-113790148D01*
X201400088Y-113879776D01*
X201236996Y-113959829D01*
X201090688Y-114027965D01*
X200888973Y-114114764D01*
X200630780Y-114215167D01*
X200369865Y-114305395D01*
X200110638Y-114384126D01*
X199857508Y-114450040D01*
X199614885Y-114501817D01*
X199387176Y-114538137D01*
X199337115Y-114543569D01*
X199244749Y-114550140D01*
X199141044Y-114554301D01*
X199032137Y-114556047D01*
X198924164Y-114555373D01*
X198823259Y-114552273D01*
X198735558Y-114546742D01*
X198667197Y-114538775D01*
X198523197Y-114508562D01*
X198377208Y-114462439D01*
X198245035Y-114403896D01*
X198129399Y-114334358D01*
X198033016Y-114255245D01*
X197958607Y-114167982D01*
X197941904Y-114141526D01*
X197907433Y-114064678D01*
X197889331Y-113985060D01*
X197887404Y-113907312D01*
X197901459Y-113836075D01*
X197931305Y-113775993D01*
X197976746Y-113731706D01*
X197997092Y-113720545D01*
X198023784Y-113718110D01*
X198041441Y-113738138D01*
X198052019Y-113781935D01*
X198059946Y-113823784D01*
X198087382Y-113896681D01*
X198133540Y-113964167D01*
X198201591Y-114031535D01*
X198214743Y-114042625D01*
X198293683Y-114098922D01*
X198382673Y-114144736D01*
X198486806Y-114182336D01*
X198611173Y-114213990D01*
X198652443Y-114222476D01*
X198697329Y-114230136D01*
X198743034Y-114235619D01*
X198794513Y-114239259D01*
X198856718Y-114241390D01*
X198934604Y-114242347D01*
X199033124Y-114242464D01*
X199114906Y-114242121D01*
X199198884Y-114240937D01*
X199267868Y-114238517D01*
X199327747Y-114234436D01*
X199384413Y-114228270D01*
X199443754Y-114219596D01*
X199511660Y-114207987D01*
X199723741Y-114165382D01*
X199973786Y-114102505D01*
X200228151Y-114024637D01*
X200491121Y-113930451D01*
X200766977Y-113818616D01*
X200802592Y-113803285D01*
X200861732Y-113777242D01*
X200924949Y-113748638D01*
X200993940Y-113716641D01*
X201070404Y-113680419D01*
X201156037Y-113639140D01*
X201252540Y-113591973D01*
X201361609Y-113538085D01*
X201484942Y-113476645D01*
X201624238Y-113406820D01*
X201781195Y-113327780D01*
X201957511Y-113238692D01*
X202154883Y-113138725D01*
X202165259Y-113133470D01*
X202419363Y-113008355D01*
X202655483Y-112899326D01*
X202874999Y-112805821D01*
X203079293Y-112727277D01*
X203248568Y-112670266D01*
X204051383Y-112670266D01*
X204057758Y-112681904D01*
X204078362Y-112708277D01*
X204110049Y-112745555D01*
X204149678Y-112789905D01*
X204181506Y-112823536D01*
X204298015Y-112928808D01*
X204423060Y-113016826D01*
X204552460Y-113084916D01*
X204682034Y-113130404D01*
X204747131Y-113142558D01*
X204822361Y-113148263D01*
X204893951Y-113146366D01*
X204951580Y-113136631D01*
X204981280Y-113123758D01*
X205027706Y-113086893D01*
X205063658Y-113038175D01*
X205081827Y-112986052D01*
X205083026Y-112971080D01*
X205072640Y-112911179D01*
X205040006Y-112852728D01*
X204987722Y-112798583D01*
X204918390Y-112751597D01*
X204834608Y-112714626D01*
X204775001Y-112696769D01*
X204680696Y-112675178D01*
X204576523Y-112657314D01*
X204471411Y-112644893D01*
X204455340Y-112643866D01*
X204408452Y-112643115D01*
X204349890Y-112644159D01*
X204284977Y-112646678D01*
X204219035Y-112650351D01*
X204157389Y-112654857D01*
X204105361Y-112659877D01*
X204068274Y-112665090D01*
X204051453Y-112670176D01*
X204051383Y-112670266D01*
X203248568Y-112670266D01*
X203269744Y-112663134D01*
X203447733Y-112612830D01*
X203468696Y-112607407D01*
X203515318Y-112594401D01*
X203549545Y-112583507D01*
X203565131Y-112576648D01*
X203564626Y-112570869D01*
X203552378Y-112548379D01*
X203528577Y-112513862D01*
X203496312Y-112472015D01*
X203434796Y-112393256D01*
X203357125Y-112286374D01*
X203277962Y-112168865D01*
X203196197Y-112038839D01*
X203110717Y-111894407D01*
X203020411Y-111733681D01*
X202924166Y-111554769D01*
X202820871Y-111355784D01*
X202709415Y-111134836D01*
X202524466Y-110763753D01*
X202458266Y-110749220D01*
X202440390Y-110745179D01*
X202374647Y-110729002D01*
X202299565Y-110709035D01*
X202221986Y-110687233D01*
X202148757Y-110665555D01*
X202086719Y-110645957D01*
X202042718Y-110630397D01*
X201975597Y-110602527D01*
X201787684Y-110509348D01*
X201606840Y-110397750D01*
X201435378Y-110270087D01*
X201275615Y-110128714D01*
X201129865Y-109975986D01*
X201000443Y-109814257D01*
X200889664Y-109645883D01*
X200799844Y-109473217D01*
X200733297Y-109298614D01*
X200717147Y-109232671D01*
X200704849Y-109138472D01*
X200703198Y-109074876D01*
X200903631Y-109074876D01*
X200921562Y-109185589D01*
X200959718Y-109309251D01*
X201017951Y-109445205D01*
X201096114Y-109592794D01*
X201133032Y-109654014D01*
X201249111Y-109818610D01*
X201385263Y-109977772D01*
X201537455Y-110127411D01*
X201701655Y-110263435D01*
X201873829Y-110381753D01*
X201907106Y-110401286D01*
X201971207Y-110435581D01*
X202043287Y-110471250D01*
X202115817Y-110504739D01*
X202181269Y-110532492D01*
X202232116Y-110550954D01*
X202233349Y-110551333D01*
X202293513Y-110568378D01*
X202348856Y-110581521D01*
X202394468Y-110589859D01*
X202425437Y-110592491D01*
X202436852Y-110588517D01*
X202435151Y-110582923D01*
X202423855Y-110556580D01*
X202403162Y-110511795D01*
X202374473Y-110451401D01*
X202339189Y-110378230D01*
X202298712Y-110295116D01*
X202254441Y-110204894D01*
X202207779Y-110110394D01*
X202160125Y-110014452D01*
X202112881Y-109919900D01*
X202067447Y-109829572D01*
X202025225Y-109746300D01*
X201987616Y-109672918D01*
X201956020Y-109612260D01*
X201931839Y-109567158D01*
X201872990Y-109463353D01*
X201772717Y-109301098D01*
X201673579Y-109158894D01*
X201576403Y-109037740D01*
X201482015Y-108938634D01*
X201391244Y-108862575D01*
X201304916Y-108810561D01*
X201259197Y-108792146D01*
X201178328Y-108774355D01*
X201101475Y-108775024D01*
X201032750Y-108793379D01*
X200976268Y-108828645D01*
X200936142Y-108880045D01*
X200929033Y-108894925D01*
X200906072Y-108977769D01*
X200903631Y-109074876D01*
X200703198Y-109074876D01*
X200702348Y-109042110D01*
X200709769Y-108952134D01*
X200727233Y-108877094D01*
X200744485Y-108836416D01*
X200795951Y-108760859D01*
X200866094Y-108698307D01*
X200951851Y-108650272D01*
X201050161Y-108618263D01*
X201157963Y-108603789D01*
X201272194Y-108608361D01*
X201275635Y-108608799D01*
X201416402Y-108637284D01*
X201553172Y-108686345D01*
X201686832Y-108756685D01*
X201818272Y-108849007D01*
X201948381Y-108964014D01*
X202078048Y-109102407D01*
X202208161Y-109264890D01*
X202339610Y-109452166D01*
X202357698Y-109479852D01*
X202417951Y-109576231D01*
X202486017Y-109690306D01*
X202559616Y-109817974D01*
X202636469Y-109955132D01*
X202714299Y-110097679D01*
X202790826Y-110241512D01*
X202863773Y-110382530D01*
X202930860Y-110516628D01*
X202953116Y-110561231D01*
X202968781Y-110588517D01*
X202970263Y-110591099D01*
G37*
G36*
X194705186Y-114231999D02*
G01*
X194704527Y-114244060D01*
X194699573Y-114304136D01*
X194691025Y-114351104D01*
X194676294Y-114395658D01*
X194652794Y-114448490D01*
X194631696Y-114489912D01*
X194563696Y-114593517D01*
X194478248Y-114685585D01*
X194372737Y-114768655D01*
X194244550Y-114845268D01*
X194219570Y-114858110D01*
X194076003Y-114920614D01*
X193914436Y-114974432D01*
X193740425Y-115018128D01*
X193559529Y-115050266D01*
X193377305Y-115069409D01*
X193289471Y-115073900D01*
X193110495Y-115076054D01*
X192919119Y-115070417D01*
X192723008Y-115057424D01*
X192529823Y-115037508D01*
X192347229Y-115011103D01*
X192093419Y-114959055D01*
X191814059Y-114881568D01*
X191535799Y-114784180D01*
X191262425Y-114668643D01*
X190997722Y-114536708D01*
X190745472Y-114390129D01*
X190509462Y-114230659D01*
X190293476Y-114060049D01*
X190268566Y-114038690D01*
X190227626Y-114003618D01*
X190195312Y-113975976D01*
X190177020Y-113960383D01*
X190169937Y-113955986D01*
X190155269Y-113953573D01*
X190132000Y-113956685D01*
X190096299Y-113966214D01*
X190044337Y-113983053D01*
X189972284Y-114008094D01*
X189958997Y-114012774D01*
X189711865Y-114094933D01*
X189483441Y-114161077D01*
X189272659Y-114211363D01*
X189078450Y-114245946D01*
X188899749Y-114264980D01*
X188735487Y-114268622D01*
X188584599Y-114257026D01*
X188446017Y-114230349D01*
X188365032Y-114204741D01*
X188269306Y-114161234D01*
X188184425Y-114107865D01*
X188113303Y-114047205D01*
X188058854Y-113981825D01*
X188023993Y-113914295D01*
X188011635Y-113847187D01*
X188011651Y-113844694D01*
X188021481Y-113791147D01*
X188046160Y-113744019D01*
X188080894Y-113712624D01*
X188093683Y-113709057D01*
X188106454Y-113716634D01*
X188121825Y-113739874D01*
X188143362Y-113782782D01*
X188175461Y-113839861D01*
X188228322Y-113902118D01*
X188296870Y-113951944D01*
X188385892Y-113993497D01*
X188500224Y-114029769D01*
X188636912Y-114055754D01*
X188786253Y-114067102D01*
X188949354Y-114063695D01*
X189127320Y-114045416D01*
X189321258Y-114012149D01*
X189532274Y-113963775D01*
X189761474Y-113900177D01*
X189959852Y-113837157D01*
X190479018Y-113837157D01*
X190587783Y-113943321D01*
X190710003Y-114057065D01*
X190939205Y-114243374D01*
X191182909Y-114408626D01*
X191441029Y-114552778D01*
X191713478Y-114675791D01*
X192000172Y-114777621D01*
X192301023Y-114858228D01*
X192615945Y-114917570D01*
X192645956Y-114921753D01*
X192740424Y-114931774D01*
X192849273Y-114939767D01*
X192965876Y-114945521D01*
X193083608Y-114948823D01*
X193195841Y-114949462D01*
X193295949Y-114947227D01*
X193377305Y-114941904D01*
X193468402Y-114931312D01*
X193642700Y-114902175D01*
X193806316Y-114863043D01*
X193955683Y-114814984D01*
X194087236Y-114759066D01*
X194197412Y-114696357D01*
X194266555Y-114646286D01*
X194344046Y-114575352D01*
X194405636Y-114496730D01*
X194456840Y-114404206D01*
X194460710Y-114395930D01*
X194479298Y-114351947D01*
X194489818Y-114313599D01*
X194494328Y-114270501D01*
X194494889Y-114212266D01*
X194494311Y-114188163D01*
X194485559Y-114104525D01*
X194464415Y-114028315D01*
X194428211Y-113951905D01*
X194374276Y-113867670D01*
X194291911Y-113770896D01*
X194186162Y-113681383D01*
X194059167Y-113600698D01*
X193912623Y-113529782D01*
X193748226Y-113469573D01*
X193567673Y-113421011D01*
X193489544Y-113404195D01*
X193386102Y-113385176D01*
X193285975Y-113371372D01*
X193183414Y-113362314D01*
X193072670Y-113357536D01*
X192947994Y-113356572D01*
X192803638Y-113358954D01*
X192783133Y-113359491D01*
X192638807Y-113364923D01*
X192501484Y-113373419D01*
X192367241Y-113385565D01*
X192232155Y-113401949D01*
X192092300Y-113423158D01*
X191943753Y-113449779D01*
X191782591Y-113482398D01*
X191604890Y-113521604D01*
X191406726Y-113567984D01*
X191406443Y-113568052D01*
X191369915Y-113577468D01*
X191313065Y-113592936D01*
X191240064Y-113613259D01*
X191155080Y-113637240D01*
X191062285Y-113663680D01*
X190965848Y-113691381D01*
X190869940Y-113719146D01*
X190778729Y-113745776D01*
X190696387Y-113770076D01*
X190627083Y-113790845D01*
X190574988Y-113806887D01*
X190479018Y-113837157D01*
X189959852Y-113837157D01*
X190009963Y-113821238D01*
X190009980Y-113811785D01*
X189992963Y-113785948D01*
X189958992Y-113745187D01*
X189909050Y-113690773D01*
X189857700Y-113635510D01*
X189735224Y-113494606D01*
X189616496Y-113344307D01*
X189500498Y-113182879D01*
X189386213Y-113008586D01*
X189272621Y-112819693D01*
X189158704Y-112614465D01*
X189043444Y-112391166D01*
X188925822Y-112148061D01*
X188804820Y-111883414D01*
X188679419Y-111595491D01*
X188666800Y-111565901D01*
X188631467Y-111483195D01*
X188597895Y-111404803D01*
X188568146Y-111335534D01*
X188544286Y-111280197D01*
X188528379Y-111243601D01*
X188527942Y-111242605D01*
X188511790Y-111205778D01*
X188494329Y-111165921D01*
X188474281Y-111120118D01*
X188450371Y-111065450D01*
X188421324Y-110998999D01*
X188385863Y-110917848D01*
X188342713Y-110819078D01*
X188290598Y-110699773D01*
X188285925Y-110689087D01*
X188185311Y-110466161D01*
X188088943Y-110267059D01*
X187995984Y-110090589D01*
X187905595Y-109935556D01*
X187816937Y-109800764D01*
X187729173Y-109685021D01*
X187641463Y-109587132D01*
X187552969Y-109505902D01*
X187462853Y-109440137D01*
X187370277Y-109388642D01*
X187332090Y-109371054D01*
X187250471Y-109339193D01*
X187175886Y-109320570D01*
X187099134Y-109313315D01*
X187011014Y-109315555D01*
X186995476Y-109316571D01*
X186945574Y-109319388D01*
X186914393Y-109319201D01*
X186896446Y-109314958D01*
X186886249Y-109305609D01*
X186878316Y-109290099D01*
X186868868Y-109266219D01*
X186866876Y-109253802D01*
X186877757Y-109245838D01*
X186925480Y-109223541D01*
X186989779Y-109205329D01*
X187063943Y-109192470D01*
X187141262Y-109186236D01*
X187215027Y-109187897D01*
X187310297Y-109200929D01*
X187463620Y-109242668D01*
X187613690Y-109309667D01*
X187760337Y-109401832D01*
X187903393Y-109519065D01*
X188042688Y-109661268D01*
X188091790Y-109718012D01*
X188163774Y-109806862D01*
X188236435Y-109903764D01*
X188311462Y-110011243D01*
X188390543Y-110131822D01*
X188475367Y-110268026D01*
X188567624Y-110422379D01*
X188669001Y-110597405D01*
X188716005Y-110679049D01*
X188884320Y-110962175D01*
X189046719Y-111220509D01*
X189203258Y-111454123D01*
X189353991Y-111663087D01*
X189498975Y-111847473D01*
X189638263Y-112007352D01*
X189771911Y-112142795D01*
X189899975Y-112253873D01*
X190022510Y-112340657D01*
X190063928Y-112365461D01*
X190108565Y-112387661D01*
X190148134Y-112399919D01*
X190191313Y-112405572D01*
X190220014Y-112407255D01*
X190251392Y-112406015D01*
X190270472Y-112397973D01*
X190285362Y-112381009D01*
X190289274Y-112374781D01*
X190303539Y-112327691D01*
X190304921Y-112262070D01*
X190293578Y-112180864D01*
X190269666Y-112087020D01*
X190265585Y-112074272D01*
X190247858Y-112024560D01*
X190222004Y-111956969D01*
X190189652Y-111875564D01*
X190152432Y-111784406D01*
X190111976Y-111687561D01*
X190069912Y-111589093D01*
X189980955Y-111381867D01*
X189902392Y-111195459D01*
X189833758Y-111028164D01*
X189774469Y-110878004D01*
X189723945Y-110743003D01*
X189681602Y-110621185D01*
X189646859Y-110510574D01*
X189619131Y-110409192D01*
X189597839Y-110315064D01*
X189582398Y-110226213D01*
X189572226Y-110140661D01*
X189566742Y-110056434D01*
X189565362Y-109971554D01*
X189567505Y-109884045D01*
X189568721Y-109858252D01*
X189578680Y-109745128D01*
X189596573Y-109647988D01*
X189624119Y-109559423D01*
X189663034Y-109472021D01*
X189691596Y-109420775D01*
X189770660Y-109314273D01*
X189865882Y-109224389D01*
X189974209Y-109152074D01*
X190092590Y-109098277D01*
X190217970Y-109063949D01*
X190347298Y-109050041D01*
X190477521Y-109057503D01*
X190605586Y-109087285D01*
X190728439Y-109140338D01*
X190817840Y-109198020D01*
X190895463Y-109271886D01*
X190952817Y-109358804D01*
X190991983Y-109461310D01*
X191001005Y-109495999D01*
X191007127Y-109533579D01*
X191005359Y-109566821D01*
X190996028Y-109607444D01*
X190980783Y-109651525D01*
X190958184Y-109684303D01*
X190920479Y-109715813D01*
X190890434Y-109736280D01*
X190853193Y-109754579D01*
X190826147Y-109755401D01*
X190804953Y-109739639D01*
X190795450Y-109720108D01*
X190802582Y-109691654D01*
X190804369Y-109687919D01*
X190822991Y-109618807D01*
X190818251Y-109544406D01*
X190791040Y-109467298D01*
X190742248Y-109390065D01*
X190672766Y-109315290D01*
X190638771Y-109286895D01*
X190562393Y-109241735D01*
X190476357Y-109215964D01*
X190375317Y-109207647D01*
X190302487Y-109213545D01*
X190208748Y-109241593D01*
X190126136Y-109291580D01*
X190056144Y-109362237D01*
X190000270Y-109452293D01*
X189960009Y-109560477D01*
X189954713Y-109580330D01*
X189945014Y-109622649D01*
X189939105Y-109663133D01*
X189936478Y-109708623D01*
X189936622Y-109765960D01*
X189939026Y-109841988D01*
X189939307Y-109848972D01*
X189943742Y-109924555D01*
X189950341Y-109999509D01*
X189958260Y-110065514D01*
X189966656Y-110114249D01*
X189967849Y-110119546D01*
X189999668Y-110241952D01*
X190042900Y-110378448D01*
X190098023Y-110530224D01*
X190165515Y-110698474D01*
X190245852Y-110884389D01*
X190339511Y-111089160D01*
X190446969Y-111313979D01*
X190468547Y-111358380D01*
X190539103Y-111504967D01*
X190598936Y-111631954D01*
X190649017Y-111741708D01*
X190690319Y-111836596D01*
X190723815Y-111918984D01*
X190750478Y-111991240D01*
X190771281Y-112055729D01*
X190787197Y-112114818D01*
X190799197Y-112170874D01*
X190808419Y-112233055D01*
X190810068Y-112333625D01*
X190791794Y-112420486D01*
X190752994Y-112495864D01*
X190693063Y-112561982D01*
X190627683Y-112606731D01*
X190542907Y-112639516D01*
X190454302Y-112650969D01*
X190412551Y-112648378D01*
X190322370Y-112630902D01*
X190222067Y-112598766D01*
X190116983Y-112554099D01*
X190012457Y-112499025D01*
X189913826Y-112435672D01*
X189833263Y-112373634D01*
X189726085Y-112279166D01*
X189611791Y-112166725D01*
X189492915Y-112038940D01*
X189371988Y-111898442D01*
X189251542Y-111747859D01*
X189242143Y-111735773D01*
X189214075Y-111700973D01*
X189193592Y-111677546D01*
X189184598Y-111670028D01*
X189184168Y-111672122D01*
X189190291Y-111692775D01*
X189206911Y-111732825D01*
X189232802Y-111789871D01*
X189266739Y-111861509D01*
X189307496Y-111945337D01*
X189353847Y-112038953D01*
X189404566Y-112139954D01*
X189458429Y-112245938D01*
X189514209Y-112354502D01*
X189570680Y-112463243D01*
X189626617Y-112569760D01*
X189680795Y-112671650D01*
X189731987Y-112766510D01*
X189778968Y-112851938D01*
X189820513Y-112925532D01*
X189855395Y-112984888D01*
X189868225Y-113005985D01*
X189961412Y-113154117D01*
X190057513Y-113298640D01*
X190153101Y-113434656D01*
X190244746Y-113557268D01*
X190329021Y-113661576D01*
X190366672Y-113705897D01*
X190601988Y-113633736D01*
X190705488Y-113602030D01*
X190852748Y-113557117D01*
X190980455Y-113518560D01*
X191091607Y-113485577D01*
X191189204Y-113457387D01*
X191276243Y-113433208D01*
X191355723Y-113412258D01*
X191430643Y-113393757D01*
X191504002Y-113376922D01*
X191578797Y-113360973D01*
X191658027Y-113345127D01*
X191744692Y-113328604D01*
X191841789Y-113310621D01*
X191850334Y-113309057D01*
X192183954Y-113256448D01*
X192501458Y-113223340D01*
X192803284Y-113209728D01*
X193089869Y-113215606D01*
X193361650Y-113240966D01*
X193619065Y-113285805D01*
X193648764Y-113292433D01*
X193851805Y-113346912D01*
X194035096Y-113412862D01*
X194198004Y-113489845D01*
X194339898Y-113577423D01*
X194460147Y-113675158D01*
X194558118Y-113782612D01*
X194633180Y-113899346D01*
X194684701Y-114024922D01*
X194695433Y-114063583D01*
X194704277Y-114112095D01*
X194707179Y-114164699D01*
X194705770Y-114212266D01*
X194705186Y-114231999D01*
G37*
%TO.C,TP7*%
D11*
X128600000Y-102600000D02*
G75*
G02*
X127200000Y-102600000I-700000J0D01*
G01*
X127200000Y-102600000D02*
G75*
G02*
X128600000Y-102600000I700000J0D01*
G01*
%TO.C,C19*%
X160740580Y-114440000D02*
X160459420Y-114440000D01*
X160740580Y-115460000D02*
X160459420Y-115460000D01*
%TO.C,C6*%
X165507836Y-112540000D02*
X165292164Y-112540000D01*
X165507836Y-113260000D02*
X165292164Y-113260000D01*
%TO.C,TP8*%
X130600000Y-102600000D02*
G75*
G02*
X129200000Y-102600000I-700000J0D01*
G01*
X129200000Y-102600000D02*
G75*
G02*
X130600000Y-102600000I700000J0D01*
G01*
%TO.C,TP5*%
X126600000Y-102600000D02*
G75*
G02*
X125200000Y-102600000I-700000J0D01*
G01*
X125200000Y-102600000D02*
G75*
G02*
X126600000Y-102600000I700000J0D01*
G01*
%TO.C,C5*%
X160792164Y-111490000D02*
X161007836Y-111490000D01*
X160792164Y-112210000D02*
X161007836Y-112210000D01*
%TD*%
M02*
