%TF.GenerationSoftware,KiCad,Pcbnew,10.0.1*%
%TF.CreationDate,2026-10-03T00:40:01+02:00*%
%TF.ProjectId,usbc pd airsoft module,75736263-2070-4642-9061-6972736f6674,rev?*%
%TF.SameCoordinates,Original*%
%TF.FileFunction,Copper,L2,Bot*%
%TF.FilePolarity,Positive*%
%FSLAX46Y46*%
G04 Gerber Fmt 4.6, Leading zero omitted, Abs format (unit mm)*
G04 Created by KiCad (PCBNEW 10.0.1) date 2026-10-03 00:40:01*
%MOMM*%
%LPD*%
G01*
G04 APERTURE LIST*
G04 Aperture macros list*
%AMRoundRect*
0 Rectangle with rounded corners*
0 $1 Rounding radius*
0 $2 $3 $4 $5 $6 $7 $8 $9 X,Y pos of 4 corners*
0 Add a 4 corners polygon primitive as box body*
4,1,4,$2,$3,$4,$5,$6,$7,$8,$9,$2,$3,0*
0 Add four circle primitives for the rounded corners*
1,1,$1+$1,$2,$3*
1,1,$1+$1,$4,$5*
1,1,$1+$1,$6,$7*
1,1,$1+$1,$8,$9*
0 Add four rect primitives between the rounded corners*
20,1,$1+$1,$2,$3,$4,$5,0*
20,1,$1+$1,$4,$5,$6,$7,0*
20,1,$1+$1,$6,$7,$8,$9,0*
20,1,$1+$1,$8,$9,$2,$3,0*%
%AMFreePoly0*
4,1,23,0.500000,-0.750000,0.000000,-0.750000,0.000000,-0.745722,-0.065263,-0.745722,-0.191342,-0.711940,-0.304381,-0.646677,-0.396677,-0.554381,-0.461940,-0.441342,-0.495722,-0.315263,-0.495722,-0.250000,-0.500000,-0.250000,-0.500000,0.250000,-0.495722,0.250000,-0.495722,0.315263,-0.461940,0.441342,-0.396677,0.554381,-0.304381,0.646677,-0.191342,0.711940,-0.065263,0.745722,0.000000,0.745722,
0.000000,0.750000,0.500000,0.750000,0.500000,-0.750000,0.500000,-0.750000,$1*%
%AMFreePoly1*
4,1,23,0.000000,0.745722,0.065263,0.745722,0.191342,0.711940,0.304381,0.646677,0.396677,0.554381,0.461940,0.441342,0.495722,0.315263,0.495722,0.250000,0.500000,0.250000,0.500000,-0.250000,0.495722,-0.250000,0.495722,-0.315263,0.461940,-0.441342,0.396677,-0.554381,0.304381,-0.646677,0.191342,-0.711940,0.065263,-0.745722,0.000000,-0.745722,0.000000,-0.750000,-0.500000,-0.750000,
-0.500000,0.750000,0.000000,0.750000,0.000000,0.745722,0.000000,0.745722,$1*%
G04 Aperture macros list end*
%TA.AperFunction,ComponentPad*%
%ADD10O,2.100000X1.000000*%
%TD*%
%TA.AperFunction,ComponentPad*%
%ADD11O,1.600000X1.000000*%
%TD*%
%TA.AperFunction,SMDPad,CuDef*%
%ADD12FreePoly0,0.000000*%
%TD*%
%TA.AperFunction,SMDPad,CuDef*%
%ADD13FreePoly1,0.000000*%
%TD*%
%TA.AperFunction,SMDPad,CuDef*%
%ADD14C,1.000000*%
%TD*%
%TA.AperFunction,SMDPad,CuDef*%
%ADD15RoundRect,0.135000X-0.135000X-0.185000X0.135000X-0.185000X0.135000X0.185000X-0.135000X0.185000X0*%
%TD*%
%TA.AperFunction,SMDPad,CuDef*%
%ADD16RoundRect,0.225000X0.225000X0.250000X-0.225000X0.250000X-0.225000X-0.250000X0.225000X-0.250000X0*%
%TD*%
%TA.AperFunction,SMDPad,CuDef*%
%ADD17RoundRect,0.140000X0.140000X0.170000X-0.140000X0.170000X-0.140000X-0.170000X0.140000X-0.170000X0*%
%TD*%
%TA.AperFunction,SMDPad,CuDef*%
%ADD18RoundRect,0.140000X-0.140000X-0.170000X0.140000X-0.170000X0.140000X0.170000X-0.140000X0.170000X0*%
%TD*%
%TA.AperFunction,ViaPad*%
%ADD19C,0.600000*%
%TD*%
%TA.AperFunction,ViaPad*%
%ADD20C,0.500000*%
%TD*%
%TA.AperFunction,Conductor*%
%ADD21C,0.300000*%
%TD*%
%TA.AperFunction,Conductor*%
%ADD22C,0.400000*%
%TD*%
%TA.AperFunction,Conductor*%
%ADD23C,0.250000*%
%TD*%
%TA.AperFunction,Conductor*%
%ADD24C,0.600000*%
%TD*%
%TA.AperFunction,Conductor*%
%ADD25C,0.200000*%
%TD*%
%TA.AperFunction,Conductor*%
%ADD26C,0.800000*%
%TD*%
G04 APERTURE END LIST*
D10*
%TO.P,J1,SH*%
%TO.N,/GND*%
X105520000Y-106180000D03*
D11*
X101340000Y-106180000D03*
D10*
X105520000Y-114820000D03*
D11*
X101340000Y-114820000D03*
%TD*%
D12*
%TO.P,JP2,1*%
%TO.N,/FAST_CHG_N*%
X130950000Y-105200000D03*
D13*
%TO.P,JP2,2*%
%TO.N,/GND*%
X132250000Y-105200000D03*
%TD*%
D14*
%TO.P,TP6,1*%
%TO.N,/SWCLK*%
X123900000Y-102600000D03*
%TD*%
D15*
%TO.P,R5,1*%
%TO.N,/CHG_BATP*%
X167690000Y-114300000D03*
%TO.P,R5,2*%
%TO.N,/BAT_P*%
X168710000Y-114300000D03*
%TD*%
D14*
%TO.P,TP7,1*%
%TO.N,/+3V3*%
X127900000Y-102600000D03*
%TD*%
D16*
%TO.P,C19,1*%
%TO.N,/REGN*%
X161375000Y-114950000D03*
%TO.P,C19,2*%
%TO.N,/GND*%
X159825000Y-114950000D03*
%TD*%
D17*
%TO.P,C6,1*%
%TO.N,/BTST2*%
X165880000Y-112900000D03*
%TO.P,C6,2*%
%TO.N,/SW2*%
X164920000Y-112900000D03*
%TD*%
D14*
%TO.P,TP8,1*%
%TO.N,/GND*%
X129900000Y-102600000D03*
%TD*%
%TO.P,TP5,1*%
%TO.N,/SWDIO*%
X125900000Y-102600000D03*
%TD*%
D18*
%TO.P,C5,1*%
%TO.N,/BTST1*%
X160420000Y-111850000D03*
%TO.P,C5,2*%
%TO.N,/SW1*%
X161380000Y-111850000D03*
%TD*%
D19*
%TO.N,/GND*%
X141500000Y-115800000D03*
X186500000Y-103800000D03*
X176500000Y-115800000D03*
X179000000Y-108600000D03*
X184000000Y-106200000D03*
X116500000Y-115800000D03*
X134000000Y-115800000D03*
X171200000Y-105500000D03*
D20*
X128324999Y-101400000D03*
D19*
X163000000Y-106750000D03*
D20*
X162300000Y-113620000D03*
D19*
X139000000Y-106200000D03*
D20*
X142600000Y-111275000D03*
D19*
X174000000Y-113400000D03*
D20*
X191690000Y-105900000D03*
D19*
X139000000Y-111000000D03*
X180899999Y-105800000D03*
D20*
X141300000Y-110980000D03*
D19*
X134000000Y-106200000D03*
X163000000Y-107600000D03*
X136500000Y-115800000D03*
X176500000Y-113400000D03*
D20*
X167630000Y-110550000D03*
D19*
X156700000Y-105500000D03*
X191500000Y-103800000D03*
X226500000Y-111000000D03*
X219000000Y-101400000D03*
X179000000Y-111000000D03*
D20*
X128975000Y-111300000D03*
D19*
X119000000Y-103800000D03*
X116500000Y-108000000D03*
X111500000Y-113400000D03*
X146500000Y-115800000D03*
X151500000Y-103800000D03*
X226500000Y-103800000D03*
D20*
X197200000Y-105870000D03*
D19*
X174000000Y-115800000D03*
X151500000Y-108600000D03*
X189000000Y-103800000D03*
X196500000Y-115800000D03*
D20*
X187600000Y-108650000D03*
D19*
X110300000Y-114950000D03*
X116500000Y-107000000D03*
X181500000Y-108600000D03*
X212300000Y-106450000D03*
X121500000Y-103800000D03*
X154000000Y-103800000D03*
D20*
X138387500Y-102800000D03*
D19*
X175800000Y-105500000D03*
D20*
X120850000Y-108400000D03*
D19*
X159000000Y-105500000D03*
X169000000Y-115800000D03*
D20*
X127350000Y-115450000D03*
D19*
X145500000Y-111037500D03*
X168900000Y-105500000D03*
X226500000Y-108600000D03*
X148400000Y-113050000D03*
X149000000Y-115800000D03*
X226500000Y-113400000D03*
D20*
X159020000Y-110600000D03*
D19*
X221500000Y-101400000D03*
X166600000Y-105500000D03*
X180899999Y-103400000D03*
X226500000Y-101400000D03*
X124000000Y-111000000D03*
X154400000Y-105500000D03*
X146500000Y-113400000D03*
X134000000Y-111000000D03*
D20*
X139600000Y-105410000D03*
D19*
X151500000Y-106200000D03*
X156500000Y-103800000D03*
X224000000Y-101400000D03*
X136500000Y-111000000D03*
X119000000Y-115800000D03*
X139000000Y-113400000D03*
X179000000Y-115800000D03*
X212300000Y-107250000D03*
X155200000Y-112200000D03*
X154299999Y-115050000D03*
X146500000Y-106200000D03*
D20*
X141062500Y-105750000D03*
D19*
X186500000Y-106200000D03*
D20*
X124400000Y-115610000D03*
D19*
X136500000Y-103800000D03*
X116500000Y-109000000D03*
X216500000Y-101400000D03*
X226500000Y-115800000D03*
X111199999Y-103820000D03*
X134000000Y-113400000D03*
X179000000Y-113400000D03*
X184000000Y-111000000D03*
D20*
X127025000Y-112750000D03*
D19*
X159000000Y-103800000D03*
X116500000Y-103800000D03*
X114000000Y-115800000D03*
X214000000Y-101400000D03*
X226500000Y-106200000D03*
X173500000Y-105500000D03*
X196500000Y-103800000D03*
X111500000Y-111000000D03*
X110600000Y-102100000D03*
X186500000Y-108600000D03*
X194000000Y-103800000D03*
X184000000Y-108600000D03*
X136500000Y-113400000D03*
X184000000Y-103800000D03*
X139000000Y-115800000D03*
X141500000Y-113400000D03*
X136500000Y-106200000D03*
X189000000Y-106200000D03*
D20*
X135930000Y-104600000D03*
D19*
%TO.N,/+3V3*%
X143600000Y-107500000D03*
D20*
X180290000Y-116800000D03*
X184310000Y-116800000D03*
X172000000Y-116800000D03*
X127675000Y-105200000D03*
X123400000Y-104090000D03*
X122300000Y-116250000D03*
X127675000Y-108000000D03*
%TO.N,/REGN*%
X161000000Y-115550000D03*
X151650000Y-112700000D03*
X160150000Y-113050000D03*
X165950000Y-114050000D03*
D19*
%TO.N,/VBUS*%
X107950000Y-112950000D03*
X107950000Y-108050000D03*
X111300000Y-108050000D03*
D20*
%TO.N,/I2C_SDA*%
X164500000Y-120100000D03*
X125725000Y-115600000D03*
X182000000Y-120100000D03*
%TO.N,/I2C_SCL*%
X126375000Y-114900000D03*
X182600000Y-119550000D03*
X163600000Y-119550000D03*
%TO.N,/CHG_EN*%
X129625000Y-114900000D03*
X159050000Y-118450000D03*
%TO.N,/CHG_STAT*%
X160200000Y-110500000D03*
X151900000Y-111200000D03*
%TO.N,/BTST1*%
X159850000Y-112200000D03*
%TO.N,/CHG_BATP*%
X166650000Y-113900000D03*
%TO.N,/BTST2*%
X167200000Y-113250000D03*
%TO.N,/BAT_P*%
X169600000Y-111400000D03*
D19*
%TO.N,/SW2*%
X163750000Y-111950000D03*
X163750000Y-112750000D03*
X164585000Y-102550000D03*
X163785000Y-102550000D03*
%TO.N,/SW1*%
X162250000Y-111950000D03*
X162215000Y-102550000D03*
X161415000Y-102550000D03*
X162250000Y-112750000D03*
D20*
%TO.N,/CLED_A*%
X113000000Y-118100000D03*
X123200000Y-108800000D03*
%TO.N,/WAKE_G*%
X145412500Y-101950000D03*
X143937500Y-103900000D03*
D19*
%TO.N,/PACK_P*%
X213500000Y-115800000D03*
X211200000Y-103600000D03*
X211200000Y-102600000D03*
X214500000Y-115800000D03*
D20*
%TO.N,/BMS_BOOT*%
X130925000Y-114900000D03*
X183300000Y-117350000D03*
%TO.N,/FAST_CHG_N*%
X128975000Y-105200000D03*
%TO.N,/USB_DM*%
X107750000Y-109750000D03*
X107750000Y-110750000D03*
%TO.N,/SWDIO*%
X125725000Y-105150000D03*
%TO.N,/SWCLK*%
X125075000Y-105850000D03*
%TO.N,/CC1*%
X121500000Y-109000000D03*
X108150000Y-108900000D03*
%TD*%
%TO.N,/+3V3*%
D21*
X122400000Y-115750000D02*
X122300000Y-116250000D01*
X127675000Y-105200000D02*
X127900000Y-104975000D01*
X127675000Y-105200000D02*
X127675000Y-108000000D01*
X127900000Y-104975000D02*
X127900000Y-102600000D01*
D22*
X143600000Y-107500000D02*
X143100000Y-108000000D01*
D21*
X144000000Y-116800000D02*
X184280000Y-116800000D01*
D22*
X143100000Y-108000000D02*
X127675000Y-108000000D01*
D21*
X127675000Y-108000000D02*
X122900000Y-108000000D01*
X122900000Y-108000000D02*
X122400000Y-108500000D01*
X122400000Y-108500000D02*
X122400000Y-115750000D01*
X123400000Y-104090000D02*
X123400000Y-108000000D01*
X143600000Y-107500000D02*
X143600000Y-116399999D01*
X143600000Y-116399999D02*
X144000000Y-116800000D01*
%TO.N,/REGN*%
D23*
X160150000Y-113050000D02*
X159750000Y-113400000D01*
D21*
X161375000Y-114950000D02*
X165545000Y-114950000D01*
X161375000Y-115149999D02*
X161000000Y-115550000D01*
D23*
X151842500Y-113085000D02*
X152352180Y-113400000D01*
D21*
X165950000Y-114545000D02*
X165545000Y-114950000D01*
D23*
X151842500Y-113085000D02*
X151650000Y-112700000D01*
D21*
X165950000Y-114545000D02*
X165950000Y-114050000D01*
X160150000Y-113600000D02*
X161375000Y-114950000D01*
D23*
X159750000Y-113400000D02*
X152352180Y-113400000D01*
D21*
X160150000Y-113050000D02*
X160150000Y-113600000D01*
X161375000Y-114950000D02*
X161375000Y-115149999D01*
%TO.N,/VBUS*%
D24*
X106900000Y-112700000D02*
X107150000Y-112950000D01*
X107950000Y-108050000D02*
X107150000Y-108050000D01*
X107150000Y-112950000D02*
X107950000Y-112950000D01*
X106900000Y-108300000D02*
X106900000Y-112700000D01*
X107150000Y-108050000D02*
X106900000Y-108300000D01*
D22*
X107950000Y-108050000D02*
X111300000Y-108050000D01*
%TO.N,/I2C_SDA*%
D25*
X125725000Y-115600000D02*
X125725000Y-119699999D01*
X125725000Y-119699999D02*
X126125000Y-120100000D01*
X126125000Y-120100000D02*
X182000000Y-120100000D01*
%TO.N,/I2C_SCL*%
X126375000Y-119149999D02*
X126775000Y-119550000D01*
X126375000Y-114900000D02*
X126375000Y-119149999D01*
X126775000Y-119550000D02*
X182600000Y-119550000D01*
%TO.N,/CHG_EN*%
X129625000Y-118050000D02*
X130025000Y-118450000D01*
X130025000Y-118450000D02*
X159050000Y-118450000D01*
X129625000Y-114900000D02*
X129625000Y-118050000D01*
%TO.N,/CHG_STAT*%
D23*
X160200000Y-110500000D02*
X159980000Y-110170000D01*
X152200000Y-109900000D02*
X151900000Y-110200000D01*
X159475500Y-109900000D02*
X159980000Y-110170000D01*
X151900000Y-110200000D02*
X151900000Y-111200000D01*
X159475500Y-109900000D02*
X152200000Y-109900000D01*
%TO.N,/BTST1*%
X159850000Y-112200000D02*
X160420000Y-111850000D01*
%TO.N,/CHG_BATP*%
X166650000Y-113900000D02*
X167690000Y-114300000D01*
%TO.N,/BTST2*%
X167200000Y-113250000D02*
X165880000Y-112900000D01*
%TO.N,/BAT_P*%
D21*
X168710000Y-114300000D02*
X169199500Y-114300000D01*
X169600000Y-113899500D02*
X169600000Y-111400000D01*
X169600000Y-113899500D02*
X169199500Y-114300000D01*
%TO.N,/SW2*%
D26*
X163750000Y-110000000D02*
X164185000Y-109400000D01*
X163750000Y-111950000D02*
X163750000Y-110000000D01*
X164185000Y-109400000D02*
X164185000Y-102550000D01*
D22*
X164920000Y-112900000D02*
X163750000Y-112750000D01*
D26*
X163750000Y-112750000D02*
X163750000Y-111950000D01*
D24*
X163785000Y-102550000D02*
X164585000Y-102550000D01*
%TO.N,/SW1*%
X161415000Y-102550000D02*
X162215000Y-102550000D01*
D26*
X162250000Y-111950000D02*
X162250000Y-110000000D01*
D22*
X161380000Y-111850000D02*
X162250000Y-111950000D01*
D26*
X162250000Y-112750000D02*
X162250000Y-111950000D01*
X162250000Y-110000000D02*
X161815000Y-109400000D01*
X161815000Y-109400000D02*
X161815000Y-102550000D01*
%TO.N,/CLED_A*%
D25*
X123200000Y-117600000D02*
X122700000Y-118100000D01*
X122700000Y-118100000D02*
X113000000Y-118100000D01*
X123200000Y-108800000D02*
X123200000Y-117600000D01*
%TO.N,/WAKE_G*%
X143937500Y-103900000D02*
X144537500Y-103300000D01*
X145412500Y-102300000D02*
X145412500Y-101950000D01*
X144537500Y-103300000D02*
X145412500Y-102300000D01*
%TO.N,/PACK_P*%
D26*
X211200000Y-102600000D02*
X211200000Y-115200000D01*
X211799999Y-115800000D02*
X214500000Y-115800000D01*
X211200000Y-115200000D02*
X211799999Y-115800000D01*
%TO.N,/BMS_BOOT*%
D25*
X130925000Y-116949999D02*
X131325000Y-117350000D01*
X130925000Y-114900000D02*
X130925000Y-116949999D01*
X131325000Y-117350000D02*
X183300000Y-117350000D01*
%TO.N,/FAST_CHG_N*%
X128975000Y-105200000D02*
X130949999Y-105200000D01*
%TO.N,/USB_DM*%
X107750000Y-109750000D02*
X107750000Y-110750000D01*
%TO.N,/SWDIO*%
X125900000Y-104975000D02*
X125900000Y-102600000D01*
X125725000Y-105150000D02*
X125900000Y-104975000D01*
%TO.N,/SWCLK*%
X125075000Y-105850000D02*
X124425000Y-105199999D01*
X124425000Y-105199999D02*
X123900000Y-104675000D01*
X123900000Y-104675000D02*
X123900000Y-102600000D01*
%TO.N,/CC1*%
X108150000Y-108900000D02*
X108600000Y-109350000D01*
X108600000Y-111400000D02*
X109000000Y-111800000D01*
X108600000Y-109350000D02*
X108600000Y-111400000D01*
X109000000Y-111800000D02*
X121000000Y-111800000D01*
X121500000Y-111300000D02*
X121500000Y-109000000D01*
X121000000Y-111800000D02*
X121500000Y-111300000D01*
%TD*%
%TA.AperFunction,Conductor*%
%TO.N,/GND*%
G36*
X232002777Y-100300655D02*
G01*
X232296701Y-100317162D01*
X232307724Y-100318404D01*
X232595224Y-100367252D01*
X232606018Y-100369715D01*
X232886252Y-100450449D01*
X232896727Y-100454115D01*
X233166135Y-100565707D01*
X233176129Y-100570520D01*
X233431352Y-100711577D01*
X233431354Y-100711578D01*
X233440755Y-100717485D01*
X233678575Y-100886228D01*
X233687254Y-100893149D01*
X233717387Y-100920077D01*
X233904697Y-101087467D01*
X233912532Y-101095302D01*
X234006053Y-101199952D01*
X234106850Y-101312745D01*
X234113771Y-101321424D01*
X234282514Y-101559244D01*
X234288421Y-101568645D01*
X234429477Y-101823866D01*
X234434294Y-101833869D01*
X234545883Y-102103271D01*
X234549550Y-102113749D01*
X234630280Y-102393966D01*
X234632750Y-102404790D01*
X234681594Y-102692270D01*
X234682837Y-102703302D01*
X234699344Y-102997222D01*
X234699500Y-103002773D01*
X234699500Y-117997226D01*
X234699344Y-118002777D01*
X234682837Y-118296697D01*
X234681594Y-118307729D01*
X234632750Y-118595209D01*
X234630280Y-118606033D01*
X234549551Y-118886247D01*
X234545884Y-118896726D01*
X234434291Y-119166134D01*
X234429474Y-119176136D01*
X234288421Y-119431353D01*
X234282515Y-119440753D01*
X234113769Y-119678579D01*
X234106851Y-119687252D01*
X233958628Y-119853114D01*
X233912538Y-119904689D01*
X233904689Y-119912538D01*
X233687255Y-120106850D01*
X233678579Y-120113769D01*
X233440753Y-120282515D01*
X233431353Y-120288421D01*
X233176136Y-120429474D01*
X233166134Y-120434291D01*
X232896726Y-120545884D01*
X232886247Y-120549551D01*
X232606033Y-120630280D01*
X232595209Y-120632750D01*
X232307729Y-120681594D01*
X232296697Y-120682837D01*
X232002778Y-120699344D01*
X231997227Y-120699500D01*
X182232108Y-120699500D01*
X182173917Y-120680593D01*
X182137953Y-120631093D01*
X182137953Y-120569907D01*
X182173917Y-120520407D01*
X182182608Y-120514764D01*
X182276608Y-120460492D01*
X182276608Y-120460491D01*
X182276613Y-120460489D01*
X182360489Y-120376613D01*
X182419799Y-120273886D01*
X182450500Y-120159309D01*
X182450500Y-120099500D01*
X182469407Y-120041309D01*
X182518907Y-120005345D01*
X182549500Y-120000500D01*
X182659307Y-120000500D01*
X182659309Y-120000500D01*
X182773886Y-119969799D01*
X182773888Y-119969797D01*
X182773890Y-119969797D01*
X182876608Y-119910492D01*
X182876608Y-119910491D01*
X182876613Y-119910489D01*
X182960489Y-119826613D01*
X182966624Y-119815987D01*
X183019797Y-119723890D01*
X183019797Y-119723888D01*
X183019799Y-119723886D01*
X183050500Y-119609309D01*
X183050500Y-119490691D01*
X183019799Y-119376114D01*
X183019797Y-119376111D01*
X183019797Y-119376109D01*
X182960492Y-119273391D01*
X182960490Y-119273389D01*
X182960489Y-119273387D01*
X182876613Y-119189511D01*
X182876610Y-119189509D01*
X182876608Y-119189507D01*
X182773889Y-119130202D01*
X182773890Y-119130202D01*
X182760351Y-119126574D01*
X182659309Y-119099500D01*
X182540691Y-119099500D01*
X182492970Y-119112287D01*
X182426109Y-119130202D01*
X182323391Y-119189507D01*
X182292393Y-119220505D01*
X182237876Y-119248281D01*
X182222390Y-119249500D01*
X163977610Y-119249500D01*
X163919419Y-119230593D01*
X163907607Y-119220505D01*
X163892321Y-119205219D01*
X163876613Y-119189511D01*
X163876610Y-119189509D01*
X163876609Y-119189508D01*
X163876608Y-119189507D01*
X163773889Y-119130202D01*
X163773890Y-119130202D01*
X163760351Y-119126574D01*
X163659309Y-119099500D01*
X163540691Y-119099500D01*
X163492970Y-119112287D01*
X163426109Y-119130202D01*
X163323391Y-119189507D01*
X163292393Y-119220505D01*
X163237876Y-119248281D01*
X163222390Y-119249500D01*
X126940478Y-119249500D01*
X126882287Y-119230593D01*
X126870474Y-119220503D01*
X126704496Y-119054524D01*
X126676719Y-119000008D01*
X126675500Y-118984521D01*
X126675500Y-115277609D01*
X126694407Y-115219418D01*
X126704490Y-115207611D01*
X126735489Y-115176613D01*
X126751143Y-115149500D01*
X126794797Y-115073890D01*
X126794797Y-115073888D01*
X126794799Y-115073886D01*
X126825500Y-114959309D01*
X126825500Y-114840691D01*
X129174500Y-114840691D01*
X129174500Y-114959309D01*
X129195867Y-115039051D01*
X129205202Y-115073890D01*
X129264507Y-115176608D01*
X129264509Y-115176610D01*
X129264511Y-115176613D01*
X129295505Y-115207607D01*
X129323281Y-115262122D01*
X129324500Y-115277609D01*
X129324500Y-118089564D01*
X129344977Y-118165985D01*
X129344978Y-118165987D01*
X129344979Y-118165989D01*
X129379417Y-118225638D01*
X129384540Y-118234511D01*
X129784540Y-118634511D01*
X129784539Y-118634511D01*
X129840489Y-118690460D01*
X129909007Y-118730019D01*
X129909011Y-118730021D01*
X129985435Y-118750499D01*
X129985437Y-118750500D01*
X129985438Y-118750500D01*
X130064562Y-118750500D01*
X158672390Y-118750500D01*
X158730581Y-118769407D01*
X158742393Y-118779495D01*
X158773387Y-118810489D01*
X158773389Y-118810490D01*
X158773390Y-118810491D01*
X158773391Y-118810492D01*
X158876110Y-118869797D01*
X158876111Y-118869797D01*
X158876114Y-118869799D01*
X158990691Y-118900500D01*
X158990693Y-118900500D01*
X159109307Y-118900500D01*
X159109309Y-118900500D01*
X159223886Y-118869799D01*
X159223888Y-118869797D01*
X159223890Y-118869797D01*
X159326608Y-118810492D01*
X159326608Y-118810491D01*
X159326613Y-118810489D01*
X159410489Y-118726613D01*
X159436472Y-118681610D01*
X159469797Y-118623890D01*
X159469797Y-118623888D01*
X159469799Y-118623886D01*
X159500500Y-118509309D01*
X159500500Y-118390691D01*
X159469799Y-118276114D01*
X159469797Y-118276111D01*
X159469797Y-118276109D01*
X159410492Y-118173391D01*
X159410490Y-118173389D01*
X159410489Y-118173387D01*
X159326613Y-118089511D01*
X159326610Y-118089509D01*
X159326608Y-118089507D01*
X159223889Y-118030202D01*
X159223890Y-118030202D01*
X159210351Y-118026574D01*
X159109309Y-117999500D01*
X158990691Y-117999500D01*
X158920567Y-118018289D01*
X158876109Y-118030202D01*
X158773391Y-118089507D01*
X158742393Y-118120505D01*
X158687876Y-118148281D01*
X158672390Y-118149500D01*
X130190479Y-118149500D01*
X130132288Y-118130593D01*
X130120475Y-118120504D01*
X129954496Y-117954525D01*
X129926719Y-117900008D01*
X129926533Y-117897644D01*
X230699500Y-117897644D01*
X230699500Y-118102355D01*
X230731521Y-118304529D01*
X230794780Y-118499219D01*
X230887712Y-118681609D01*
X230887714Y-118681613D01*
X231008029Y-118847213D01*
X231008031Y-118847215D01*
X231008034Y-118847219D01*
X231152781Y-118991966D01*
X231152784Y-118991968D01*
X231152786Y-118991970D01*
X231318386Y-119112285D01*
X231318390Y-119112287D01*
X231500781Y-119205220D01*
X231695466Y-119268477D01*
X231695467Y-119268477D01*
X231695470Y-119268478D01*
X231897645Y-119300500D01*
X231897648Y-119300500D01*
X232102355Y-119300500D01*
X232304529Y-119268478D01*
X232304530Y-119268477D01*
X232304534Y-119268477D01*
X232499219Y-119205220D01*
X232681610Y-119112287D01*
X232684157Y-119110437D01*
X232736813Y-119072180D01*
X232847219Y-118991966D01*
X232991966Y-118847219D01*
X233112287Y-118681610D01*
X233205220Y-118499219D01*
X233268477Y-118304534D01*
X233269718Y-118296697D01*
X233300500Y-118102355D01*
X233300500Y-117897644D01*
X233268478Y-117695470D01*
X233268477Y-117695466D01*
X233205220Y-117500781D01*
X233112287Y-117318390D01*
X233112285Y-117318386D01*
X232991970Y-117152786D01*
X232991968Y-117152784D01*
X232991966Y-117152781D01*
X232847219Y-117008034D01*
X232847215Y-117008031D01*
X232847213Y-117008029D01*
X232681613Y-116887714D01*
X232681609Y-116887712D01*
X232499219Y-116794780D01*
X232304529Y-116731521D01*
X232102355Y-116699500D01*
X232102352Y-116699500D01*
X231897648Y-116699500D01*
X231897645Y-116699500D01*
X231695470Y-116731521D01*
X231500780Y-116794780D01*
X231318390Y-116887712D01*
X231318386Y-116887714D01*
X231152786Y-117008029D01*
X231008029Y-117152786D01*
X230887714Y-117318386D01*
X230887712Y-117318390D01*
X230794780Y-117500780D01*
X230731521Y-117695470D01*
X230699500Y-117897644D01*
X129926533Y-117897644D01*
X129925500Y-117884521D01*
X129925500Y-115277609D01*
X129944407Y-115219418D01*
X129954490Y-115207611D01*
X129985489Y-115176613D01*
X130001143Y-115149500D01*
X130044797Y-115073890D01*
X130044797Y-115073888D01*
X130044799Y-115073886D01*
X130075500Y-114959309D01*
X130075500Y-114840691D01*
X130044799Y-114726114D01*
X130044797Y-114726111D01*
X130044797Y-114726109D01*
X129985492Y-114623391D01*
X129985490Y-114623389D01*
X129985489Y-114623387D01*
X129901613Y-114539511D01*
X129901610Y-114539509D01*
X129901608Y-114539507D01*
X129798889Y-114480202D01*
X129798890Y-114480202D01*
X129785351Y-114476574D01*
X129684309Y-114449500D01*
X129565691Y-114449500D01*
X129497458Y-114467783D01*
X129451109Y-114480202D01*
X129348391Y-114539507D01*
X129264507Y-114623391D01*
X129205202Y-114726109D01*
X129205201Y-114726114D01*
X129174500Y-114840691D01*
X126825500Y-114840691D01*
X126794799Y-114726114D01*
X126794797Y-114726111D01*
X126794797Y-114726109D01*
X126735492Y-114623391D01*
X126735490Y-114623389D01*
X126735489Y-114623387D01*
X126651613Y-114539511D01*
X126651610Y-114539509D01*
X126651608Y-114539507D01*
X126548889Y-114480202D01*
X126548890Y-114480202D01*
X126535351Y-114476574D01*
X126434309Y-114449500D01*
X126315691Y-114449500D01*
X126247458Y-114467783D01*
X126201109Y-114480202D01*
X126098391Y-114539507D01*
X126014507Y-114623391D01*
X125955202Y-114726109D01*
X125955201Y-114726114D01*
X125924500Y-114840691D01*
X125924500Y-114959309D01*
X125945867Y-115039051D01*
X125942664Y-115100153D01*
X125904159Y-115147703D01*
X125845058Y-115163538D01*
X125824621Y-115160301D01*
X125784309Y-115149500D01*
X125665691Y-115149500D01*
X125613301Y-115163538D01*
X125551109Y-115180202D01*
X125448391Y-115239507D01*
X125364507Y-115323391D01*
X125305202Y-115426109D01*
X125297939Y-115453217D01*
X125274500Y-115540691D01*
X125274500Y-115659309D01*
X125291804Y-115723889D01*
X125305202Y-115773890D01*
X125364507Y-115876608D01*
X125364509Y-115876610D01*
X125364511Y-115876613D01*
X125395505Y-115907607D01*
X125423281Y-115962122D01*
X125424500Y-115977609D01*
X125424500Y-119660437D01*
X125424500Y-119739561D01*
X125437669Y-119788710D01*
X125444979Y-119815991D01*
X125484536Y-119884505D01*
X125484540Y-119884510D01*
X125940489Y-120340460D01*
X126009007Y-120380019D01*
X126009011Y-120380021D01*
X126085435Y-120400499D01*
X126085437Y-120400500D01*
X126085438Y-120400500D01*
X126164561Y-120400500D01*
X164122390Y-120400500D01*
X164178843Y-120418173D01*
X164186127Y-120423229D01*
X164223387Y-120460489D01*
X164320960Y-120516823D01*
X164324345Y-120519173D01*
X164340486Y-120540412D01*
X164358333Y-120560233D01*
X164358779Y-120564483D01*
X164361366Y-120567887D01*
X164361940Y-120594550D01*
X164364729Y-120621084D01*
X164362591Y-120624787D01*
X164362683Y-120629059D01*
X164347476Y-120650966D01*
X164334136Y-120674072D01*
X164330230Y-120675810D01*
X164327794Y-120679321D01*
X164302614Y-120688106D01*
X164278240Y-120698958D01*
X164270321Y-120699372D01*
X164270023Y-120699477D01*
X164269772Y-120699401D01*
X164267892Y-120699500D01*
X103002773Y-120699500D01*
X102997222Y-120699344D01*
X102703302Y-120682837D01*
X102692270Y-120681594D01*
X102404790Y-120632750D01*
X102393966Y-120630280D01*
X102362046Y-120621084D01*
X102337623Y-120614047D01*
X102113749Y-120549550D01*
X102103271Y-120545883D01*
X101833869Y-120434294D01*
X101823866Y-120429477D01*
X101568645Y-120288421D01*
X101559244Y-120282514D01*
X101321424Y-120113771D01*
X101312745Y-120106850D01*
X101161125Y-119971355D01*
X101095302Y-119912532D01*
X101087467Y-119904697D01*
X100939891Y-119739559D01*
X100893149Y-119687254D01*
X100886228Y-119678575D01*
X100717485Y-119440755D01*
X100711578Y-119431354D01*
X100570520Y-119176129D01*
X100565705Y-119166130D01*
X100550823Y-119130202D01*
X100454115Y-118896726D01*
X100450449Y-118886250D01*
X100450448Y-118886247D01*
X100369715Y-118606018D01*
X100367252Y-118595224D01*
X100318404Y-118307724D01*
X100317162Y-118296697D01*
X100313171Y-118225638D01*
X100300656Y-118002777D01*
X100300500Y-117997226D01*
X100300500Y-117896532D01*
X101949500Y-117896532D01*
X101949500Y-118103467D01*
X101989869Y-118306418D01*
X102069058Y-118497597D01*
X102184020Y-118669651D01*
X102184023Y-118669655D01*
X102330345Y-118815977D01*
X102502402Y-118930941D01*
X102693580Y-119010130D01*
X102896535Y-119050500D01*
X102896536Y-119050500D01*
X103103464Y-119050500D01*
X103103465Y-119050500D01*
X103306420Y-119010130D01*
X103497598Y-118930941D01*
X103669655Y-118815977D01*
X103815977Y-118669655D01*
X103930941Y-118497598D01*
X104010130Y-118306420D01*
X104050500Y-118103465D01*
X104050500Y-117896535D01*
X104010130Y-117693580D01*
X103930941Y-117502402D01*
X103815977Y-117330345D01*
X103669655Y-117184023D01*
X103669651Y-117184020D01*
X103497597Y-117069058D01*
X103306418Y-116989869D01*
X103103467Y-116949500D01*
X103103465Y-116949500D01*
X102896535Y-116949500D01*
X102896532Y-116949500D01*
X102693581Y-116989869D01*
X102502402Y-117069058D01*
X102330348Y-117184020D01*
X102184020Y-117330348D01*
X102069058Y-117502402D01*
X101989869Y-117693581D01*
X101949500Y-117896532D01*
X100300500Y-117896532D01*
X100300500Y-113320817D01*
X104464500Y-113320817D01*
X104464500Y-113459183D01*
X104500312Y-113592836D01*
X104569495Y-113712665D01*
X104667335Y-113810505D01*
X104787164Y-113879688D01*
X104920817Y-113915500D01*
X104920819Y-113915500D01*
X105059181Y-113915500D01*
X105059183Y-113915500D01*
X105192836Y-113879688D01*
X105312665Y-113810505D01*
X105410505Y-113712665D01*
X105479688Y-113592836D01*
X105515500Y-113459183D01*
X105515500Y-113320817D01*
X105479688Y-113187164D01*
X105410505Y-113067335D01*
X105312665Y-112969495D01*
X105192836Y-112900312D01*
X105059183Y-112864500D01*
X104920817Y-112864500D01*
X104787164Y-112900312D01*
X104667335Y-112969495D01*
X104569495Y-113067335D01*
X104500312Y-113187164D01*
X104464500Y-113320817D01*
X100300500Y-113320817D01*
X100300500Y-108234108D01*
X106399500Y-108234108D01*
X106399500Y-112634108D01*
X106399500Y-112765892D01*
X106416732Y-112830202D01*
X106433609Y-112893190D01*
X106499496Y-113007309D01*
X106499500Y-113007314D01*
X106749499Y-113257314D01*
X106796800Y-113304614D01*
X106842686Y-113350500D01*
X106894206Y-113380245D01*
X106956814Y-113416392D01*
X107084107Y-113450500D01*
X107084108Y-113450500D01*
X107084109Y-113450500D01*
X108015890Y-113450500D01*
X108015892Y-113450500D01*
X108143186Y-113416392D01*
X108143188Y-113416390D01*
X108143190Y-113416390D01*
X108257309Y-113350503D01*
X108257309Y-113350502D01*
X108257314Y-113350500D01*
X108350500Y-113257314D01*
X108350503Y-113257309D01*
X108416390Y-113143190D01*
X108416390Y-113143188D01*
X108416392Y-113143186D01*
X108450500Y-113015892D01*
X108450500Y-112884108D01*
X108416392Y-112756814D01*
X108416390Y-112756811D01*
X108416390Y-112756809D01*
X108350503Y-112642690D01*
X108350501Y-112642688D01*
X108350500Y-112642686D01*
X108257314Y-112549500D01*
X108257311Y-112549498D01*
X108257309Y-112549496D01*
X108143189Y-112483609D01*
X108143191Y-112483609D01*
X108093799Y-112470375D01*
X108015892Y-112449500D01*
X108015890Y-112449500D01*
X107499500Y-112449500D01*
X107441309Y-112430593D01*
X107405345Y-112381093D01*
X107400500Y-112350500D01*
X107400500Y-111239881D01*
X107419407Y-111181690D01*
X107468907Y-111145726D01*
X107530093Y-111145726D01*
X107548999Y-111154144D01*
X107576114Y-111169799D01*
X107690691Y-111200500D01*
X107690693Y-111200500D01*
X107809307Y-111200500D01*
X107809309Y-111200500D01*
X107923886Y-111169799D01*
X107923888Y-111169797D01*
X107923890Y-111169797D01*
X108026608Y-111110492D01*
X108026608Y-111110491D01*
X108026613Y-111110489D01*
X108110489Y-111026613D01*
X108114763Y-111019209D01*
X108160231Y-110978269D01*
X108221081Y-110971872D01*
X108274070Y-111002463D01*
X108298957Y-111058358D01*
X108299500Y-111068709D01*
X108299500Y-111439564D01*
X108319978Y-111515988D01*
X108319979Y-111515989D01*
X108353406Y-111573886D01*
X108359540Y-111584511D01*
X108359543Y-111584514D01*
X108759539Y-111984511D01*
X108815489Y-112040460D01*
X108884007Y-112080019D01*
X108884011Y-112080021D01*
X108960435Y-112100499D01*
X108960437Y-112100500D01*
X108960438Y-112100500D01*
X121039563Y-112100500D01*
X121039563Y-112100499D01*
X121115989Y-112080021D01*
X121184511Y-112040460D01*
X121240460Y-111984511D01*
X121740460Y-111484511D01*
X121749729Y-111468457D01*
X121780020Y-111415992D01*
X121780020Y-111415990D01*
X121780022Y-111415988D01*
X121800500Y-111339562D01*
X121800500Y-111260438D01*
X121800500Y-109377609D01*
X121801854Y-109373441D01*
X121800860Y-109369173D01*
X121808758Y-109352190D01*
X121819407Y-109319418D01*
X121824657Y-109312805D01*
X121826981Y-109310120D01*
X121860489Y-109276613D01*
X121869482Y-109261035D01*
X121875657Y-109253905D01*
X121894165Y-109242734D01*
X121910231Y-109228269D01*
X121919802Y-109227262D01*
X121928042Y-109222290D01*
X121949581Y-109224132D01*
X121971081Y-109221872D01*
X121979416Y-109226683D01*
X121989005Y-109227504D01*
X122005346Y-109241653D01*
X122024070Y-109252463D01*
X122027984Y-109261255D01*
X122035260Y-109267555D01*
X122040164Y-109288609D01*
X122048957Y-109308358D01*
X122049500Y-109318709D01*
X122049500Y-115705491D01*
X122047577Y-115724907D01*
X122018351Y-115871031D01*
X121991279Y-115921617D01*
X121939512Y-115973385D01*
X121939507Y-115973391D01*
X121880202Y-116076109D01*
X121880201Y-116076114D01*
X121849500Y-116190691D01*
X121849500Y-116309309D01*
X121868496Y-116380201D01*
X121880202Y-116423890D01*
X121939507Y-116526608D01*
X121939509Y-116526610D01*
X121939511Y-116526613D01*
X122023387Y-116610489D01*
X122023389Y-116610490D01*
X122023391Y-116610492D01*
X122126110Y-116669797D01*
X122126111Y-116669797D01*
X122126114Y-116669799D01*
X122240691Y-116700500D01*
X122240693Y-116700500D01*
X122359307Y-116700500D01*
X122359309Y-116700500D01*
X122473886Y-116669799D01*
X122473888Y-116669797D01*
X122473890Y-116669797D01*
X122576608Y-116610492D01*
X122576608Y-116610491D01*
X122576613Y-116610489D01*
X122660489Y-116526613D01*
X122662352Y-116523387D01*
X122714764Y-116432608D01*
X122760233Y-116391667D01*
X122821084Y-116385271D01*
X122874072Y-116415864D01*
X122898958Y-116471760D01*
X122899500Y-116482108D01*
X122899500Y-117434521D01*
X122880593Y-117492712D01*
X122870504Y-117504525D01*
X122604525Y-117770504D01*
X122550008Y-117798281D01*
X122534521Y-117799500D01*
X113377610Y-117799500D01*
X113319419Y-117780593D01*
X113307607Y-117770505D01*
X113306899Y-117769797D01*
X113276613Y-117739511D01*
X113276610Y-117739509D01*
X113276609Y-117739508D01*
X113276608Y-117739507D01*
X113173889Y-117680202D01*
X113173890Y-117680202D01*
X113133602Y-117669407D01*
X113059309Y-117649500D01*
X112940691Y-117649500D01*
X112870567Y-117668289D01*
X112826109Y-117680202D01*
X112723391Y-117739507D01*
X112639507Y-117823391D01*
X112580202Y-117926109D01*
X112580201Y-117926114D01*
X112549500Y-118040691D01*
X112549500Y-118159309D01*
X112576574Y-118260351D01*
X112580202Y-118273890D01*
X112639507Y-118376608D01*
X112639509Y-118376610D01*
X112639511Y-118376613D01*
X112723387Y-118460489D01*
X112723389Y-118460490D01*
X112723391Y-118460492D01*
X112826110Y-118519797D01*
X112826111Y-118519797D01*
X112826114Y-118519799D01*
X112940691Y-118550500D01*
X112940693Y-118550500D01*
X113059307Y-118550500D01*
X113059309Y-118550500D01*
X113173886Y-118519799D01*
X113173888Y-118519797D01*
X113173890Y-118519797D01*
X113276608Y-118460492D01*
X113276608Y-118460491D01*
X113276613Y-118460489D01*
X113307607Y-118429495D01*
X113362124Y-118401719D01*
X113377610Y-118400500D01*
X122739563Y-118400500D01*
X122739563Y-118400499D01*
X122815989Y-118380021D01*
X122884511Y-118340460D01*
X122940460Y-118284511D01*
X123440460Y-117784511D01*
X123442722Y-117780593D01*
X123480020Y-117715992D01*
X123480020Y-117715990D01*
X123480022Y-117715988D01*
X123500500Y-117639562D01*
X123500500Y-117560438D01*
X123500500Y-109177609D01*
X123519407Y-109119418D01*
X123529490Y-109107611D01*
X123560489Y-109076613D01*
X123562061Y-109073890D01*
X123619797Y-108973890D01*
X123619797Y-108973888D01*
X123619799Y-108973886D01*
X123650500Y-108859309D01*
X123650500Y-108740691D01*
X123619799Y-108626114D01*
X123619797Y-108626111D01*
X123619797Y-108626109D01*
X123560492Y-108523391D01*
X123560490Y-108523389D01*
X123560489Y-108523387D01*
X123556603Y-108519501D01*
X123528828Y-108464987D01*
X123538399Y-108404555D01*
X123581664Y-108361290D01*
X123626609Y-108350500D01*
X127354558Y-108350500D01*
X127404058Y-108363764D01*
X127501110Y-108419797D01*
X127501111Y-108419797D01*
X127501114Y-108419799D01*
X127615691Y-108450500D01*
X127615693Y-108450500D01*
X127734307Y-108450500D01*
X127734309Y-108450500D01*
X127848886Y-108419799D01*
X127859341Y-108413763D01*
X127908840Y-108400500D01*
X143150500Y-108400500D01*
X143208691Y-108419407D01*
X143244655Y-108468907D01*
X143249500Y-108499500D01*
X143249500Y-116446143D01*
X143271062Y-116526613D01*
X143273386Y-116535287D01*
X143319530Y-116615211D01*
X143319532Y-116615213D01*
X143584815Y-116880497D01*
X143612592Y-116935013D01*
X143603021Y-116995445D01*
X143559756Y-117038710D01*
X143514811Y-117049500D01*
X131490478Y-117049500D01*
X131432287Y-117030593D01*
X131420474Y-117020503D01*
X131254496Y-116854524D01*
X131226719Y-116800008D01*
X131225500Y-116784521D01*
X131225500Y-115277609D01*
X131244407Y-115219418D01*
X131254490Y-115207611D01*
X131285489Y-115176613D01*
X131301143Y-115149500D01*
X131344797Y-115073890D01*
X131344797Y-115073888D01*
X131344799Y-115073886D01*
X131375500Y-114959309D01*
X131375500Y-114840691D01*
X131344799Y-114726114D01*
X131344797Y-114726111D01*
X131344797Y-114726109D01*
X131285492Y-114623391D01*
X131285490Y-114623389D01*
X131285489Y-114623387D01*
X131201613Y-114539511D01*
X131201610Y-114539509D01*
X131201608Y-114539507D01*
X131098889Y-114480202D01*
X131098890Y-114480202D01*
X131085351Y-114476574D01*
X130984309Y-114449500D01*
X130865691Y-114449500D01*
X130797458Y-114467783D01*
X130751109Y-114480202D01*
X130648391Y-114539507D01*
X130564507Y-114623391D01*
X130505202Y-114726109D01*
X130505201Y-114726114D01*
X130474500Y-114840691D01*
X130474500Y-114959309D01*
X130495867Y-115039051D01*
X130505202Y-115073890D01*
X130564507Y-115176608D01*
X130564509Y-115176610D01*
X130564511Y-115176613D01*
X130595505Y-115207607D01*
X130623281Y-115262122D01*
X130624500Y-115277609D01*
X130624500Y-116910437D01*
X130624500Y-116989561D01*
X130637669Y-117038710D01*
X130644979Y-117065991D01*
X130684536Y-117134505D01*
X130684540Y-117134510D01*
X131140489Y-117590460D01*
X131209007Y-117630019D01*
X131209011Y-117630021D01*
X131285435Y-117650499D01*
X131285437Y-117650500D01*
X131285438Y-117650500D01*
X131364561Y-117650500D01*
X182922390Y-117650500D01*
X182980581Y-117669407D01*
X182992393Y-117679495D01*
X183023387Y-117710489D01*
X183023389Y-117710490D01*
X183023390Y-117710491D01*
X183023391Y-117710492D01*
X183126110Y-117769797D01*
X183126111Y-117769797D01*
X183126114Y-117769799D01*
X183240691Y-117800500D01*
X183240693Y-117800500D01*
X183359306Y-117800500D01*
X183359309Y-117800500D01*
X183473886Y-117769799D01*
X183473888Y-117769797D01*
X183473890Y-117769797D01*
X183576608Y-117710492D01*
X183576608Y-117710491D01*
X183576613Y-117710489D01*
X183660489Y-117626613D01*
X183719799Y-117523886D01*
X183750500Y-117409309D01*
X183750500Y-117290691D01*
X183746328Y-117275121D01*
X183747800Y-117247034D01*
X183747800Y-117218907D01*
X183749388Y-117216720D01*
X183749530Y-117214022D01*
X183767224Y-117192171D01*
X183783764Y-117169407D01*
X183786335Y-117168571D01*
X183788036Y-117166472D01*
X183841955Y-117150500D01*
X183989558Y-117150500D01*
X184039058Y-117163764D01*
X184136110Y-117219797D01*
X184136111Y-117219797D01*
X184136114Y-117219799D01*
X184250691Y-117250500D01*
X184250693Y-117250500D01*
X184369307Y-117250500D01*
X184369309Y-117250500D01*
X184483886Y-117219799D01*
X184483888Y-117219797D01*
X184483890Y-117219797D01*
X184586608Y-117160492D01*
X184586608Y-117160491D01*
X184586613Y-117160489D01*
X184670489Y-117076613D01*
X184697059Y-117030593D01*
X184729797Y-116973890D01*
X184729797Y-116973888D01*
X184729799Y-116973886D01*
X184760500Y-116859309D01*
X184760500Y-116740691D01*
X184729799Y-116626114D01*
X184729797Y-116626111D01*
X184729797Y-116626109D01*
X184670492Y-116523391D01*
X184670490Y-116523389D01*
X184670489Y-116523387D01*
X184586613Y-116439511D01*
X184586610Y-116439509D01*
X184586608Y-116439507D01*
X184483889Y-116380202D01*
X184483890Y-116380202D01*
X184470351Y-116376574D01*
X184369309Y-116349500D01*
X184250691Y-116349500D01*
X184180567Y-116368289D01*
X184136109Y-116380202D01*
X184039058Y-116436236D01*
X183989558Y-116449500D01*
X180610442Y-116449500D01*
X180560942Y-116436236D01*
X180463889Y-116380202D01*
X180463890Y-116380202D01*
X180450351Y-116376574D01*
X180349309Y-116349500D01*
X180230691Y-116349500D01*
X180160567Y-116368289D01*
X180116109Y-116380202D01*
X180019058Y-116436236D01*
X179969558Y-116449500D01*
X172320442Y-116449500D01*
X172270942Y-116436236D01*
X172173889Y-116380202D01*
X172173890Y-116380202D01*
X172160351Y-116376574D01*
X172059309Y-116349500D01*
X171940691Y-116349500D01*
X171870567Y-116368289D01*
X171826109Y-116380202D01*
X171729058Y-116436236D01*
X171679558Y-116449500D01*
X144186189Y-116449500D01*
X144178591Y-116447031D01*
X144170702Y-116448281D01*
X144150048Y-116437757D01*
X144127998Y-116430593D01*
X144116185Y-116420503D01*
X143979496Y-116283813D01*
X143951719Y-116229297D01*
X143950500Y-116213810D01*
X143950500Y-112640691D01*
X151199500Y-112640691D01*
X151199500Y-112759309D01*
X151220928Y-112839278D01*
X151230202Y-112873890D01*
X151289507Y-112976608D01*
X151289509Y-112976610D01*
X151289511Y-112976613D01*
X151373387Y-113060489D01*
X151373389Y-113060490D01*
X151373391Y-113060492D01*
X151478290Y-113121056D01*
X151517336Y-113162514D01*
X151529317Y-113186475D01*
X151533320Y-113195606D01*
X151535554Y-113201493D01*
X151552835Y-113233613D01*
X151554199Y-113236241D01*
X151570527Y-113268895D01*
X151573295Y-113272989D01*
X151576165Y-113276970D01*
X151580472Y-113281543D01*
X151602200Y-113304614D01*
X151627391Y-113333022D01*
X151631520Y-113335748D01*
X151634917Y-113339355D01*
X151634921Y-113339358D01*
X151667239Y-113359331D01*
X151698914Y-113380245D01*
X151703610Y-113381810D01*
X152139105Y-113650961D01*
X152147319Y-113656629D01*
X152152313Y-113660461D01*
X152152315Y-113660462D01*
X152152318Y-113660465D01*
X152185203Y-113679451D01*
X152217507Y-113699416D01*
X152222251Y-113700841D01*
X152226542Y-113703318D01*
X152261427Y-113712665D01*
X152261782Y-113712760D01*
X152264632Y-113713569D01*
X152299590Y-113724069D01*
X152299596Y-113724069D01*
X152304437Y-113724854D01*
X152309321Y-113725498D01*
X152309327Y-113725500D01*
X152345810Y-113725500D01*
X152348776Y-113725544D01*
X152385258Y-113726638D01*
X152385265Y-113726636D01*
X152391528Y-113726003D01*
X152401499Y-113725500D01*
X159735857Y-113725500D01*
X159742440Y-113725719D01*
X159745564Y-113725927D01*
X159767439Y-113727385D01*
X159824243Y-113750120D01*
X159848889Y-113780878D01*
X159850142Y-113783314D01*
X159859427Y-113801363D01*
X159863123Y-113806697D01*
X159863081Y-113806725D01*
X159865542Y-113810099D01*
X159865584Y-113810068D01*
X159869531Y-113815213D01*
X159894451Y-113840133D01*
X159897761Y-113843608D01*
X160698554Y-114726114D01*
X160698815Y-114726401D01*
X160723917Y-114782200D01*
X160724500Y-114792928D01*
X160724500Y-115147391D01*
X160705593Y-115205582D01*
X160695509Y-115217388D01*
X160650776Y-115262122D01*
X160639508Y-115273390D01*
X160639507Y-115273391D01*
X160580202Y-115376109D01*
X160580201Y-115376114D01*
X160549500Y-115490691D01*
X160549500Y-115609309D01*
X160553875Y-115625636D01*
X160580202Y-115723890D01*
X160639507Y-115826608D01*
X160639509Y-115826610D01*
X160639511Y-115826613D01*
X160723387Y-115910489D01*
X160723389Y-115910490D01*
X160723391Y-115910492D01*
X160826110Y-115969797D01*
X160826111Y-115969797D01*
X160826114Y-115969799D01*
X160940691Y-116000500D01*
X160940693Y-116000500D01*
X161059307Y-116000500D01*
X161059309Y-116000500D01*
X161173886Y-115969799D01*
X161173888Y-115969797D01*
X161173890Y-115969797D01*
X161276608Y-115910492D01*
X161276608Y-115910491D01*
X161276613Y-115910489D01*
X161360489Y-115826613D01*
X161419799Y-115723886D01*
X161426501Y-115698876D01*
X161459825Y-115647562D01*
X161516947Y-115625636D01*
X161522127Y-115625500D01*
X161633490Y-115625500D01*
X161654885Y-115622111D01*
X161733126Y-115609719D01*
X161853220Y-115548528D01*
X161948528Y-115453220D01*
X161987818Y-115376109D01*
X161998801Y-115354555D01*
X162042065Y-115311290D01*
X162087010Y-115300500D01*
X165591142Y-115300500D01*
X165591144Y-115300500D01*
X165671171Y-115279057D01*
X210599499Y-115279057D01*
X210631943Y-115400138D01*
X210640423Y-115431784D01*
X210719480Y-115568716D01*
X210831284Y-115680520D01*
X210831285Y-115680520D01*
X210845210Y-115694445D01*
X211319478Y-116168715D01*
X211319480Y-116168718D01*
X211380060Y-116229297D01*
X211431283Y-116280520D01*
X211568215Y-116359577D01*
X211680018Y-116389534D01*
X211720941Y-116400500D01*
X214579055Y-116400500D01*
X214579057Y-116400500D01*
X214731784Y-116359577D01*
X214868716Y-116280520D01*
X214980520Y-116168716D01*
X215059577Y-116031784D01*
X215100500Y-115879057D01*
X215100500Y-115720943D01*
X215059577Y-115568216D01*
X214980520Y-115431284D01*
X214868716Y-115319480D01*
X214731784Y-115240423D01*
X214579057Y-115199500D01*
X214579055Y-115199500D01*
X212089741Y-115199500D01*
X212031550Y-115180593D01*
X212019737Y-115170503D01*
X211829496Y-114980261D01*
X211801719Y-114925745D01*
X211800500Y-114910258D01*
X211800500Y-102897644D01*
X230699500Y-102897644D01*
X230699500Y-103102355D01*
X230731521Y-103304529D01*
X230794780Y-103499219D01*
X230887712Y-103681609D01*
X230887714Y-103681613D01*
X231008029Y-103847213D01*
X231008031Y-103847215D01*
X231008034Y-103847219D01*
X231152781Y-103991966D01*
X231152784Y-103991968D01*
X231152786Y-103991970D01*
X231318386Y-104112285D01*
X231318390Y-104112287D01*
X231500781Y-104205220D01*
X231695466Y-104268477D01*
X231695467Y-104268477D01*
X231695470Y-104268478D01*
X231897645Y-104300500D01*
X231897648Y-104300500D01*
X232102355Y-104300500D01*
X232304529Y-104268478D01*
X232304530Y-104268477D01*
X232304534Y-104268477D01*
X232499219Y-104205220D01*
X232681610Y-104112287D01*
X232847219Y-103991966D01*
X232991966Y-103847219D01*
X233112287Y-103681610D01*
X233205220Y-103499219D01*
X233268477Y-103304534D01*
X233275476Y-103260346D01*
X233300500Y-103102355D01*
X233300500Y-102897644D01*
X233268478Y-102695470D01*
X233268477Y-102695466D01*
X233205220Y-102500781D01*
X233112287Y-102318390D01*
X233112285Y-102318386D01*
X232991970Y-102152786D01*
X232991968Y-102152784D01*
X232991966Y-102152781D01*
X232847219Y-102008034D01*
X232847215Y-102008031D01*
X232847213Y-102008029D01*
X232681613Y-101887714D01*
X232681609Y-101887712D01*
X232499219Y-101794780D01*
X232304529Y-101731521D01*
X232102355Y-101699500D01*
X232102352Y-101699500D01*
X231897648Y-101699500D01*
X231897645Y-101699500D01*
X231695470Y-101731521D01*
X231500780Y-101794780D01*
X231318390Y-101887712D01*
X231318386Y-101887714D01*
X231152786Y-102008029D01*
X231008029Y-102152786D01*
X230887714Y-102318386D01*
X230887712Y-102318390D01*
X230794780Y-102500780D01*
X230731521Y-102695470D01*
X230699500Y-102897644D01*
X211800500Y-102897644D01*
X211800500Y-102520944D01*
X211795532Y-102502402D01*
X211759577Y-102368216D01*
X211680520Y-102231284D01*
X211568716Y-102119480D01*
X211431784Y-102040423D01*
X211279057Y-101999500D01*
X211120943Y-101999500D01*
X210968216Y-102040423D01*
X210831284Y-102119480D01*
X210719480Y-102231284D01*
X210640423Y-102368216D01*
X210604903Y-102500781D01*
X210599500Y-102520944D01*
X210599500Y-115120943D01*
X210599500Y-115199500D01*
X210599499Y-115279057D01*
X165671171Y-115279057D01*
X165680288Y-115276614D01*
X165683629Y-115274685D01*
X165760212Y-115230470D01*
X166230469Y-114760213D01*
X166276614Y-114680288D01*
X166282173Y-114659540D01*
X166284596Y-114650500D01*
X166298261Y-114599500D01*
X166300500Y-114591144D01*
X166300500Y-114389881D01*
X166319407Y-114331690D01*
X166368907Y-114295726D01*
X166430093Y-114295726D01*
X166448999Y-114304144D01*
X166476114Y-114319799D01*
X166590691Y-114350500D01*
X166590693Y-114350500D01*
X166709307Y-114350500D01*
X166709309Y-114350500D01*
X166799179Y-114326419D01*
X166860277Y-114329620D01*
X166860327Y-114329640D01*
X166860340Y-114329645D01*
X167156728Y-114443640D01*
X167204253Y-114482176D01*
X167219342Y-114523118D01*
X167225932Y-114573174D01*
X167225932Y-114573175D01*
X167275933Y-114680401D01*
X167275934Y-114680402D01*
X167275935Y-114680404D01*
X167359596Y-114764065D01*
X167359597Y-114764065D01*
X167359598Y-114764066D01*
X167466824Y-114814067D01*
X167466825Y-114814067D01*
X167466827Y-114814068D01*
X167515684Y-114820500D01*
X167515685Y-114820500D01*
X167864314Y-114820500D01*
X167864316Y-114820500D01*
X167913173Y-114814068D01*
X168020404Y-114764065D01*
X168104065Y-114680404D01*
X168110275Y-114667085D01*
X168152003Y-114622337D01*
X168212064Y-114610662D01*
X168267517Y-114636519D01*
X168289725Y-114667086D01*
X168295879Y-114680285D01*
X168295935Y-114680404D01*
X168379596Y-114764065D01*
X168379597Y-114764065D01*
X168379598Y-114764066D01*
X168486824Y-114814067D01*
X168486825Y-114814067D01*
X168486827Y-114814068D01*
X168535684Y-114820500D01*
X168535685Y-114820500D01*
X168884314Y-114820500D01*
X168884316Y-114820500D01*
X168933173Y-114814068D01*
X169040404Y-114764065D01*
X169124065Y-114680404D01*
X169124065Y-114680402D01*
X169124972Y-114679496D01*
X169179489Y-114651719D01*
X169194976Y-114650500D01*
X169245642Y-114650500D01*
X169245644Y-114650500D01*
X169334788Y-114626614D01*
X169343364Y-114621662D01*
X169347651Y-114619188D01*
X169365619Y-114608813D01*
X169414712Y-114580470D01*
X169880470Y-114114712D01*
X169926614Y-114034788D01*
X169934902Y-114003856D01*
X169950500Y-113945644D01*
X169950500Y-111720441D01*
X169963764Y-111670940D01*
X169975565Y-111650500D01*
X170019799Y-111573886D01*
X170050500Y-111459309D01*
X170050500Y-111340691D01*
X170019799Y-111226114D01*
X170019797Y-111226111D01*
X170019797Y-111226109D01*
X169960492Y-111123391D01*
X169960490Y-111123389D01*
X169960489Y-111123387D01*
X169876613Y-111039511D01*
X169876610Y-111039509D01*
X169876608Y-111039507D01*
X169773889Y-110980202D01*
X169773890Y-110980202D01*
X169742802Y-110971872D01*
X169659309Y-110949500D01*
X169540691Y-110949500D01*
X169470567Y-110968289D01*
X169426109Y-110980202D01*
X169323391Y-111039507D01*
X169239507Y-111123391D01*
X169180202Y-111226109D01*
X169171307Y-111259307D01*
X169149500Y-111340691D01*
X169149500Y-111459309D01*
X169180201Y-111573886D01*
X169180202Y-111573888D01*
X169189801Y-111590513D01*
X169218429Y-111640099D01*
X169236236Y-111670940D01*
X169249500Y-111720441D01*
X169249500Y-113713310D01*
X169247031Y-113720907D01*
X169248281Y-113728798D01*
X169237757Y-113749451D01*
X169230593Y-113771501D01*
X169220503Y-113783314D01*
X169174121Y-113829695D01*
X169119604Y-113857472D01*
X169059172Y-113847900D01*
X169047336Y-113840788D01*
X169040404Y-113835934D01*
X168933175Y-113785932D01*
X168900601Y-113781644D01*
X168884316Y-113779500D01*
X168535684Y-113779500D01*
X168519398Y-113781644D01*
X168486825Y-113785932D01*
X168486824Y-113785932D01*
X168379598Y-113835933D01*
X168295933Y-113919598D01*
X168289724Y-113932915D01*
X168247995Y-113977663D01*
X168187934Y-113989337D01*
X168132482Y-113963478D01*
X168110276Y-113932915D01*
X168104066Y-113919598D01*
X168104065Y-113919597D01*
X168104065Y-113919596D01*
X168020404Y-113835935D01*
X168020402Y-113835934D01*
X168020401Y-113835933D01*
X167913175Y-113785932D01*
X167880601Y-113781644D01*
X167864316Y-113779500D01*
X167546609Y-113779500D01*
X167488418Y-113760593D01*
X167452454Y-113711093D01*
X167452454Y-113649907D01*
X167476605Y-113610496D01*
X167476610Y-113610490D01*
X167476613Y-113610489D01*
X167560489Y-113526613D01*
X167567379Y-113514680D01*
X167619797Y-113423890D01*
X167619797Y-113423888D01*
X167619799Y-113423886D01*
X167650500Y-113309309D01*
X167650500Y-113190691D01*
X167619799Y-113076114D01*
X167619797Y-113076111D01*
X167619797Y-113076109D01*
X167560492Y-112973391D01*
X167560490Y-112973389D01*
X167560489Y-112973387D01*
X167476613Y-112889511D01*
X167476610Y-112889509D01*
X167476608Y-112889507D01*
X167373889Y-112830202D01*
X167373890Y-112830202D01*
X167360351Y-112826574D01*
X167259309Y-112799500D01*
X167140691Y-112799500D01*
X167064306Y-112819967D01*
X167026113Y-112830201D01*
X167020521Y-112833429D01*
X167017640Y-112835093D01*
X166957792Y-112847811D01*
X166942772Y-112845047D01*
X166423295Y-112707307D01*
X166371894Y-112674117D01*
X166357722Y-112647122D01*
X166357174Y-112647378D01*
X166303225Y-112531686D01*
X166303224Y-112531685D01*
X166303224Y-112531684D01*
X166218316Y-112446776D01*
X166218314Y-112446775D01*
X166218313Y-112446774D01*
X166109489Y-112396029D01*
X166109488Y-112396028D01*
X166092958Y-112393852D01*
X166059901Y-112389500D01*
X166059899Y-112389500D01*
X165700104Y-112389500D01*
X165700092Y-112389501D01*
X165650513Y-112396027D01*
X165650511Y-112396027D01*
X165541686Y-112446774D01*
X165541684Y-112446775D01*
X165541684Y-112446776D01*
X165470001Y-112518458D01*
X165415487Y-112546234D01*
X165355055Y-112536663D01*
X165329999Y-112518459D01*
X165258316Y-112446776D01*
X165258314Y-112446775D01*
X165258313Y-112446774D01*
X165149489Y-112396029D01*
X165149488Y-112396028D01*
X165132958Y-112393852D01*
X165099901Y-112389500D01*
X165099899Y-112389500D01*
X164740104Y-112389500D01*
X164740092Y-112389501D01*
X164690515Y-112396027D01*
X164597458Y-112439420D01*
X164543030Y-112447891D01*
X164436911Y-112434286D01*
X164381597Y-112408133D01*
X164352219Y-112354461D01*
X164350500Y-112336090D01*
X164350500Y-110226889D01*
X164369349Y-110168779D01*
X164377786Y-110157142D01*
X164638652Y-109797326D01*
X164648789Y-109785445D01*
X164665520Y-109768716D01*
X164689465Y-109727240D01*
X164717575Y-109688469D01*
X164728831Y-109659056D01*
X164744577Y-109631784D01*
X164756971Y-109585525D01*
X164774089Y-109540799D01*
X164777349Y-109509476D01*
X164785500Y-109479057D01*
X164785500Y-109436305D01*
X164786032Y-109426055D01*
X164790458Y-109383533D01*
X164786734Y-109360172D01*
X164785500Y-109344588D01*
X164785500Y-103069326D01*
X164804407Y-103011135D01*
X164834996Y-102983592D01*
X164892314Y-102950500D01*
X164985500Y-102857314D01*
X165051392Y-102743186D01*
X165085500Y-102615892D01*
X165085500Y-102484108D01*
X165051392Y-102356814D01*
X165051390Y-102356811D01*
X165051390Y-102356809D01*
X164985503Y-102242690D01*
X164985501Y-102242688D01*
X164985500Y-102242686D01*
X164892314Y-102149500D01*
X164892311Y-102149498D01*
X164892309Y-102149496D01*
X164778189Y-102083609D01*
X164778191Y-102083609D01*
X164723884Y-102069058D01*
X164650892Y-102049500D01*
X164650890Y-102049500D01*
X164545636Y-102049500D01*
X164496137Y-102036237D01*
X164416784Y-101990423D01*
X164264057Y-101949500D01*
X164105943Y-101949500D01*
X163953216Y-101990423D01*
X163873862Y-102036237D01*
X163824364Y-102049500D01*
X163719108Y-102049500D01*
X163646116Y-102069058D01*
X163591809Y-102083609D01*
X163477690Y-102149496D01*
X163384496Y-102242690D01*
X163318609Y-102356809D01*
X163318608Y-102356814D01*
X163284500Y-102484108D01*
X163284500Y-102615892D01*
X163298729Y-102668995D01*
X163318609Y-102743190D01*
X163384496Y-102857309D01*
X163384498Y-102857311D01*
X163384500Y-102857314D01*
X163477686Y-102950500D01*
X163535002Y-102983591D01*
X163575941Y-103029059D01*
X163584500Y-103069326D01*
X163584500Y-109173109D01*
X163565651Y-109231219D01*
X163296351Y-109602664D01*
X163296352Y-109602665D01*
X163291749Y-109609014D01*
X163269480Y-109631284D01*
X163245534Y-109672758D01*
X163242518Y-109676919D01*
X163242515Y-109676920D01*
X163217429Y-109711525D01*
X163217421Y-109711538D01*
X163208969Y-109733622D01*
X163202250Y-109747728D01*
X163190424Y-109768212D01*
X163190423Y-109768215D01*
X163179355Y-109809514D01*
X163179356Y-109809515D01*
X163178025Y-109814480D01*
X163160911Y-109859201D01*
X163157649Y-109890523D01*
X163155621Y-109898096D01*
X163149500Y-109920942D01*
X163149500Y-109963694D01*
X163148968Y-109973943D01*
X163144541Y-110016466D01*
X163148265Y-110039819D01*
X163149500Y-110055406D01*
X163149500Y-111870943D01*
X163149500Y-112829057D01*
X163190423Y-112981784D01*
X163269480Y-113118716D01*
X163381284Y-113230520D01*
X163518216Y-113309577D01*
X163670943Y-113350500D01*
X163670945Y-113350500D01*
X163829055Y-113350500D01*
X163829057Y-113350500D01*
X163981784Y-113309577D01*
X164118716Y-113230520D01*
X164118721Y-113230514D01*
X164119236Y-113230120D01*
X164119681Y-113229962D01*
X164124336Y-113227275D01*
X164124833Y-113228136D01*
X164176909Y-113209687D01*
X164192092Y-113210456D01*
X164441695Y-113242456D01*
X164497008Y-113268609D01*
X164499075Y-113270615D01*
X164581684Y-113353224D01*
X164690513Y-113403972D01*
X164740099Y-113410500D01*
X165099900Y-113410499D01*
X165149487Y-113403972D01*
X165149488Y-113403972D01*
X165243358Y-113360199D01*
X165258316Y-113353224D01*
X165329998Y-113281541D01*
X165384513Y-113253766D01*
X165444945Y-113263337D01*
X165470000Y-113281540D01*
X165541684Y-113353224D01*
X165650513Y-113403972D01*
X165700099Y-113410500D01*
X165844071Y-113410499D01*
X165902261Y-113429406D01*
X165938225Y-113478906D01*
X165938226Y-113540091D01*
X165902262Y-113589591D01*
X165869695Y-113605125D01*
X165776114Y-113630200D01*
X165776110Y-113630202D01*
X165673391Y-113689507D01*
X165589507Y-113773391D01*
X165530202Y-113876109D01*
X165529243Y-113879688D01*
X165499500Y-113990691D01*
X165499500Y-114109309D01*
X165500948Y-114114712D01*
X165530202Y-114223890D01*
X165581978Y-114313567D01*
X165582540Y-114316210D01*
X165584451Y-114318122D01*
X165588850Y-114345895D01*
X165594700Y-114373415D01*
X165593600Y-114375885D01*
X165594023Y-114378554D01*
X165581257Y-114403608D01*
X165569814Y-114429311D01*
X165566246Y-114433070D01*
X165428814Y-114570503D01*
X165374297Y-114598281D01*
X165358810Y-114599500D01*
X162087010Y-114599500D01*
X162028819Y-114580593D01*
X161998801Y-114545445D01*
X161948529Y-114446782D01*
X161948528Y-114446780D01*
X161853220Y-114351472D01*
X161853217Y-114351470D01*
X161733132Y-114290283D01*
X161733127Y-114290281D01*
X161733126Y-114290281D01*
X161699913Y-114285020D01*
X161633490Y-114274500D01*
X161633488Y-114274500D01*
X161279186Y-114274500D01*
X161220995Y-114255593D01*
X161205871Y-114242027D01*
X160526185Y-113492985D01*
X160523905Y-113487917D01*
X160519407Y-113484649D01*
X160511533Y-113460416D01*
X160501083Y-113437186D01*
X160500500Y-113426458D01*
X160500500Y-113370441D01*
X160513764Y-113320940D01*
X160569799Y-113223886D01*
X160600500Y-113109309D01*
X160600500Y-112990691D01*
X160569799Y-112876114D01*
X160569797Y-112876111D01*
X160569797Y-112876109D01*
X160510492Y-112773391D01*
X160510490Y-112773389D01*
X160510489Y-112773387D01*
X160426613Y-112689511D01*
X160426610Y-112689509D01*
X160426608Y-112689507D01*
X160323891Y-112630203D01*
X160323888Y-112630202D01*
X160323886Y-112630201D01*
X160273507Y-112616702D01*
X160249918Y-112601382D01*
X160225560Y-112587319D01*
X160224460Y-112584849D01*
X160222195Y-112583378D01*
X160212118Y-112557127D01*
X160200675Y-112531423D01*
X160201237Y-112528778D01*
X160200269Y-112526257D01*
X160213396Y-112471577D01*
X160248950Y-112409996D01*
X160294421Y-112369057D01*
X160334686Y-112360499D01*
X160599897Y-112360499D01*
X160599900Y-112360499D01*
X160649487Y-112353972D01*
X160649488Y-112353972D01*
X160708137Y-112326622D01*
X160758316Y-112303224D01*
X160829998Y-112231541D01*
X160884513Y-112203766D01*
X160944945Y-112213337D01*
X160970000Y-112231540D01*
X161041684Y-112303224D01*
X161150513Y-112353972D01*
X161200099Y-112360500D01*
X161550500Y-112360499D01*
X161608691Y-112379406D01*
X161644655Y-112428906D01*
X161649500Y-112459499D01*
X161649500Y-112829057D01*
X161690423Y-112981784D01*
X161769480Y-113118716D01*
X161881284Y-113230520D01*
X162018216Y-113309577D01*
X162170943Y-113350500D01*
X162170945Y-113350500D01*
X162329055Y-113350500D01*
X162329057Y-113350500D01*
X162481784Y-113309577D01*
X162618716Y-113230520D01*
X162730520Y-113118716D01*
X162809577Y-112981784D01*
X162850500Y-112829057D01*
X162850500Y-111870943D01*
X162850500Y-110047567D01*
X162855458Y-110016467D01*
X162850500Y-109968832D01*
X162850500Y-109920943D01*
X162842349Y-109890523D01*
X162839089Y-109859201D01*
X162821971Y-109814474D01*
X162809577Y-109768216D01*
X162797749Y-109747729D01*
X162797749Y-109747728D01*
X162793829Y-109740939D01*
X162782575Y-109711531D01*
X162754468Y-109672763D01*
X162751897Y-109668310D01*
X162751896Y-109668309D01*
X162751896Y-109668308D01*
X162730524Y-109631289D01*
X162730521Y-109631286D01*
X162730520Y-109631284D01*
X162713785Y-109614549D01*
X162703654Y-109602676D01*
X162434347Y-109231217D01*
X162415500Y-109173109D01*
X162415500Y-103069326D01*
X162434407Y-103011135D01*
X162464996Y-102983592D01*
X162522314Y-102950500D01*
X162615500Y-102857314D01*
X162681392Y-102743186D01*
X162715500Y-102615892D01*
X162715500Y-102484108D01*
X162681392Y-102356814D01*
X162681390Y-102356811D01*
X162681390Y-102356809D01*
X162615503Y-102242690D01*
X162615501Y-102242688D01*
X162615500Y-102242686D01*
X162522314Y-102149500D01*
X162522311Y-102149498D01*
X162522309Y-102149496D01*
X162408189Y-102083609D01*
X162408191Y-102083609D01*
X162353884Y-102069058D01*
X162280892Y-102049500D01*
X162280890Y-102049500D01*
X162175636Y-102049500D01*
X162126137Y-102036237D01*
X162046784Y-101990423D01*
X161894057Y-101949500D01*
X161735943Y-101949500D01*
X161583216Y-101990423D01*
X161503862Y-102036237D01*
X161454364Y-102049500D01*
X161349108Y-102049500D01*
X161276116Y-102069058D01*
X161221809Y-102083609D01*
X161107690Y-102149496D01*
X161014496Y-102242690D01*
X160948609Y-102356809D01*
X160948608Y-102356814D01*
X160914500Y-102484108D01*
X160914500Y-102615892D01*
X160928729Y-102668995D01*
X160948609Y-102743190D01*
X161014496Y-102857309D01*
X161014498Y-102857311D01*
X161014500Y-102857314D01*
X161107686Y-102950500D01*
X161165002Y-102983591D01*
X161205941Y-103029059D01*
X161214500Y-103069326D01*
X161214500Y-109352432D01*
X161209542Y-109383533D01*
X161214500Y-109431167D01*
X161214500Y-109479057D01*
X161222650Y-109509476D01*
X161225911Y-109540799D01*
X161243024Y-109585516D01*
X161244355Y-109590481D01*
X161250807Y-109614556D01*
X161255423Y-109631784D01*
X161271168Y-109659056D01*
X161282425Y-109688469D01*
X161310530Y-109727234D01*
X161313092Y-109731672D01*
X161313099Y-109731683D01*
X161334480Y-109768716D01*
X161334482Y-109768718D01*
X161351208Y-109785445D01*
X161361354Y-109797337D01*
X161450967Y-109920940D01*
X161622217Y-110157147D01*
X161630651Y-110168779D01*
X161649500Y-110226889D01*
X161649500Y-111240500D01*
X161630593Y-111298691D01*
X161581093Y-111334655D01*
X161550500Y-111339500D01*
X161200104Y-111339500D01*
X161200092Y-111339501D01*
X161150513Y-111346027D01*
X161150511Y-111346027D01*
X161041686Y-111396774D01*
X161041684Y-111396775D01*
X161041684Y-111396776D01*
X160970001Y-111468458D01*
X160915487Y-111496234D01*
X160855055Y-111486663D01*
X160829999Y-111468459D01*
X160758316Y-111396776D01*
X160758314Y-111396775D01*
X160758313Y-111396774D01*
X160649489Y-111346029D01*
X160649488Y-111346028D01*
X160632958Y-111343852D01*
X160599901Y-111339500D01*
X160599899Y-111339500D01*
X160240104Y-111339500D01*
X160240092Y-111339501D01*
X160190513Y-111346027D01*
X160190511Y-111346027D01*
X160081686Y-111396774D01*
X159996774Y-111481686D01*
X159946029Y-111590510D01*
X159946028Y-111590511D01*
X159946028Y-111590513D01*
X159940000Y-111636305D01*
X159939500Y-111640100D01*
X159939500Y-111650500D01*
X159920593Y-111708691D01*
X159871093Y-111744655D01*
X159840500Y-111749500D01*
X159790691Y-111749500D01*
X159720567Y-111768289D01*
X159676109Y-111780202D01*
X159573391Y-111839507D01*
X159489507Y-111923391D01*
X159430202Y-112026109D01*
X159430201Y-112026114D01*
X159399500Y-112140691D01*
X159399500Y-112259309D01*
X159424865Y-112353971D01*
X159430202Y-112373890D01*
X159489507Y-112476608D01*
X159489509Y-112476610D01*
X159489511Y-112476613D01*
X159573387Y-112560489D01*
X159573389Y-112560490D01*
X159573391Y-112560492D01*
X159676110Y-112619797D01*
X159676111Y-112619797D01*
X159676114Y-112619799D01*
X159726489Y-112633297D01*
X159777803Y-112666620D01*
X159799730Y-112723741D01*
X159786603Y-112778423D01*
X159730201Y-112876112D01*
X159725625Y-112893190D01*
X159705180Y-112969495D01*
X159699945Y-112989031D01*
X159669514Y-113037910D01*
X159655696Y-113050002D01*
X159599453Y-113074094D01*
X159590500Y-113074500D01*
X152472772Y-113074500D01*
X152420725Y-113059714D01*
X152306357Y-112989031D01*
X152139574Y-112885953D01*
X152100015Y-112839278D01*
X152095446Y-112778264D01*
X152095971Y-112776207D01*
X152100500Y-112759309D01*
X152100500Y-112640691D01*
X152069799Y-112526114D01*
X152069797Y-112526111D01*
X152069797Y-112526109D01*
X152010492Y-112423391D01*
X152010490Y-112423389D01*
X152010489Y-112423387D01*
X151926613Y-112339511D01*
X151926610Y-112339509D01*
X151926608Y-112339507D01*
X151823889Y-112280202D01*
X151823890Y-112280202D01*
X151810351Y-112276574D01*
X151709309Y-112249500D01*
X151590691Y-112249500D01*
X151554084Y-112259309D01*
X151476109Y-112280202D01*
X151373391Y-112339507D01*
X151289507Y-112423391D01*
X151230202Y-112526109D01*
X151221891Y-112557127D01*
X151199500Y-112640691D01*
X143950500Y-112640691D01*
X143950500Y-111140691D01*
X151449500Y-111140691D01*
X151449500Y-111259309D01*
X151472737Y-111346029D01*
X151480202Y-111373890D01*
X151539507Y-111476608D01*
X151539509Y-111476610D01*
X151539511Y-111476613D01*
X151623387Y-111560489D01*
X151623389Y-111560490D01*
X151623391Y-111560492D01*
X151726110Y-111619797D01*
X151726111Y-111619797D01*
X151726114Y-111619799D01*
X151840691Y-111650500D01*
X151840693Y-111650500D01*
X151959307Y-111650500D01*
X151959309Y-111650500D01*
X152073886Y-111619799D01*
X152073888Y-111619797D01*
X152073890Y-111619797D01*
X152176608Y-111560492D01*
X152176608Y-111560491D01*
X152176613Y-111560489D01*
X152260489Y-111476613D01*
X152270481Y-111459307D01*
X152319797Y-111373890D01*
X152319797Y-111373888D01*
X152319799Y-111373886D01*
X152350500Y-111259309D01*
X152350500Y-111140691D01*
X152319799Y-111026114D01*
X152319797Y-111026111D01*
X152319797Y-111026109D01*
X152260492Y-110923391D01*
X152260486Y-110923384D01*
X152254493Y-110917390D01*
X152226718Y-110862872D01*
X152225500Y-110847390D01*
X152225500Y-110375835D01*
X152227968Y-110368237D01*
X152226719Y-110360348D01*
X152237243Y-110339692D01*
X152244407Y-110317644D01*
X152254496Y-110305831D01*
X152305831Y-110254496D01*
X152360348Y-110226719D01*
X152375835Y-110225500D01*
X159369050Y-110225500D01*
X159415763Y-110237213D01*
X159697215Y-110387841D01*
X159739597Y-110431968D01*
X159749500Y-110475126D01*
X159749500Y-110559309D01*
X159754003Y-110576114D01*
X159780202Y-110673890D01*
X159839507Y-110776608D01*
X159839509Y-110776610D01*
X159839511Y-110776613D01*
X159923387Y-110860489D01*
X159923389Y-110860490D01*
X159923391Y-110860492D01*
X160026110Y-110919797D01*
X160026111Y-110919797D01*
X160026114Y-110919799D01*
X160140691Y-110950500D01*
X160140693Y-110950500D01*
X160259307Y-110950500D01*
X160259309Y-110950500D01*
X160373886Y-110919799D01*
X160373888Y-110919797D01*
X160373890Y-110919797D01*
X160476608Y-110860492D01*
X160476608Y-110860491D01*
X160476613Y-110860489D01*
X160560489Y-110776613D01*
X160619799Y-110673886D01*
X160650500Y-110559309D01*
X160650500Y-110440691D01*
X160619799Y-110326114D01*
X160619797Y-110326111D01*
X160619797Y-110326109D01*
X160560492Y-110223391D01*
X160560490Y-110223389D01*
X160560489Y-110223387D01*
X160476613Y-110139511D01*
X160476610Y-110139509D01*
X160476608Y-110139507D01*
X160373889Y-110080202D01*
X160373883Y-110080199D01*
X160333781Y-110069454D01*
X160329795Y-110066865D01*
X160325044Y-110066674D01*
X160304463Y-110050414D01*
X160282467Y-110036130D01*
X160277033Y-110028744D01*
X160254605Y-109995103D01*
X160252908Y-109992467D01*
X160233894Y-109961855D01*
X160233892Y-109961853D01*
X160233891Y-109961851D01*
X160230544Y-109957768D01*
X160227063Y-109953791D01*
X160227062Y-109953789D01*
X160227059Y-109953786D01*
X160227057Y-109953784D01*
X160200010Y-109930015D01*
X160200007Y-109930013D01*
X160198807Y-109928958D01*
X160171372Y-109903235D01*
X160166683Y-109900725D01*
X160162684Y-109897211D01*
X160130403Y-109881250D01*
X160127570Y-109879792D01*
X159635107Y-109616234D01*
X159635107Y-109616233D01*
X159633672Y-109615465D01*
X159601138Y-109596682D01*
X159595998Y-109595304D01*
X159591307Y-109592794D01*
X159591303Y-109592792D01*
X159556228Y-109584594D01*
X159556228Y-109584595D01*
X159554678Y-109584232D01*
X159518353Y-109574500D01*
X159513033Y-109574500D01*
X159507851Y-109573289D01*
X159507850Y-109573289D01*
X159507846Y-109573288D01*
X159471835Y-109574449D01*
X159468648Y-109574500D01*
X152242853Y-109574500D01*
X152157147Y-109574500D01*
X152106478Y-109588076D01*
X152074356Y-109596683D01*
X152000142Y-109639531D01*
X151639531Y-110000142D01*
X151596683Y-110074356D01*
X151595117Y-110080201D01*
X151576901Y-110148185D01*
X151576900Y-110148187D01*
X151576900Y-110148188D01*
X151574500Y-110157142D01*
X151574500Y-110847390D01*
X151555593Y-110905581D01*
X151545507Y-110917390D01*
X151539513Y-110923384D01*
X151539507Y-110923391D01*
X151480202Y-111026109D01*
X151480067Y-111026613D01*
X151449500Y-111140691D01*
X143950500Y-111140691D01*
X143950500Y-107898321D01*
X143969407Y-107840130D01*
X143979490Y-107828323D01*
X144000500Y-107807314D01*
X144037813Y-107742686D01*
X144066390Y-107693190D01*
X144066390Y-107693188D01*
X144066392Y-107693186D01*
X144100500Y-107565892D01*
X144100500Y-107434108D01*
X144066392Y-107306814D01*
X144066390Y-107306811D01*
X144066390Y-107306809D01*
X144000503Y-107192690D01*
X144000501Y-107192688D01*
X144000500Y-107192686D01*
X143907314Y-107099500D01*
X143907311Y-107099498D01*
X143907309Y-107099496D01*
X143793189Y-107033609D01*
X143793191Y-107033609D01*
X143743799Y-107020375D01*
X143665892Y-106999500D01*
X143534108Y-106999500D01*
X143456200Y-107020375D01*
X143406809Y-107033609D01*
X143292690Y-107099496D01*
X143199496Y-107192690D01*
X143133610Y-107306808D01*
X143106366Y-107408483D01*
X143080743Y-107452862D01*
X142963103Y-107570503D01*
X142908586Y-107598281D01*
X142893099Y-107599500D01*
X128124500Y-107599500D01*
X128066309Y-107580593D01*
X128030345Y-107531093D01*
X128025500Y-107500500D01*
X128025500Y-105520441D01*
X128038764Y-105470940D01*
X128062285Y-105430201D01*
X128094799Y-105373886D01*
X128123806Y-105265629D01*
X128136710Y-105236868D01*
X128142269Y-105228412D01*
X128180470Y-105190212D01*
X128209061Y-105140691D01*
X128524500Y-105140691D01*
X128524500Y-105259309D01*
X128541805Y-105323890D01*
X128555202Y-105373890D01*
X128614507Y-105476608D01*
X128614509Y-105476610D01*
X128614511Y-105476613D01*
X128698387Y-105560489D01*
X128698389Y-105560490D01*
X128698391Y-105560492D01*
X128801110Y-105619797D01*
X128801111Y-105619797D01*
X128801114Y-105619799D01*
X128915691Y-105650500D01*
X128915693Y-105650500D01*
X129034307Y-105650500D01*
X129034309Y-105650500D01*
X129148886Y-105619799D01*
X129148888Y-105619797D01*
X129148890Y-105619797D01*
X129251608Y-105560492D01*
X129251608Y-105560491D01*
X129251613Y-105560489D01*
X129282607Y-105529495D01*
X129337124Y-105501719D01*
X129352610Y-105500500D01*
X130157180Y-105500500D01*
X130215371Y-105519407D01*
X130251335Y-105568907D01*
X130252797Y-105573843D01*
X130285578Y-105696181D01*
X130306107Y-105745743D01*
X130334819Y-105795474D01*
X130371938Y-105859765D01*
X130404584Y-105902309D01*
X130404587Y-105902312D01*
X130404591Y-105902317D01*
X130497683Y-105995409D01*
X130497687Y-105995412D01*
X130497690Y-105995415D01*
X130540234Y-106028061D01*
X130540238Y-106028063D01*
X130540243Y-106028067D01*
X130654257Y-106093893D01*
X130703819Y-106114422D01*
X130830986Y-106148497D01*
X130884174Y-106155500D01*
X130884175Y-106155500D01*
X131449999Y-106155500D01*
X131450000Y-106155500D01*
X131495728Y-106150348D01*
X131578127Y-106110666D01*
X131635149Y-106039163D01*
X131655500Y-105950000D01*
X131655500Y-104450000D01*
X131650348Y-104404272D01*
X131610666Y-104321873D01*
X131608066Y-104319799D01*
X131539162Y-104264850D01*
X131450000Y-104244500D01*
X130884174Y-104244500D01*
X130830991Y-104251502D01*
X130830988Y-104251502D01*
X130830986Y-104251503D01*
X130703819Y-104285578D01*
X130686298Y-104292835D01*
X130654260Y-104306105D01*
X130540234Y-104371938D01*
X130497690Y-104404584D01*
X130404584Y-104497690D01*
X130371938Y-104540234D01*
X130306105Y-104654260D01*
X130292835Y-104686298D01*
X130285578Y-104703819D01*
X130252805Y-104826125D01*
X130219483Y-104877437D01*
X130162361Y-104899364D01*
X130157180Y-104899500D01*
X129352610Y-104899500D01*
X129294419Y-104880593D01*
X129282607Y-104870505D01*
X129251613Y-104839511D01*
X129251610Y-104839509D01*
X129251609Y-104839508D01*
X129251608Y-104839507D01*
X129148889Y-104780202D01*
X129148890Y-104780202D01*
X129135351Y-104776574D01*
X129034309Y-104749500D01*
X128915691Y-104749500D01*
X128845567Y-104768289D01*
X128801109Y-104780202D01*
X128698391Y-104839507D01*
X128614507Y-104923391D01*
X128555202Y-105026109D01*
X128538037Y-105090169D01*
X128524500Y-105140691D01*
X128209061Y-105140691D01*
X128226614Y-105110288D01*
X128238826Y-105064712D01*
X128250500Y-105021144D01*
X128250500Y-103840691D01*
X143487000Y-103840691D01*
X143487000Y-103959309D01*
X143495752Y-103991970D01*
X143517702Y-104073890D01*
X143577007Y-104176608D01*
X143577009Y-104176610D01*
X143577011Y-104176613D01*
X143660887Y-104260489D01*
X143660889Y-104260490D01*
X143660891Y-104260492D01*
X143763610Y-104319797D01*
X143763611Y-104319797D01*
X143763614Y-104319799D01*
X143878191Y-104350500D01*
X143878193Y-104350500D01*
X143996807Y-104350500D01*
X143996809Y-104350500D01*
X144111386Y-104319799D01*
X144111388Y-104319797D01*
X144111390Y-104319797D01*
X144214108Y-104260492D01*
X144214108Y-104260491D01*
X144214113Y-104260489D01*
X144297989Y-104176613D01*
X144357299Y-104073886D01*
X144388000Y-103959309D01*
X144388000Y-103915477D01*
X144406907Y-103857286D01*
X144416990Y-103845480D01*
X144729176Y-103533294D01*
X144737598Y-103527654D01*
X144757064Y-103505406D01*
X144777960Y-103484511D01*
X144778178Y-103484132D01*
X144789409Y-103468440D01*
X145632060Y-102505410D01*
X145652960Y-102484511D01*
X145658027Y-102475734D01*
X145664701Y-102468107D01*
X145676295Y-102444527D01*
X145679389Y-102438733D01*
X145692521Y-102415989D01*
X145695144Y-102406197D01*
X145699616Y-102397105D01*
X145705349Y-102368114D01*
X145713000Y-102339562D01*
X145713000Y-102339122D01*
X145713860Y-102326102D01*
X145714272Y-102322992D01*
X145714966Y-102319486D01*
X145714889Y-102318340D01*
X145715621Y-102312828D01*
X145727442Y-102288106D01*
X145737571Y-102262633D01*
X145741891Y-102257891D01*
X145742017Y-102257629D01*
X145742241Y-102257507D01*
X145743746Y-102255855D01*
X145772989Y-102226613D01*
X145798319Y-102182741D01*
X145832297Y-102123890D01*
X145832298Y-102123887D01*
X145832299Y-102123886D01*
X145863000Y-102009309D01*
X145863000Y-101890691D01*
X145832299Y-101776114D01*
X145832297Y-101776111D01*
X145832297Y-101776109D01*
X145772992Y-101673391D01*
X145772990Y-101673389D01*
X145772989Y-101673387D01*
X145689113Y-101589511D01*
X145689110Y-101589509D01*
X145689108Y-101589507D01*
X145586389Y-101530202D01*
X145586390Y-101530202D01*
X145572851Y-101526574D01*
X145471809Y-101499500D01*
X145353191Y-101499500D01*
X145283067Y-101518289D01*
X145238609Y-101530202D01*
X145135891Y-101589507D01*
X145052007Y-101673391D01*
X144992702Y-101776109D01*
X144975537Y-101840169D01*
X144962000Y-101890691D01*
X144962000Y-102009309D01*
X144978010Y-102069058D01*
X144992701Y-102123887D01*
X145026681Y-102182741D01*
X145039402Y-102242589D01*
X145015449Y-102297433D01*
X144320108Y-103092109D01*
X144315607Y-103096920D01*
X143992026Y-103420503D01*
X143937509Y-103448281D01*
X143922022Y-103449500D01*
X143878191Y-103449500D01*
X143808067Y-103468289D01*
X143763609Y-103480202D01*
X143660891Y-103539507D01*
X143577007Y-103623391D01*
X143517702Y-103726109D01*
X143500537Y-103790169D01*
X143487000Y-103840691D01*
X128250500Y-103840691D01*
X128250500Y-103261203D01*
X128269407Y-103203012D01*
X128294500Y-103178887D01*
X128346539Y-103144116D01*
X128346538Y-103144116D01*
X128346542Y-103144114D01*
X128444114Y-103046542D01*
X128520775Y-102931811D01*
X128573580Y-102804328D01*
X128600500Y-102668993D01*
X128600500Y-102531007D01*
X128573580Y-102395672D01*
X128520775Y-102268189D01*
X128520774Y-102268187D01*
X128520771Y-102268182D01*
X128444114Y-102153458D01*
X128346541Y-102055885D01*
X128231817Y-101979228D01*
X128231806Y-101979222D01*
X128104328Y-101926420D01*
X127968995Y-101899500D01*
X127968993Y-101899500D01*
X127831007Y-101899500D01*
X127831004Y-101899500D01*
X127695672Y-101926420D01*
X127695670Y-101926420D01*
X127568193Y-101979222D01*
X127568182Y-101979228D01*
X127453458Y-102055885D01*
X127355885Y-102153458D01*
X127279228Y-102268182D01*
X127279222Y-102268193D01*
X127226420Y-102395670D01*
X127226420Y-102395672D01*
X127199500Y-102531004D01*
X127199500Y-102668995D01*
X127226420Y-102804327D01*
X127226420Y-102804329D01*
X127279222Y-102931806D01*
X127279228Y-102931817D01*
X127355885Y-103046541D01*
X127355893Y-103046550D01*
X127453460Y-103144116D01*
X127505500Y-103178887D01*
X127543380Y-103226936D01*
X127549500Y-103261203D01*
X127549500Y-104695107D01*
X127530593Y-104753298D01*
X127500001Y-104780843D01*
X127398389Y-104839509D01*
X127314507Y-104923391D01*
X127255202Y-105026109D01*
X127238037Y-105090169D01*
X127224500Y-105140691D01*
X127224500Y-105259309D01*
X127254904Y-105372776D01*
X127255202Y-105373888D01*
X127311236Y-105470940D01*
X127324500Y-105520441D01*
X127324500Y-107550500D01*
X127305593Y-107608691D01*
X127256093Y-107644655D01*
X127225500Y-107649500D01*
X123849500Y-107649500D01*
X123791309Y-107630593D01*
X123755345Y-107581093D01*
X123750500Y-107550500D01*
X123750500Y-105189478D01*
X123769407Y-105131287D01*
X123818907Y-105095323D01*
X123880093Y-105095323D01*
X123919504Y-105119474D01*
X124595504Y-105795474D01*
X124623281Y-105849991D01*
X124624500Y-105865478D01*
X124624500Y-105909309D01*
X124647571Y-105995409D01*
X124655202Y-106023890D01*
X124714507Y-106126608D01*
X124714509Y-106126610D01*
X124714511Y-106126613D01*
X124798387Y-106210489D01*
X124798389Y-106210490D01*
X124798391Y-106210492D01*
X124901110Y-106269797D01*
X124901111Y-106269797D01*
X124901114Y-106269799D01*
X125015691Y-106300500D01*
X125015693Y-106300500D01*
X125134307Y-106300500D01*
X125134309Y-106300500D01*
X125248886Y-106269799D01*
X125248888Y-106269797D01*
X125248890Y-106269797D01*
X125351608Y-106210492D01*
X125351608Y-106210491D01*
X125351613Y-106210489D01*
X125435489Y-106126613D01*
X125444697Y-106110665D01*
X125494797Y-106023890D01*
X125494797Y-106023888D01*
X125494799Y-106023886D01*
X125525500Y-105909309D01*
X125525500Y-105790691D01*
X125504132Y-105710945D01*
X125507334Y-105649847D01*
X125545839Y-105602297D01*
X125604940Y-105586461D01*
X125625378Y-105589698D01*
X125665691Y-105600500D01*
X125665692Y-105600500D01*
X125784307Y-105600500D01*
X125784309Y-105600500D01*
X125898886Y-105569799D01*
X125898888Y-105569797D01*
X125898890Y-105569797D01*
X126001608Y-105510492D01*
X126001608Y-105510491D01*
X126001613Y-105510489D01*
X126085489Y-105426613D01*
X126093430Y-105412859D01*
X126144797Y-105323890D01*
X126144797Y-105323888D01*
X126144799Y-105323886D01*
X126175500Y-105209309D01*
X126175500Y-105120895D01*
X126178874Y-105095271D01*
X126188658Y-105058754D01*
X126200500Y-105014562D01*
X126200500Y-103294612D01*
X126219407Y-103236421D01*
X126244495Y-103212299D01*
X126346542Y-103144114D01*
X126444114Y-103046542D01*
X126520775Y-102931811D01*
X126573580Y-102804328D01*
X126600500Y-102668993D01*
X126600500Y-102531007D01*
X126573580Y-102395672D01*
X126520775Y-102268189D01*
X126520774Y-102268187D01*
X126520771Y-102268182D01*
X126444114Y-102153458D01*
X126346541Y-102055885D01*
X126231817Y-101979228D01*
X126231806Y-101979222D01*
X126104328Y-101926420D01*
X125968995Y-101899500D01*
X125968993Y-101899500D01*
X125831007Y-101899500D01*
X125831004Y-101899500D01*
X125695672Y-101926420D01*
X125695670Y-101926420D01*
X125568193Y-101979222D01*
X125568182Y-101979228D01*
X125453458Y-102055885D01*
X125355885Y-102153458D01*
X125279228Y-102268182D01*
X125279222Y-102268193D01*
X125226420Y-102395670D01*
X125226420Y-102395672D01*
X125199500Y-102531004D01*
X125199500Y-102668995D01*
X125226420Y-102804327D01*
X125226420Y-102804329D01*
X125279222Y-102931806D01*
X125279228Y-102931817D01*
X125344204Y-103029059D01*
X125355886Y-103046542D01*
X125453458Y-103144114D01*
X125555502Y-103212298D01*
X125593381Y-103260346D01*
X125599500Y-103294612D01*
X125599500Y-104645107D01*
X125580593Y-104703298D01*
X125550001Y-104730843D01*
X125448389Y-104789509D01*
X125364507Y-104873391D01*
X125305202Y-104976109D01*
X125305201Y-104976114D01*
X125274500Y-105090691D01*
X125274500Y-105209309D01*
X125287897Y-105259307D01*
X125295867Y-105289051D01*
X125295662Y-105292959D01*
X125297537Y-105296392D01*
X125294078Y-105323177D01*
X125292664Y-105350153D01*
X125290201Y-105353193D01*
X125289701Y-105357073D01*
X125271158Y-105376710D01*
X125254159Y-105397703D01*
X125250379Y-105398715D01*
X125247694Y-105401560D01*
X125233367Y-105403273D01*
X125195058Y-105413538D01*
X125187561Y-105412859D01*
X125181006Y-105412012D01*
X125134309Y-105399500D01*
X125084112Y-105399500D01*
X125077801Y-105398685D01*
X125055629Y-105388176D01*
X125032289Y-105380593D01*
X125023137Y-105372776D01*
X125022511Y-105372480D01*
X125022267Y-105372033D01*
X125020476Y-105370504D01*
X124671105Y-105021133D01*
X124671095Y-105021121D01*
X124229497Y-104579524D01*
X124201719Y-104525007D01*
X124200500Y-104509520D01*
X124200500Y-103294612D01*
X124219407Y-103236421D01*
X124244495Y-103212299D01*
X124346542Y-103144114D01*
X124444114Y-103046542D01*
X124520775Y-102931811D01*
X124573580Y-102804328D01*
X124600500Y-102668993D01*
X124600500Y-102531007D01*
X124573580Y-102395672D01*
X124520775Y-102268189D01*
X124520774Y-102268187D01*
X124520771Y-102268182D01*
X124444114Y-102153458D01*
X124346541Y-102055885D01*
X124231817Y-101979228D01*
X124231806Y-101979222D01*
X124104328Y-101926420D01*
X123968995Y-101899500D01*
X123968993Y-101899500D01*
X123831007Y-101899500D01*
X123831004Y-101899500D01*
X123695672Y-101926420D01*
X123695670Y-101926420D01*
X123568193Y-101979222D01*
X123568182Y-101979228D01*
X123453458Y-102055885D01*
X123355885Y-102153458D01*
X123279228Y-102268182D01*
X123279222Y-102268193D01*
X123226420Y-102395670D01*
X123226420Y-102395672D01*
X123199500Y-102531004D01*
X123199500Y-102668995D01*
X123226420Y-102804327D01*
X123226420Y-102804329D01*
X123279222Y-102931806D01*
X123279228Y-102931817D01*
X123344204Y-103029059D01*
X123355886Y-103046542D01*
X123453458Y-103144114D01*
X123555502Y-103212298D01*
X123593381Y-103260346D01*
X123599500Y-103294612D01*
X123599500Y-103548044D01*
X123580593Y-103606235D01*
X123531093Y-103642199D01*
X123474881Y-103643672D01*
X123464537Y-103640900D01*
X123459309Y-103639500D01*
X123340691Y-103639500D01*
X123270567Y-103658289D01*
X123226109Y-103670202D01*
X123123391Y-103729507D01*
X123039507Y-103813391D01*
X122980202Y-103916109D01*
X122980201Y-103916114D01*
X122949500Y-104030691D01*
X122949500Y-104149309D01*
X122975007Y-104244500D01*
X122980202Y-104263888D01*
X123036236Y-104360940D01*
X123049500Y-104410441D01*
X123049500Y-107550500D01*
X123030593Y-107608691D01*
X122981093Y-107644655D01*
X122950500Y-107649500D01*
X122946144Y-107649500D01*
X122853856Y-107649500D01*
X122764712Y-107673386D01*
X122684788Y-107719530D01*
X122119530Y-108284788D01*
X122082169Y-108349500D01*
X122073386Y-108364712D01*
X122050399Y-108450503D01*
X122049500Y-108453857D01*
X122049500Y-108681290D01*
X122030593Y-108739481D01*
X121981093Y-108775445D01*
X121919907Y-108775445D01*
X121870407Y-108739481D01*
X121864764Y-108730791D01*
X121860490Y-108723389D01*
X121860489Y-108723387D01*
X121776613Y-108639511D01*
X121776610Y-108639509D01*
X121776608Y-108639507D01*
X121673889Y-108580202D01*
X121673890Y-108580202D01*
X121633602Y-108569407D01*
X121559309Y-108549500D01*
X121440691Y-108549500D01*
X121382893Y-108564987D01*
X121326109Y-108580202D01*
X121223391Y-108639507D01*
X121139507Y-108723391D01*
X121080202Y-108826109D01*
X121080201Y-108826114D01*
X121049500Y-108940691D01*
X121049500Y-109059309D01*
X121065606Y-109119418D01*
X121080202Y-109173890D01*
X121139507Y-109276608D01*
X121139509Y-109276610D01*
X121139511Y-109276613D01*
X121170505Y-109307607D01*
X121198281Y-109362122D01*
X121199500Y-109377609D01*
X121199500Y-111134521D01*
X121180593Y-111192712D01*
X121170504Y-111204525D01*
X120904525Y-111470504D01*
X120850008Y-111498281D01*
X120834521Y-111499500D01*
X109165479Y-111499500D01*
X109107288Y-111480593D01*
X109095475Y-111470504D01*
X108929496Y-111304525D01*
X108901719Y-111250008D01*
X108900500Y-111234521D01*
X108900500Y-109310437D01*
X108900499Y-109310435D01*
X108899942Y-109308358D01*
X108880021Y-109234011D01*
X108876124Y-109227262D01*
X108840460Y-109165489D01*
X108784511Y-109109539D01*
X108784511Y-109109540D01*
X108629496Y-108954525D01*
X108601719Y-108900008D01*
X108600500Y-108884521D01*
X108600500Y-108840692D01*
X108596594Y-108826114D01*
X108569799Y-108726114D01*
X108569797Y-108726111D01*
X108569797Y-108726109D01*
X108510492Y-108623391D01*
X108510490Y-108623389D01*
X108510489Y-108623387D01*
X108506603Y-108619501D01*
X108478828Y-108564987D01*
X108488399Y-108504555D01*
X108531664Y-108461290D01*
X108576609Y-108450500D01*
X110966160Y-108450500D01*
X111015658Y-108463763D01*
X111106814Y-108516392D01*
X111234108Y-108550500D01*
X111234110Y-108550500D01*
X111365890Y-108550500D01*
X111365892Y-108550500D01*
X111493186Y-108516392D01*
X111493188Y-108516390D01*
X111493190Y-108516390D01*
X111607309Y-108450503D01*
X111607309Y-108450502D01*
X111607314Y-108450500D01*
X111700500Y-108357314D01*
X111704434Y-108350500D01*
X111766390Y-108243190D01*
X111766390Y-108243188D01*
X111766392Y-108243186D01*
X111800500Y-108115892D01*
X111800500Y-107984108D01*
X111766392Y-107856814D01*
X111766390Y-107856811D01*
X111766390Y-107856809D01*
X111700503Y-107742690D01*
X111700501Y-107742688D01*
X111700500Y-107742686D01*
X111607314Y-107649500D01*
X111607311Y-107649498D01*
X111607309Y-107649496D01*
X111493189Y-107583609D01*
X111493191Y-107583609D01*
X111427068Y-107565892D01*
X111365892Y-107549500D01*
X111234108Y-107549500D01*
X111106814Y-107583608D01*
X111106813Y-107583608D01*
X111106811Y-107583609D01*
X111079288Y-107599500D01*
X111015658Y-107636236D01*
X110966160Y-107649500D01*
X108283840Y-107649500D01*
X108234341Y-107636236D01*
X108143186Y-107583608D01*
X108015892Y-107549500D01*
X107215892Y-107549500D01*
X107084107Y-107549500D01*
X106969529Y-107580201D01*
X106969528Y-107580200D01*
X106956811Y-107583608D01*
X106956810Y-107583609D01*
X106842690Y-107649496D01*
X106842684Y-107649500D01*
X106842685Y-107649501D01*
X106592686Y-107899500D01*
X106592685Y-107899499D01*
X106499500Y-107992685D01*
X106499496Y-107992690D01*
X106433609Y-108106809D01*
X106414539Y-108177978D01*
X106399500Y-108234108D01*
X100300500Y-108234108D01*
X100300500Y-107540817D01*
X104464500Y-107540817D01*
X104464500Y-107679183D01*
X104500312Y-107812836D01*
X104569495Y-107932665D01*
X104667335Y-108030505D01*
X104787164Y-108099688D01*
X104920817Y-108135500D01*
X104920819Y-108135500D01*
X105059181Y-108135500D01*
X105059183Y-108135500D01*
X105192836Y-108099688D01*
X105312665Y-108030505D01*
X105410505Y-107932665D01*
X105479688Y-107812836D01*
X105515500Y-107679183D01*
X105515500Y-107540817D01*
X105479688Y-107407164D01*
X105410505Y-107287335D01*
X105312665Y-107189495D01*
X105192836Y-107120312D01*
X105059183Y-107084500D01*
X104920817Y-107084500D01*
X104787164Y-107120312D01*
X104667335Y-107189495D01*
X104569495Y-107287335D01*
X104500312Y-107407164D01*
X104464500Y-107540817D01*
X100300500Y-107540817D01*
X100300500Y-103002773D01*
X100300656Y-102997222D01*
X100304329Y-102931811D01*
X100306310Y-102896532D01*
X101949500Y-102896532D01*
X101949500Y-103103467D01*
X101989869Y-103306418D01*
X102069058Y-103497597D01*
X102166662Y-103643672D01*
X102184023Y-103669655D01*
X102330345Y-103815977D01*
X102502402Y-103930941D01*
X102693580Y-104010130D01*
X102896535Y-104050500D01*
X102896536Y-104050500D01*
X103103464Y-104050500D01*
X103103465Y-104050500D01*
X103306420Y-104010130D01*
X103497598Y-103930941D01*
X103669655Y-103815977D01*
X103815977Y-103669655D01*
X103930941Y-103497598D01*
X104010130Y-103306420D01*
X104050500Y-103103465D01*
X104050500Y-102896535D01*
X104010130Y-102693580D01*
X103930941Y-102502402D01*
X103815977Y-102330345D01*
X103669655Y-102184023D01*
X103669651Y-102184020D01*
X103497597Y-102069058D01*
X103306418Y-101989869D01*
X103103467Y-101949500D01*
X103103465Y-101949500D01*
X102896535Y-101949500D01*
X102896532Y-101949500D01*
X102693581Y-101989869D01*
X102502402Y-102069058D01*
X102330348Y-102184020D01*
X102184020Y-102330348D01*
X102069058Y-102502402D01*
X101989869Y-102693581D01*
X101949500Y-102896532D01*
X100306310Y-102896532D01*
X100317162Y-102703296D01*
X100318405Y-102692270D01*
X100322361Y-102668991D01*
X100367251Y-102404780D01*
X100369720Y-102393964D01*
X100377138Y-102368216D01*
X100450450Y-102113742D01*
X100454108Y-102103286D01*
X100565710Y-101833857D01*
X100570524Y-101823862D01*
X100586597Y-101794780D01*
X100711582Y-101568636D01*
X100717474Y-101559257D01*
X100886245Y-101321398D01*
X100893130Y-101312764D01*
X101087475Y-101095293D01*
X101095293Y-101087475D01*
X101312764Y-100893130D01*
X101321398Y-100886245D01*
X101559257Y-100717474D01*
X101568636Y-100711582D01*
X101823868Y-100570520D01*
X101833857Y-100565710D01*
X102103286Y-100454108D01*
X102113742Y-100450450D01*
X102393970Y-100369718D01*
X102404780Y-100367251D01*
X102692277Y-100318404D01*
X102703296Y-100317162D01*
X102997222Y-100300655D01*
X103002773Y-100300500D01*
X103047594Y-100300500D01*
X231952405Y-100300500D01*
X231997227Y-100300500D01*
X232002777Y-100300655D01*
G37*
%TD.AperFunction*%
%TD*%
M02*
