%TF.GenerationSoftware,KiCad,Pcbnew,10.0.1*%
%TF.CreationDate,2026-10-03T00:28:51+02:00*%
%TF.ProjectId,led_board,6c65645f-626f-4617-9264-2e6b69636164,rev?*%
%TF.SameCoordinates,Original*%
%TF.FileFunction,Legend,Bot*%
%TF.FilePolarity,Positive*%
%FSLAX46Y46*%
G04 Gerber Fmt 4.6, Leading zero omitted, Abs format (unit mm)*
G04 Created by KiCad (PCBNEW 10.0.1) date 2026-10-03 00:28:51*
%MOMM*%
%LPD*%
G01*
G04 APERTURE LIST*
%ADD10C,0.200000*%
%ADD11C,0.120000*%
G04 APERTURE END LIST*
D10*
X107478571Y-108930457D02*
X107535714Y-108987600D01*
X107535714Y-108987600D02*
X107707142Y-109044742D01*
X107707142Y-109044742D02*
X107821428Y-109044742D01*
X107821428Y-109044742D02*
X107992857Y-108987600D01*
X107992857Y-108987600D02*
X108107142Y-108873314D01*
X108107142Y-108873314D02*
X108164285Y-108759028D01*
X108164285Y-108759028D02*
X108221428Y-108530457D01*
X108221428Y-108530457D02*
X108221428Y-108359028D01*
X108221428Y-108359028D02*
X108164285Y-108130457D01*
X108164285Y-108130457D02*
X108107142Y-108016171D01*
X108107142Y-108016171D02*
X107992857Y-107901885D01*
X107992857Y-107901885D02*
X107821428Y-107844742D01*
X107821428Y-107844742D02*
X107707142Y-107844742D01*
X107707142Y-107844742D02*
X107535714Y-107901885D01*
X107535714Y-107901885D02*
X107478571Y-107959028D01*
X111764285Y-108416171D02*
X111592857Y-108473314D01*
X111592857Y-108473314D02*
X111535714Y-108530457D01*
X111535714Y-108530457D02*
X111478571Y-108644742D01*
X111478571Y-108644742D02*
X111478571Y-108816171D01*
X111478571Y-108816171D02*
X111535714Y-108930457D01*
X111535714Y-108930457D02*
X111592857Y-108987600D01*
X111592857Y-108987600D02*
X111707142Y-109044742D01*
X111707142Y-109044742D02*
X112164285Y-109044742D01*
X112164285Y-109044742D02*
X112164285Y-107844742D01*
X112164285Y-107844742D02*
X111764285Y-107844742D01*
X111764285Y-107844742D02*
X111650000Y-107901885D01*
X111650000Y-107901885D02*
X111592857Y-107959028D01*
X111592857Y-107959028D02*
X111535714Y-108073314D01*
X111535714Y-108073314D02*
X111535714Y-108187600D01*
X111535714Y-108187600D02*
X111592857Y-108301885D01*
X111592857Y-108301885D02*
X111650000Y-108359028D01*
X111650000Y-108359028D02*
X111764285Y-108416171D01*
X111764285Y-108416171D02*
X112164285Y-108416171D01*
X116135713Y-108701885D02*
X115564285Y-108701885D01*
X116249999Y-109044742D02*
X115849999Y-107844742D01*
X115849999Y-107844742D02*
X115449999Y-109044742D01*
%TO.C,TP15*%
D11*
X107050000Y-108500000D02*
G75*
G02*
X105150000Y-108500000I-950000J0D01*
G01*
X105150000Y-108500000D02*
G75*
G02*
X107050000Y-108500000I950000J0D01*
G01*
%TO.C,TP14*%
X111050000Y-108500000D02*
G75*
G02*
X109150000Y-108500000I-950000J0D01*
G01*
X109150000Y-108500000D02*
G75*
G02*
X111050000Y-108500000I950000J0D01*
G01*
%TO.C,TP13*%
X115050000Y-108500000D02*
G75*
G02*
X113150000Y-108500000I-950000J0D01*
G01*
X113150000Y-108500000D02*
G75*
G02*
X115050000Y-108500000I950000J0D01*
G01*
%TD*%
M02*
