%TF.GenerationSoftware,KiCad,Pcbnew,10.0.1*%
%TF.CreationDate,2026-10-03T00:28:51+02:00*%
%TF.ProjectId,led_board,6c65645f-626f-4617-9264-2e6b69636164,rev?*%
%TF.SameCoordinates,Original*%
%TF.FileFunction,Legend,Top*%
%TF.FilePolarity,Positive*%
%FSLAX46Y46*%
G04 Gerber Fmt 4.6, Leading zero omitted, Abs format (unit mm)*
G04 Created by KiCad (PCBNEW 10.0.1) date 2026-10-03 00:28:51*
%MOMM*%
%LPD*%
G01*
G04 APERTURE LIST*
%ADD10C,0.150000*%
%ADD11C,0.000000*%
%ADD12C,0.120000*%
G04 APERTURE END LIST*
D10*
X103038095Y-101557200D02*
X103180952Y-101604819D01*
X103180952Y-101604819D02*
X103419047Y-101604819D01*
X103419047Y-101604819D02*
X103514285Y-101557200D01*
X103514285Y-101557200D02*
X103561904Y-101509580D01*
X103561904Y-101509580D02*
X103609523Y-101414342D01*
X103609523Y-101414342D02*
X103609523Y-101319104D01*
X103609523Y-101319104D02*
X103561904Y-101223866D01*
X103561904Y-101223866D02*
X103514285Y-101176247D01*
X103514285Y-101176247D02*
X103419047Y-101128628D01*
X103419047Y-101128628D02*
X103228571Y-101081009D01*
X103228571Y-101081009D02*
X103133333Y-101033390D01*
X103133333Y-101033390D02*
X103085714Y-100985771D01*
X103085714Y-100985771D02*
X103038095Y-100890533D01*
X103038095Y-100890533D02*
X103038095Y-100795295D01*
X103038095Y-100795295D02*
X103085714Y-100700057D01*
X103085714Y-100700057D02*
X103133333Y-100652438D01*
X103133333Y-100652438D02*
X103228571Y-100604819D01*
X103228571Y-100604819D02*
X103466666Y-100604819D01*
X103466666Y-100604819D02*
X103609523Y-100652438D01*
X104561904Y-101604819D02*
X103990476Y-101604819D01*
X104276190Y-101604819D02*
X104276190Y-100604819D01*
X104276190Y-100604819D02*
X104180952Y-100747676D01*
X104180952Y-100747676D02*
X104085714Y-100842914D01*
X104085714Y-100842914D02*
X103990476Y-100890533D01*
X110438095Y-105507200D02*
X110580952Y-105554819D01*
X110580952Y-105554819D02*
X110819047Y-105554819D01*
X110819047Y-105554819D02*
X110914285Y-105507200D01*
X110914285Y-105507200D02*
X110961904Y-105459580D01*
X110961904Y-105459580D02*
X111009523Y-105364342D01*
X111009523Y-105364342D02*
X111009523Y-105269104D01*
X111009523Y-105269104D02*
X110961904Y-105173866D01*
X110961904Y-105173866D02*
X110914285Y-105126247D01*
X110914285Y-105126247D02*
X110819047Y-105078628D01*
X110819047Y-105078628D02*
X110628571Y-105031009D01*
X110628571Y-105031009D02*
X110533333Y-104983390D01*
X110533333Y-104983390D02*
X110485714Y-104935771D01*
X110485714Y-104935771D02*
X110438095Y-104840533D01*
X110438095Y-104840533D02*
X110438095Y-104745295D01*
X110438095Y-104745295D02*
X110485714Y-104650057D01*
X110485714Y-104650057D02*
X110533333Y-104602438D01*
X110533333Y-104602438D02*
X110628571Y-104554819D01*
X110628571Y-104554819D02*
X110866666Y-104554819D01*
X110866666Y-104554819D02*
X111009523Y-104602438D01*
X111390476Y-104650057D02*
X111438095Y-104602438D01*
X111438095Y-104602438D02*
X111533333Y-104554819D01*
X111533333Y-104554819D02*
X111771428Y-104554819D01*
X111771428Y-104554819D02*
X111866666Y-104602438D01*
X111866666Y-104602438D02*
X111914285Y-104650057D01*
X111914285Y-104650057D02*
X111961904Y-104745295D01*
X111961904Y-104745295D02*
X111961904Y-104840533D01*
X111961904Y-104840533D02*
X111914285Y-104983390D01*
X111914285Y-104983390D02*
X111342857Y-105554819D01*
X111342857Y-105554819D02*
X111961904Y-105554819D01*
X115038095Y-101707200D02*
X115180952Y-101754819D01*
X115180952Y-101754819D02*
X115419047Y-101754819D01*
X115419047Y-101754819D02*
X115514285Y-101707200D01*
X115514285Y-101707200D02*
X115561904Y-101659580D01*
X115561904Y-101659580D02*
X115609523Y-101564342D01*
X115609523Y-101564342D02*
X115609523Y-101469104D01*
X115609523Y-101469104D02*
X115561904Y-101373866D01*
X115561904Y-101373866D02*
X115514285Y-101326247D01*
X115514285Y-101326247D02*
X115419047Y-101278628D01*
X115419047Y-101278628D02*
X115228571Y-101231009D01*
X115228571Y-101231009D02*
X115133333Y-101183390D01*
X115133333Y-101183390D02*
X115085714Y-101135771D01*
X115085714Y-101135771D02*
X115038095Y-101040533D01*
X115038095Y-101040533D02*
X115038095Y-100945295D01*
X115038095Y-100945295D02*
X115085714Y-100850057D01*
X115085714Y-100850057D02*
X115133333Y-100802438D01*
X115133333Y-100802438D02*
X115228571Y-100754819D01*
X115228571Y-100754819D02*
X115466666Y-100754819D01*
X115466666Y-100754819D02*
X115609523Y-100802438D01*
X115942857Y-100754819D02*
X116561904Y-100754819D01*
X116561904Y-100754819D02*
X116228571Y-101135771D01*
X116228571Y-101135771D02*
X116371428Y-101135771D01*
X116371428Y-101135771D02*
X116466666Y-101183390D01*
X116466666Y-101183390D02*
X116514285Y-101231009D01*
X116514285Y-101231009D02*
X116561904Y-101326247D01*
X116561904Y-101326247D02*
X116561904Y-101564342D01*
X116561904Y-101564342D02*
X116514285Y-101659580D01*
X116514285Y-101659580D02*
X116466666Y-101707200D01*
X116466666Y-101707200D02*
X116371428Y-101754819D01*
X116371428Y-101754819D02*
X116085714Y-101754819D01*
X116085714Y-101754819D02*
X115990476Y-101707200D01*
X115990476Y-101707200D02*
X115942857Y-101659580D01*
D11*
%TO.C,LOGO\u002A*%
G36*
X114234084Y-107669431D02*
G01*
X114274445Y-107680466D01*
X114308981Y-107693399D01*
X114342004Y-107709161D01*
X114375251Y-107728959D01*
X114410464Y-107753998D01*
X114449380Y-107785484D01*
X114493740Y-107824625D01*
X114527927Y-107856252D01*
X114588436Y-107909101D01*
X114645445Y-107950632D01*
X114699965Y-107981498D01*
X114753009Y-108002354D01*
X114754788Y-108002892D01*
X114774917Y-108010336D01*
X114788274Y-108017966D01*
X114793382Y-108024400D01*
X114788765Y-108028259D01*
X114782485Y-108028791D01*
X114767071Y-108031335D01*
X114743290Y-108038202D01*
X114714346Y-108048244D01*
X114683437Y-108060312D01*
X114653767Y-108073258D01*
X114640075Y-108079864D01*
X114622987Y-108089355D01*
X114597369Y-108104760D01*
X114565269Y-108124792D01*
X114528733Y-108148161D01*
X114489808Y-108173578D01*
X114464131Y-108190631D01*
X114423598Y-108217274D01*
X114382980Y-108243133D01*
X114344595Y-108266795D01*
X114310762Y-108286846D01*
X114283797Y-108301870D01*
X114272191Y-108307737D01*
X114218333Y-108330118D01*
X114162938Y-108347514D01*
X114108696Y-108359395D01*
X114058301Y-108365233D01*
X114014444Y-108364499D01*
X113997078Y-108361782D01*
X113974140Y-108355647D01*
X113949282Y-108347312D01*
X113943811Y-108345201D01*
X113927467Y-108338051D01*
X113921300Y-108332765D01*
X113923380Y-108327069D01*
X113926021Y-108324234D01*
X113939421Y-108317535D01*
X113962514Y-108315568D01*
X113969691Y-108315758D01*
X114014071Y-108312538D01*
X114066308Y-108299569D01*
X114121600Y-108278848D01*
X114143165Y-108268205D01*
X114172282Y-108251809D01*
X114206159Y-108231436D01*
X114242004Y-108208864D01*
X114277023Y-108185870D01*
X114308424Y-108164230D01*
X114333414Y-108145723D01*
X114342674Y-108138164D01*
X114354847Y-108128726D01*
X114375253Y-108114015D01*
X114401420Y-108095768D01*
X114430877Y-108075724D01*
X114443111Y-108067536D01*
X114524250Y-108013510D01*
X114494190Y-107993223D01*
X114479361Y-107981330D01*
X114458439Y-107962013D01*
X114433718Y-107937514D01*
X114407493Y-107910072D01*
X114394482Y-107895892D01*
X114345626Y-107844320D01*
X114301078Y-107803037D01*
X114259145Y-107771031D01*
X114218131Y-107747292D01*
X114176341Y-107730810D01*
X114132078Y-107720572D01*
X114093048Y-107716150D01*
X114061082Y-107712862D01*
X114041752Y-107708250D01*
X114034943Y-107702084D01*
X114040542Y-107694136D01*
X114058433Y-107684177D01*
X114073854Y-107677607D01*
X114122464Y-107664667D01*
X114176587Y-107661952D01*
X114234084Y-107669431D01*
G37*
G36*
X105642809Y-107665875D02*
G01*
X105683305Y-107676220D01*
X105709477Y-107687010D01*
X105722263Y-107696044D01*
X105722554Y-107703307D01*
X105710544Y-107708672D01*
X105686429Y-107712011D01*
X105670163Y-107712871D01*
X105640208Y-107714849D01*
X105608850Y-107718422D01*
X105588548Y-107721757D01*
X105563319Y-107729046D01*
X105530398Y-107741767D01*
X105492865Y-107758447D01*
X105453801Y-107777614D01*
X105416287Y-107797796D01*
X105383406Y-107817522D01*
X105371545Y-107825436D01*
X105351697Y-107839238D01*
X105324519Y-107858148D01*
X105293180Y-107879959D01*
X105260852Y-107902466D01*
X105251378Y-107909062D01*
X105219248Y-107931018D01*
X105186877Y-107952410D01*
X105157486Y-107971159D01*
X105134296Y-107985181D01*
X105128938Y-107988205D01*
X105107828Y-107999997D01*
X105096415Y-108007514D01*
X105093168Y-108012613D01*
X105096554Y-108017153D01*
X105101951Y-108020928D01*
X105142775Y-108055032D01*
X105180024Y-108100764D01*
X105214020Y-108158524D01*
X105216756Y-108163972D01*
X105244749Y-108209247D01*
X105279928Y-108248513D01*
X105320367Y-108280590D01*
X105364139Y-108304298D01*
X105409317Y-108318455D01*
X105453976Y-108321882D01*
X105471296Y-108319978D01*
X105488885Y-108318121D01*
X105497982Y-108320854D01*
X105501389Y-108326167D01*
X105502351Y-108336900D01*
X105494840Y-108345426D01*
X105477310Y-108352844D01*
X105455799Y-108358543D01*
X105411379Y-108366673D01*
X105368148Y-108370601D01*
X105330213Y-108370069D01*
X105311912Y-108367546D01*
X105277675Y-108357269D01*
X105239304Y-108340632D01*
X105201204Y-108319974D01*
X105167780Y-108297631D01*
X105147632Y-108280380D01*
X105131561Y-108263026D01*
X105110569Y-108238611D01*
X105087353Y-108210352D01*
X105064613Y-108181465D01*
X105064207Y-108180936D01*
X105041758Y-108153019D01*
X105018799Y-108126761D01*
X104997941Y-108105012D01*
X104981793Y-108090624D01*
X104981033Y-108090059D01*
X104947253Y-108069168D01*
X104907936Y-108050815D01*
X104868254Y-108037133D01*
X104836970Y-108030632D01*
X104819536Y-108027384D01*
X104809273Y-108023146D01*
X104808002Y-108020703D01*
X104814570Y-108015986D01*
X104830510Y-108008435D01*
X104853063Y-107999290D01*
X104867870Y-107993820D01*
X104905516Y-107979465D01*
X104943218Y-107963051D01*
X104982692Y-107943647D01*
X105025654Y-107920324D01*
X105073819Y-107892152D01*
X105128902Y-107858202D01*
X105190252Y-107819072D01*
X105256771Y-107777282D01*
X105315374Y-107743164D01*
X105367785Y-107715975D01*
X105415731Y-107694975D01*
X105460938Y-107679425D01*
X105505133Y-107668584D01*
X105550041Y-107661712D01*
X105559505Y-107660725D01*
X105599706Y-107660388D01*
X105642809Y-107665875D01*
G37*
G36*
X111863619Y-107194683D02*
G01*
X111961958Y-107211923D01*
X112055042Y-107237404D01*
X112141826Y-107270738D01*
X112221267Y-107311535D01*
X112292320Y-107359408D01*
X112353940Y-107413968D01*
X112395534Y-107461896D01*
X112441374Y-107530980D01*
X112475858Y-107603786D01*
X112499211Y-107681161D01*
X112511653Y-107763948D01*
X112513408Y-107852995D01*
X112510474Y-107898717D01*
X112494933Y-108003379D01*
X112467323Y-108104026D01*
X112427600Y-108200750D01*
X112375719Y-108293642D01*
X112311636Y-108382795D01*
X112235306Y-108468300D01*
X112233366Y-108470265D01*
X112157714Y-108539795D01*
X112077712Y-108599490D01*
X111992306Y-108649822D01*
X111900444Y-108691262D01*
X111801074Y-108724281D01*
X111693141Y-108749350D01*
X111575594Y-108766941D01*
X111569043Y-108767677D01*
X111540912Y-108770307D01*
X111507702Y-108772465D01*
X111468200Y-108774183D01*
X111421191Y-108775491D01*
X111365461Y-108776421D01*
X111299799Y-108777003D01*
X111222989Y-108777269D01*
X111192716Y-108777294D01*
X110902762Y-108777355D01*
X110904807Y-108762960D01*
X110910739Y-108751300D01*
X110926284Y-108742573D01*
X110932443Y-108740458D01*
X110951600Y-108733310D01*
X110976448Y-108722620D01*
X110999622Y-108711667D01*
X111022775Y-108699245D01*
X111038227Y-108687572D01*
X111050165Y-108672662D01*
X111061678Y-108652594D01*
X111072496Y-108630831D01*
X111086104Y-108601307D01*
X111100630Y-108568178D01*
X111112160Y-108540630D01*
X111145928Y-108457876D01*
X111175361Y-108385824D01*
X111200933Y-108323318D01*
X111223119Y-108269201D01*
X111242394Y-108222318D01*
X111259234Y-108181514D01*
X111274114Y-108145632D01*
X111287508Y-108113516D01*
X111297551Y-108089572D01*
X111315665Y-108046340D01*
X111336221Y-107997023D01*
X111356850Y-107947320D01*
X111375181Y-107902929D01*
X111377359Y-107897632D01*
X111395005Y-107854750D01*
X111415011Y-107806207D01*
X111435083Y-107757566D01*
X111452927Y-107714390D01*
X111455202Y-107708892D01*
X111477250Y-107653995D01*
X111493599Y-107609647D01*
X111504188Y-107576044D01*
X111508953Y-107553383D01*
X111507970Y-107542072D01*
X111499915Y-107535802D01*
X111484649Y-107527999D01*
X111478927Y-107525585D01*
X111465613Y-107519824D01*
X111457042Y-107514482D01*
X111454097Y-107508994D01*
X111457663Y-107502797D01*
X111468625Y-107495328D01*
X111487867Y-107486022D01*
X111516275Y-107474318D01*
X111554732Y-107459651D01*
X111604124Y-107441457D01*
X111620226Y-107435584D01*
X111673146Y-107416430D01*
X111720304Y-107399610D01*
X111760520Y-107385532D01*
X111792610Y-107374601D01*
X111815396Y-107367225D01*
X111827694Y-107363811D01*
X111829061Y-107363622D01*
X111830435Y-107368914D01*
X111826606Y-107385127D01*
X111817524Y-107412408D01*
X111803139Y-107450902D01*
X111783399Y-107500755D01*
X111770292Y-107532947D01*
X111760394Y-107557235D01*
X111746967Y-107590425D01*
X111731213Y-107629531D01*
X111714334Y-107671567D01*
X111697535Y-107713546D01*
X111696838Y-107715290D01*
X111678029Y-107762123D01*
X111656123Y-107816244D01*
X111632958Y-107873135D01*
X111610374Y-107928276D01*
X111591348Y-107974408D01*
X111571638Y-108022135D01*
X111550213Y-108074282D01*
X111528723Y-108126809D01*
X111508822Y-108175679D01*
X111492161Y-108216854D01*
X111491888Y-108217531D01*
X111475083Y-108258974D01*
X111454995Y-108308048D01*
X111433335Y-108360603D01*
X111411811Y-108412490D01*
X111393018Y-108457456D01*
X111367879Y-108517361D01*
X111347289Y-108566556D01*
X111330827Y-108606124D01*
X111318072Y-108637147D01*
X111308602Y-108660705D01*
X111301995Y-108677881D01*
X111297830Y-108689756D01*
X111295685Y-108697412D01*
X111295139Y-108701931D01*
X111295770Y-108704394D01*
X111296448Y-108705246D01*
X111306417Y-108708696D01*
X111326602Y-108710994D01*
X111354476Y-108712155D01*
X111387514Y-108712194D01*
X111423187Y-108711128D01*
X111458970Y-108708971D01*
X111492336Y-108705740D01*
X111505741Y-108703961D01*
X111607961Y-108682894D01*
X111704397Y-108650494D01*
X111795137Y-108606705D01*
X111880269Y-108551471D01*
X111959880Y-108484736D01*
X112034059Y-108406445D01*
X112093693Y-108329662D01*
X112148652Y-108244775D01*
X112194710Y-108157795D01*
X112231767Y-108069722D01*
X112259718Y-107981557D01*
X112278463Y-107894298D01*
X112287898Y-107808946D01*
X112287921Y-107726500D01*
X112278430Y-107647960D01*
X112259323Y-107574327D01*
X112230497Y-107506601D01*
X112191850Y-107445780D01*
X112185053Y-107437132D01*
X112133544Y-107383488D01*
X112073145Y-107338694D01*
X112004374Y-107302929D01*
X111927750Y-107276370D01*
X111843790Y-107259193D01*
X111753012Y-107251576D01*
X111655935Y-107253697D01*
X111650343Y-107254106D01*
X111549571Y-107266872D01*
X111454757Y-107289262D01*
X111366753Y-107320922D01*
X111286413Y-107361501D01*
X111214588Y-107410645D01*
X111164685Y-107455037D01*
X111107863Y-107518475D01*
X111063475Y-107582972D01*
X111031161Y-107649264D01*
X111010563Y-107718083D01*
X111001366Y-107789318D01*
X111000672Y-107837406D01*
X111004679Y-107876043D01*
X111014209Y-107907973D01*
X111030090Y-107935940D01*
X111053146Y-107962687D01*
X111053669Y-107963212D01*
X111072881Y-107981371D01*
X111087451Y-107991794D01*
X111100933Y-107996574D01*
X111112212Y-107997707D01*
X111132933Y-107998495D01*
X111150713Y-107999230D01*
X111152410Y-107999306D01*
X111167229Y-108004147D01*
X111174589Y-108010909D01*
X111177495Y-108020788D01*
X111171724Y-108031880D01*
X111166391Y-108037939D01*
X111138961Y-108058065D01*
X111101264Y-108070905D01*
X111053159Y-108076501D01*
X111038010Y-108076776D01*
X111009500Y-108076258D01*
X110989154Y-108074049D01*
X110972363Y-108069162D01*
X110954513Y-108060612D01*
X110949466Y-108057853D01*
X110906028Y-108026775D01*
X110870146Y-107986737D01*
X110843977Y-107940263D01*
X110839672Y-107929246D01*
X110827833Y-107881535D01*
X110823337Y-107827118D01*
X110826135Y-107769733D01*
X110836180Y-107713119D01*
X110842793Y-107689698D01*
X110874132Y-107612049D01*
X110916700Y-107539425D01*
X110969779Y-107472271D01*
X111032649Y-107411031D01*
X111104591Y-107356151D01*
X111184886Y-107308077D01*
X111272815Y-107267254D01*
X111367659Y-107234127D01*
X111468698Y-107209142D01*
X111575213Y-107192743D01*
X111655356Y-107186482D01*
X111761070Y-107186073D01*
X111863619Y-107194683D01*
G37*
G36*
X110758022Y-107181515D02*
G01*
X110757690Y-107188493D01*
X110754669Y-107205514D01*
X110749435Y-107230223D01*
X110742465Y-107260266D01*
X110740300Y-107269176D01*
X110720555Y-107351866D01*
X110701308Y-107436653D01*
X110682805Y-107522184D01*
X110665293Y-107607108D01*
X110649016Y-107690074D01*
X110634220Y-107769729D01*
X110621151Y-107844723D01*
X110610055Y-107913703D01*
X110601176Y-107975318D01*
X110594761Y-108028217D01*
X110591056Y-108071047D01*
X110590202Y-108095173D01*
X110590151Y-108126365D01*
X110642934Y-108122344D01*
X110671954Y-108119909D01*
X110699898Y-108117186D01*
X110721301Y-108114714D01*
X110723464Y-108114419D01*
X110745819Y-108113492D01*
X110757638Y-108117714D01*
X110759476Y-108125850D01*
X110751887Y-108136666D01*
X110735425Y-108148928D01*
X110710645Y-108161402D01*
X110700556Y-108165423D01*
X110671785Y-108175069D01*
X110641017Y-108183634D01*
X110619500Y-108188365D01*
X110599198Y-108192184D01*
X110584820Y-108195284D01*
X110580001Y-108196758D01*
X110578593Y-108203934D01*
X110576796Y-108221590D01*
X110574745Y-108247420D01*
X110572578Y-108279120D01*
X110570429Y-108314385D01*
X110568436Y-108350909D01*
X110566735Y-108386387D01*
X110565462Y-108418514D01*
X110564753Y-108444984D01*
X110564653Y-108456365D01*
X110566836Y-108504211D01*
X110572821Y-108549756D01*
X110581986Y-108589226D01*
X110590400Y-108612198D01*
X110604223Y-108631225D01*
X110625865Y-108643128D01*
X110656718Y-108648465D01*
X110681431Y-108648710D01*
X110705343Y-108648149D01*
X110719326Y-108648999D01*
X110726232Y-108652089D01*
X110728913Y-108658246D01*
X110729555Y-108662680D01*
X110729620Y-108667459D01*
X110727691Y-108671824D01*
X110722434Y-108676339D01*
X110712513Y-108681570D01*
X110696593Y-108688082D01*
X110673339Y-108696442D01*
X110641416Y-108707215D01*
X110599489Y-108720965D01*
X110567097Y-108731489D01*
X110522812Y-108745708D01*
X110481857Y-108758579D01*
X110446003Y-108769566D01*
X110417024Y-108778135D01*
X110396692Y-108783750D01*
X110386879Y-108785872D01*
X110379812Y-108785605D01*
X110374315Y-108782301D01*
X110369354Y-108773880D01*
X110363893Y-108758259D01*
X110356899Y-108733355D01*
X110352452Y-108716574D01*
X110340892Y-108663897D01*
X110332720Y-108605884D01*
X110327897Y-108541277D01*
X110326385Y-108468817D01*
X110328146Y-108387246D01*
X110333141Y-108295306D01*
X110337766Y-108233526D01*
X110342196Y-108179144D01*
X110231047Y-108152165D01*
X110188859Y-108142362D01*
X110145836Y-108133141D01*
X110103891Y-108124832D01*
X110064937Y-108117764D01*
X110030887Y-108112269D01*
X110003652Y-108108675D01*
X109985145Y-108107313D01*
X109977375Y-108108401D01*
X109972487Y-108114833D01*
X109962208Y-108129242D01*
X109948371Y-108149043D01*
X109941415Y-108159107D01*
X109924447Y-108183492D01*
X109901868Y-108215589D01*
X109875569Y-108252745D01*
X109847440Y-108292304D01*
X109819370Y-108331613D01*
X109793250Y-108368016D01*
X109770971Y-108398861D01*
X109758566Y-108415869D01*
X109746792Y-108432113D01*
X109729514Y-108456223D01*
X109708587Y-108485595D01*
X109685866Y-108517629D01*
X109671872Y-108537431D01*
X109595814Y-108641769D01*
X109522236Y-108735768D01*
X109451456Y-108819068D01*
X109383797Y-108891309D01*
X109319577Y-108952129D01*
X109260584Y-109000088D01*
X109176461Y-109055627D01*
X109091236Y-109098648D01*
X109005103Y-109129091D01*
X108918257Y-109146896D01*
X108830892Y-109152007D01*
X108771675Y-109148243D01*
X108690900Y-109132907D01*
X108613620Y-109105952D01*
X108541277Y-109068226D01*
X108475313Y-109020573D01*
X108417169Y-108963840D01*
X108382406Y-108919903D01*
X108371379Y-108903043D01*
X108367465Y-108892085D01*
X108369586Y-108883099D01*
X108371414Y-108879916D01*
X108379561Y-108869318D01*
X108387052Y-108868865D01*
X108397774Y-108878633D01*
X108399449Y-108880482D01*
X108428701Y-108906898D01*
X108468004Y-108933246D01*
X108514689Y-108958042D01*
X108566089Y-108979802D01*
X108597179Y-108990500D01*
X108674002Y-109008019D01*
X108753099Y-109013105D01*
X108834152Y-109005854D01*
X108916845Y-108986364D01*
X109000862Y-108954733D01*
X109085886Y-108911058D01*
X109171602Y-108855436D01*
X109257692Y-108787965D01*
X109259446Y-108786470D01*
X109303106Y-108747236D01*
X109352287Y-108699686D01*
X109405053Y-108645899D01*
X109459469Y-108587959D01*
X109513596Y-108527947D01*
X109565501Y-108467943D01*
X109613246Y-108410029D01*
X109633652Y-108384183D01*
X109646137Y-108368248D01*
X109664716Y-108344703D01*
X109687499Y-108315938D01*
X109712594Y-108284341D01*
X109732930Y-108258797D01*
X109758444Y-108226624D01*
X109783034Y-108195319D01*
X109804834Y-108167282D01*
X109821976Y-108144913D01*
X109831045Y-108132758D01*
X109855472Y-108099169D01*
X109807505Y-108099169D01*
X109758101Y-108102279D01*
X109697879Y-108111629D01*
X109644849Y-108122903D01*
X109634018Y-108123224D01*
X109630574Y-108114888D01*
X109630453Y-108110697D01*
X109632706Y-108101224D01*
X109640527Y-108092330D01*
X109655516Y-108083076D01*
X109679267Y-108072527D01*
X109713378Y-108059744D01*
X109723224Y-108056261D01*
X109757355Y-108046505D01*
X109795786Y-108040221D01*
X109810406Y-108039060D01*
X110028866Y-108039060D01*
X110035650Y-108040909D01*
X110052770Y-108044451D01*
X110077943Y-108049243D01*
X110108890Y-108054843D01*
X110123517Y-108057409D01*
X110163516Y-108064681D01*
X110205729Y-108072890D01*
X110245348Y-108081073D01*
X110277563Y-108088261D01*
X110279849Y-108088806D01*
X110306897Y-108095271D01*
X110329109Y-108100539D01*
X110343670Y-108103942D01*
X110347803Y-108104860D01*
X110350744Y-108099531D01*
X110354062Y-108085078D01*
X110356059Y-108071977D01*
X110363602Y-108021848D01*
X110374493Y-107962121D01*
X110388127Y-107895367D01*
X110403902Y-107824161D01*
X110421214Y-107751074D01*
X110439459Y-107678679D01*
X110458036Y-107609548D01*
X110476339Y-107546255D01*
X110488402Y-107507614D01*
X110496478Y-107482212D01*
X110502779Y-107461475D01*
X110506424Y-107448355D01*
X110506977Y-107445487D01*
X110503002Y-107447700D01*
X110492329Y-107457602D01*
X110476839Y-107473388D01*
X110466990Y-107483880D01*
X110444065Y-107508634D01*
X110419663Y-107534966D01*
X110398413Y-107557881D01*
X110395012Y-107561546D01*
X110374050Y-107585088D01*
X110352205Y-107611104D01*
X110337430Y-107629783D01*
X110323940Y-107647505D01*
X110304938Y-107672362D01*
X110282724Y-107701352D01*
X110259595Y-107731473D01*
X110254257Y-107738416D01*
X110229180Y-107771081D01*
X110202493Y-107805950D01*
X110177249Y-107839024D01*
X110156504Y-107866307D01*
X110155030Y-107868252D01*
X110131902Y-107898725D01*
X110105370Y-107933597D01*
X110079816Y-107967112D01*
X110069976Y-107979992D01*
X110052836Y-108002851D01*
X110039315Y-108021737D01*
X110030891Y-108034529D01*
X110028866Y-108039060D01*
X109810406Y-108039060D01*
X109836964Y-108036951D01*
X109905918Y-108033360D01*
X109961725Y-107959730D01*
X109982837Y-107931874D01*
X110002175Y-107906358D01*
X110017935Y-107885561D01*
X110028315Y-107871863D01*
X110030126Y-107869473D01*
X110039517Y-107857334D01*
X110054461Y-107838300D01*
X110072519Y-107815469D01*
X110083496Y-107801662D01*
X110162207Y-107703861D01*
X110234450Y-107616264D01*
X110300743Y-107538353D01*
X110361603Y-107469611D01*
X110417546Y-107409520D01*
X110469091Y-107357564D01*
X110516754Y-107313224D01*
X110561052Y-107275983D01*
X110602503Y-107245324D01*
X110641624Y-107220728D01*
X110678932Y-107201680D01*
X110686401Y-107198414D01*
X110710294Y-107189441D01*
X110732475Y-107183121D01*
X110749552Y-107180254D01*
X110758022Y-107181515D01*
G37*
G36*
X108395642Y-107155603D02*
G01*
X108394192Y-107163183D01*
X108390197Y-107180893D01*
X108384193Y-107206442D01*
X108376711Y-107237542D01*
X108372725Y-107253884D01*
X108352320Y-107340039D01*
X108332257Y-107430261D01*
X108312871Y-107522697D01*
X108294498Y-107615496D01*
X108277473Y-107706804D01*
X108262133Y-107794771D01*
X108248813Y-107877545D01*
X108237849Y-107953271D01*
X108229577Y-108020100D01*
X108224839Y-108069460D01*
X108220895Y-108119727D01*
X108306579Y-108117445D01*
X108341327Y-108116659D01*
X108365329Y-108116612D01*
X108380627Y-108117514D01*
X108389260Y-108119574D01*
X108393269Y-108123002D01*
X108394443Y-108126467D01*
X108390156Y-108135811D01*
X108375699Y-108146668D01*
X108353435Y-108157984D01*
X108325730Y-108168705D01*
X108294948Y-108177776D01*
X108265950Y-108183757D01*
X108216858Y-108191568D01*
X108211948Y-108220545D01*
X108210553Y-108235124D01*
X108209307Y-108260294D01*
X108208268Y-108293851D01*
X108207497Y-108333589D01*
X108207053Y-108377305D01*
X108206969Y-108404194D01*
X108207047Y-108456669D01*
X108207608Y-108497946D01*
X108209069Y-108529626D01*
X108211848Y-108553307D01*
X108216360Y-108570587D01*
X108223024Y-108583066D01*
X108232254Y-108592343D01*
X108244469Y-108600017D01*
X108259994Y-108607643D01*
X108275901Y-108615826D01*
X108285545Y-108622156D01*
X108286876Y-108623909D01*
X108281247Y-108628224D01*
X108265745Y-108636243D01*
X108242451Y-108647102D01*
X108213447Y-108659938D01*
X108180813Y-108673886D01*
X108146630Y-108688083D01*
X108112978Y-108701665D01*
X108081939Y-108713768D01*
X108055592Y-108723528D01*
X108036020Y-108730083D01*
X108025302Y-108732567D01*
X108025125Y-108732569D01*
X108014392Y-108726467D01*
X108004360Y-108707941D01*
X108003380Y-108705378D01*
X107988923Y-108660545D01*
X107977863Y-108612108D01*
X107970136Y-108558764D01*
X107965675Y-108499212D01*
X107964412Y-108432151D01*
X107966283Y-108356279D01*
X107971221Y-108270295D01*
X107977319Y-108193539D01*
X107979055Y-108170225D01*
X107979782Y-108152790D01*
X107979389Y-108144292D01*
X107979112Y-108143921D01*
X107972680Y-108141838D01*
X107956144Y-108136069D01*
X107931422Y-108127303D01*
X107900435Y-108116233D01*
X107865101Y-108103548D01*
X107827340Y-108089940D01*
X107789072Y-108076098D01*
X107752216Y-108062715D01*
X107718691Y-108050480D01*
X107690417Y-108040084D01*
X107685466Y-108038251D01*
X107643879Y-108022832D01*
X107631083Y-108037728D01*
X107623337Y-108047064D01*
X107608981Y-108064667D01*
X107589406Y-108088818D01*
X107566006Y-108117799D01*
X107540170Y-108149892D01*
X107531914Y-108160167D01*
X107468965Y-108237406D01*
X107411886Y-108304925D01*
X107359661Y-108363793D01*
X107311275Y-108415076D01*
X107265712Y-108459842D01*
X107221958Y-108499158D01*
X107178997Y-108534090D01*
X107168650Y-108541971D01*
X107146067Y-108559204D01*
X107131652Y-108571784D01*
X107126156Y-108580639D01*
X107130328Y-108586697D01*
X107144916Y-108590885D01*
X107170670Y-108594131D01*
X107208339Y-108597363D01*
X107213739Y-108597797D01*
X107252427Y-108601758D01*
X107278337Y-108606385D01*
X107291470Y-108611668D01*
X107291827Y-108617594D01*
X107279407Y-108624150D01*
X107254212Y-108631327D01*
X107216242Y-108639111D01*
X107212015Y-108639873D01*
X107189850Y-108642861D01*
X107156991Y-108645969D01*
X107115535Y-108649054D01*
X107067581Y-108651971D01*
X107015226Y-108654577D01*
X106971983Y-108656327D01*
X106917635Y-108658246D01*
X106874195Y-108659590D01*
X106839786Y-108660311D01*
X106812530Y-108660367D01*
X106790550Y-108659710D01*
X106771970Y-108658297D01*
X106754912Y-108656082D01*
X106737499Y-108653020D01*
X106724225Y-108650376D01*
X106665769Y-108635549D01*
X106618407Y-108617029D01*
X106580828Y-108594265D01*
X106570325Y-108585705D01*
X106556902Y-108571412D01*
X106548531Y-108557767D01*
X106545965Y-108547281D01*
X106549960Y-108542462D01*
X106557821Y-108544121D01*
X106617484Y-108565344D01*
X106675287Y-108575598D01*
X106735104Y-108575345D01*
X106774816Y-108570130D01*
X106816468Y-108560950D01*
X106861643Y-108547675D01*
X106906249Y-108531761D01*
X106946192Y-108514664D01*
X106976371Y-108498474D01*
X107040792Y-108455630D01*
X107105216Y-108407677D01*
X107171225Y-108353292D01*
X107240401Y-108291155D01*
X107314322Y-108219942D01*
X107339192Y-108195067D01*
X107367736Y-108165822D01*
X107397203Y-108134814D01*
X107426259Y-108103536D01*
X107453568Y-108073484D01*
X107477792Y-108046151D01*
X107497597Y-108023032D01*
X107511647Y-108005620D01*
X107518605Y-107995410D01*
X107519118Y-107993836D01*
X107513175Y-107988668D01*
X107496830Y-107981989D01*
X107472308Y-107974360D01*
X107441834Y-107966341D01*
X107415323Y-107960257D01*
X107696829Y-107960257D01*
X107697190Y-107960950D01*
X107706673Y-107965382D01*
X107725719Y-107973252D01*
X107751867Y-107983620D01*
X107782657Y-107995544D01*
X107815628Y-108008083D01*
X107848321Y-108020296D01*
X107878274Y-108031240D01*
X107903027Y-108039976D01*
X107909395Y-108042133D01*
X107942216Y-108052711D01*
X107965051Y-108058665D01*
X107979891Y-108059873D01*
X107988727Y-108056211D01*
X107993552Y-108047557D01*
X107995889Y-108036788D01*
X108006424Y-107976488D01*
X108019321Y-107909985D01*
X108034006Y-107839740D01*
X108049906Y-107768208D01*
X108066450Y-107697850D01*
X108083064Y-107631122D01*
X108099176Y-107570484D01*
X108114213Y-107518392D01*
X108123308Y-107489777D01*
X108133347Y-107459085D01*
X108141459Y-107432997D01*
X108146977Y-107413766D01*
X108149234Y-107403643D01*
X108149148Y-107402683D01*
X108143363Y-107405554D01*
X108130550Y-107417368D01*
X108111649Y-107437058D01*
X108087605Y-107463557D01*
X108059357Y-107495799D01*
X108027849Y-107532716D01*
X107994022Y-107573241D01*
X107958819Y-107616307D01*
X107940856Y-107638633D01*
X107882544Y-107711762D01*
X107832371Y-107775226D01*
X107790241Y-107829154D01*
X107756057Y-107873675D01*
X107729720Y-107908918D01*
X107711135Y-107935010D01*
X107700203Y-107952080D01*
X107696829Y-107960257D01*
X107415323Y-107960257D01*
X107407632Y-107958492D01*
X107371929Y-107951373D01*
X107336949Y-107945545D01*
X107316378Y-107942799D01*
X107281485Y-107942451D01*
X107241600Y-107947860D01*
X107202234Y-107957888D01*
X107168898Y-107971397D01*
X107163548Y-107974352D01*
X107132252Y-107998088D01*
X107110567Y-108025999D01*
X107099145Y-108056235D01*
X107098637Y-108086943D01*
X107109694Y-108116272D01*
X107112260Y-108120246D01*
X107122138Y-108135255D01*
X107128072Y-108145322D01*
X107128841Y-108147273D01*
X107123789Y-108151744D01*
X107111454Y-108159004D01*
X107109720Y-108159912D01*
X107097101Y-108165467D01*
X107086994Y-108165488D01*
X107074102Y-108159276D01*
X107065700Y-108154081D01*
X107039523Y-108130659D01*
X107022844Y-108100895D01*
X107015567Y-108066910D01*
X107017593Y-108030826D01*
X107028824Y-107994764D01*
X107049162Y-107960845D01*
X107075904Y-107933296D01*
X107102100Y-107916228D01*
X107137152Y-107899811D01*
X107177150Y-107885620D01*
X107218188Y-107875232D01*
X107221612Y-107874572D01*
X107269993Y-107869678D01*
X107327444Y-107871042D01*
X107392001Y-107878441D01*
X107461700Y-107891651D01*
X107532492Y-107909845D01*
X107583076Y-107924497D01*
X107683855Y-107806037D01*
X107714351Y-107770136D01*
X107744237Y-107734851D01*
X107771804Y-107702209D01*
X107795343Y-107674235D01*
X107813144Y-107652956D01*
X107819365Y-107645451D01*
X107866886Y-107589297D01*
X107920834Y-107528080D01*
X107978074Y-107465239D01*
X108035472Y-107404213D01*
X108089894Y-107348444D01*
X108091363Y-107346972D01*
X108146748Y-107293736D01*
X108196813Y-107250403D01*
X108242895Y-107215947D01*
X108286330Y-107189341D01*
X108315420Y-107175041D01*
X108340560Y-107165008D01*
X108363791Y-107157624D01*
X108382379Y-107153552D01*
X108393592Y-107153454D01*
X108395642Y-107155603D01*
G37*
G36*
X108752188Y-106097230D02*
G01*
X108880723Y-106114012D01*
X108913879Y-106119772D01*
X108990702Y-106135030D01*
X109067723Y-106152933D01*
X109146018Y-106173876D01*
X109226663Y-106198252D01*
X109310736Y-106226456D01*
X109399313Y-106258882D01*
X109493469Y-106295924D01*
X109594283Y-106337976D01*
X109702830Y-106385434D01*
X109820187Y-106438689D01*
X109947431Y-106498138D01*
X109948154Y-106498480D01*
X110019144Y-106531944D01*
X110083897Y-106562248D01*
X110141691Y-106589064D01*
X110191803Y-106612063D01*
X110233511Y-106630918D01*
X110266095Y-106645301D01*
X110288832Y-106654882D01*
X110301000Y-106659334D01*
X110302552Y-106659622D01*
X110310838Y-106655805D01*
X110326081Y-106645635D01*
X110345477Y-106631033D01*
X110352713Y-106625243D01*
X110440855Y-106557625D01*
X110538147Y-106490208D01*
X110641105Y-106425222D01*
X110746246Y-106364894D01*
X110820478Y-106326027D01*
X110936443Y-106270950D01*
X111047231Y-106224970D01*
X111155649Y-106187179D01*
X111264500Y-106156671D01*
X111376589Y-106132541D01*
X111463476Y-106118228D01*
X111513195Y-106112569D01*
X111569858Y-106108735D01*
X111630299Y-106106727D01*
X111691352Y-106106545D01*
X111749852Y-106108189D01*
X111802633Y-106111660D01*
X111846529Y-106116957D01*
X111853753Y-106118197D01*
X111939022Y-106137464D01*
X112015836Y-106162448D01*
X112083426Y-106192755D01*
X112141023Y-106227986D01*
X112187861Y-106267746D01*
X112220520Y-106307583D01*
X112242540Y-106344178D01*
X112256606Y-106377874D01*
X112263919Y-106413123D01*
X112265678Y-106454373D01*
X112265114Y-106473099D01*
X112263208Y-106504386D01*
X112259996Y-106527799D01*
X112254317Y-106548256D01*
X112245012Y-106570678D01*
X112239204Y-106582986D01*
X112202944Y-106643927D01*
X112154732Y-106701301D01*
X112094978Y-106754848D01*
X112024093Y-106804307D01*
X111942486Y-106849418D01*
X111850567Y-106889920D01*
X111748747Y-106925552D01*
X111661813Y-106950027D01*
X111611683Y-106960495D01*
X111551494Y-106969306D01*
X111483898Y-106976307D01*
X111411543Y-106981342D01*
X111337078Y-106984259D01*
X111263154Y-106984903D01*
X111192420Y-106983121D01*
X111143577Y-106980140D01*
X111067389Y-106973275D01*
X110996309Y-106964940D01*
X110928151Y-106954653D01*
X110860728Y-106941930D01*
X110791855Y-106926287D01*
X110719346Y-106907240D01*
X110641015Y-106884306D01*
X110554676Y-106857002D01*
X110489501Y-106835432D01*
X110351781Y-106789193D01*
X110315815Y-106821097D01*
X110286857Y-106847580D01*
X110251583Y-106881097D01*
X110212054Y-106919577D01*
X110170333Y-106960946D01*
X110128481Y-107003135D01*
X110088560Y-107044069D01*
X110052633Y-107081679D01*
X110022762Y-107113892D01*
X110008509Y-107129874D01*
X109953524Y-107195632D01*
X109895468Y-107270056D01*
X109836562Y-107350157D01*
X109779026Y-107432949D01*
X109744599Y-107484962D01*
X109718141Y-107525814D01*
X109695833Y-107560464D01*
X109676434Y-107590951D01*
X109658702Y-107619315D01*
X109641393Y-107647597D01*
X109623268Y-107677837D01*
X109603082Y-107712073D01*
X109579595Y-107752348D01*
X109551565Y-107800699D01*
X109536202Y-107827254D01*
X109453855Y-107966966D01*
X109374109Y-108096641D01*
X109295578Y-108218400D01*
X109216876Y-108334364D01*
X109136615Y-108446655D01*
X109092945Y-108505441D01*
X109047710Y-108564843D01*
X109008378Y-108614736D01*
X108973791Y-108656283D01*
X108942793Y-108690648D01*
X108914226Y-108718993D01*
X108886934Y-108742483D01*
X108859759Y-108762279D01*
X108831544Y-108779546D01*
X108807726Y-108792180D01*
X108775151Y-108808533D01*
X108770952Y-108650589D01*
X108769659Y-108594972D01*
X108768520Y-108532626D01*
X108767600Y-108468262D01*
X108766966Y-108406592D01*
X108766684Y-108352330D01*
X108766676Y-108345491D01*
X108766045Y-108249611D01*
X108764311Y-108150029D01*
X108761566Y-108048665D01*
X108757903Y-107947439D01*
X108753413Y-107848273D01*
X108748189Y-107753084D01*
X108742323Y-107663795D01*
X108735908Y-107582324D01*
X108729035Y-107510592D01*
X108724801Y-107473601D01*
X108713604Y-107390386D01*
X108701804Y-107318828D01*
X108689033Y-107257789D01*
X108674923Y-107206134D01*
X108659105Y-107162724D01*
X108641212Y-107126424D01*
X108620876Y-107096095D01*
X108597727Y-107070602D01*
X108592838Y-107066083D01*
X108555841Y-107040111D01*
X108514715Y-107023737D01*
X108472136Y-107017451D01*
X108430779Y-107021746D01*
X108403898Y-107031354D01*
X108382002Y-107039347D01*
X108367099Y-107037687D01*
X108357150Y-107025786D01*
X108353723Y-107016862D01*
X108353011Y-107007394D01*
X108358441Y-106998239D01*
X108371699Y-106987822D01*
X108394471Y-106974572D01*
X108405095Y-106968925D01*
X108467286Y-106942081D01*
X108529563Y-106927056D01*
X108555592Y-106924147D01*
X108613892Y-106924298D01*
X108668585Y-106934646D01*
X108723720Y-106955989D01*
X108728195Y-106958158D01*
X108774452Y-106985941D01*
X108815023Y-107021393D01*
X108850254Y-107065207D01*
X108880493Y-107118074D01*
X108906085Y-107180684D01*
X108927378Y-107253729D01*
X108944719Y-107337900D01*
X108955681Y-107411385D01*
X108961867Y-107465733D01*
X108967948Y-107531094D01*
X108973835Y-107605685D01*
X108979439Y-107687724D01*
X108984670Y-107775427D01*
X108989441Y-107867013D01*
X108993661Y-107960698D01*
X108997242Y-108054699D01*
X109000095Y-108147235D01*
X109002130Y-108236521D01*
X109003259Y-108320775D01*
X109003464Y-108367884D01*
X109003514Y-108473451D01*
X109019447Y-108454257D01*
X109036363Y-108432108D01*
X109058934Y-108399772D01*
X109086563Y-108358227D01*
X109118652Y-108308450D01*
X109154604Y-108251418D01*
X109193819Y-108188108D01*
X109235701Y-108119496D01*
X109279651Y-108046561D01*
X109325072Y-107970280D01*
X109371365Y-107891628D01*
X109417932Y-107811584D01*
X109464176Y-107731125D01*
X109493192Y-107680101D01*
X109512276Y-107646882D01*
X109535658Y-107606927D01*
X109560892Y-107564372D01*
X109585534Y-107523355D01*
X109595767Y-107506521D01*
X109651625Y-107416335D01*
X109703442Y-107335718D01*
X109752730Y-107262711D01*
X109801001Y-107195355D01*
X109849766Y-107131691D01*
X109900538Y-107069760D01*
X109954830Y-107007602D01*
X110014152Y-106943260D01*
X110080018Y-106874774D01*
X110095792Y-106858696D01*
X110216633Y-106735920D01*
X110189265Y-106723814D01*
X110174289Y-106717512D01*
X110170076Y-106715803D01*
X110441945Y-106715803D01*
X110492056Y-106732140D01*
X110630267Y-106775269D01*
X110758707Y-106811307D01*
X110878133Y-106840433D01*
X110989304Y-106862825D01*
X111092979Y-106878662D01*
X111133980Y-106883352D01*
X111155533Y-106884812D01*
X111187425Y-106885974D01*
X111227201Y-106886798D01*
X111272406Y-106887244D01*
X111320585Y-106887273D01*
X111357909Y-106886989D01*
X111414997Y-106886151D01*
X111461640Y-106884981D01*
X111500189Y-106883330D01*
X111532994Y-106881050D01*
X111562405Y-106877993D01*
X111590773Y-106874010D01*
X111607430Y-106871260D01*
X111682515Y-106855180D01*
X111757797Y-106833208D01*
X111830790Y-106806380D01*
X111899005Y-106775729D01*
X111959955Y-106742291D01*
X112011154Y-106707102D01*
X112020855Y-106699233D01*
X112056977Y-106664781D01*
X112090884Y-106624787D01*
X112119849Y-106582902D01*
X112141141Y-106542776D01*
X112145063Y-106533133D01*
X112155382Y-106491537D01*
X112157704Y-106446103D01*
X112152268Y-106401303D01*
X112139313Y-106361611D01*
X112135499Y-106354049D01*
X112104703Y-106310538D01*
X112062994Y-106272005D01*
X112011385Y-106238800D01*
X111950891Y-106211271D01*
X111882528Y-106189766D01*
X111807310Y-106174633D01*
X111726253Y-106166221D01*
X111640369Y-106164878D01*
X111591435Y-106167280D01*
X111471741Y-106180783D01*
X111352843Y-106204245D01*
X111234082Y-106237952D01*
X111114799Y-106282191D01*
X110994336Y-106337249D01*
X110872033Y-106403413D01*
X110747231Y-106480969D01*
X110619271Y-106570205D01*
X110554962Y-106618479D01*
X110526372Y-106640772D01*
X110500002Y-106661974D01*
X110478220Y-106680133D01*
X110463395Y-106693301D01*
X110460066Y-106696604D01*
X110441945Y-106715803D01*
X110170076Y-106715803D01*
X110149955Y-106707641D01*
X110118842Y-106695233D01*
X110083533Y-106681317D01*
X110054525Y-106669998D01*
X110013969Y-106654149D01*
X109971993Y-106637581D01*
X109932320Y-106621776D01*
X109898672Y-106608214D01*
X109883173Y-106601871D01*
X109795367Y-106565754D01*
X109717363Y-106533993D01*
X109647232Y-106505839D01*
X109583041Y-106480543D01*
X109522861Y-106457357D01*
X109464760Y-106435533D01*
X109406807Y-106414321D01*
X109347072Y-106392974D01*
X109316952Y-106382373D01*
X109251081Y-106360596D01*
X109177569Y-106338544D01*
X109099643Y-106317038D01*
X109020531Y-106296897D01*
X108943460Y-106278941D01*
X108871658Y-106263990D01*
X108808352Y-106252864D01*
X108805113Y-106252369D01*
X108770424Y-106248299D01*
X108727182Y-106245056D01*
X108677911Y-106242661D01*
X108625132Y-106241134D01*
X108571369Y-106240497D01*
X108519145Y-106240769D01*
X108470983Y-106241972D01*
X108429405Y-106244125D01*
X108396935Y-106247249D01*
X108386045Y-106248962D01*
X108295700Y-106269908D01*
X108216637Y-106296738D01*
X108148739Y-106329520D01*
X108091889Y-106368322D01*
X108045970Y-106413212D01*
X108010867Y-106464257D01*
X108008182Y-106469254D01*
X107994745Y-106496859D01*
X107986791Y-106519933D01*
X107982593Y-106544517D01*
X107981065Y-106564124D01*
X107982277Y-106608504D01*
X107991993Y-106644387D01*
X108010798Y-106673325D01*
X108028120Y-106689107D01*
X108044372Y-106699921D01*
X108060145Y-106705490D01*
X108080942Y-106707403D01*
X108091812Y-106707500D01*
X108114070Y-106707982D01*
X108127089Y-106710331D01*
X108134404Y-106715673D01*
X108138266Y-106722305D01*
X108140248Y-106737030D01*
X108131400Y-106751334D01*
X108111033Y-106765988D01*
X108089493Y-106776892D01*
X108058538Y-106786193D01*
X108021725Y-106790042D01*
X107984430Y-106788369D01*
X107952031Y-106781107D01*
X107946041Y-106778728D01*
X107907121Y-106754993D01*
X107876216Y-106722438D01*
X107853599Y-106682428D01*
X107839542Y-106636331D01*
X107834316Y-106585514D01*
X107838196Y-106531343D01*
X107851453Y-106475185D01*
X107874266Y-106418596D01*
X107912100Y-106355746D01*
X107960952Y-106298138D01*
X108019888Y-106246441D01*
X108087973Y-106201322D01*
X108164275Y-106163452D01*
X108247860Y-106133499D01*
X108286876Y-106122958D01*
X108393251Y-106102612D01*
X108507138Y-106091537D01*
X108627221Y-106089741D01*
X108752188Y-106097230D01*
G37*
G36*
X107399919Y-106684132D02*
G01*
X107449074Y-106700136D01*
X107491953Y-106724154D01*
X107527024Y-106755430D01*
X107552757Y-106793208D01*
X107561383Y-106813547D01*
X107570115Y-106851067D01*
X107573826Y-106896055D01*
X107572575Y-106944236D01*
X107566426Y-106991336D01*
X107558351Y-107024307D01*
X107525078Y-107111609D01*
X107480168Y-107197942D01*
X107424778Y-107282129D01*
X107360067Y-107362993D01*
X107287192Y-107439357D01*
X107207311Y-107510044D01*
X107121580Y-107573875D01*
X107031158Y-107629674D01*
X106937201Y-107676264D01*
X106903641Y-107690199D01*
X106881640Y-107697979D01*
X106850621Y-107707778D01*
X106814007Y-107718617D01*
X106775217Y-107729518D01*
X106737676Y-107739501D01*
X106704805Y-107747590D01*
X106695867Y-107749610D01*
X106662767Y-107756877D01*
X106570292Y-107942418D01*
X106514564Y-108052892D01*
X106462917Y-108152385D01*
X106414794Y-108241841D01*
X106369641Y-108322204D01*
X106326901Y-108394420D01*
X106286019Y-108459433D01*
X106246437Y-108518187D01*
X106207602Y-108571628D01*
X106176844Y-108611008D01*
X106160711Y-108631931D01*
X106148811Y-108649190D01*
X106142687Y-108660435D01*
X106142434Y-108663324D01*
X106150227Y-108666754D01*
X106167341Y-108672201D01*
X106190652Y-108678704D01*
X106201133Y-108681415D01*
X106290128Y-108706567D01*
X106385353Y-108738639D01*
X106487500Y-108777911D01*
X106597258Y-108824663D01*
X106715318Y-108879178D01*
X106842370Y-108941735D01*
X106847558Y-108944363D01*
X106946244Y-108994346D01*
X107034402Y-109038890D01*
X107112881Y-109078410D01*
X107182529Y-109113323D01*
X107244195Y-109144043D01*
X107298730Y-109170987D01*
X107346981Y-109194570D01*
X107389798Y-109215210D01*
X107428030Y-109233321D01*
X107462525Y-109249319D01*
X107494134Y-109263621D01*
X107523704Y-109276643D01*
X107541511Y-109284308D01*
X107679439Y-109340226D01*
X107810924Y-109387319D01*
X107938107Y-109426253D01*
X108063129Y-109457691D01*
X108169170Y-109478994D01*
X108203123Y-109484798D01*
X108232793Y-109489135D01*
X108261126Y-109492218D01*
X108291066Y-109494259D01*
X108325558Y-109495469D01*
X108367547Y-109496061D01*
X108408438Y-109496232D01*
X108457698Y-109496174D01*
X108496641Y-109495695D01*
X108527743Y-109494630D01*
X108553483Y-109492810D01*
X108576335Y-109490068D01*
X108598778Y-109486238D01*
X108619413Y-109481995D01*
X108681597Y-109466168D01*
X108733663Y-109447368D01*
X108778158Y-109424461D01*
X108817628Y-109396313D01*
X108824204Y-109390768D01*
X108858230Y-109357084D01*
X108881309Y-109323341D01*
X108895027Y-109286892D01*
X108898990Y-109265968D01*
X108904279Y-109244069D01*
X108913108Y-109234055D01*
X108926454Y-109235273D01*
X108936627Y-109240853D01*
X108959347Y-109262997D01*
X108974270Y-109293038D01*
X108981298Y-109328656D01*
X108980334Y-109367530D01*
X108971283Y-109407339D01*
X108954048Y-109445763D01*
X108945696Y-109458991D01*
X108908492Y-109502623D01*
X108860300Y-109542179D01*
X108802482Y-109576948D01*
X108736396Y-109606220D01*
X108663401Y-109629281D01*
X108591401Y-109644388D01*
X108557221Y-109648371D01*
X108513370Y-109651137D01*
X108462918Y-109652687D01*
X108408931Y-109653024D01*
X108354478Y-109652151D01*
X108302625Y-109650070D01*
X108256442Y-109646785D01*
X108231412Y-109644069D01*
X108117557Y-109625909D01*
X107996246Y-109600020D01*
X107869681Y-109567063D01*
X107740067Y-109527698D01*
X107609610Y-109482584D01*
X107480513Y-109432382D01*
X107379656Y-109388983D01*
X107306502Y-109354915D01*
X107224956Y-109314888D01*
X107137249Y-109270074D01*
X107045615Y-109221646D01*
X106952285Y-109170774D01*
X106859492Y-109118632D01*
X106805743Y-109087656D01*
X106680548Y-109016298D01*
X106562944Y-108952362D01*
X106453290Y-108896020D01*
X106351943Y-108847445D01*
X106259262Y-108806813D01*
X106175606Y-108774295D01*
X106121158Y-108756004D01*
X106096141Y-108748660D01*
X106078120Y-108745713D01*
X106063320Y-108748078D01*
X106047970Y-108756673D01*
X106028297Y-108772415D01*
X106018251Y-108781023D01*
X105929652Y-108850864D01*
X105839371Y-108909067D01*
X105747893Y-108955771D01*
X105680224Y-108982064D01*
X105614116Y-108999854D01*
X105550875Y-109009135D01*
X105491802Y-109009901D01*
X105438203Y-109002144D01*
X105391381Y-108985858D01*
X105352638Y-108961036D01*
X105348950Y-108957806D01*
X105320905Y-108926498D01*
X105305197Y-108893624D01*
X105301676Y-108860540D01*
X105383487Y-108860540D01*
X105384086Y-108868026D01*
X105393171Y-108894088D01*
X105411147Y-108918447D01*
X105434360Y-108936879D01*
X105449210Y-108943316D01*
X105478024Y-108948183D01*
X105513819Y-108949132D01*
X105551434Y-108946279D01*
X105583983Y-108940202D01*
X105648770Y-108917458D01*
X105713470Y-108883413D01*
X105775992Y-108839404D01*
X105834247Y-108786768D01*
X105850161Y-108769953D01*
X105869975Y-108747778D01*
X105885819Y-108729139D01*
X105896121Y-108715952D01*
X105899308Y-108710133D01*
X105899273Y-108710088D01*
X105890863Y-108707545D01*
X105872319Y-108704939D01*
X105846305Y-108702429D01*
X105815482Y-108700176D01*
X105782511Y-108698339D01*
X105750055Y-108697080D01*
X105720774Y-108696558D01*
X105697330Y-108696933D01*
X105689294Y-108697447D01*
X105636738Y-108703657D01*
X105584652Y-108712589D01*
X105537499Y-108723385D01*
X105507696Y-108732313D01*
X105465805Y-108750799D01*
X105431139Y-108774292D01*
X105404997Y-108801364D01*
X105388680Y-108830590D01*
X105383487Y-108860540D01*
X105301676Y-108860540D01*
X105301364Y-108857612D01*
X105308295Y-108819095D01*
X105323772Y-108784786D01*
X105349782Y-108753407D01*
X105387123Y-108724162D01*
X105426254Y-108701475D01*
X105478345Y-108677482D01*
X105532404Y-108658858D01*
X105590410Y-108645260D01*
X105654340Y-108636340D01*
X105726174Y-108631755D01*
X105807889Y-108631158D01*
X105827087Y-108631521D01*
X105870673Y-108632469D01*
X105903250Y-108632946D01*
X105926603Y-108632816D01*
X105942514Y-108631945D01*
X105952767Y-108630198D01*
X105959145Y-108627442D01*
X105963431Y-108623541D01*
X105965363Y-108621099D01*
X105978744Y-108601285D01*
X105996780Y-108571463D01*
X106018654Y-108533189D01*
X106043545Y-108488021D01*
X106070635Y-108437516D01*
X106099103Y-108383230D01*
X106128131Y-108326722D01*
X106156900Y-108269546D01*
X106184589Y-108213262D01*
X106210381Y-108159425D01*
X106226531Y-108124761D01*
X106240355Y-108094986D01*
X106258351Y-108056678D01*
X106279107Y-108012816D01*
X106301212Y-107966378D01*
X106323253Y-107920346D01*
X106331381Y-107903451D01*
X106350207Y-107864229D01*
X106367038Y-107828891D01*
X106381117Y-107799047D01*
X106391687Y-107776308D01*
X106397994Y-107762282D01*
X106399471Y-107758459D01*
X106393809Y-107755336D01*
X106379559Y-107751785D01*
X106372279Y-107750500D01*
X106286550Y-107732164D01*
X106209148Y-107705850D01*
X106140529Y-107671999D01*
X106081153Y-107631050D01*
X106031477Y-107583443D01*
X105991959Y-107529620D01*
X105963057Y-107470018D01*
X105945228Y-107405080D01*
X105938932Y-107335245D01*
X105938927Y-107334033D01*
X105944973Y-107267931D01*
X105962749Y-107201956D01*
X105991229Y-107137253D01*
X106029390Y-107074967D01*
X106076204Y-107016242D01*
X106130647Y-106962221D01*
X106191694Y-106914050D01*
X106258319Y-106872872D01*
X106329496Y-106839832D01*
X106402753Y-106816432D01*
X106442602Y-106807286D01*
X106473953Y-106802298D01*
X106500362Y-106801334D01*
X106525384Y-106804260D01*
X106552038Y-106810786D01*
X106590780Y-106823846D01*
X106619614Y-106838499D01*
X106641423Y-106856499D01*
X106655054Y-106873467D01*
X106667728Y-106892985D01*
X106673532Y-106904258D01*
X106672461Y-106906597D01*
X106664510Y-106899311D01*
X106655162Y-106888497D01*
X106637883Y-106872283D01*
X106613457Y-106855274D01*
X106592878Y-106843853D01*
X106570535Y-106833475D01*
X106552199Y-106827196D01*
X106533075Y-106824015D01*
X106508372Y-106822932D01*
X106492337Y-106822864D01*
X106443888Y-106825402D01*
X106406068Y-106832945D01*
X106401138Y-106834552D01*
X106358412Y-106854037D01*
X106313153Y-106882864D01*
X106268043Y-106918692D01*
X106225762Y-106959177D01*
X106188988Y-107001975D01*
X106160404Y-107044744D01*
X106160097Y-107045290D01*
X106146754Y-107071640D01*
X106132286Y-107104112D01*
X106119375Y-107136612D01*
X106116849Y-107143614D01*
X106108089Y-107169703D01*
X106102338Y-107191238D01*
X106098978Y-107212370D01*
X106097390Y-107237249D01*
X106096954Y-107270026D01*
X106096950Y-107277028D01*
X106097404Y-107313426D01*
X106099090Y-107341242D01*
X106102555Y-107364674D01*
X106108348Y-107387918D01*
X106113644Y-107404987D01*
X106140347Y-107469585D01*
X106175680Y-107527065D01*
X106218532Y-107575906D01*
X106266375Y-107613684D01*
X106289378Y-107626846D01*
X106318761Y-107641382D01*
X106350634Y-107655599D01*
X106381109Y-107667808D01*
X106406295Y-107676317D01*
X106415861Y-107678689D01*
X106425598Y-107679989D01*
X106432927Y-107677975D01*
X106439868Y-107670550D01*
X106440609Y-107669259D01*
X106706574Y-107669259D01*
X106712281Y-107671246D01*
X106727766Y-107669930D01*
X106750572Y-107665761D01*
X106778243Y-107659189D01*
X106808325Y-107650667D01*
X106808942Y-107650477D01*
X106834365Y-107641246D01*
X106867091Y-107627370D01*
X106903356Y-107610625D01*
X106939396Y-107592791D01*
X106971447Y-107575643D01*
X106988085Y-107565877D01*
X107074172Y-107506718D01*
X107156272Y-107438706D01*
X107232368Y-107363886D01*
X107300444Y-107284305D01*
X107358484Y-107202007D01*
X107376943Y-107171397D01*
X107416024Y-107097603D01*
X107445141Y-107029626D01*
X107464219Y-106967795D01*
X107473184Y-106912438D01*
X107471964Y-106863885D01*
X107460483Y-106822463D01*
X107456929Y-106815023D01*
X107436866Y-106789323D01*
X107408625Y-106771690D01*
X107374262Y-106762512D01*
X107335836Y-106762178D01*
X107295401Y-106771073D01*
X107272542Y-106780281D01*
X107229378Y-106806288D01*
X107183992Y-106844317D01*
X107136798Y-106893870D01*
X107088210Y-106954447D01*
X107038641Y-107025549D01*
X106988505Y-107106677D01*
X106959080Y-107158579D01*
X106946990Y-107181130D01*
X106931192Y-107211459D01*
X106912387Y-107248150D01*
X106891276Y-107289786D01*
X106868559Y-107334950D01*
X106844937Y-107382226D01*
X106821110Y-107430197D01*
X106797779Y-107477447D01*
X106775644Y-107522558D01*
X106755405Y-107564115D01*
X106737763Y-107600701D01*
X106723419Y-107630898D01*
X106713072Y-107653290D01*
X106707424Y-107666462D01*
X106706574Y-107669259D01*
X106440609Y-107669259D01*
X106448442Y-107655616D01*
X106459570Y-107633314D01*
X106493113Y-107566265D01*
X106529587Y-107495756D01*
X106567850Y-107423840D01*
X106606765Y-107352566D01*
X106645192Y-107283987D01*
X106681991Y-107220153D01*
X106716024Y-107163116D01*
X106746151Y-107114926D01*
X106755195Y-107101083D01*
X106820919Y-107007445D01*
X106885976Y-106926204D01*
X106950809Y-106857007D01*
X107015864Y-106799504D01*
X107081584Y-106753343D01*
X107148414Y-106718173D01*
X107216799Y-106693642D01*
X107287182Y-106679400D01*
X107288903Y-106679181D01*
X107346018Y-106676895D01*
X107399919Y-106684132D01*
G37*
G36*
X112816015Y-106906975D02*
G01*
X112878705Y-106924139D01*
X112937895Y-106951037D01*
X112992059Y-106987195D01*
X113039670Y-107032137D01*
X113079202Y-107085388D01*
X113093483Y-107111011D01*
X113112940Y-107154712D01*
X113126713Y-107198994D01*
X113135660Y-107247564D01*
X113140639Y-107304126D01*
X113141247Y-107317023D01*
X113142319Y-107360777D01*
X113141629Y-107403217D01*
X113138887Y-107445331D01*
X113133801Y-107488107D01*
X113126080Y-107532532D01*
X113115434Y-107579596D01*
X113101570Y-107630287D01*
X113084199Y-107685593D01*
X113063027Y-107746502D01*
X113037765Y-107814002D01*
X113008121Y-107889082D01*
X112973804Y-107972730D01*
X112934522Y-108065934D01*
X112890044Y-108169547D01*
X112869012Y-108218781D01*
X112848784Y-108267203D01*
X112830174Y-108312782D01*
X112813998Y-108353485D01*
X112801071Y-108387280D01*
X112792207Y-108412136D01*
X112790167Y-108418510D01*
X112778211Y-108465432D01*
X112772539Y-108506035D01*
X112773230Y-108538846D01*
X112780363Y-108562391D01*
X112782319Y-108565505D01*
X112789764Y-108573987D01*
X112799304Y-108578008D01*
X112814993Y-108578628D01*
X112829343Y-108577786D01*
X112850933Y-108574960D01*
X112870717Y-108568831D01*
X112893036Y-108557731D01*
X112913745Y-108545329D01*
X112975012Y-108501937D01*
X113039044Y-108446398D01*
X113105868Y-108378676D01*
X113175512Y-108298737D01*
X113248004Y-108206544D01*
X113323371Y-108102062D01*
X113401640Y-107985255D01*
X113482840Y-107856088D01*
X113566997Y-107714525D01*
X113590499Y-107673703D01*
X113641188Y-107586190D01*
X113687316Y-107509013D01*
X113729728Y-107440911D01*
X113769269Y-107380622D01*
X113806782Y-107326882D01*
X113843113Y-107278431D01*
X113879105Y-107234006D01*
X113903656Y-107205634D01*
X113973303Y-107134533D01*
X114044831Y-107075916D01*
X114118155Y-107029834D01*
X114193190Y-106996334D01*
X114269851Y-106975465D01*
X114317486Y-106968949D01*
X114354369Y-106968118D01*
X114393028Y-106971235D01*
X114430110Y-106977665D01*
X114462260Y-106986771D01*
X114486121Y-106997919D01*
X114491562Y-107001901D01*
X114490566Y-107008110D01*
X114485842Y-107020050D01*
X114481875Y-107027805D01*
X114476777Y-107032479D01*
X114467803Y-107034601D01*
X114452213Y-107034694D01*
X114427262Y-107033286D01*
X114419493Y-107032778D01*
X114375433Y-107031658D01*
X114337057Y-107035285D01*
X114299764Y-107044597D01*
X114258955Y-107060527D01*
X114239861Y-107069321D01*
X114193573Y-107095069D01*
X114148515Y-107127951D01*
X114104268Y-107168566D01*
X114060413Y-107217511D01*
X114016531Y-107275382D01*
X113972202Y-107342778D01*
X113927008Y-107420295D01*
X113880528Y-107508530D01*
X113832344Y-107608081D01*
X113782037Y-107719544D01*
X113779701Y-107724887D01*
X113753643Y-107784539D01*
X113732068Y-107833924D01*
X113714338Y-107874500D01*
X113699814Y-107907725D01*
X113687859Y-107935059D01*
X113677835Y-107957961D01*
X113669105Y-107977889D01*
X113661029Y-107996303D01*
X113660810Y-107996801D01*
X113652857Y-108015099D01*
X113640927Y-108042767D01*
X113626052Y-108077402D01*
X113609266Y-108116598D01*
X113591600Y-108157951D01*
X113585290Y-108172746D01*
X113522590Y-108316707D01*
X113462089Y-108449031D01*
X113403278Y-108570583D01*
X113345648Y-108682233D01*
X113288689Y-108784847D01*
X113231893Y-108879293D01*
X113174751Y-108966440D01*
X113116752Y-109047154D01*
X113057388Y-109122303D01*
X112996150Y-109192755D01*
X112970475Y-109220387D01*
X112945504Y-109247594D01*
X112928518Y-109267974D01*
X112920010Y-109280893D01*
X112920018Y-109285619D01*
X113044263Y-109325089D01*
X113158863Y-109356888D01*
X113264371Y-109381075D01*
X113361340Y-109397708D01*
X113450323Y-109406848D01*
X113531873Y-109408551D01*
X113606544Y-109402877D01*
X113674888Y-109389885D01*
X113732054Y-109371749D01*
X113776565Y-109350972D01*
X113810839Y-109326059D01*
X113837269Y-109294931D01*
X113853319Y-109266391D01*
X113864087Y-109244937D01*
X113871773Y-109233317D01*
X113878158Y-109229529D01*
X113884553Y-109231312D01*
X113901920Y-109247010D01*
X113914259Y-109270574D01*
X113919174Y-109297347D01*
X113919182Y-109298594D01*
X113913003Y-109332148D01*
X113895573Y-109365913D01*
X113868348Y-109398603D01*
X113832787Y-109428933D01*
X113790347Y-109455617D01*
X113742484Y-109477371D01*
X113701991Y-109490175D01*
X113632700Y-109503513D01*
X113557256Y-109509311D01*
X113475125Y-109507490D01*
X113385775Y-109497973D01*
X113288670Y-109480682D01*
X113183279Y-109455539D01*
X113069067Y-109422467D01*
X112945501Y-109381387D01*
X112938858Y-109379047D01*
X112902831Y-109366527D01*
X112876850Y-109358107D01*
X112859000Y-109353343D01*
X112847365Y-109351787D01*
X112840031Y-109352993D01*
X112836490Y-109355192D01*
X112827344Y-109362988D01*
X112811187Y-109376809D01*
X112790717Y-109394345D01*
X112778262Y-109405025D01*
X112670269Y-109490330D01*
X112552264Y-109570065D01*
X112426139Y-109643354D01*
X112293787Y-109709322D01*
X112157100Y-109767090D01*
X112017970Y-109815784D01*
X111878290Y-109854528D01*
X111751385Y-109880552D01*
X111660088Y-109893754D01*
X111563496Y-109903712D01*
X111465440Y-109910209D01*
X111369752Y-109913027D01*
X111280264Y-109911950D01*
X111236347Y-109909705D01*
X111145235Y-109900133D01*
X111054787Y-109884064D01*
X110967782Y-109862216D01*
X110886998Y-109835307D01*
X110815215Y-109804055D01*
X110802725Y-109797634D01*
X110738631Y-109759328D01*
X110685876Y-109717793D01*
X110643152Y-109671759D01*
X110609152Y-109619956D01*
X110598603Y-109599245D01*
X110586853Y-109572829D01*
X110579487Y-109550552D01*
X110575213Y-109527068D01*
X110572736Y-109497030D01*
X110572407Y-109491000D01*
X110572115Y-109481133D01*
X110677555Y-109481133D01*
X110677836Y-109510251D01*
X110680091Y-109531800D01*
X110685351Y-109550974D01*
X110694645Y-109572965D01*
X110696580Y-109577103D01*
X110722182Y-109623365D01*
X110752977Y-109662676D01*
X110791722Y-109698143D01*
X110826294Y-109723179D01*
X110881382Y-109754533D01*
X110947158Y-109782492D01*
X111021842Y-109806522D01*
X111103650Y-109826088D01*
X111190799Y-109840656D01*
X111236347Y-109845952D01*
X111277025Y-109848614D01*
X111327079Y-109849731D01*
X111383196Y-109849412D01*
X111442062Y-109847761D01*
X111500363Y-109844884D01*
X111554788Y-109840887D01*
X111602022Y-109835877D01*
X111617027Y-109833785D01*
X111774488Y-109804114D01*
X111924914Y-109763811D01*
X112068261Y-109712896D01*
X112204485Y-109651389D01*
X112333545Y-109579313D01*
X112455397Y-109496687D01*
X112569998Y-109403533D01*
X112631108Y-109346661D01*
X112685491Y-109293579D01*
X112637506Y-109278444D01*
X112611458Y-109270423D01*
X112576806Y-109260038D01*
X112535635Y-109247888D01*
X112490030Y-109234573D01*
X112442076Y-109220691D01*
X112393857Y-109206840D01*
X112347460Y-109193620D01*
X112304968Y-109181630D01*
X112268467Y-109171468D01*
X112240042Y-109163734D01*
X112221778Y-109159026D01*
X112221637Y-109158992D01*
X112122555Y-109135802D01*
X112033704Y-109116199D01*
X111953123Y-109099890D01*
X111878850Y-109086579D01*
X111808922Y-109075975D01*
X111741379Y-109067783D01*
X111674258Y-109061710D01*
X111605596Y-109057462D01*
X111533433Y-109054746D01*
X111523181Y-109054477D01*
X111451003Y-109053286D01*
X111388665Y-109053768D01*
X111333293Y-109056157D01*
X111282012Y-109060686D01*
X111231949Y-109067588D01*
X111180228Y-109077098D01*
X111141163Y-109085506D01*
X111050887Y-109109787D01*
X110968688Y-109139891D01*
X110895416Y-109175349D01*
X110831919Y-109215692D01*
X110779044Y-109260448D01*
X110737862Y-109308835D01*
X110710894Y-109350953D01*
X110692792Y-109389158D01*
X110682220Y-109427263D01*
X110677844Y-109469082D01*
X110677555Y-109481133D01*
X110572115Y-109481133D01*
X110571410Y-109457350D01*
X110572861Y-109431048D01*
X110577283Y-109406792D01*
X110582649Y-109387461D01*
X110608410Y-109324673D01*
X110645941Y-109266306D01*
X110694926Y-109212579D01*
X110755051Y-109163712D01*
X110825998Y-109119923D01*
X110907452Y-109081431D01*
X110999097Y-109048456D01*
X111100618Y-109021217D01*
X111115467Y-109017903D01*
X111244175Y-108995483D01*
X111380065Y-108982803D01*
X111523358Y-108979864D01*
X111674271Y-108986670D01*
X111833023Y-109003224D01*
X111999833Y-109029529D01*
X112004105Y-109030311D01*
X112052654Y-109039302D01*
X112095986Y-109047564D01*
X112135601Y-109055487D01*
X112172999Y-109063461D01*
X112209678Y-109071879D01*
X112247138Y-109081129D01*
X112286878Y-109091604D01*
X112330398Y-109103694D01*
X112379196Y-109117789D01*
X112434772Y-109134280D01*
X112498626Y-109153559D01*
X112572256Y-109176015D01*
X112624006Y-109191868D01*
X112741664Y-109227949D01*
X112760489Y-109205788D01*
X112802627Y-109153634D01*
X112848449Y-109092328D01*
X112896243Y-109024320D01*
X112944294Y-108952059D01*
X112990887Y-108877993D01*
X112997302Y-108867444D01*
X113014743Y-108837766D01*
X113035516Y-108800969D01*
X113059006Y-108758255D01*
X113084602Y-108710825D01*
X113111691Y-108659880D01*
X113139660Y-108606622D01*
X113167895Y-108552251D01*
X113195785Y-108497969D01*
X113222717Y-108444977D01*
X113248076Y-108394477D01*
X113271252Y-108347669D01*
X113291630Y-108305755D01*
X113308599Y-108269936D01*
X113321544Y-108241413D01*
X113329854Y-108221388D01*
X113332916Y-108211061D01*
X113332701Y-108210014D01*
X113328204Y-108213773D01*
X113317962Y-108225487D01*
X113303928Y-108242887D01*
X113299229Y-108248930D01*
X113239006Y-108324221D01*
X113178542Y-108394470D01*
X113119104Y-108458363D01*
X113061957Y-108514583D01*
X113008368Y-108561817D01*
X112968087Y-108592836D01*
X112918771Y-108624513D01*
X112866508Y-108652050D01*
X112813966Y-108674383D01*
X112763815Y-108690451D01*
X112718724Y-108699189D01*
X112697849Y-108700485D01*
X112653546Y-108694758D01*
X112611158Y-108678366D01*
X112578468Y-108655991D01*
X112548503Y-108622932D01*
X112529103Y-108585243D01*
X112519966Y-108541813D01*
X112520790Y-108491528D01*
X112525401Y-108460437D01*
X112531401Y-108432409D01*
X112539359Y-108402865D01*
X112549761Y-108370620D01*
X112563092Y-108334492D01*
X112579840Y-108293298D01*
X112600491Y-108245854D01*
X112625532Y-108190977D01*
X112655448Y-108127484D01*
X112690726Y-108054190D01*
X112701515Y-108031990D01*
X112755244Y-107919580D01*
X112802074Y-107817195D01*
X112842242Y-107724237D01*
X112875988Y-107640112D01*
X112903550Y-107564224D01*
X112925166Y-107495976D01*
X112941075Y-107434773D01*
X112941672Y-107432125D01*
X112945870Y-107407757D01*
X112949829Y-107374755D01*
X112953129Y-107337278D01*
X112955346Y-107299486D01*
X112955487Y-107295994D01*
X112956689Y-107257980D01*
X112956761Y-107229312D01*
X112955447Y-107206567D01*
X112952493Y-107186325D01*
X112947643Y-107165165D01*
X112944995Y-107155239D01*
X112924865Y-107101147D01*
X112896928Y-107056119D01*
X112861932Y-107020790D01*
X112820626Y-106995797D01*
X112773756Y-106981773D01*
X112737341Y-106978824D01*
X112686821Y-106982982D01*
X112643803Y-106995868D01*
X112605614Y-107018448D01*
X112588617Y-107032645D01*
X112553876Y-107070033D01*
X112529480Y-107108649D01*
X112515874Y-107147203D01*
X112513504Y-107184404D01*
X112522815Y-107218960D01*
X112523709Y-107220827D01*
X112527275Y-107235054D01*
X112522523Y-107244820D01*
X112511926Y-107252701D01*
X112498403Y-107252290D01*
X112479783Y-107243140D01*
X112464760Y-107232907D01*
X112445908Y-107217152D01*
X112434608Y-107200763D01*
X112426986Y-107178722D01*
X112422320Y-107158411D01*
X112421436Y-107141790D01*
X112424497Y-107123000D01*
X112429008Y-107105655D01*
X112448591Y-107054402D01*
X112477268Y-107010943D01*
X112516080Y-106974010D01*
X112560780Y-106945169D01*
X112622207Y-106918643D01*
X112686239Y-106903752D01*
X112751351Y-106900021D01*
X112816015Y-106906975D01*
G37*
%TO.C,S1*%
D12*
X106290000Y-103850000D02*
X106290000Y-104050000D01*
X106290000Y-104050000D02*
X106410000Y-104050000D01*
X106410000Y-103850000D02*
X106290000Y-103850000D01*
X106410000Y-104050000D02*
X106410000Y-103850000D01*
%TO.C,S2*%
X109465000Y-103800000D02*
X109465000Y-104000000D01*
X109465000Y-104000000D02*
X109585000Y-104000000D01*
X109585000Y-103800000D02*
X109465000Y-103800000D01*
X109585000Y-104000000D02*
X109585000Y-103800000D01*
%TO.C,S3*%
X112940000Y-103850000D02*
X112940000Y-104050000D01*
X112940000Y-104050000D02*
X113060000Y-104050000D01*
X113060000Y-103850000D02*
X112940000Y-103850000D01*
X113060000Y-104050000D02*
X113060000Y-103850000D01*
%TD*%
M02*
