%TF.GenerationSoftware,KiCad,Pcbnew,10.0.1*%
%TF.CreationDate,2026-10-03T15:11:19+02:00*%
%TF.ProjectId,led_board,6c65645f-626f-4617-9264-2e6b69636164,rev?*%
%TF.SameCoordinates,Original*%
%TF.FileFunction,Drillmap*%
%TF.FilePolarity,Positive*%
%FSLAX45Y45*%
G04 Gerber Fmt 4.5, Leading zero omitted, Abs format (unit mm)*
G04 Created by KiCad (PCBNEW 10.0.1) date 2026-10-03 15:11:19*
%MOMM*%
%LPD*%
G01*
G04 APERTURE LIST*
%ADD10C,0.050000*%
%ADD11C,0.200000*%
%ADD12C,0.100000*%
G04 APERTURE END LIST*
D10*
X10000000Y-10100000D02*
G75*
G02*
X10100000Y-10000000I100000J0D01*
G01*
X10000000Y-10900000D02*
X10000000Y-10100000D01*
X10100000Y-10000000D02*
X11900000Y-10000000D01*
X10100000Y-11000000D02*
G75*
G02*
X10000000Y-10900000I0J100000D01*
G01*
X11900000Y-10000000D02*
G75*
G02*
X12000000Y-10100000I0J-100000D01*
G01*
X11900000Y-11000000D02*
X10100000Y-11000000D01*
X12000000Y-10100000D02*
X12000000Y-10900000D01*
X12000000Y-10900000D02*
G75*
G02*
X11900000Y-11000000I-100000J0D01*
G01*
D11*
D12*
X10572500Y-10475000D02*
X10602500Y-10505000D01*
X10602500Y-10475000D02*
X10572500Y-10505000D01*
X10595000Y-10685000D02*
X10625000Y-10715000D01*
X10625000Y-10685000D02*
X10595000Y-10715000D01*
X10778750Y-10145000D02*
X10808750Y-10175000D01*
X10808750Y-10145000D02*
X10778750Y-10175000D01*
X10890000Y-10475000D02*
X10920000Y-10505000D01*
X10920000Y-10475000D02*
X10890000Y-10505000D01*
X10890000Y-10685000D02*
X10920000Y-10715000D01*
X10920000Y-10685000D02*
X10890000Y-10715000D01*
X10985000Y-10475000D02*
X11015000Y-10505000D01*
X11015000Y-10475000D02*
X10985000Y-10505000D01*
X11111250Y-10145000D02*
X11141250Y-10175000D01*
X11141250Y-10145000D02*
X11111250Y-10175000D01*
X11332500Y-10475000D02*
X11362500Y-10505000D01*
X11362500Y-10475000D02*
X11332500Y-10505000D01*
X11332500Y-10685000D02*
X11362500Y-10715000D01*
X11362500Y-10685000D02*
X11332500Y-10715000D01*
X11440000Y-10700000D02*
X11470000Y-10730000D01*
X11470000Y-10700000D02*
X11440000Y-10730000D01*
D11*
X10258277Y-11313984D02*
X10258277Y-11113984D01*
X10258277Y-11113984D02*
X10305896Y-11113984D01*
X10305896Y-11113984D02*
X10334467Y-11123508D01*
X10334467Y-11123508D02*
X10353515Y-11142555D01*
X10353515Y-11142555D02*
X10363039Y-11161603D01*
X10363039Y-11161603D02*
X10372563Y-11199698D01*
X10372563Y-11199698D02*
X10372563Y-11228269D01*
X10372563Y-11228269D02*
X10363039Y-11266365D01*
X10363039Y-11266365D02*
X10353515Y-11285412D01*
X10353515Y-11285412D02*
X10334467Y-11304460D01*
X10334467Y-11304460D02*
X10305896Y-11313984D01*
X10305896Y-11313984D02*
X10258277Y-11313984D01*
X10458277Y-11313984D02*
X10458277Y-11180650D01*
X10458277Y-11218746D02*
X10467801Y-11199698D01*
X10467801Y-11199698D02*
X10477324Y-11190174D01*
X10477324Y-11190174D02*
X10496372Y-11180650D01*
X10496372Y-11180650D02*
X10515420Y-11180650D01*
X10582086Y-11313984D02*
X10582086Y-11180650D01*
X10582086Y-11113984D02*
X10572563Y-11123508D01*
X10572563Y-11123508D02*
X10582086Y-11133031D01*
X10582086Y-11133031D02*
X10591610Y-11123508D01*
X10591610Y-11123508D02*
X10582086Y-11113984D01*
X10582086Y-11113984D02*
X10582086Y-11133031D01*
X10705896Y-11313984D02*
X10686848Y-11304460D01*
X10686848Y-11304460D02*
X10677324Y-11285412D01*
X10677324Y-11285412D02*
X10677324Y-11113984D01*
X10810658Y-11313984D02*
X10791610Y-11304460D01*
X10791610Y-11304460D02*
X10782086Y-11285412D01*
X10782086Y-11285412D02*
X10782086Y-11113984D01*
X11039229Y-11313984D02*
X11039229Y-11113984D01*
X11039229Y-11113984D02*
X11105896Y-11256841D01*
X11105896Y-11256841D02*
X11172563Y-11113984D01*
X11172563Y-11113984D02*
X11172563Y-11313984D01*
X11353515Y-11313984D02*
X11353515Y-11209222D01*
X11353515Y-11209222D02*
X11343991Y-11190174D01*
X11343991Y-11190174D02*
X11324943Y-11180650D01*
X11324943Y-11180650D02*
X11286848Y-11180650D01*
X11286848Y-11180650D02*
X11267801Y-11190174D01*
X11353515Y-11304460D02*
X11334467Y-11313984D01*
X11334467Y-11313984D02*
X11286848Y-11313984D01*
X11286848Y-11313984D02*
X11267801Y-11304460D01*
X11267801Y-11304460D02*
X11258277Y-11285412D01*
X11258277Y-11285412D02*
X11258277Y-11266365D01*
X11258277Y-11266365D02*
X11267801Y-11247317D01*
X11267801Y-11247317D02*
X11286848Y-11237793D01*
X11286848Y-11237793D02*
X11334467Y-11237793D01*
X11334467Y-11237793D02*
X11353515Y-11228269D01*
X11448753Y-11180650D02*
X11448753Y-11380650D01*
X11448753Y-11190174D02*
X11467801Y-11180650D01*
X11467801Y-11180650D02*
X11505896Y-11180650D01*
X11505896Y-11180650D02*
X11524943Y-11190174D01*
X11524943Y-11190174D02*
X11534467Y-11199698D01*
X11534467Y-11199698D02*
X11543991Y-11218746D01*
X11543991Y-11218746D02*
X11543991Y-11275888D01*
X11543991Y-11275888D02*
X11534467Y-11294936D01*
X11534467Y-11294936D02*
X11524943Y-11304460D01*
X11524943Y-11304460D02*
X11505896Y-11313984D01*
X11505896Y-11313984D02*
X11467801Y-11313984D01*
X11467801Y-11313984D02*
X11448753Y-11304460D01*
X11629705Y-11294936D02*
X11639229Y-11304460D01*
X11639229Y-11304460D02*
X11629705Y-11313984D01*
X11629705Y-11313984D02*
X11620182Y-11304460D01*
X11620182Y-11304460D02*
X11629705Y-11294936D01*
X11629705Y-11294936D02*
X11629705Y-11313984D01*
X11629705Y-11190174D02*
X11639229Y-11199698D01*
X11639229Y-11199698D02*
X11629705Y-11209222D01*
X11629705Y-11209222D02*
X11620182Y-11199698D01*
X11620182Y-11199698D02*
X11629705Y-11190174D01*
X11629705Y-11190174D02*
X11629705Y-11209222D01*
D12*
X9967500Y-11627500D02*
X9997500Y-11657500D01*
X9997500Y-11627500D02*
X9967500Y-11657500D01*
D11*
X10296372Y-11533984D02*
X10315420Y-11533984D01*
X10315420Y-11533984D02*
X10334467Y-11543508D01*
X10334467Y-11543508D02*
X10343991Y-11553031D01*
X10343991Y-11553031D02*
X10353515Y-11572079D01*
X10353515Y-11572079D02*
X10363039Y-11610174D01*
X10363039Y-11610174D02*
X10363039Y-11657793D01*
X10363039Y-11657793D02*
X10353515Y-11695888D01*
X10353515Y-11695888D02*
X10343991Y-11714936D01*
X10343991Y-11714936D02*
X10334467Y-11724460D01*
X10334467Y-11724460D02*
X10315420Y-11733984D01*
X10315420Y-11733984D02*
X10296372Y-11733984D01*
X10296372Y-11733984D02*
X10277324Y-11724460D01*
X10277324Y-11724460D02*
X10267801Y-11714936D01*
X10267801Y-11714936D02*
X10258277Y-11695888D01*
X10258277Y-11695888D02*
X10248753Y-11657793D01*
X10248753Y-11657793D02*
X10248753Y-11610174D01*
X10248753Y-11610174D02*
X10258277Y-11572079D01*
X10258277Y-11572079D02*
X10267801Y-11553031D01*
X10267801Y-11553031D02*
X10277324Y-11543508D01*
X10277324Y-11543508D02*
X10296372Y-11533984D01*
X10448753Y-11714936D02*
X10458277Y-11724460D01*
X10458277Y-11724460D02*
X10448753Y-11733984D01*
X10448753Y-11733984D02*
X10439229Y-11724460D01*
X10439229Y-11724460D02*
X10448753Y-11714936D01*
X10448753Y-11714936D02*
X10448753Y-11733984D01*
X10524944Y-11533984D02*
X10648753Y-11533984D01*
X10648753Y-11533984D02*
X10582086Y-11610174D01*
X10582086Y-11610174D02*
X10610658Y-11610174D01*
X10610658Y-11610174D02*
X10629705Y-11619698D01*
X10629705Y-11619698D02*
X10639229Y-11629222D01*
X10639229Y-11629222D02*
X10648753Y-11648269D01*
X10648753Y-11648269D02*
X10648753Y-11695888D01*
X10648753Y-11695888D02*
X10639229Y-11714936D01*
X10639229Y-11714936D02*
X10629705Y-11724460D01*
X10629705Y-11724460D02*
X10610658Y-11733984D01*
X10610658Y-11733984D02*
X10553515Y-11733984D01*
X10553515Y-11733984D02*
X10534467Y-11724460D01*
X10534467Y-11724460D02*
X10524944Y-11714936D01*
X10772563Y-11533984D02*
X10791610Y-11533984D01*
X10791610Y-11533984D02*
X10810658Y-11543508D01*
X10810658Y-11543508D02*
X10820182Y-11553031D01*
X10820182Y-11553031D02*
X10829705Y-11572079D01*
X10829705Y-11572079D02*
X10839229Y-11610174D01*
X10839229Y-11610174D02*
X10839229Y-11657793D01*
X10839229Y-11657793D02*
X10829705Y-11695888D01*
X10829705Y-11695888D02*
X10820182Y-11714936D01*
X10820182Y-11714936D02*
X10810658Y-11724460D01*
X10810658Y-11724460D02*
X10791610Y-11733984D01*
X10791610Y-11733984D02*
X10772563Y-11733984D01*
X10772563Y-11733984D02*
X10753515Y-11724460D01*
X10753515Y-11724460D02*
X10743991Y-11714936D01*
X10743991Y-11714936D02*
X10734467Y-11695888D01*
X10734467Y-11695888D02*
X10724944Y-11657793D01*
X10724944Y-11657793D02*
X10724944Y-11610174D01*
X10724944Y-11610174D02*
X10734467Y-11572079D01*
X10734467Y-11572079D02*
X10743991Y-11553031D01*
X10743991Y-11553031D02*
X10753515Y-11543508D01*
X10753515Y-11543508D02*
X10772563Y-11533984D01*
X10963039Y-11533984D02*
X10982086Y-11533984D01*
X10982086Y-11533984D02*
X11001134Y-11543508D01*
X11001134Y-11543508D02*
X11010658Y-11553031D01*
X11010658Y-11553031D02*
X11020182Y-11572079D01*
X11020182Y-11572079D02*
X11029705Y-11610174D01*
X11029705Y-11610174D02*
X11029705Y-11657793D01*
X11029705Y-11657793D02*
X11020182Y-11695888D01*
X11020182Y-11695888D02*
X11010658Y-11714936D01*
X11010658Y-11714936D02*
X11001134Y-11724460D01*
X11001134Y-11724460D02*
X10982086Y-11733984D01*
X10982086Y-11733984D02*
X10963039Y-11733984D01*
X10963039Y-11733984D02*
X10943991Y-11724460D01*
X10943991Y-11724460D02*
X10934467Y-11714936D01*
X10934467Y-11714936D02*
X10924944Y-11695888D01*
X10924944Y-11695888D02*
X10915420Y-11657793D01*
X10915420Y-11657793D02*
X10915420Y-11610174D01*
X10915420Y-11610174D02*
X10924944Y-11572079D01*
X10924944Y-11572079D02*
X10934467Y-11553031D01*
X10934467Y-11553031D02*
X10943991Y-11543508D01*
X10943991Y-11543508D02*
X10963039Y-11533984D01*
X11115420Y-11733984D02*
X11115420Y-11600650D01*
X11115420Y-11619698D02*
X11124944Y-11610174D01*
X11124944Y-11610174D02*
X11143991Y-11600650D01*
X11143991Y-11600650D02*
X11172563Y-11600650D01*
X11172563Y-11600650D02*
X11191610Y-11610174D01*
X11191610Y-11610174D02*
X11201134Y-11629222D01*
X11201134Y-11629222D02*
X11201134Y-11733984D01*
X11201134Y-11629222D02*
X11210658Y-11610174D01*
X11210658Y-11610174D02*
X11229705Y-11600650D01*
X11229705Y-11600650D02*
X11258277Y-11600650D01*
X11258277Y-11600650D02*
X11277324Y-11610174D01*
X11277324Y-11610174D02*
X11286848Y-11629222D01*
X11286848Y-11629222D02*
X11286848Y-11733984D01*
X11382086Y-11733984D02*
X11382086Y-11600650D01*
X11382086Y-11619698D02*
X11391610Y-11610174D01*
X11391610Y-11610174D02*
X11410658Y-11600650D01*
X11410658Y-11600650D02*
X11439229Y-11600650D01*
X11439229Y-11600650D02*
X11458277Y-11610174D01*
X11458277Y-11610174D02*
X11467801Y-11629222D01*
X11467801Y-11629222D02*
X11467801Y-11733984D01*
X11467801Y-11629222D02*
X11477324Y-11610174D01*
X11477324Y-11610174D02*
X11496372Y-11600650D01*
X11496372Y-11600650D02*
X11524943Y-11600650D01*
X11524943Y-11600650D02*
X11543991Y-11610174D01*
X11543991Y-11610174D02*
X11553515Y-11629222D01*
X11553515Y-11629222D02*
X11553515Y-11733984D01*
X11943991Y-11524460D02*
X11772563Y-11781603D01*
X12201134Y-11533984D02*
X12220182Y-11533984D01*
X12220182Y-11533984D02*
X12239229Y-11543508D01*
X12239229Y-11543508D02*
X12248753Y-11553031D01*
X12248753Y-11553031D02*
X12258277Y-11572079D01*
X12258277Y-11572079D02*
X12267801Y-11610174D01*
X12267801Y-11610174D02*
X12267801Y-11657793D01*
X12267801Y-11657793D02*
X12258277Y-11695888D01*
X12258277Y-11695888D02*
X12248753Y-11714936D01*
X12248753Y-11714936D02*
X12239229Y-11724460D01*
X12239229Y-11724460D02*
X12220182Y-11733984D01*
X12220182Y-11733984D02*
X12201134Y-11733984D01*
X12201134Y-11733984D02*
X12182086Y-11724460D01*
X12182086Y-11724460D02*
X12172563Y-11714936D01*
X12172563Y-11714936D02*
X12163039Y-11695888D01*
X12163039Y-11695888D02*
X12153515Y-11657793D01*
X12153515Y-11657793D02*
X12153515Y-11610174D01*
X12153515Y-11610174D02*
X12163039Y-11572079D01*
X12163039Y-11572079D02*
X12172563Y-11553031D01*
X12172563Y-11553031D02*
X12182086Y-11543508D01*
X12182086Y-11543508D02*
X12201134Y-11533984D01*
X12353515Y-11714936D02*
X12363039Y-11724460D01*
X12363039Y-11724460D02*
X12353515Y-11733984D01*
X12353515Y-11733984D02*
X12343991Y-11724460D01*
X12343991Y-11724460D02*
X12353515Y-11714936D01*
X12353515Y-11714936D02*
X12353515Y-11733984D01*
X12486848Y-11533984D02*
X12505896Y-11533984D01*
X12505896Y-11533984D02*
X12524944Y-11543508D01*
X12524944Y-11543508D02*
X12534467Y-11553031D01*
X12534467Y-11553031D02*
X12543991Y-11572079D01*
X12543991Y-11572079D02*
X12553515Y-11610174D01*
X12553515Y-11610174D02*
X12553515Y-11657793D01*
X12553515Y-11657793D02*
X12543991Y-11695888D01*
X12543991Y-11695888D02*
X12534467Y-11714936D01*
X12534467Y-11714936D02*
X12524944Y-11724460D01*
X12524944Y-11724460D02*
X12505896Y-11733984D01*
X12505896Y-11733984D02*
X12486848Y-11733984D01*
X12486848Y-11733984D02*
X12467801Y-11724460D01*
X12467801Y-11724460D02*
X12458277Y-11714936D01*
X12458277Y-11714936D02*
X12448753Y-11695888D01*
X12448753Y-11695888D02*
X12439229Y-11657793D01*
X12439229Y-11657793D02*
X12439229Y-11610174D01*
X12439229Y-11610174D02*
X12448753Y-11572079D01*
X12448753Y-11572079D02*
X12458277Y-11553031D01*
X12458277Y-11553031D02*
X12467801Y-11543508D01*
X12467801Y-11543508D02*
X12486848Y-11533984D01*
X12743991Y-11733984D02*
X12629706Y-11733984D01*
X12686848Y-11733984D02*
X12686848Y-11533984D01*
X12686848Y-11533984D02*
X12667801Y-11562555D01*
X12667801Y-11562555D02*
X12648753Y-11581603D01*
X12648753Y-11581603D02*
X12629706Y-11591127D01*
X12934467Y-11733984D02*
X12820182Y-11733984D01*
X12877325Y-11733984D02*
X12877325Y-11533984D01*
X12877325Y-11533984D02*
X12858277Y-11562555D01*
X12858277Y-11562555D02*
X12839229Y-11581603D01*
X12839229Y-11581603D02*
X12820182Y-11591127D01*
X13048753Y-11619698D02*
X13029706Y-11610174D01*
X13029706Y-11610174D02*
X13020182Y-11600650D01*
X13020182Y-11600650D02*
X13010658Y-11581603D01*
X13010658Y-11581603D02*
X13010658Y-11572079D01*
X13010658Y-11572079D02*
X13020182Y-11553031D01*
X13020182Y-11553031D02*
X13029706Y-11543508D01*
X13029706Y-11543508D02*
X13048753Y-11533984D01*
X13048753Y-11533984D02*
X13086848Y-11533984D01*
X13086848Y-11533984D02*
X13105896Y-11543508D01*
X13105896Y-11543508D02*
X13115420Y-11553031D01*
X13115420Y-11553031D02*
X13124944Y-11572079D01*
X13124944Y-11572079D02*
X13124944Y-11581603D01*
X13124944Y-11581603D02*
X13115420Y-11600650D01*
X13115420Y-11600650D02*
X13105896Y-11610174D01*
X13105896Y-11610174D02*
X13086848Y-11619698D01*
X13086848Y-11619698D02*
X13048753Y-11619698D01*
X13048753Y-11619698D02*
X13029706Y-11629222D01*
X13029706Y-11629222D02*
X13020182Y-11638746D01*
X13020182Y-11638746D02*
X13010658Y-11657793D01*
X13010658Y-11657793D02*
X13010658Y-11695888D01*
X13010658Y-11695888D02*
X13020182Y-11714936D01*
X13020182Y-11714936D02*
X13029706Y-11724460D01*
X13029706Y-11724460D02*
X13048753Y-11733984D01*
X13048753Y-11733984D02*
X13086848Y-11733984D01*
X13086848Y-11733984D02*
X13105896Y-11724460D01*
X13105896Y-11724460D02*
X13115420Y-11714936D01*
X13115420Y-11714936D02*
X13124944Y-11695888D01*
X13124944Y-11695888D02*
X13124944Y-11657793D01*
X13124944Y-11657793D02*
X13115420Y-11638746D01*
X13115420Y-11638746D02*
X13105896Y-11629222D01*
X13105896Y-11629222D02*
X13086848Y-11619698D01*
X13201134Y-11533984D02*
X13201134Y-11572079D01*
X13277325Y-11533984D02*
X13277325Y-11572079D01*
X13572563Y-11810174D02*
X13563039Y-11800650D01*
X13563039Y-11800650D02*
X13543991Y-11772079D01*
X13543991Y-11772079D02*
X13534468Y-11753031D01*
X13534468Y-11753031D02*
X13524944Y-11724460D01*
X13524944Y-11724460D02*
X13515420Y-11676841D01*
X13515420Y-11676841D02*
X13515420Y-11638746D01*
X13515420Y-11638746D02*
X13524944Y-11591127D01*
X13524944Y-11591127D02*
X13534468Y-11562555D01*
X13534468Y-11562555D02*
X13543991Y-11543508D01*
X13543991Y-11543508D02*
X13563039Y-11514936D01*
X13563039Y-11514936D02*
X13572563Y-11505412D01*
X13753515Y-11733984D02*
X13639229Y-11733984D01*
X13696372Y-11733984D02*
X13696372Y-11533984D01*
X13696372Y-11533984D02*
X13677325Y-11562555D01*
X13677325Y-11562555D02*
X13658277Y-11581603D01*
X13658277Y-11581603D02*
X13639229Y-11591127D01*
X13877325Y-11533984D02*
X13896372Y-11533984D01*
X13896372Y-11533984D02*
X13915420Y-11543508D01*
X13915420Y-11543508D02*
X13924944Y-11553031D01*
X13924944Y-11553031D02*
X13934468Y-11572079D01*
X13934468Y-11572079D02*
X13943991Y-11610174D01*
X13943991Y-11610174D02*
X13943991Y-11657793D01*
X13943991Y-11657793D02*
X13934468Y-11695888D01*
X13934468Y-11695888D02*
X13924944Y-11714936D01*
X13924944Y-11714936D02*
X13915420Y-11724460D01*
X13915420Y-11724460D02*
X13896372Y-11733984D01*
X13896372Y-11733984D02*
X13877325Y-11733984D01*
X13877325Y-11733984D02*
X13858277Y-11724460D01*
X13858277Y-11724460D02*
X13848753Y-11714936D01*
X13848753Y-11714936D02*
X13839229Y-11695888D01*
X13839229Y-11695888D02*
X13829706Y-11657793D01*
X13829706Y-11657793D02*
X13829706Y-11610174D01*
X13829706Y-11610174D02*
X13839229Y-11572079D01*
X13839229Y-11572079D02*
X13848753Y-11553031D01*
X13848753Y-11553031D02*
X13858277Y-11543508D01*
X13858277Y-11543508D02*
X13877325Y-11533984D01*
X14182087Y-11733984D02*
X14182087Y-11533984D01*
X14267801Y-11733984D02*
X14267801Y-11629222D01*
X14267801Y-11629222D02*
X14258277Y-11610174D01*
X14258277Y-11610174D02*
X14239230Y-11600650D01*
X14239230Y-11600650D02*
X14210658Y-11600650D01*
X14210658Y-11600650D02*
X14191610Y-11610174D01*
X14191610Y-11610174D02*
X14182087Y-11619698D01*
X14391610Y-11733984D02*
X14372563Y-11724460D01*
X14372563Y-11724460D02*
X14363039Y-11714936D01*
X14363039Y-11714936D02*
X14353515Y-11695888D01*
X14353515Y-11695888D02*
X14353515Y-11638746D01*
X14353515Y-11638746D02*
X14363039Y-11619698D01*
X14363039Y-11619698D02*
X14372563Y-11610174D01*
X14372563Y-11610174D02*
X14391610Y-11600650D01*
X14391610Y-11600650D02*
X14420182Y-11600650D01*
X14420182Y-11600650D02*
X14439230Y-11610174D01*
X14439230Y-11610174D02*
X14448753Y-11619698D01*
X14448753Y-11619698D02*
X14458277Y-11638746D01*
X14458277Y-11638746D02*
X14458277Y-11695888D01*
X14458277Y-11695888D02*
X14448753Y-11714936D01*
X14448753Y-11714936D02*
X14439230Y-11724460D01*
X14439230Y-11724460D02*
X14420182Y-11733984D01*
X14420182Y-11733984D02*
X14391610Y-11733984D01*
X14572563Y-11733984D02*
X14553515Y-11724460D01*
X14553515Y-11724460D02*
X14543991Y-11705412D01*
X14543991Y-11705412D02*
X14543991Y-11533984D01*
X14724944Y-11724460D02*
X14705896Y-11733984D01*
X14705896Y-11733984D02*
X14667801Y-11733984D01*
X14667801Y-11733984D02*
X14648753Y-11724460D01*
X14648753Y-11724460D02*
X14639230Y-11705412D01*
X14639230Y-11705412D02*
X14639230Y-11629222D01*
X14639230Y-11629222D02*
X14648753Y-11610174D01*
X14648753Y-11610174D02*
X14667801Y-11600650D01*
X14667801Y-11600650D02*
X14705896Y-11600650D01*
X14705896Y-11600650D02*
X14724944Y-11610174D01*
X14724944Y-11610174D02*
X14734468Y-11629222D01*
X14734468Y-11629222D02*
X14734468Y-11648269D01*
X14734468Y-11648269D02*
X14639230Y-11667317D01*
X14810658Y-11724460D02*
X14829706Y-11733984D01*
X14829706Y-11733984D02*
X14867801Y-11733984D01*
X14867801Y-11733984D02*
X14886849Y-11724460D01*
X14886849Y-11724460D02*
X14896372Y-11705412D01*
X14896372Y-11705412D02*
X14896372Y-11695888D01*
X14896372Y-11695888D02*
X14886849Y-11676841D01*
X14886849Y-11676841D02*
X14867801Y-11667317D01*
X14867801Y-11667317D02*
X14839230Y-11667317D01*
X14839230Y-11667317D02*
X14820182Y-11657793D01*
X14820182Y-11657793D02*
X14810658Y-11638746D01*
X14810658Y-11638746D02*
X14810658Y-11629222D01*
X14810658Y-11629222D02*
X14820182Y-11610174D01*
X14820182Y-11610174D02*
X14839230Y-11600650D01*
X14839230Y-11600650D02*
X14867801Y-11600650D01*
X14867801Y-11600650D02*
X14886849Y-11610174D01*
X14963039Y-11810174D02*
X14972563Y-11800650D01*
X14972563Y-11800650D02*
X14991611Y-11772079D01*
X14991611Y-11772079D02*
X15001134Y-11753031D01*
X15001134Y-11753031D02*
X15010658Y-11724460D01*
X15010658Y-11724460D02*
X15020182Y-11676841D01*
X15020182Y-11676841D02*
X15020182Y-11638746D01*
X15020182Y-11638746D02*
X15010658Y-11591127D01*
X15010658Y-11591127D02*
X15001134Y-11562555D01*
X15001134Y-11562555D02*
X14991611Y-11543508D01*
X14991611Y-11543508D02*
X14972563Y-11514936D01*
X14972563Y-11514936D02*
X14963039Y-11505412D01*
M02*
